G04 #@! TF.GenerationSoftware,KiCad,Pcbnew,(5.1.2)-1*
G04 #@! TF.CreationDate,2019-06-29T15:08:14-05:00*
G04 #@! TF.ProjectId,TPDSI_1,54504453-495f-4312-9e6b-696361645f70,1.3*
G04 #@! TF.SameCoordinates,Original*
G04 #@! TF.FileFunction,Legend,Top*
G04 #@! TF.FilePolarity,Positive*
%FSLAX46Y46*%
G04 Gerber Fmt 4.6, Leading zero omitted, Abs format (unit mm)*
G04 Created by KiCad (PCBNEW (5.1.2)-1) date 2019-06-29 15:08:14*
%MOMM*%
%LPD*%
G04 APERTURE LIST*
%ADD10C,0.150000*%
%ADD11C,0.250000*%
%ADD12C,0.120000*%
G04 APERTURE END LIST*
D10*
X135176000Y-121102380D02*
X135176000Y-120102380D01*
X135556952Y-120102380D01*
X135652190Y-120150000D01*
X135699809Y-120197619D01*
X135747428Y-120292857D01*
X135747428Y-120435714D01*
X135699809Y-120530952D01*
X135652190Y-120578571D01*
X135556952Y-120626190D01*
X135176000Y-120626190D01*
X136366476Y-120102380D02*
X136556952Y-120102380D01*
X136652190Y-120150000D01*
X136747428Y-120245238D01*
X136795047Y-120435714D01*
X136795047Y-120769047D01*
X136747428Y-120959523D01*
X136652190Y-121054761D01*
X136556952Y-121102380D01*
X136366476Y-121102380D01*
X136271238Y-121054761D01*
X136176000Y-120959523D01*
X136128380Y-120769047D01*
X136128380Y-120435714D01*
X136176000Y-120245238D01*
X136271238Y-120150000D01*
X136366476Y-120102380D01*
X137080761Y-120102380D02*
X137652190Y-120102380D01*
X137366476Y-121102380D02*
X137366476Y-120102380D01*
X138699809Y-120816666D02*
X139176000Y-120816666D01*
X138604571Y-121102380D02*
X138937904Y-120102380D01*
X139271238Y-121102380D01*
X139604571Y-121102380D02*
X139604571Y-120102380D01*
X140176000Y-121102380D01*
X140176000Y-120102380D01*
X141176000Y-120150000D02*
X141080761Y-120102380D01*
X140937904Y-120102380D01*
X140795047Y-120150000D01*
X140699809Y-120245238D01*
X140652190Y-120340476D01*
X140604571Y-120530952D01*
X140604571Y-120673809D01*
X140652190Y-120864285D01*
X140699809Y-120959523D01*
X140795047Y-121054761D01*
X140937904Y-121102380D01*
X141033142Y-121102380D01*
X141176000Y-121054761D01*
X141223619Y-121007142D01*
X141223619Y-120673809D01*
X141033142Y-120673809D01*
X179070095Y-71382000D02*
X178974857Y-71334380D01*
X178832000Y-71334380D01*
X178689142Y-71382000D01*
X178593904Y-71477238D01*
X178546285Y-71572476D01*
X178498666Y-71762952D01*
X178498666Y-71905809D01*
X178546285Y-72096285D01*
X178593904Y-72191523D01*
X178689142Y-72286761D01*
X178832000Y-72334380D01*
X178927238Y-72334380D01*
X179070095Y-72286761D01*
X179117714Y-72239142D01*
X179117714Y-71905809D01*
X178927238Y-71905809D01*
X179546285Y-72334380D02*
X179546285Y-71334380D01*
X180117714Y-72334380D01*
X180117714Y-71334380D01*
X180593904Y-72334380D02*
X180593904Y-71334380D01*
X180832000Y-71334380D01*
X180974857Y-71382000D01*
X181070095Y-71477238D01*
X181117714Y-71572476D01*
X181165333Y-71762952D01*
X181165333Y-71905809D01*
X181117714Y-72096285D01*
X181070095Y-72191523D01*
X180974857Y-72286761D01*
X180832000Y-72334380D01*
X180593904Y-72334380D01*
X172958285Y-71953428D02*
X173720190Y-71953428D01*
X173339238Y-72334380D02*
X173339238Y-71572476D01*
X174244000Y-72334380D02*
X174434476Y-72334380D01*
X174529714Y-72286761D01*
X174577333Y-72239142D01*
X174672571Y-72096285D01*
X174720190Y-71905809D01*
X174720190Y-71524857D01*
X174672571Y-71429619D01*
X174624952Y-71382000D01*
X174529714Y-71334380D01*
X174339238Y-71334380D01*
X174244000Y-71382000D01*
X174196380Y-71429619D01*
X174148761Y-71524857D01*
X174148761Y-71762952D01*
X174196380Y-71858190D01*
X174244000Y-71905809D01*
X174339238Y-71953428D01*
X174529714Y-71953428D01*
X174624952Y-71905809D01*
X174672571Y-71858190D01*
X174720190Y-71762952D01*
X175005904Y-71334380D02*
X175339238Y-72334380D01*
X175672571Y-71334380D01*
X167600380Y-68579904D02*
X167600380Y-68008476D01*
X168600380Y-68294190D02*
X167600380Y-68294190D01*
X167600380Y-67770380D02*
X168600380Y-67103714D01*
X167600380Y-67103714D02*
X168600380Y-67770380D01*
X166060380Y-67984666D02*
X165584190Y-68318000D01*
X166060380Y-68556095D02*
X165060380Y-68556095D01*
X165060380Y-68175142D01*
X165108000Y-68079904D01*
X165155619Y-68032285D01*
X165250857Y-67984666D01*
X165393714Y-67984666D01*
X165488952Y-68032285D01*
X165536571Y-68079904D01*
X165584190Y-68175142D01*
X165584190Y-68556095D01*
X165060380Y-67651333D02*
X166060380Y-66984666D01*
X165060380Y-66984666D02*
X166060380Y-67651333D01*
X161186761Y-69032285D02*
X161234380Y-68889428D01*
X161234380Y-68651333D01*
X161186761Y-68556095D01*
X161139142Y-68508476D01*
X161043904Y-68460857D01*
X160948666Y-68460857D01*
X160853428Y-68508476D01*
X160805809Y-68556095D01*
X160758190Y-68651333D01*
X160710571Y-68841809D01*
X160662952Y-68937047D01*
X160615333Y-68984666D01*
X160520095Y-69032285D01*
X160424857Y-69032285D01*
X160329619Y-68984666D01*
X160282000Y-68937047D01*
X160234380Y-68841809D01*
X160234380Y-68603714D01*
X160282000Y-68460857D01*
X161234380Y-68032285D02*
X160234380Y-68032285D01*
X160234380Y-67794190D01*
X160282000Y-67651333D01*
X160377238Y-67556095D01*
X160472476Y-67508476D01*
X160662952Y-67460857D01*
X160805809Y-67460857D01*
X160996285Y-67508476D01*
X161091523Y-67556095D01*
X161186761Y-67651333D01*
X161234380Y-67794190D01*
X161234380Y-68032285D01*
X160948666Y-67079904D02*
X160948666Y-66603714D01*
X161234380Y-67175142D02*
X160234380Y-66841809D01*
X161234380Y-66508476D01*
X158392761Y-69008476D02*
X158440380Y-68865619D01*
X158440380Y-68627523D01*
X158392761Y-68532285D01*
X158345142Y-68484666D01*
X158249904Y-68437047D01*
X158154666Y-68437047D01*
X158059428Y-68484666D01*
X158011809Y-68532285D01*
X157964190Y-68627523D01*
X157916571Y-68818000D01*
X157868952Y-68913238D01*
X157821333Y-68960857D01*
X157726095Y-69008476D01*
X157630857Y-69008476D01*
X157535619Y-68960857D01*
X157488000Y-68913238D01*
X157440380Y-68818000D01*
X157440380Y-68579904D01*
X157488000Y-68437047D01*
X158345142Y-67437047D02*
X158392761Y-67484666D01*
X158440380Y-67627523D01*
X158440380Y-67722761D01*
X158392761Y-67865619D01*
X158297523Y-67960857D01*
X158202285Y-68008476D01*
X158011809Y-68056095D01*
X157868952Y-68056095D01*
X157678476Y-68008476D01*
X157583238Y-67960857D01*
X157488000Y-67865619D01*
X157440380Y-67722761D01*
X157440380Y-67627523D01*
X157488000Y-67484666D01*
X157535619Y-67437047D01*
X158440380Y-66532285D02*
X158440380Y-67008476D01*
X157440380Y-67008476D01*
X153614380Y-68556095D02*
X152614380Y-68556095D01*
X152614380Y-68318000D01*
X152662000Y-68175142D01*
X152757238Y-68079904D01*
X152852476Y-68032285D01*
X153042952Y-67984666D01*
X153185809Y-67984666D01*
X153376285Y-68032285D01*
X153471523Y-68079904D01*
X153566761Y-68175142D01*
X153614380Y-68318000D01*
X153614380Y-68556095D01*
X153042952Y-67413238D02*
X152995333Y-67508476D01*
X152947714Y-67556095D01*
X152852476Y-67603714D01*
X152804857Y-67603714D01*
X152709619Y-67556095D01*
X152662000Y-67508476D01*
X152614380Y-67413238D01*
X152614380Y-67222761D01*
X152662000Y-67127523D01*
X152709619Y-67079904D01*
X152804857Y-67032285D01*
X152852476Y-67032285D01*
X152947714Y-67079904D01*
X152995333Y-67127523D01*
X153042952Y-67222761D01*
X153042952Y-67413238D01*
X153090571Y-67508476D01*
X153138190Y-67556095D01*
X153233428Y-67603714D01*
X153423904Y-67603714D01*
X153519142Y-67556095D01*
X153566761Y-67508476D01*
X153614380Y-67413238D01*
X153614380Y-67222761D01*
X153566761Y-67127523D01*
X153519142Y-67079904D01*
X153423904Y-67032285D01*
X153233428Y-67032285D01*
X153138190Y-67079904D01*
X153090571Y-67127523D01*
X153042952Y-67222761D01*
X151074380Y-68556095D02*
X150074380Y-68556095D01*
X150074380Y-68318000D01*
X150122000Y-68175142D01*
X150217238Y-68079904D01*
X150312476Y-68032285D01*
X150502952Y-67984666D01*
X150645809Y-67984666D01*
X150836285Y-68032285D01*
X150931523Y-68079904D01*
X151026761Y-68175142D01*
X151074380Y-68318000D01*
X151074380Y-68556095D01*
X151074380Y-67508476D02*
X151074380Y-67318000D01*
X151026761Y-67222761D01*
X150979142Y-67175142D01*
X150836285Y-67079904D01*
X150645809Y-67032285D01*
X150264857Y-67032285D01*
X150169619Y-67079904D01*
X150122000Y-67127523D01*
X150074380Y-67222761D01*
X150074380Y-67413238D01*
X150122000Y-67508476D01*
X150169619Y-67556095D01*
X150264857Y-67603714D01*
X150502952Y-67603714D01*
X150598190Y-67556095D01*
X150645809Y-67508476D01*
X150693428Y-67413238D01*
X150693428Y-67222761D01*
X150645809Y-67127523D01*
X150598190Y-67079904D01*
X150502952Y-67032285D01*
X148280380Y-68556094D02*
X147280380Y-68556094D01*
X147280380Y-68317999D01*
X147328000Y-68175142D01*
X147423238Y-68079904D01*
X147518476Y-68032285D01*
X147708952Y-67984666D01*
X147851809Y-67984666D01*
X148042285Y-68032285D01*
X148137523Y-68079904D01*
X148232761Y-68175142D01*
X148280380Y-68317999D01*
X148280380Y-68556094D01*
X148280380Y-67032285D02*
X148280380Y-67603713D01*
X148280380Y-67317999D02*
X147280380Y-67317999D01*
X147423238Y-67413237D01*
X147518476Y-67508475D01*
X147566095Y-67603713D01*
X147280380Y-66413237D02*
X147280380Y-66317999D01*
X147328000Y-66222761D01*
X147375619Y-66175142D01*
X147470857Y-66127523D01*
X147661333Y-66079904D01*
X147899428Y-66079904D01*
X148089904Y-66127523D01*
X148185142Y-66175142D01*
X148232761Y-66222761D01*
X148280380Y-66317999D01*
X148280380Y-66413237D01*
X148232761Y-66508475D01*
X148185142Y-66556094D01*
X148089904Y-66603713D01*
X147899428Y-66651332D01*
X147661333Y-66651332D01*
X147470857Y-66603713D01*
X147375619Y-66556094D01*
X147328000Y-66508475D01*
X147280380Y-66413237D01*
X140660380Y-68810095D02*
X139660380Y-68810095D01*
X139660380Y-68572000D01*
X139708000Y-68429142D01*
X139803238Y-68333904D01*
X139898476Y-68286285D01*
X140088952Y-68238666D01*
X140231809Y-68238666D01*
X140422285Y-68286285D01*
X140517523Y-68333904D01*
X140612761Y-68429142D01*
X140660380Y-68572000D01*
X140660380Y-68810095D01*
X140660380Y-67286285D02*
X140660380Y-67857714D01*
X140660380Y-67572000D02*
X139660380Y-67572000D01*
X139803238Y-67667238D01*
X139898476Y-67762476D01*
X139946095Y-67857714D01*
X138374380Y-68810095D02*
X137374380Y-68810095D01*
X137374380Y-68572000D01*
X137422000Y-68429142D01*
X137517238Y-68333904D01*
X137612476Y-68286285D01*
X137802952Y-68238666D01*
X137945809Y-68238666D01*
X138136285Y-68286285D01*
X138231523Y-68333904D01*
X138326761Y-68429142D01*
X138374380Y-68572000D01*
X138374380Y-68810095D01*
X137469619Y-67857714D02*
X137422000Y-67810095D01*
X137374380Y-67714857D01*
X137374380Y-67476761D01*
X137422000Y-67381523D01*
X137469619Y-67333904D01*
X137564857Y-67286285D01*
X137660095Y-67286285D01*
X137802952Y-67333904D01*
X138374380Y-67905333D01*
X138374380Y-67286285D01*
X135834380Y-68810095D02*
X134834380Y-68810095D01*
X134834380Y-68572000D01*
X134882000Y-68429142D01*
X134977238Y-68333904D01*
X135072476Y-68286285D01*
X135262952Y-68238666D01*
X135405809Y-68238666D01*
X135596285Y-68286285D01*
X135691523Y-68333904D01*
X135786761Y-68429142D01*
X135834380Y-68572000D01*
X135834380Y-68810095D01*
X134834380Y-67905333D02*
X134834380Y-67286285D01*
X135215333Y-67619619D01*
X135215333Y-67476761D01*
X135262952Y-67381523D01*
X135310571Y-67333904D01*
X135405809Y-67286285D01*
X135643904Y-67286285D01*
X135739142Y-67333904D01*
X135786761Y-67381523D01*
X135834380Y-67476761D01*
X135834380Y-67762476D01*
X135786761Y-67857714D01*
X135739142Y-67905333D01*
X133294380Y-68810095D02*
X132294380Y-68810095D01*
X132294380Y-68572000D01*
X132342000Y-68429142D01*
X132437238Y-68333904D01*
X132532476Y-68286285D01*
X132722952Y-68238666D01*
X132865809Y-68238666D01*
X133056285Y-68286285D01*
X133151523Y-68333904D01*
X133246761Y-68429142D01*
X133294380Y-68572000D01*
X133294380Y-68810095D01*
X132627714Y-67381523D02*
X133294380Y-67381523D01*
X132246761Y-67619619D02*
X132961047Y-67857714D01*
X132961047Y-67238666D01*
X130500380Y-68810095D02*
X129500380Y-68810095D01*
X129500380Y-68572000D01*
X129548000Y-68429142D01*
X129643238Y-68333904D01*
X129738476Y-68286285D01*
X129928952Y-68238666D01*
X130071809Y-68238666D01*
X130262285Y-68286285D01*
X130357523Y-68333904D01*
X130452761Y-68429142D01*
X130500380Y-68572000D01*
X130500380Y-68810095D01*
X129500380Y-67333904D02*
X129500380Y-67810095D01*
X129976571Y-67857714D01*
X129928952Y-67810095D01*
X129881333Y-67714857D01*
X129881333Y-67476761D01*
X129928952Y-67381523D01*
X129976571Y-67333904D01*
X130071809Y-67286285D01*
X130309904Y-67286285D01*
X130405142Y-67333904D01*
X130452761Y-67381523D01*
X130500380Y-67476761D01*
X130500380Y-67714857D01*
X130452761Y-67810095D01*
X130405142Y-67857714D01*
X127960380Y-68810095D02*
X126960380Y-68810095D01*
X126960380Y-68572000D01*
X127008000Y-68429142D01*
X127103238Y-68333904D01*
X127198476Y-68286285D01*
X127388952Y-68238666D01*
X127531809Y-68238666D01*
X127722285Y-68286285D01*
X127817523Y-68333904D01*
X127912761Y-68429142D01*
X127960380Y-68572000D01*
X127960380Y-68810095D01*
X126960380Y-67381523D02*
X126960380Y-67572000D01*
X127008000Y-67667238D01*
X127055619Y-67714857D01*
X127198476Y-67810095D01*
X127388952Y-67857714D01*
X127769904Y-67857714D01*
X127865142Y-67810095D01*
X127912761Y-67762476D01*
X127960380Y-67667238D01*
X127960380Y-67476761D01*
X127912761Y-67381523D01*
X127865142Y-67333904D01*
X127769904Y-67286285D01*
X127531809Y-67286285D01*
X127436571Y-67333904D01*
X127388952Y-67381523D01*
X127341333Y-67476761D01*
X127341333Y-67667238D01*
X127388952Y-67762476D01*
X127436571Y-67810095D01*
X127531809Y-67857714D01*
X125674380Y-68810095D02*
X124674380Y-68810095D01*
X124674380Y-68572000D01*
X124722000Y-68429142D01*
X124817238Y-68333904D01*
X124912476Y-68286285D01*
X125102952Y-68238666D01*
X125245809Y-68238666D01*
X125436285Y-68286285D01*
X125531523Y-68333904D01*
X125626761Y-68429142D01*
X125674380Y-68572000D01*
X125674380Y-68810095D01*
X124674380Y-67905333D02*
X124674380Y-67238666D01*
X125674380Y-67667238D01*
X122134380Y-69548190D02*
X122134380Y-68929142D01*
X122515333Y-69262476D01*
X122515333Y-69119619D01*
X122562952Y-69024380D01*
X122610571Y-68976761D01*
X122705809Y-68929142D01*
X122943904Y-68929142D01*
X123039142Y-68976761D01*
X123086761Y-69024380D01*
X123134380Y-69119619D01*
X123134380Y-69405333D01*
X123086761Y-69500571D01*
X123039142Y-69548190D01*
X123039142Y-68500571D02*
X123086761Y-68452952D01*
X123134380Y-68500571D01*
X123086761Y-68548190D01*
X123039142Y-68500571D01*
X123134380Y-68500571D01*
X122134380Y-68119619D02*
X122134380Y-67500571D01*
X122515333Y-67833904D01*
X122515333Y-67691047D01*
X122562952Y-67595809D01*
X122610571Y-67548190D01*
X122705809Y-67500571D01*
X122943904Y-67500571D01*
X123039142Y-67548190D01*
X123086761Y-67595809D01*
X123134380Y-67691047D01*
X123134380Y-67976761D01*
X123086761Y-68072000D01*
X123039142Y-68119619D01*
X122134380Y-67214857D02*
X123134380Y-66881523D01*
X122134380Y-66548190D01*
X119594380Y-68262476D02*
X119594380Y-68738666D01*
X120070571Y-68786285D01*
X120022952Y-68738666D01*
X119975333Y-68643428D01*
X119975333Y-68405333D01*
X120022952Y-68310095D01*
X120070571Y-68262476D01*
X120165809Y-68214857D01*
X120403904Y-68214857D01*
X120499142Y-68262476D01*
X120546761Y-68310095D01*
X120594380Y-68405333D01*
X120594380Y-68643428D01*
X120546761Y-68738666D01*
X120499142Y-68786285D01*
X119594380Y-67929142D02*
X120594380Y-67595809D01*
X119594380Y-67262476D01*
X116848000Y-68833904D02*
X116800380Y-68929142D01*
X116800380Y-69072000D01*
X116848000Y-69214857D01*
X116943238Y-69310095D01*
X117038476Y-69357714D01*
X117228952Y-69405333D01*
X117371809Y-69405333D01*
X117562285Y-69357714D01*
X117657523Y-69310095D01*
X117752761Y-69214857D01*
X117800380Y-69072000D01*
X117800380Y-68976761D01*
X117752761Y-68833904D01*
X117705142Y-68786285D01*
X117371809Y-68786285D01*
X117371809Y-68976761D01*
X117800380Y-68357714D02*
X116800380Y-68357714D01*
X117800380Y-67786285D01*
X116800380Y-67786285D01*
X117800380Y-67310095D02*
X116800380Y-67310095D01*
X116800380Y-67072000D01*
X116848000Y-66929142D01*
X116943238Y-66833904D01*
X117038476Y-66786285D01*
X117228952Y-66738666D01*
X117371809Y-66738666D01*
X117562285Y-66786285D01*
X117657523Y-66833904D01*
X117752761Y-66929142D01*
X117800380Y-67072000D01*
X117800380Y-67310095D01*
X109505904Y-97804666D02*
X109982095Y-97804666D01*
X109410666Y-98090380D02*
X109744000Y-97090380D01*
X110077333Y-98090380D01*
X110410666Y-98090380D02*
X110410666Y-97090380D01*
X110982095Y-98090380D01*
X110982095Y-97090380D01*
X111363047Y-97090380D02*
X111982095Y-97090380D01*
X111648761Y-97471333D01*
X111791619Y-97471333D01*
X111886857Y-97518952D01*
X111934476Y-97566571D01*
X111982095Y-97661809D01*
X111982095Y-97899904D01*
X111934476Y-97995142D01*
X111886857Y-98042761D01*
X111791619Y-98090380D01*
X111505904Y-98090380D01*
X111410666Y-98042761D01*
X111363047Y-97995142D01*
X109505904Y-95264666D02*
X109982095Y-95264666D01*
X109410666Y-95550380D02*
X109744000Y-94550380D01*
X110077333Y-95550380D01*
X110410666Y-95550380D02*
X110410666Y-94550380D01*
X110982095Y-95550380D01*
X110982095Y-94550380D01*
X111410666Y-94645619D02*
X111458285Y-94598000D01*
X111553523Y-94550380D01*
X111791619Y-94550380D01*
X111886857Y-94598000D01*
X111934476Y-94645619D01*
X111982095Y-94740857D01*
X111982095Y-94836095D01*
X111934476Y-94978952D01*
X111363047Y-95550380D01*
X111982095Y-95550380D01*
X109505904Y-92724666D02*
X109982095Y-92724666D01*
X109410666Y-93010380D02*
X109744000Y-92010380D01*
X110077333Y-93010380D01*
X110410666Y-93010380D02*
X110410666Y-92010380D01*
X110982095Y-93010380D01*
X110982095Y-92010380D01*
X111982095Y-93010380D02*
X111410666Y-93010380D01*
X111696380Y-93010380D02*
X111696380Y-92010380D01*
X111601142Y-92153238D01*
X111505904Y-92248476D01*
X111410666Y-92296095D01*
X109505904Y-90184666D02*
X109982095Y-90184666D01*
X109410666Y-90470380D02*
X109744000Y-89470380D01*
X110077333Y-90470380D01*
X110410666Y-90470380D02*
X110410666Y-89470380D01*
X110982095Y-90470380D01*
X110982095Y-89470380D01*
X111648761Y-89470380D02*
X111744000Y-89470380D01*
X111839238Y-89518000D01*
X111886857Y-89565619D01*
X111934476Y-89660857D01*
X111982095Y-89851333D01*
X111982095Y-90089428D01*
X111934476Y-90279904D01*
X111886857Y-90375142D01*
X111839238Y-90422761D01*
X111744000Y-90470380D01*
X111648761Y-90470380D01*
X111553523Y-90422761D01*
X111505904Y-90375142D01*
X111458285Y-90279904D01*
X111410666Y-90089428D01*
X111410666Y-89851333D01*
X111458285Y-89660857D01*
X111505904Y-89565619D01*
X111553523Y-89518000D01*
X111648761Y-89470380D01*
X108751904Y-86050380D02*
X108751904Y-85050380D01*
X109085238Y-85764666D01*
X109418571Y-85050380D01*
X109418571Y-86050380D01*
X110466190Y-85955142D02*
X110418571Y-86002761D01*
X110275714Y-86050380D01*
X110180476Y-86050380D01*
X110037619Y-86002761D01*
X109942380Y-85907523D01*
X109894761Y-85812285D01*
X109847142Y-85621809D01*
X109847142Y-85478952D01*
X109894761Y-85288476D01*
X109942380Y-85193238D01*
X110037619Y-85098000D01*
X110180476Y-85050380D01*
X110275714Y-85050380D01*
X110418571Y-85098000D01*
X110466190Y-85145619D01*
X111370952Y-86050380D02*
X110894761Y-86050380D01*
X110894761Y-85050380D01*
X112275714Y-86050380D02*
X111942380Y-85574190D01*
X111704285Y-86050380D02*
X111704285Y-85050380D01*
X112085238Y-85050380D01*
X112180476Y-85098000D01*
X112228095Y-85145619D01*
X112275714Y-85240857D01*
X112275714Y-85383714D01*
X112228095Y-85478952D01*
X112180476Y-85526571D01*
X112085238Y-85574190D01*
X111704285Y-85574190D01*
X109410666Y-82612380D02*
X109744000Y-83612380D01*
X110077333Y-82612380D01*
X110410666Y-83612380D02*
X110410666Y-82612380D01*
X110648761Y-82612380D01*
X110791619Y-82660000D01*
X110886857Y-82755238D01*
X110934476Y-82850476D01*
X110982095Y-83040952D01*
X110982095Y-83183809D01*
X110934476Y-83374285D01*
X110886857Y-83469523D01*
X110791619Y-83564761D01*
X110648761Y-83612380D01*
X110410666Y-83612380D01*
X111410666Y-83612380D02*
X111410666Y-82612380D01*
X111648761Y-82612380D01*
X111791619Y-82660000D01*
X111886857Y-82755238D01*
X111934476Y-82850476D01*
X111982095Y-83040952D01*
X111982095Y-83183809D01*
X111934476Y-83374285D01*
X111886857Y-83469523D01*
X111791619Y-83564761D01*
X111648761Y-83612380D01*
X111410666Y-83612380D01*
X109982095Y-80120000D02*
X109886857Y-80072380D01*
X109744000Y-80072380D01*
X109601142Y-80120000D01*
X109505904Y-80215238D01*
X109458285Y-80310476D01*
X109410666Y-80500952D01*
X109410666Y-80643809D01*
X109458285Y-80834285D01*
X109505904Y-80929523D01*
X109601142Y-81024761D01*
X109744000Y-81072380D01*
X109839238Y-81072380D01*
X109982095Y-81024761D01*
X110029714Y-80977142D01*
X110029714Y-80643809D01*
X109839238Y-80643809D01*
X110458285Y-81072380D02*
X110458285Y-80072380D01*
X111029714Y-81072380D01*
X111029714Y-80072380D01*
X111505904Y-81072380D02*
X111505904Y-80072380D01*
X111744000Y-80072380D01*
X111886857Y-80120000D01*
X111982095Y-80215238D01*
X112029714Y-80310476D01*
X112077333Y-80500952D01*
X112077333Y-80643809D01*
X112029714Y-80834285D01*
X111982095Y-80929523D01*
X111886857Y-81024761D01*
X111744000Y-81072380D01*
X111505904Y-81072380D01*
X109672571Y-78532380D02*
X109672571Y-77532380D01*
X109910666Y-77532380D01*
X110053523Y-77580000D01*
X110148761Y-77675238D01*
X110196380Y-77770476D01*
X110244000Y-77960952D01*
X110244000Y-78103809D01*
X110196380Y-78294285D01*
X110148761Y-78389523D01*
X110053523Y-78484761D01*
X109910666Y-78532380D01*
X109672571Y-78532380D01*
X110624952Y-78246666D02*
X111101142Y-78246666D01*
X110529714Y-78532380D02*
X110863047Y-77532380D01*
X111196380Y-78532380D01*
X111386857Y-77532380D02*
X111958285Y-77532380D01*
X111672571Y-78532380D02*
X111672571Y-77532380D01*
X110148761Y-75897142D02*
X110101142Y-75944761D01*
X109958285Y-75992380D01*
X109863047Y-75992380D01*
X109720190Y-75944761D01*
X109624952Y-75849523D01*
X109577333Y-75754285D01*
X109529714Y-75563809D01*
X109529714Y-75420952D01*
X109577333Y-75230476D01*
X109624952Y-75135238D01*
X109720190Y-75040000D01*
X109863047Y-74992380D01*
X109958285Y-74992380D01*
X110101142Y-75040000D01*
X110148761Y-75087619D01*
X111053523Y-75992380D02*
X110577333Y-75992380D01*
X110577333Y-74992380D01*
X111386857Y-75992380D02*
X111386857Y-74992380D01*
X111958285Y-75992380D02*
X111529714Y-75420952D01*
X111958285Y-74992380D02*
X111386857Y-75563809D01*
X109410666Y-73452380D02*
X109410666Y-72452380D01*
X109791619Y-72452380D01*
X109886857Y-72500000D01*
X109934476Y-72547619D01*
X109982095Y-72642857D01*
X109982095Y-72785714D01*
X109934476Y-72880952D01*
X109886857Y-72928571D01*
X109791619Y-72976190D01*
X109410666Y-72976190D01*
X110934476Y-72500000D02*
X110839238Y-72452380D01*
X110696380Y-72452380D01*
X110553523Y-72500000D01*
X110458285Y-72595238D01*
X110410666Y-72690476D01*
X110363047Y-72880952D01*
X110363047Y-73023809D01*
X110410666Y-73214285D01*
X110458285Y-73309523D01*
X110553523Y-73404761D01*
X110696380Y-73452380D01*
X110791619Y-73452380D01*
X110934476Y-73404761D01*
X110982095Y-73357142D01*
X110982095Y-73023809D01*
X110791619Y-73023809D01*
X111410666Y-73452380D02*
X111410666Y-72452380D01*
X111744000Y-73166666D01*
X112077333Y-72452380D01*
X112077333Y-73452380D01*
D11*
X157908394Y-72491380D02*
X157819108Y-73205666D01*
X157753632Y-73348523D01*
X157646489Y-73443761D01*
X157497680Y-73491380D01*
X157402442Y-73491380D01*
X158658394Y-72967571D02*
X158795299Y-73015190D01*
X158836966Y-73062809D01*
X158872680Y-73158047D01*
X158854823Y-73300904D01*
X158795299Y-73396142D01*
X158741727Y-73443761D01*
X158640537Y-73491380D01*
X158259585Y-73491380D01*
X158384585Y-72491380D01*
X158717918Y-72491380D01*
X158807204Y-72539000D01*
X158848870Y-72586619D01*
X158884585Y-72681857D01*
X158872680Y-72777095D01*
X158813156Y-72872333D01*
X158759585Y-72919952D01*
X158658394Y-72967571D01*
X158325061Y-72967571D01*
X159259585Y-73491380D02*
X159384585Y-72491380D01*
X159831013Y-73491380D01*
X159956013Y-72491380D01*
X160354823Y-73110428D02*
X161116727Y-73110428D01*
X161545299Y-73491380D02*
X161670299Y-72491380D01*
X161908394Y-72491380D01*
X162045299Y-72539000D01*
X162128632Y-72634238D01*
X162164347Y-72729476D01*
X162188156Y-72919952D01*
X162170299Y-73062809D01*
X162098870Y-73253285D01*
X162039347Y-73348523D01*
X161932204Y-73443761D01*
X161783394Y-73491380D01*
X161545299Y-73491380D01*
X163128632Y-73396142D02*
X163075061Y-73443761D01*
X162926251Y-73491380D01*
X162831013Y-73491380D01*
X162694108Y-73443761D01*
X162610775Y-73348523D01*
X162575061Y-73253285D01*
X162551251Y-73062809D01*
X162569108Y-72919952D01*
X162640537Y-72729476D01*
X162700061Y-72634238D01*
X162807204Y-72539000D01*
X162956013Y-72491380D01*
X163051251Y-72491380D01*
X163188156Y-72539000D01*
X163229823Y-72586619D01*
X163545299Y-73491380D02*
X163670299Y-72491380D01*
X156938156Y-75146142D02*
X156884585Y-75193761D01*
X156735775Y-75241380D01*
X156640537Y-75241380D01*
X156503632Y-75193761D01*
X156420299Y-75098523D01*
X156384585Y-75003285D01*
X156360775Y-74812809D01*
X156378632Y-74669952D01*
X156450061Y-74479476D01*
X156509585Y-74384238D01*
X156616727Y-74289000D01*
X156765537Y-74241380D01*
X156860775Y-74241380D01*
X156997680Y-74289000D01*
X157039347Y-74336619D01*
X157420299Y-74717571D02*
X157753632Y-74717571D01*
X157831013Y-75241380D02*
X157354823Y-75241380D01*
X157479823Y-74241380D01*
X157956013Y-74241380D01*
X158217918Y-75193761D02*
X158354823Y-75241380D01*
X158592918Y-75241380D01*
X158694108Y-75193761D01*
X158747680Y-75146142D01*
X158807204Y-75050904D01*
X158819108Y-74955666D01*
X158783394Y-74860428D01*
X158741727Y-74812809D01*
X158652442Y-74765190D01*
X158467918Y-74717571D01*
X158378632Y-74669952D01*
X158336966Y-74622333D01*
X158301251Y-74527095D01*
X158313156Y-74431857D01*
X158372680Y-74336619D01*
X158426251Y-74289000D01*
X158527442Y-74241380D01*
X158765537Y-74241380D01*
X158902442Y-74289000D01*
X159277442Y-74717571D02*
X159610775Y-74717571D01*
X159688156Y-75241380D02*
X159211966Y-75241380D01*
X159336966Y-74241380D01*
X159813156Y-74241380D01*
X160164347Y-74860428D02*
X160926251Y-74860428D01*
X161420299Y-74336619D02*
X161473870Y-74289000D01*
X161575061Y-74241380D01*
X161813156Y-74241380D01*
X161902442Y-74289000D01*
X161944108Y-74336619D01*
X161979823Y-74431857D01*
X161967918Y-74527095D01*
X161902442Y-74669952D01*
X161259585Y-75241380D01*
X161878632Y-75241380D01*
X162622680Y-74241380D02*
X162717918Y-74241380D01*
X162807204Y-74289000D01*
X162848870Y-74336619D01*
X162884585Y-74431857D01*
X162908394Y-74622333D01*
X162878632Y-74860428D01*
X162807204Y-75050904D01*
X162747680Y-75146142D01*
X162694108Y-75193761D01*
X162592918Y-75241380D01*
X162497680Y-75241380D01*
X162408394Y-75193761D01*
X162366727Y-75146142D01*
X162331013Y-75050904D01*
X162307204Y-74860428D01*
X162336966Y-74622333D01*
X162408394Y-74431857D01*
X162467918Y-74336619D01*
X162521489Y-74289000D01*
X162622680Y-74241380D01*
X163783394Y-75241380D02*
X163211966Y-75241380D01*
X163497680Y-75241380D02*
X163622680Y-74241380D01*
X163509585Y-74384238D01*
X163402442Y-74479476D01*
X163301251Y-74527095D01*
X164259585Y-75241380D02*
X164450061Y-75241380D01*
X164551251Y-75193761D01*
X164604823Y-75146142D01*
X164717918Y-75003285D01*
X164789347Y-74812809D01*
X164836966Y-74431857D01*
X164801251Y-74336619D01*
X164759585Y-74289000D01*
X164670299Y-74241380D01*
X164479823Y-74241380D01*
X164378632Y-74289000D01*
X164325061Y-74336619D01*
X164265537Y-74431857D01*
X164235775Y-74669952D01*
X164271489Y-74765190D01*
X164313156Y-74812809D01*
X164402442Y-74860428D01*
X164592918Y-74860428D01*
X164694108Y-74812809D01*
X164747680Y-74765190D01*
X164807204Y-74669952D01*
D10*
X127208857Y-119332761D02*
X127208857Y-120951809D01*
X127304095Y-121142285D01*
X127399333Y-121237523D01*
X127589809Y-121332761D01*
X127970761Y-121332761D01*
X128161238Y-121237523D01*
X128256476Y-121142285D01*
X128351714Y-120951809D01*
X128351714Y-119332761D01*
X129208857Y-121237523D02*
X129399333Y-121332761D01*
X129780285Y-121332761D01*
X129970761Y-121237523D01*
X130066000Y-121047047D01*
X130066000Y-120951809D01*
X129970761Y-120761333D01*
X129780285Y-120666095D01*
X129494571Y-120666095D01*
X129304095Y-120570857D01*
X129208857Y-120380380D01*
X129208857Y-120285142D01*
X129304095Y-120094666D01*
X129494571Y-119999428D01*
X129780285Y-119999428D01*
X129970761Y-120094666D01*
X131685047Y-121237523D02*
X131494571Y-121332761D01*
X131113619Y-121332761D01*
X130923142Y-121237523D01*
X130827904Y-121047047D01*
X130827904Y-120285142D01*
X130923142Y-120094666D01*
X131113619Y-119999428D01*
X131494571Y-119999428D01*
X131685047Y-120094666D01*
X131780285Y-120285142D01*
X131780285Y-120475619D01*
X130827904Y-120666095D01*
X132637428Y-121332761D02*
X132637428Y-119999428D01*
X132637428Y-120380380D02*
X132732666Y-120189904D01*
X132827904Y-120094666D01*
X133018380Y-119999428D01*
X133208857Y-119999428D01*
X117589809Y-121332761D02*
X116923142Y-120380380D01*
X116446952Y-121332761D02*
X116446952Y-119332761D01*
X117208857Y-119332761D01*
X117399333Y-119428000D01*
X117494571Y-119523238D01*
X117589809Y-119713714D01*
X117589809Y-119999428D01*
X117494571Y-120189904D01*
X117399333Y-120285142D01*
X117208857Y-120380380D01*
X116446952Y-120380380D01*
X119208857Y-121237523D02*
X119018380Y-121332761D01*
X118637428Y-121332761D01*
X118446952Y-121237523D01*
X118351714Y-121047047D01*
X118351714Y-120285142D01*
X118446952Y-120094666D01*
X118637428Y-119999428D01*
X119018380Y-119999428D01*
X119208857Y-120094666D01*
X119304095Y-120285142D01*
X119304095Y-120475619D01*
X118351714Y-120666095D01*
X120066000Y-121237523D02*
X120256476Y-121332761D01*
X120637428Y-121332761D01*
X120827904Y-121237523D01*
X120923142Y-121047047D01*
X120923142Y-120951809D01*
X120827904Y-120761333D01*
X120637428Y-120666095D01*
X120351714Y-120666095D01*
X120161238Y-120570857D01*
X120066000Y-120380380D01*
X120066000Y-120285142D01*
X120161238Y-120094666D01*
X120351714Y-119999428D01*
X120637428Y-119999428D01*
X120827904Y-120094666D01*
X122542190Y-121237523D02*
X122351714Y-121332761D01*
X121970761Y-121332761D01*
X121780285Y-121237523D01*
X121685047Y-121047047D01*
X121685047Y-120285142D01*
X121780285Y-120094666D01*
X121970761Y-119999428D01*
X122351714Y-119999428D01*
X122542190Y-120094666D01*
X122637428Y-120285142D01*
X122637428Y-120475619D01*
X121685047Y-120666095D01*
X123208857Y-119999428D02*
X123970761Y-119999428D01*
X123494571Y-119332761D02*
X123494571Y-121047047D01*
X123589809Y-121237523D01*
X123780285Y-121332761D01*
X123970761Y-121332761D01*
X136197000Y-73441000D02*
X135622000Y-73441000D01*
X136197000Y-83791000D02*
X135522000Y-83791000D01*
X125847000Y-83791000D02*
X126522000Y-83791000D01*
X125847000Y-73441000D02*
X126522000Y-73441000D01*
X136197000Y-73441000D02*
X136197000Y-74116000D01*
X125847000Y-73441000D02*
X125847000Y-74116000D01*
X125847000Y-83791000D02*
X125847000Y-83116000D01*
X136197000Y-83791000D02*
X136197000Y-83116000D01*
X135622000Y-73441000D02*
X135622000Y-72166000D01*
D12*
X182067200Y-63088000D02*
X171907200Y-63088000D01*
X182067200Y-70708000D02*
X182067200Y-63088000D01*
X171907200Y-70708000D02*
X182067200Y-70708000D01*
X171907200Y-63088000D02*
X171907200Y-70708000D01*
X171907200Y-64358000D02*
X182067200Y-64358000D01*
X149117000Y-120615000D02*
X149117000Y-118335000D01*
X149117000Y-120615000D02*
X151827000Y-120615000D01*
X149367000Y-120360000D02*
X149367000Y-101070000D01*
X149367000Y-101070000D02*
X174617000Y-101070000D01*
X174617000Y-101070000D02*
X174617000Y-120360000D01*
X174617000Y-120360000D02*
X149367000Y-120360000D01*
X138923000Y-63318000D02*
X138923000Y-65978000D01*
X138923000Y-63318000D02*
X116003000Y-63318000D01*
X116003000Y-63318000D02*
X116003000Y-65978000D01*
X138923000Y-65978000D02*
X116003000Y-65978000D01*
X141523000Y-65978000D02*
X140193000Y-65978000D01*
X141523000Y-64648000D02*
X141523000Y-65978000D01*
X182231000Y-79027500D02*
X182231000Y-74817500D01*
X179211000Y-79027500D02*
X182231000Y-79027500D01*
X179211000Y-74817500D02*
X179211000Y-79027500D01*
X139433000Y-109278000D02*
X141563000Y-109278000D01*
X134822000Y-109278000D02*
X136953000Y-109278000D01*
X137284000Y-116018000D02*
X139103000Y-116018000D01*
X141563000Y-115482000D02*
X141563000Y-109278000D01*
X134822000Y-115482000D02*
X134822000Y-109278000D01*
X179359000Y-93700000D02*
X187419000Y-93700000D01*
X179359000Y-89180000D02*
X179359000Y-93700000D01*
X187419000Y-89180000D02*
X179359000Y-89180000D01*
X185773000Y-97677000D02*
X181563000Y-97677000D01*
X181563000Y-97677000D02*
X181563000Y-100697000D01*
X181563000Y-100697000D02*
X185773000Y-100697000D01*
X189324000Y-109246000D02*
X181264000Y-109246000D01*
X181264000Y-109246000D02*
X181264000Y-113766000D01*
X181264000Y-113766000D02*
X189324000Y-113766000D01*
X140104400Y-82255579D02*
X140104400Y-81930021D01*
X141124400Y-82255579D02*
X141124400Y-81930021D01*
X141124400Y-93228379D02*
X141124400Y-92902821D01*
X140104400Y-93228379D02*
X140104400Y-92902821D01*
X131819779Y-86996000D02*
X131494221Y-86996000D01*
X131819779Y-88016000D02*
X131494221Y-88016000D01*
X171637000Y-89207779D02*
X171637000Y-88882221D01*
X172657000Y-89207779D02*
X172657000Y-88882221D01*
X187933000Y-78865000D02*
X189933000Y-78865000D01*
X189933000Y-78865000D02*
X189933000Y-74965000D01*
X187933000Y-78865000D02*
X187933000Y-74965000D01*
X186178000Y-74660000D02*
X183693000Y-74660000D01*
X183693000Y-74660000D02*
X183693000Y-76030000D01*
X183693000Y-76030000D02*
X186178000Y-76030000D01*
X181750500Y-94631000D02*
X181750500Y-96631000D01*
X181750500Y-96631000D02*
X185650500Y-96631000D01*
X181750500Y-94631000D02*
X185650500Y-94631000D01*
X134581000Y-100370500D02*
X134581000Y-97885500D01*
X133211000Y-100370500D02*
X134581000Y-100370500D01*
X133211000Y-97885500D02*
X133211000Y-100370500D01*
D10*
X131516000Y-100155500D02*
X126116000Y-100155500D01*
X131516000Y-97155500D02*
X126016000Y-97155500D01*
X126016000Y-98155500D02*
X126016000Y-97155500D01*
D12*
X180578000Y-109206000D02*
X180578000Y-113106000D01*
X178578000Y-109206000D02*
X178578000Y-113106000D01*
X180578000Y-109206000D02*
X178578000Y-109206000D01*
X164330500Y-64648000D02*
X164330500Y-63318000D01*
X164330500Y-63318000D02*
X165660500Y-63318000D01*
X166930500Y-63318000D02*
X169530500Y-63318000D01*
X169530500Y-65978000D02*
X169530500Y-63318000D01*
X166930500Y-65978000D02*
X169530500Y-65978000D01*
X166930500Y-65978000D02*
X166930500Y-63318000D01*
X159308000Y-65978000D02*
X159308000Y-63318000D01*
X159308000Y-65978000D02*
X161908000Y-65978000D01*
X161908000Y-65978000D02*
X161908000Y-63318000D01*
X159308000Y-63318000D02*
X161908000Y-63318000D01*
X156708000Y-63318000D02*
X158038000Y-63318000D01*
X156708000Y-64648000D02*
X156708000Y-63318000D01*
X114193000Y-98978000D02*
X112863000Y-98978000D01*
X112863000Y-98978000D02*
X112863000Y-97648000D01*
X112863000Y-96378000D02*
X112863000Y-88698000D01*
X115523000Y-88698000D02*
X112863000Y-88698000D01*
X115523000Y-96378000D02*
X115523000Y-88698000D01*
X115523000Y-96378000D02*
X112863000Y-96378000D01*
X146585500Y-65978000D02*
X146585500Y-63318000D01*
X146585500Y-65978000D02*
X154265500Y-65978000D01*
X154265500Y-65978000D02*
X154265500Y-63318000D01*
X146585500Y-63318000D02*
X154265500Y-63318000D01*
X143985500Y-63318000D02*
X145315500Y-63318000D01*
X143985500Y-64648000D02*
X143985500Y-63318000D01*
X115523000Y-84378000D02*
X112863000Y-84378000D01*
X115523000Y-84378000D02*
X115523000Y-71618000D01*
X115523000Y-71618000D02*
X112863000Y-71618000D01*
X112863000Y-84378000D02*
X112863000Y-71618000D01*
X112863000Y-86978000D02*
X112863000Y-85648000D01*
X114193000Y-86978000D02*
X112863000Y-86978000D01*
X172863000Y-75918000D02*
X175523000Y-75918000D01*
X172863000Y-75918000D02*
X172863000Y-81058000D01*
X172863000Y-81058000D02*
X175523000Y-81058000D01*
X175523000Y-75918000D02*
X175523000Y-81058000D01*
X175523000Y-73318000D02*
X175523000Y-74648000D01*
X174193000Y-73318000D02*
X175523000Y-73318000D01*
X142933000Y-102728000D02*
X142933000Y-101268000D01*
X146093000Y-102728000D02*
X146093000Y-100568000D01*
X146093000Y-102728000D02*
X145163000Y-102728000D01*
X142933000Y-102728000D02*
X143863000Y-102728000D01*
X142933000Y-116444000D02*
X143863000Y-116444000D01*
X146093000Y-116444000D02*
X145163000Y-116444000D01*
X146093000Y-116444000D02*
X146093000Y-114284000D01*
X142933000Y-116444000D02*
X142933000Y-114984000D01*
X134406000Y-94286733D02*
X134406000Y-94629267D01*
X133386000Y-94286733D02*
X133386000Y-94629267D01*
X125766000Y-94286733D02*
X125766000Y-94629267D01*
X126786000Y-94286733D02*
X126786000Y-94629267D01*
X129326000Y-94286733D02*
X129326000Y-94629267D01*
X128306000Y-94286733D02*
X128306000Y-94629267D01*
X130846000Y-94286733D02*
X130846000Y-94629267D01*
X131866000Y-94286733D02*
X131866000Y-94629267D01*
X144341733Y-108138000D02*
X144684267Y-108138000D01*
X144341733Y-109158000D02*
X144684267Y-109158000D01*
X142375733Y-72661000D02*
X142718267Y-72661000D01*
X142375733Y-73681000D02*
X142718267Y-73681000D01*
X142375733Y-71141000D02*
X142718267Y-71141000D01*
X142375733Y-70121000D02*
X142718267Y-70121000D01*
X129531733Y-105149000D02*
X129874267Y-105149000D01*
X129531733Y-106169000D02*
X129874267Y-106169000D01*
X129874267Y-108074000D02*
X129531733Y-108074000D01*
X129874267Y-107054000D02*
X129531733Y-107054000D01*
X119896733Y-106219000D02*
X120239267Y-106219000D01*
X119896733Y-105199000D02*
X120239267Y-105199000D01*
X120239267Y-107104000D02*
X119896733Y-107104000D01*
X120239267Y-108124000D02*
X119896733Y-108124000D01*
X185236733Y-77375000D02*
X185579267Y-77375000D01*
X185236733Y-78395000D02*
X185579267Y-78395000D01*
X144684267Y-98410000D02*
X144341733Y-98410000D01*
X144684267Y-99430000D02*
X144341733Y-99430000D01*
X144684267Y-104760000D02*
X144341733Y-104760000D01*
X144684267Y-105780000D02*
X144341733Y-105780000D01*
X160842000Y-94836267D02*
X160842000Y-94493733D01*
X161862000Y-94836267D02*
X161862000Y-94493733D01*
X159216167Y-94836267D02*
X159216167Y-94493733D01*
X158196167Y-94836267D02*
X158196167Y-94493733D01*
X155550334Y-94836267D02*
X155550334Y-94493733D01*
X156570334Y-94836267D02*
X156570334Y-94493733D01*
X153924501Y-94836267D02*
X153924501Y-94493733D01*
X152904501Y-94836267D02*
X152904501Y-94493733D01*
X167047835Y-94836267D02*
X167047835Y-94493733D01*
X166027835Y-94836267D02*
X166027835Y-94493733D01*
X163382000Y-94836267D02*
X163382000Y-94493733D01*
X164402000Y-94836267D02*
X164402000Y-94493733D01*
X144684267Y-111364000D02*
X144341733Y-111364000D01*
X144684267Y-112384000D02*
X144341733Y-112384000D01*
X144684267Y-119496000D02*
X144341733Y-119496000D01*
X144684267Y-118476000D02*
X144341733Y-118476000D01*
X130163000Y-110339000D02*
X128663000Y-110339000D01*
X126163000Y-111589000D02*
X126163000Y-116089000D01*
X128663000Y-117339000D02*
X130163000Y-117339000D01*
X132663000Y-116089000D02*
X132663000Y-111589000D01*
X123663000Y-116139000D02*
X123663000Y-111639000D01*
X119663000Y-117389000D02*
X121163000Y-117389000D01*
X117163000Y-111639000D02*
X117163000Y-116139000D01*
X121163000Y-110389000D02*
X119663000Y-110389000D01*
X170302000Y-86870000D02*
G75*
G02X170302000Y-84870000I0J1000000D01*
G01*
X170302000Y-84870000D02*
X170302000Y-83220000D01*
X170302000Y-83220000D02*
X149862000Y-83220000D01*
X149862000Y-83220000D02*
X149862000Y-88520000D01*
X149862000Y-88520000D02*
X170302000Y-88520000D01*
X170302000Y-88520000D02*
X170302000Y-86870000D01*
X183563000Y-81420000D02*
X182063000Y-81420000D01*
X182063000Y-81420000D02*
X182063000Y-81690000D01*
X182063000Y-81690000D02*
X179233000Y-81690000D01*
X183563000Y-88320000D02*
X182063000Y-88320000D01*
X182063000Y-88320000D02*
X182063000Y-88050000D01*
X182063000Y-88050000D02*
X180963000Y-88050000D01*
X182063000Y-107955000D02*
X180963000Y-107955000D01*
X182063000Y-108225000D02*
X182063000Y-107955000D01*
X183563000Y-108225000D02*
X182063000Y-108225000D01*
X182063000Y-101595000D02*
X179233000Y-101595000D01*
X182063000Y-101325000D02*
X182063000Y-101595000D01*
X183563000Y-101325000D02*
X182063000Y-101325000D01*
X142292000Y-89678500D02*
X142292000Y-83428500D01*
X147342000Y-89678500D02*
X147342000Y-83428500D01*
X147342000Y-89678500D02*
G75*
G02X142292000Y-89678500I-2525000J0D01*
G01*
X147342000Y-83428500D02*
G75*
G03X142292000Y-83428500I-2525000J0D01*
G01*
D10*
X126873095Y-69810380D02*
X126873095Y-70619904D01*
X126920714Y-70715142D01*
X126968333Y-70762761D01*
X127063571Y-70810380D01*
X127254047Y-70810380D01*
X127349285Y-70762761D01*
X127396904Y-70715142D01*
X127444523Y-70619904D01*
X127444523Y-69810380D01*
X127873095Y-69905619D02*
X127920714Y-69858000D01*
X128015952Y-69810380D01*
X128254047Y-69810380D01*
X128349285Y-69858000D01*
X128396904Y-69905619D01*
X128444523Y-70000857D01*
X128444523Y-70096095D01*
X128396904Y-70238952D01*
X127825476Y-70810380D01*
X128444523Y-70810380D01*
X182484580Y-64279333D02*
X183198866Y-64279333D01*
X183341723Y-64326952D01*
X183436961Y-64422190D01*
X183484580Y-64565047D01*
X183484580Y-64660285D01*
X182484580Y-63898380D02*
X182484580Y-63231714D01*
X183484580Y-63660285D01*
X175260095Y-118705380D02*
X175260095Y-119514904D01*
X175307714Y-119610142D01*
X175355333Y-119657761D01*
X175450571Y-119705380D01*
X175641047Y-119705380D01*
X175736285Y-119657761D01*
X175783904Y-119610142D01*
X175831523Y-119514904D01*
X175831523Y-118705380D01*
X176783904Y-118705380D02*
X176307714Y-118705380D01*
X176260095Y-119181571D01*
X176307714Y-119133952D01*
X176402952Y-119086333D01*
X176641047Y-119086333D01*
X176736285Y-119133952D01*
X176783904Y-119181571D01*
X176831523Y-119276809D01*
X176831523Y-119514904D01*
X176783904Y-119610142D01*
X176736285Y-119657761D01*
X176641047Y-119705380D01*
X176402952Y-119705380D01*
X176307714Y-119657761D01*
X176260095Y-119610142D01*
X114982666Y-67016380D02*
X114982666Y-67730666D01*
X114935047Y-67873523D01*
X114839809Y-67968761D01*
X114696952Y-68016380D01*
X114601714Y-68016380D01*
X115363619Y-67016380D02*
X115982666Y-67016380D01*
X115649333Y-67397333D01*
X115792190Y-67397333D01*
X115887428Y-67444952D01*
X115935047Y-67492571D01*
X115982666Y-67587809D01*
X115982666Y-67825904D01*
X115935047Y-67921142D01*
X115887428Y-67968761D01*
X115792190Y-68016380D01*
X115506476Y-68016380D01*
X115411238Y-67968761D01*
X115363619Y-67921142D01*
X178665142Y-74842666D02*
X178712761Y-74890285D01*
X178760380Y-75033142D01*
X178760380Y-75128380D01*
X178712761Y-75271238D01*
X178617523Y-75366476D01*
X178522285Y-75414095D01*
X178331809Y-75461714D01*
X178188952Y-75461714D01*
X177998476Y-75414095D01*
X177903238Y-75366476D01*
X177808000Y-75271238D01*
X177760380Y-75128380D01*
X177760380Y-75033142D01*
X177808000Y-74890285D01*
X177855619Y-74842666D01*
X178760380Y-73890285D02*
X178760380Y-74461714D01*
X178760380Y-74176000D02*
X177760380Y-74176000D01*
X177903238Y-74271238D01*
X177998476Y-74366476D01*
X178046095Y-74461714D01*
X178411142Y-91479666D02*
X178458761Y-91527285D01*
X178506380Y-91670142D01*
X178506380Y-91765380D01*
X178458761Y-91908238D01*
X178363523Y-92003476D01*
X178268285Y-92051095D01*
X178077809Y-92098714D01*
X177934952Y-92098714D01*
X177744476Y-92051095D01*
X177649238Y-92003476D01*
X177554000Y-91908238D01*
X177506380Y-91765380D01*
X177506380Y-91670142D01*
X177554000Y-91527285D01*
X177601619Y-91479666D01*
X177601619Y-91098714D02*
X177554000Y-91051095D01*
X177506380Y-90955857D01*
X177506380Y-90717761D01*
X177554000Y-90622523D01*
X177601619Y-90574904D01*
X177696857Y-90527285D01*
X177792095Y-90527285D01*
X177934952Y-90574904D01*
X178506380Y-91146333D01*
X178506380Y-90527285D01*
X180570142Y-99353666D02*
X180617761Y-99401285D01*
X180665380Y-99544142D01*
X180665380Y-99639380D01*
X180617761Y-99782238D01*
X180522523Y-99877476D01*
X180427285Y-99925095D01*
X180236809Y-99972714D01*
X180093952Y-99972714D01*
X179903476Y-99925095D01*
X179808238Y-99877476D01*
X179713000Y-99782238D01*
X179665380Y-99639380D01*
X179665380Y-99544142D01*
X179713000Y-99401285D01*
X179760619Y-99353666D01*
X179665380Y-99020333D02*
X179665380Y-98401285D01*
X180046333Y-98734619D01*
X180046333Y-98591761D01*
X180093952Y-98496523D01*
X180141571Y-98448904D01*
X180236809Y-98401285D01*
X180474904Y-98401285D01*
X180570142Y-98448904D01*
X180617761Y-98496523D01*
X180665380Y-98591761D01*
X180665380Y-98877476D01*
X180617761Y-98972714D01*
X180570142Y-99020333D01*
X189190333Y-115038142D02*
X189142714Y-115085761D01*
X188999857Y-115133380D01*
X188904619Y-115133380D01*
X188761761Y-115085761D01*
X188666523Y-114990523D01*
X188618904Y-114895285D01*
X188571285Y-114704809D01*
X188571285Y-114561952D01*
X188618904Y-114371476D01*
X188666523Y-114276238D01*
X188761761Y-114181000D01*
X188904619Y-114133380D01*
X188999857Y-114133380D01*
X189142714Y-114181000D01*
X189190333Y-114228619D01*
X190047476Y-114466714D02*
X190047476Y-115133380D01*
X189809380Y-114085761D02*
X189571285Y-114800047D01*
X190190333Y-114800047D01*
X140971542Y-79719466D02*
X141019161Y-79767085D01*
X141066780Y-79909942D01*
X141066780Y-80005180D01*
X141019161Y-80148038D01*
X140923923Y-80243276D01*
X140828685Y-80290895D01*
X140638209Y-80338514D01*
X140495352Y-80338514D01*
X140304876Y-80290895D01*
X140209638Y-80243276D01*
X140114400Y-80148038D01*
X140066780Y-80005180D01*
X140066780Y-79909942D01*
X140114400Y-79767085D01*
X140162019Y-79719466D01*
X140066780Y-78814704D02*
X140066780Y-79290895D01*
X140542971Y-79338514D01*
X140495352Y-79290895D01*
X140447733Y-79195657D01*
X140447733Y-78957561D01*
X140495352Y-78862323D01*
X140542971Y-78814704D01*
X140638209Y-78767085D01*
X140876304Y-78767085D01*
X140971542Y-78814704D01*
X141019161Y-78862323D01*
X141066780Y-78957561D01*
X141066780Y-79195657D01*
X141019161Y-79290895D01*
X140971542Y-79338514D01*
X140447733Y-96597742D02*
X140400114Y-96645361D01*
X140257257Y-96692980D01*
X140162019Y-96692980D01*
X140019161Y-96645361D01*
X139923923Y-96550123D01*
X139876304Y-96454885D01*
X139828685Y-96264409D01*
X139828685Y-96121552D01*
X139876304Y-95931076D01*
X139923923Y-95835838D01*
X140019161Y-95740600D01*
X140162019Y-95692980D01*
X140257257Y-95692980D01*
X140400114Y-95740600D01*
X140447733Y-95788219D01*
X141304876Y-95692980D02*
X141114400Y-95692980D01*
X141019161Y-95740600D01*
X140971542Y-95788219D01*
X140876304Y-95931076D01*
X140828685Y-96121552D01*
X140828685Y-96502504D01*
X140876304Y-96597742D01*
X140923923Y-96645361D01*
X141019161Y-96692980D01*
X141209638Y-96692980D01*
X141304876Y-96645361D01*
X141352495Y-96597742D01*
X141400114Y-96502504D01*
X141400114Y-96264409D01*
X141352495Y-96169171D01*
X141304876Y-96121552D01*
X141209638Y-96073933D01*
X141019161Y-96073933D01*
X140923923Y-96121552D01*
X140876304Y-96169171D01*
X140828685Y-96264409D01*
X129474142Y-87672666D02*
X129521761Y-87720285D01*
X129569380Y-87863142D01*
X129569380Y-87958380D01*
X129521761Y-88101238D01*
X129426523Y-88196476D01*
X129331285Y-88244095D01*
X129140809Y-88291714D01*
X128997952Y-88291714D01*
X128807476Y-88244095D01*
X128712238Y-88196476D01*
X128617000Y-88101238D01*
X128569380Y-87958380D01*
X128569380Y-87863142D01*
X128617000Y-87720285D01*
X128664619Y-87672666D01*
X128569380Y-87339333D02*
X128569380Y-86672666D01*
X129569380Y-87101238D01*
X172042333Y-86499142D02*
X171994714Y-86546761D01*
X171851857Y-86594380D01*
X171756619Y-86594380D01*
X171613761Y-86546761D01*
X171518523Y-86451523D01*
X171470904Y-86356285D01*
X171423285Y-86165809D01*
X171423285Y-86022952D01*
X171470904Y-85832476D01*
X171518523Y-85737238D01*
X171613761Y-85642000D01*
X171756619Y-85594380D01*
X171851857Y-85594380D01*
X171994714Y-85642000D01*
X172042333Y-85689619D01*
X172613761Y-86022952D02*
X172518523Y-85975333D01*
X172470904Y-85927714D01*
X172423285Y-85832476D01*
X172423285Y-85784857D01*
X172470904Y-85689619D01*
X172518523Y-85642000D01*
X172613761Y-85594380D01*
X172804238Y-85594380D01*
X172899476Y-85642000D01*
X172947095Y-85689619D01*
X172994714Y-85784857D01*
X172994714Y-85832476D01*
X172947095Y-85927714D01*
X172899476Y-85975333D01*
X172804238Y-86022952D01*
X172613761Y-86022952D01*
X172518523Y-86070571D01*
X172470904Y-86118190D01*
X172423285Y-86213428D01*
X172423285Y-86403904D01*
X172470904Y-86499142D01*
X172518523Y-86546761D01*
X172613761Y-86594380D01*
X172804238Y-86594380D01*
X172899476Y-86546761D01*
X172947095Y-86499142D01*
X172994714Y-86403904D01*
X172994714Y-86213428D01*
X172947095Y-86118190D01*
X172899476Y-86070571D01*
X172804238Y-86022952D01*
X188745904Y-80335380D02*
X188745904Y-79335380D01*
X188984000Y-79335380D01*
X189126857Y-79383000D01*
X189222095Y-79478238D01*
X189269714Y-79573476D01*
X189317333Y-79763952D01*
X189317333Y-79906809D01*
X189269714Y-80097285D01*
X189222095Y-80192523D01*
X189126857Y-80287761D01*
X188984000Y-80335380D01*
X188745904Y-80335380D01*
X190269714Y-80335380D02*
X189698285Y-80335380D01*
X189984000Y-80335380D02*
X189984000Y-79335380D01*
X189888761Y-79478238D01*
X189793523Y-79573476D01*
X189698285Y-79621095D01*
X184639904Y-74239380D02*
X184639904Y-73239380D01*
X184878000Y-73239380D01*
X185020857Y-73287000D01*
X185116095Y-73382238D01*
X185163714Y-73477476D01*
X185211333Y-73667952D01*
X185211333Y-73810809D01*
X185163714Y-74001285D01*
X185116095Y-74096523D01*
X185020857Y-74191761D01*
X184878000Y-74239380D01*
X184639904Y-74239380D01*
X185592285Y-73334619D02*
X185639904Y-73287000D01*
X185735142Y-73239380D01*
X185973238Y-73239380D01*
X186068476Y-73287000D01*
X186116095Y-73334619D01*
X186163714Y-73429857D01*
X186163714Y-73525095D01*
X186116095Y-73667952D01*
X185544666Y-74239380D01*
X186163714Y-74239380D01*
X180538380Y-96496095D02*
X179538380Y-96496095D01*
X179538380Y-96258000D01*
X179586000Y-96115142D01*
X179681238Y-96019904D01*
X179776476Y-95972285D01*
X179966952Y-95924666D01*
X180109809Y-95924666D01*
X180300285Y-95972285D01*
X180395523Y-96019904D01*
X180490761Y-96115142D01*
X180538380Y-96258000D01*
X180538380Y-96496095D01*
X179538380Y-95591333D02*
X179538380Y-94972285D01*
X179919333Y-95305619D01*
X179919333Y-95162761D01*
X179966952Y-95067523D01*
X180014571Y-95019904D01*
X180109809Y-94972285D01*
X180347904Y-94972285D01*
X180443142Y-95019904D01*
X180490761Y-95067523D01*
X180538380Y-95162761D01*
X180538380Y-95448476D01*
X180490761Y-95543714D01*
X180443142Y-95591333D01*
X135961380Y-99417095D02*
X134961380Y-99417095D01*
X134961380Y-99179000D01*
X135009000Y-99036142D01*
X135104238Y-98940904D01*
X135199476Y-98893285D01*
X135389952Y-98845666D01*
X135532809Y-98845666D01*
X135723285Y-98893285D01*
X135818523Y-98940904D01*
X135913761Y-99036142D01*
X135961380Y-99179000D01*
X135961380Y-99417095D01*
X135294714Y-97988523D02*
X135961380Y-97988523D01*
X134913761Y-98226619D02*
X135628047Y-98464714D01*
X135628047Y-97845666D01*
X123721904Y-99004380D02*
X123721904Y-98004380D01*
X123960000Y-98004380D01*
X124102857Y-98052000D01*
X124198095Y-98147238D01*
X124245714Y-98242476D01*
X124293333Y-98432952D01*
X124293333Y-98575809D01*
X124245714Y-98766285D01*
X124198095Y-98861523D01*
X124102857Y-98956761D01*
X123960000Y-99004380D01*
X123721904Y-99004380D01*
X125198095Y-98004380D02*
X124721904Y-98004380D01*
X124674285Y-98480571D01*
X124721904Y-98432952D01*
X124817142Y-98385333D01*
X125055238Y-98385333D01*
X125150476Y-98432952D01*
X125198095Y-98480571D01*
X125245714Y-98575809D01*
X125245714Y-98813904D01*
X125198095Y-98909142D01*
X125150476Y-98956761D01*
X125055238Y-99004380D01*
X124817142Y-99004380D01*
X124721904Y-98956761D01*
X124674285Y-98909142D01*
X178882904Y-115176380D02*
X178882904Y-114176380D01*
X179121000Y-114176380D01*
X179263857Y-114224000D01*
X179359095Y-114319238D01*
X179406714Y-114414476D01*
X179454333Y-114604952D01*
X179454333Y-114747809D01*
X179406714Y-114938285D01*
X179359095Y-115033523D01*
X179263857Y-115128761D01*
X179121000Y-115176380D01*
X178882904Y-115176380D01*
X180311476Y-114176380D02*
X180121000Y-114176380D01*
X180025761Y-114224000D01*
X179978142Y-114271619D01*
X179882904Y-114414476D01*
X179835285Y-114604952D01*
X179835285Y-114985904D01*
X179882904Y-115081142D01*
X179930523Y-115128761D01*
X180025761Y-115176380D01*
X180216238Y-115176380D01*
X180311476Y-115128761D01*
X180359095Y-115081142D01*
X180406714Y-114985904D01*
X180406714Y-114747809D01*
X180359095Y-114652571D01*
X180311476Y-114604952D01*
X180216238Y-114557333D01*
X180025761Y-114557333D01*
X179930523Y-114604952D01*
X179882904Y-114652571D01*
X179835285Y-114747809D01*
X166798666Y-69556380D02*
X166798666Y-70270666D01*
X166751047Y-70413523D01*
X166655809Y-70508761D01*
X166512952Y-70556380D01*
X166417714Y-70556380D01*
X167798666Y-70556380D02*
X167227238Y-70556380D01*
X167512952Y-70556380D02*
X167512952Y-69556380D01*
X167417714Y-69699238D01*
X167322476Y-69794476D01*
X167227238Y-69842095D01*
X158924666Y-69556380D02*
X158924666Y-70270666D01*
X158877047Y-70413523D01*
X158781809Y-70508761D01*
X158638952Y-70556380D01*
X158543714Y-70556380D01*
X159353238Y-69651619D02*
X159400857Y-69604000D01*
X159496095Y-69556380D01*
X159734190Y-69556380D01*
X159829428Y-69604000D01*
X159877047Y-69651619D01*
X159924666Y-69746857D01*
X159924666Y-69842095D01*
X159877047Y-69984952D01*
X159305619Y-70556380D01*
X159924666Y-70556380D01*
X116419380Y-89487333D02*
X117133666Y-89487333D01*
X117276523Y-89534952D01*
X117371761Y-89630190D01*
X117419380Y-89773047D01*
X117419380Y-89868285D01*
X116752714Y-88582571D02*
X117419380Y-88582571D01*
X116371761Y-88820666D02*
X117086047Y-89058761D01*
X117086047Y-88439714D01*
X144700666Y-67016380D02*
X144700666Y-67730666D01*
X144653047Y-67873523D01*
X144557809Y-67968761D01*
X144414952Y-68016380D01*
X144319714Y-68016380D01*
X145653047Y-67016380D02*
X145176857Y-67016380D01*
X145129238Y-67492571D01*
X145176857Y-67444952D01*
X145272095Y-67397333D01*
X145510190Y-67397333D01*
X145605428Y-67444952D01*
X145653047Y-67492571D01*
X145700666Y-67587809D01*
X145700666Y-67825904D01*
X145653047Y-67921142D01*
X145605428Y-67968761D01*
X145510190Y-68016380D01*
X145272095Y-68016380D01*
X145176857Y-67968761D01*
X145129238Y-67921142D01*
X116419380Y-72469333D02*
X117133666Y-72469333D01*
X117276523Y-72516952D01*
X117371761Y-72612190D01*
X117419380Y-72755047D01*
X117419380Y-72850285D01*
X116419380Y-71564571D02*
X116419380Y-71755047D01*
X116467000Y-71850285D01*
X116514619Y-71897904D01*
X116657476Y-71993142D01*
X116847952Y-72040761D01*
X117228904Y-72040761D01*
X117324142Y-71993142D01*
X117371761Y-71945523D01*
X117419380Y-71850285D01*
X117419380Y-71659809D01*
X117371761Y-71564571D01*
X117324142Y-71516952D01*
X117228904Y-71469333D01*
X116990809Y-71469333D01*
X116895571Y-71516952D01*
X116847952Y-71564571D01*
X116800333Y-71659809D01*
X116800333Y-71850285D01*
X116847952Y-71945523D01*
X116895571Y-71993142D01*
X116990809Y-72040761D01*
X170902380Y-78176333D02*
X171616666Y-78176333D01*
X171759523Y-78223952D01*
X171854761Y-78319190D01*
X171902380Y-78462047D01*
X171902380Y-78557285D01*
X171902380Y-77700142D02*
X170902380Y-77700142D01*
X170902380Y-77319190D01*
X170950000Y-77223952D01*
X170997619Y-77176333D01*
X171092857Y-77128714D01*
X171235714Y-77128714D01*
X171330952Y-77176333D01*
X171378571Y-77223952D01*
X171426190Y-77319190D01*
X171426190Y-77700142D01*
X171902380Y-76176333D02*
X171902380Y-76747761D01*
X171902380Y-76462047D02*
X170902380Y-76462047D01*
X171045238Y-76557285D01*
X171140476Y-76652523D01*
X171188095Y-76747761D01*
X141255761Y-102020619D02*
X141160523Y-101973000D01*
X141065285Y-101877761D01*
X140922428Y-101734904D01*
X140827190Y-101687285D01*
X140731952Y-101687285D01*
X140779571Y-101925380D02*
X140684333Y-101877761D01*
X140589095Y-101782523D01*
X140541476Y-101592047D01*
X140541476Y-101258714D01*
X140589095Y-101068238D01*
X140684333Y-100973000D01*
X140779571Y-100925380D01*
X140970047Y-100925380D01*
X141065285Y-100973000D01*
X141160523Y-101068238D01*
X141208142Y-101258714D01*
X141208142Y-101592047D01*
X141160523Y-101782523D01*
X141065285Y-101877761D01*
X140970047Y-101925380D01*
X140779571Y-101925380D01*
X142160523Y-101925380D02*
X141589095Y-101925380D01*
X141874809Y-101925380D02*
X141874809Y-100925380D01*
X141779571Y-101068238D01*
X141684333Y-101163476D01*
X141589095Y-101211095D01*
X147351761Y-116117619D02*
X147256523Y-116070000D01*
X147161285Y-115974761D01*
X147018428Y-115831904D01*
X146923190Y-115784285D01*
X146827952Y-115784285D01*
X146875571Y-116022380D02*
X146780333Y-115974761D01*
X146685095Y-115879523D01*
X146637476Y-115689047D01*
X146637476Y-115355714D01*
X146685095Y-115165238D01*
X146780333Y-115070000D01*
X146875571Y-115022380D01*
X147066047Y-115022380D01*
X147161285Y-115070000D01*
X147256523Y-115165238D01*
X147304142Y-115355714D01*
X147304142Y-115689047D01*
X147256523Y-115879523D01*
X147161285Y-115974761D01*
X147066047Y-116022380D01*
X146875571Y-116022380D01*
X147685095Y-115117619D02*
X147732714Y-115070000D01*
X147827952Y-115022380D01*
X148066047Y-115022380D01*
X148161285Y-115070000D01*
X148208904Y-115117619D01*
X148256523Y-115212857D01*
X148256523Y-115308095D01*
X148208904Y-115450952D01*
X147637476Y-116022380D01*
X148256523Y-116022380D01*
X136088380Y-94624666D02*
X135612190Y-94958000D01*
X136088380Y-95196095D02*
X135088380Y-95196095D01*
X135088380Y-94815142D01*
X135136000Y-94719904D01*
X135183619Y-94672285D01*
X135278857Y-94624666D01*
X135421714Y-94624666D01*
X135516952Y-94672285D01*
X135564571Y-94719904D01*
X135612190Y-94815142D01*
X135612190Y-95196095D01*
X136088380Y-93672285D02*
X136088380Y-94243714D01*
X136088380Y-93958000D02*
X135088380Y-93958000D01*
X135231238Y-94053238D01*
X135326476Y-94148476D01*
X135374095Y-94243714D01*
X126728380Y-91449666D02*
X126252190Y-91783000D01*
X126728380Y-92021095D02*
X125728380Y-92021095D01*
X125728380Y-91640142D01*
X125776000Y-91544904D01*
X125823619Y-91497285D01*
X125918857Y-91449666D01*
X126061714Y-91449666D01*
X126156952Y-91497285D01*
X126204571Y-91544904D01*
X126252190Y-91640142D01*
X126252190Y-92021095D01*
X125823619Y-91068714D02*
X125776000Y-91021095D01*
X125728380Y-90925857D01*
X125728380Y-90687761D01*
X125776000Y-90592523D01*
X125823619Y-90544904D01*
X125918857Y-90497285D01*
X126014095Y-90497285D01*
X126156952Y-90544904D01*
X126728380Y-91116333D01*
X126728380Y-90497285D01*
X129268380Y-91449666D02*
X128792190Y-91783000D01*
X129268380Y-92021095D02*
X128268380Y-92021095D01*
X128268380Y-91640142D01*
X128316000Y-91544904D01*
X128363619Y-91497285D01*
X128458857Y-91449666D01*
X128601714Y-91449666D01*
X128696952Y-91497285D01*
X128744571Y-91544904D01*
X128792190Y-91640142D01*
X128792190Y-92021095D01*
X128268380Y-91116333D02*
X128268380Y-90497285D01*
X128649333Y-90830619D01*
X128649333Y-90687761D01*
X128696952Y-90592523D01*
X128744571Y-90544904D01*
X128839809Y-90497285D01*
X129077904Y-90497285D01*
X129173142Y-90544904D01*
X129220761Y-90592523D01*
X129268380Y-90687761D01*
X129268380Y-90973476D01*
X129220761Y-91068714D01*
X129173142Y-91116333D01*
X131808380Y-91449666D02*
X131332190Y-91783000D01*
X131808380Y-92021095D02*
X130808380Y-92021095D01*
X130808380Y-91640142D01*
X130856000Y-91544904D01*
X130903619Y-91497285D01*
X130998857Y-91449666D01*
X131141714Y-91449666D01*
X131236952Y-91497285D01*
X131284571Y-91544904D01*
X131332190Y-91640142D01*
X131332190Y-92021095D01*
X131141714Y-90592523D02*
X131808380Y-90592523D01*
X130760761Y-90830619D02*
X131475047Y-91068714D01*
X131475047Y-90449666D01*
X147645380Y-108814666D02*
X147169190Y-109148000D01*
X147645380Y-109386095D02*
X146645380Y-109386095D01*
X146645380Y-109005142D01*
X146693000Y-108909904D01*
X146740619Y-108862285D01*
X146835857Y-108814666D01*
X146978714Y-108814666D01*
X147073952Y-108862285D01*
X147121571Y-108909904D01*
X147169190Y-109005142D01*
X147169190Y-109386095D01*
X146645380Y-107909904D02*
X146645380Y-108386095D01*
X147121571Y-108433714D01*
X147073952Y-108386095D01*
X147026333Y-108290857D01*
X147026333Y-108052761D01*
X147073952Y-107957523D01*
X147121571Y-107909904D01*
X147216809Y-107862285D01*
X147454904Y-107862285D01*
X147550142Y-107909904D01*
X147597761Y-107957523D01*
X147645380Y-108052761D01*
X147645380Y-108290857D01*
X147597761Y-108386095D01*
X147550142Y-108433714D01*
X139026333Y-73623380D02*
X138693000Y-73147190D01*
X138454904Y-73623380D02*
X138454904Y-72623380D01*
X138835857Y-72623380D01*
X138931095Y-72671000D01*
X138978714Y-72718619D01*
X139026333Y-72813857D01*
X139026333Y-72956714D01*
X138978714Y-73051952D01*
X138931095Y-73099571D01*
X138835857Y-73147190D01*
X138454904Y-73147190D01*
X139883476Y-72623380D02*
X139693000Y-72623380D01*
X139597761Y-72671000D01*
X139550142Y-72718619D01*
X139454904Y-72861476D01*
X139407285Y-73051952D01*
X139407285Y-73432904D01*
X139454904Y-73528142D01*
X139502523Y-73575761D01*
X139597761Y-73623380D01*
X139788238Y-73623380D01*
X139883476Y-73575761D01*
X139931095Y-73528142D01*
X139978714Y-73432904D01*
X139978714Y-73194809D01*
X139931095Y-73099571D01*
X139883476Y-73051952D01*
X139788238Y-73004333D01*
X139597761Y-73004333D01*
X139502523Y-73051952D01*
X139454904Y-73099571D01*
X139407285Y-73194809D01*
X139026333Y-71083380D02*
X138693000Y-70607190D01*
X138454904Y-71083380D02*
X138454904Y-70083380D01*
X138835857Y-70083380D01*
X138931095Y-70131000D01*
X138978714Y-70178619D01*
X139026333Y-70273857D01*
X139026333Y-70416714D01*
X138978714Y-70511952D01*
X138931095Y-70559571D01*
X138835857Y-70607190D01*
X138454904Y-70607190D01*
X139359666Y-70083380D02*
X140026333Y-70083380D01*
X139597761Y-71083380D01*
X133187524Y-106111380D02*
X132854191Y-105635190D01*
X132616095Y-106111380D02*
X132616095Y-105111380D01*
X132997048Y-105111380D01*
X133092286Y-105159000D01*
X133139905Y-105206619D01*
X133187524Y-105301857D01*
X133187524Y-105444714D01*
X133139905Y-105539952D01*
X133092286Y-105587571D01*
X132997048Y-105635190D01*
X132616095Y-105635190D01*
X133758952Y-105539952D02*
X133663714Y-105492333D01*
X133616095Y-105444714D01*
X133568476Y-105349476D01*
X133568476Y-105301857D01*
X133616095Y-105206619D01*
X133663714Y-105159000D01*
X133758952Y-105111380D01*
X133949429Y-105111380D01*
X134044667Y-105159000D01*
X134092286Y-105206619D01*
X134139905Y-105301857D01*
X134139905Y-105349476D01*
X134092286Y-105444714D01*
X134044667Y-105492333D01*
X133949429Y-105539952D01*
X133758952Y-105539952D01*
X133663714Y-105587571D01*
X133616095Y-105635190D01*
X133568476Y-105730428D01*
X133568476Y-105920904D01*
X133616095Y-106016142D01*
X133663714Y-106063761D01*
X133758952Y-106111380D01*
X133949429Y-106111380D01*
X134044667Y-106063761D01*
X134092286Y-106016142D01*
X134139905Y-105920904D01*
X134139905Y-105730428D01*
X134092286Y-105635190D01*
X134044667Y-105587571D01*
X133949429Y-105539952D01*
X133187524Y-108016380D02*
X132854191Y-107540190D01*
X132616095Y-108016380D02*
X132616095Y-107016380D01*
X132997048Y-107016380D01*
X133092286Y-107064000D01*
X133139905Y-107111619D01*
X133187524Y-107206857D01*
X133187524Y-107349714D01*
X133139905Y-107444952D01*
X133092286Y-107492571D01*
X132997048Y-107540190D01*
X132616095Y-107540190D01*
X133663714Y-108016380D02*
X133854191Y-108016380D01*
X133949429Y-107968761D01*
X133997048Y-107921142D01*
X134092286Y-107778285D01*
X134139905Y-107587809D01*
X134139905Y-107206857D01*
X134092286Y-107111619D01*
X134044667Y-107064000D01*
X133949429Y-107016380D01*
X133758952Y-107016380D01*
X133663714Y-107064000D01*
X133616095Y-107111619D01*
X133568476Y-107206857D01*
X133568476Y-107444952D01*
X133616095Y-107540190D01*
X133663714Y-107587809D01*
X133758952Y-107635428D01*
X133949429Y-107635428D01*
X134044667Y-107587809D01*
X134092286Y-107540190D01*
X134139905Y-107444952D01*
X123235142Y-106161380D02*
X122901809Y-105685190D01*
X122663714Y-106161380D02*
X122663714Y-105161380D01*
X123044666Y-105161380D01*
X123139904Y-105209000D01*
X123187523Y-105256619D01*
X123235142Y-105351857D01*
X123235142Y-105494714D01*
X123187523Y-105589952D01*
X123139904Y-105637571D01*
X123044666Y-105685190D01*
X122663714Y-105685190D01*
X124187523Y-106161380D02*
X123616095Y-106161380D01*
X123901809Y-106161380D02*
X123901809Y-105161380D01*
X123806571Y-105304238D01*
X123711333Y-105399476D01*
X123616095Y-105447095D01*
X124806571Y-105161380D02*
X124901809Y-105161380D01*
X124997047Y-105209000D01*
X125044666Y-105256619D01*
X125092285Y-105351857D01*
X125139904Y-105542333D01*
X125139904Y-105780428D01*
X125092285Y-105970904D01*
X125044666Y-106066142D01*
X124997047Y-106113761D01*
X124901809Y-106161380D01*
X124806571Y-106161380D01*
X124711333Y-106113761D01*
X124663714Y-106066142D01*
X124616095Y-105970904D01*
X124568476Y-105780428D01*
X124568476Y-105542333D01*
X124616095Y-105351857D01*
X124663714Y-105256619D01*
X124711333Y-105209000D01*
X124806571Y-105161380D01*
X123235142Y-108066380D02*
X122901809Y-107590190D01*
X122663714Y-108066380D02*
X122663714Y-107066380D01*
X123044666Y-107066380D01*
X123139904Y-107114000D01*
X123187523Y-107161619D01*
X123235142Y-107256857D01*
X123235142Y-107399714D01*
X123187523Y-107494952D01*
X123139904Y-107542571D01*
X123044666Y-107590190D01*
X122663714Y-107590190D01*
X124187523Y-108066380D02*
X123616095Y-108066380D01*
X123901809Y-108066380D02*
X123901809Y-107066380D01*
X123806571Y-107209238D01*
X123711333Y-107304476D01*
X123616095Y-107352095D01*
X125139904Y-108066380D02*
X124568476Y-108066380D01*
X124854190Y-108066380D02*
X124854190Y-107066380D01*
X124758952Y-107209238D01*
X124663714Y-107304476D01*
X124568476Y-107352095D01*
X184904142Y-80208380D02*
X184570809Y-79732190D01*
X184332714Y-80208380D02*
X184332714Y-79208380D01*
X184713666Y-79208380D01*
X184808904Y-79256000D01*
X184856523Y-79303619D01*
X184904142Y-79398857D01*
X184904142Y-79541714D01*
X184856523Y-79636952D01*
X184808904Y-79684571D01*
X184713666Y-79732190D01*
X184332714Y-79732190D01*
X185856523Y-80208380D02*
X185285095Y-80208380D01*
X185570809Y-80208380D02*
X185570809Y-79208380D01*
X185475571Y-79351238D01*
X185380333Y-79446476D01*
X185285095Y-79494095D01*
X186237476Y-79303619D02*
X186285095Y-79256000D01*
X186380333Y-79208380D01*
X186618428Y-79208380D01*
X186713666Y-79256000D01*
X186761285Y-79303619D01*
X186808904Y-79398857D01*
X186808904Y-79494095D01*
X186761285Y-79636952D01*
X186189857Y-80208380D01*
X186808904Y-80208380D01*
X140327142Y-99258380D02*
X139993809Y-98782190D01*
X139755714Y-99258380D02*
X139755714Y-98258380D01*
X140136666Y-98258380D01*
X140231904Y-98306000D01*
X140279523Y-98353619D01*
X140327142Y-98448857D01*
X140327142Y-98591714D01*
X140279523Y-98686952D01*
X140231904Y-98734571D01*
X140136666Y-98782190D01*
X139755714Y-98782190D01*
X141279523Y-99258380D02*
X140708095Y-99258380D01*
X140993809Y-99258380D02*
X140993809Y-98258380D01*
X140898571Y-98401238D01*
X140803333Y-98496476D01*
X140708095Y-98544095D01*
X141612857Y-98258380D02*
X142231904Y-98258380D01*
X141898571Y-98639333D01*
X142041428Y-98639333D01*
X142136666Y-98686952D01*
X142184285Y-98734571D01*
X142231904Y-98829809D01*
X142231904Y-99067904D01*
X142184285Y-99163142D01*
X142136666Y-99210761D01*
X142041428Y-99258380D01*
X141755714Y-99258380D01*
X141660476Y-99210761D01*
X141612857Y-99163142D01*
X140454142Y-105735380D02*
X140120809Y-105259190D01*
X139882714Y-105735380D02*
X139882714Y-104735380D01*
X140263666Y-104735380D01*
X140358904Y-104783000D01*
X140406523Y-104830619D01*
X140454142Y-104925857D01*
X140454142Y-105068714D01*
X140406523Y-105163952D01*
X140358904Y-105211571D01*
X140263666Y-105259190D01*
X139882714Y-105259190D01*
X141406523Y-105735380D02*
X140835095Y-105735380D01*
X141120809Y-105735380D02*
X141120809Y-104735380D01*
X141025571Y-104878238D01*
X140930333Y-104973476D01*
X140835095Y-105021095D01*
X142263666Y-105068714D02*
X142263666Y-105735380D01*
X142025571Y-104687761D02*
X141787476Y-105402047D01*
X142406523Y-105402047D01*
X161804380Y-99117857D02*
X161328190Y-99451190D01*
X161804380Y-99689285D02*
X160804380Y-99689285D01*
X160804380Y-99308333D01*
X160852000Y-99213095D01*
X160899619Y-99165476D01*
X160994857Y-99117857D01*
X161137714Y-99117857D01*
X161232952Y-99165476D01*
X161280571Y-99213095D01*
X161328190Y-99308333D01*
X161328190Y-99689285D01*
X161804380Y-98165476D02*
X161804380Y-98736904D01*
X161804380Y-98451190D02*
X160804380Y-98451190D01*
X160947238Y-98546428D01*
X161042476Y-98641666D01*
X161090095Y-98736904D01*
X160804380Y-97260714D02*
X160804380Y-97736904D01*
X161280571Y-97784523D01*
X161232952Y-97736904D01*
X161185333Y-97641666D01*
X161185333Y-97403571D01*
X161232952Y-97308333D01*
X161280571Y-97260714D01*
X161375809Y-97213095D01*
X161613904Y-97213095D01*
X161709142Y-97260714D01*
X161756761Y-97308333D01*
X161804380Y-97403571D01*
X161804380Y-97641666D01*
X161756761Y-97736904D01*
X161709142Y-97784523D01*
X159158547Y-99117857D02*
X158682357Y-99451190D01*
X159158547Y-99689285D02*
X158158547Y-99689285D01*
X158158547Y-99308333D01*
X158206167Y-99213095D01*
X158253786Y-99165476D01*
X158349024Y-99117857D01*
X158491881Y-99117857D01*
X158587119Y-99165476D01*
X158634738Y-99213095D01*
X158682357Y-99308333D01*
X158682357Y-99689285D01*
X159158547Y-98165476D02*
X159158547Y-98736904D01*
X159158547Y-98451190D02*
X158158547Y-98451190D01*
X158301405Y-98546428D01*
X158396643Y-98641666D01*
X158444262Y-98736904D01*
X158158547Y-97308333D02*
X158158547Y-97498809D01*
X158206167Y-97594047D01*
X158253786Y-97641666D01*
X158396643Y-97736904D01*
X158587119Y-97784523D01*
X158968071Y-97784523D01*
X159063309Y-97736904D01*
X159110928Y-97689285D01*
X159158547Y-97594047D01*
X159158547Y-97403571D01*
X159110928Y-97308333D01*
X159063309Y-97260714D01*
X158968071Y-97213095D01*
X158729976Y-97213095D01*
X158634738Y-97260714D01*
X158587119Y-97308333D01*
X158539500Y-97403571D01*
X158539500Y-97594047D01*
X158587119Y-97689285D01*
X158634738Y-97736904D01*
X158729976Y-97784523D01*
X156512714Y-99117857D02*
X156036524Y-99451190D01*
X156512714Y-99689285D02*
X155512714Y-99689285D01*
X155512714Y-99308333D01*
X155560334Y-99213095D01*
X155607953Y-99165476D01*
X155703191Y-99117857D01*
X155846048Y-99117857D01*
X155941286Y-99165476D01*
X155988905Y-99213095D01*
X156036524Y-99308333D01*
X156036524Y-99689285D01*
X156512714Y-98165476D02*
X156512714Y-98736904D01*
X156512714Y-98451190D02*
X155512714Y-98451190D01*
X155655572Y-98546428D01*
X155750810Y-98641666D01*
X155798429Y-98736904D01*
X155512714Y-97832142D02*
X155512714Y-97165476D01*
X156512714Y-97594047D01*
X153866881Y-99117857D02*
X153390691Y-99451190D01*
X153866881Y-99689285D02*
X152866881Y-99689285D01*
X152866881Y-99308333D01*
X152914501Y-99213095D01*
X152962120Y-99165476D01*
X153057358Y-99117857D01*
X153200215Y-99117857D01*
X153295453Y-99165476D01*
X153343072Y-99213095D01*
X153390691Y-99308333D01*
X153390691Y-99689285D01*
X153866881Y-98165476D02*
X153866881Y-98736904D01*
X153866881Y-98451190D02*
X152866881Y-98451190D01*
X153009739Y-98546428D01*
X153104977Y-98641666D01*
X153152596Y-98736904D01*
X153295453Y-97594047D02*
X153247834Y-97689285D01*
X153200215Y-97736904D01*
X153104977Y-97784523D01*
X153057358Y-97784523D01*
X152962120Y-97736904D01*
X152914501Y-97689285D01*
X152866881Y-97594047D01*
X152866881Y-97403571D01*
X152914501Y-97308333D01*
X152962120Y-97260714D01*
X153057358Y-97213095D01*
X153104977Y-97213095D01*
X153200215Y-97260714D01*
X153247834Y-97308333D01*
X153295453Y-97403571D01*
X153295453Y-97594047D01*
X153343072Y-97689285D01*
X153390691Y-97736904D01*
X153485929Y-97784523D01*
X153676405Y-97784523D01*
X153771643Y-97736904D01*
X153819262Y-97689285D01*
X153866881Y-97594047D01*
X153866881Y-97403571D01*
X153819262Y-97308333D01*
X153771643Y-97260714D01*
X153676405Y-97213095D01*
X153485929Y-97213095D01*
X153390691Y-97260714D01*
X153343072Y-97308333D01*
X153295453Y-97403571D01*
X166990215Y-99117857D02*
X166514025Y-99451190D01*
X166990215Y-99689285D02*
X165990215Y-99689285D01*
X165990215Y-99308333D01*
X166037835Y-99213095D01*
X166085454Y-99165476D01*
X166180692Y-99117857D01*
X166323549Y-99117857D01*
X166418787Y-99165476D01*
X166466406Y-99213095D01*
X166514025Y-99308333D01*
X166514025Y-99689285D01*
X166085454Y-98736904D02*
X166037835Y-98689285D01*
X165990215Y-98594047D01*
X165990215Y-98355952D01*
X166037835Y-98260714D01*
X166085454Y-98213095D01*
X166180692Y-98165476D01*
X166275930Y-98165476D01*
X166418787Y-98213095D01*
X166990215Y-98784523D01*
X166990215Y-98165476D01*
X165990215Y-97546428D02*
X165990215Y-97451190D01*
X166037835Y-97355952D01*
X166085454Y-97308333D01*
X166180692Y-97260714D01*
X166371168Y-97213095D01*
X166609263Y-97213095D01*
X166799739Y-97260714D01*
X166894977Y-97308333D01*
X166942596Y-97355952D01*
X166990215Y-97451190D01*
X166990215Y-97546428D01*
X166942596Y-97641666D01*
X166894977Y-97689285D01*
X166799739Y-97736904D01*
X166609263Y-97784523D01*
X166371168Y-97784523D01*
X166180692Y-97736904D01*
X166085454Y-97689285D01*
X166037835Y-97641666D01*
X165990215Y-97546428D01*
X164344380Y-99117857D02*
X163868190Y-99451190D01*
X164344380Y-99689285D02*
X163344380Y-99689285D01*
X163344380Y-99308333D01*
X163392000Y-99213095D01*
X163439619Y-99165476D01*
X163534857Y-99117857D01*
X163677714Y-99117857D01*
X163772952Y-99165476D01*
X163820571Y-99213095D01*
X163868190Y-99308333D01*
X163868190Y-99689285D01*
X163439619Y-98736904D02*
X163392000Y-98689285D01*
X163344380Y-98594047D01*
X163344380Y-98355952D01*
X163392000Y-98260714D01*
X163439619Y-98213095D01*
X163534857Y-98165476D01*
X163630095Y-98165476D01*
X163772952Y-98213095D01*
X164344380Y-98784523D01*
X164344380Y-98165476D01*
X164344380Y-97213095D02*
X164344380Y-97784523D01*
X164344380Y-97498809D02*
X163344380Y-97498809D01*
X163487238Y-97594047D01*
X163582476Y-97689285D01*
X163630095Y-97784523D01*
X147645380Y-112290857D02*
X147169190Y-112624190D01*
X147645380Y-112862285D02*
X146645380Y-112862285D01*
X146645380Y-112481333D01*
X146693000Y-112386095D01*
X146740619Y-112338476D01*
X146835857Y-112290857D01*
X146978714Y-112290857D01*
X147073952Y-112338476D01*
X147121571Y-112386095D01*
X147169190Y-112481333D01*
X147169190Y-112862285D01*
X146740619Y-111909904D02*
X146693000Y-111862285D01*
X146645380Y-111767047D01*
X146645380Y-111528952D01*
X146693000Y-111433714D01*
X146740619Y-111386095D01*
X146835857Y-111338476D01*
X146931095Y-111338476D01*
X147073952Y-111386095D01*
X147645380Y-111957523D01*
X147645380Y-111338476D01*
X146740619Y-110957523D02*
X146693000Y-110909904D01*
X146645380Y-110814666D01*
X146645380Y-110576571D01*
X146693000Y-110481333D01*
X146740619Y-110433714D01*
X146835857Y-110386095D01*
X146931095Y-110386095D01*
X147073952Y-110433714D01*
X147645380Y-111005142D01*
X147645380Y-110386095D01*
X143883142Y-121102380D02*
X143549809Y-120626190D01*
X143311714Y-121102380D02*
X143311714Y-120102380D01*
X143692666Y-120102380D01*
X143787904Y-120150000D01*
X143835523Y-120197619D01*
X143883142Y-120292857D01*
X143883142Y-120435714D01*
X143835523Y-120530952D01*
X143787904Y-120578571D01*
X143692666Y-120626190D01*
X143311714Y-120626190D01*
X144264095Y-120197619D02*
X144311714Y-120150000D01*
X144406952Y-120102380D01*
X144645047Y-120102380D01*
X144740285Y-120150000D01*
X144787904Y-120197619D01*
X144835523Y-120292857D01*
X144835523Y-120388095D01*
X144787904Y-120530952D01*
X144216476Y-121102380D01*
X144835523Y-121102380D01*
X145168857Y-120102380D02*
X145787904Y-120102380D01*
X145454571Y-120483333D01*
X145597428Y-120483333D01*
X145692666Y-120530952D01*
X145740285Y-120578571D01*
X145787904Y-120673809D01*
X145787904Y-120911904D01*
X145740285Y-121007142D01*
X145692666Y-121054761D01*
X145597428Y-121102380D01*
X145311714Y-121102380D01*
X145216476Y-121054761D01*
X145168857Y-121007142D01*
X125372761Y-115125333D02*
X125420380Y-114982476D01*
X125420380Y-114744380D01*
X125372761Y-114649142D01*
X125325142Y-114601523D01*
X125229904Y-114553904D01*
X125134666Y-114553904D01*
X125039428Y-114601523D01*
X124991809Y-114649142D01*
X124944190Y-114744380D01*
X124896571Y-114934857D01*
X124848952Y-115030095D01*
X124801333Y-115077714D01*
X124706095Y-115125333D01*
X124610857Y-115125333D01*
X124515619Y-115077714D01*
X124468000Y-115030095D01*
X124420380Y-114934857D01*
X124420380Y-114696761D01*
X124468000Y-114553904D01*
X124420380Y-114220571D02*
X125420380Y-113982476D01*
X124706095Y-113792000D01*
X125420380Y-113601523D01*
X124420380Y-113363428D01*
X125420380Y-112458666D02*
X125420380Y-113030095D01*
X125420380Y-112744380D02*
X124420380Y-112744380D01*
X124563238Y-112839619D01*
X124658476Y-112934857D01*
X124706095Y-113030095D01*
X115720761Y-115125333D02*
X115768380Y-114982476D01*
X115768380Y-114744380D01*
X115720761Y-114649142D01*
X115673142Y-114601523D01*
X115577904Y-114553904D01*
X115482666Y-114553904D01*
X115387428Y-114601523D01*
X115339809Y-114649142D01*
X115292190Y-114744380D01*
X115244571Y-114934857D01*
X115196952Y-115030095D01*
X115149333Y-115077714D01*
X115054095Y-115125333D01*
X114958857Y-115125333D01*
X114863619Y-115077714D01*
X114816000Y-115030095D01*
X114768380Y-114934857D01*
X114768380Y-114696761D01*
X114816000Y-114553904D01*
X114768380Y-114220571D02*
X115768380Y-113982476D01*
X115054095Y-113792000D01*
X115768380Y-113601523D01*
X114768380Y-113363428D01*
X114863619Y-113030095D02*
X114816000Y-112982476D01*
X114768380Y-112887238D01*
X114768380Y-112649142D01*
X114816000Y-112553904D01*
X114863619Y-112506285D01*
X114958857Y-112458666D01*
X115054095Y-112458666D01*
X115196952Y-112506285D01*
X115768380Y-113077714D01*
X115768380Y-112458666D01*
X170815095Y-81875380D02*
X170815095Y-82684904D01*
X170862714Y-82780142D01*
X170910333Y-82827761D01*
X171005571Y-82875380D01*
X171196047Y-82875380D01*
X171291285Y-82827761D01*
X171338904Y-82780142D01*
X171386523Y-82684904D01*
X171386523Y-81875380D01*
X172386523Y-82875380D02*
X171815095Y-82875380D01*
X172100809Y-82875380D02*
X172100809Y-81875380D01*
X172005571Y-82018238D01*
X171910333Y-82113476D01*
X171815095Y-82161095D01*
X176786095Y-81782380D02*
X176786095Y-82591904D01*
X176833714Y-82687142D01*
X176881333Y-82734761D01*
X176976571Y-82782380D01*
X177167047Y-82782380D01*
X177262285Y-82734761D01*
X177309904Y-82687142D01*
X177357523Y-82591904D01*
X177357523Y-81782380D01*
X177738476Y-81782380D02*
X178357523Y-81782380D01*
X178024190Y-82163333D01*
X178167047Y-82163333D01*
X178262285Y-82210952D01*
X178309904Y-82258571D01*
X178357523Y-82353809D01*
X178357523Y-82591904D01*
X178309904Y-82687142D01*
X178262285Y-82734761D01*
X178167047Y-82782380D01*
X177881333Y-82782380D01*
X177786095Y-82734761D01*
X177738476Y-82687142D01*
X176786095Y-101687380D02*
X176786095Y-102496904D01*
X176833714Y-102592142D01*
X176881333Y-102639761D01*
X176976571Y-102687380D01*
X177167047Y-102687380D01*
X177262285Y-102639761D01*
X177309904Y-102592142D01*
X177357523Y-102496904D01*
X177357523Y-101687380D01*
X178262285Y-102020714D02*
X178262285Y-102687380D01*
X178024190Y-101639761D02*
X177786095Y-102354047D01*
X178405142Y-102354047D01*
X148603190Y-92654690D02*
X149079380Y-92654690D01*
X148079380Y-92988023D02*
X148603190Y-92654690D01*
X148079380Y-92321357D01*
X149079380Y-91464214D02*
X149079380Y-92035642D01*
X149079380Y-91749928D02*
X148079380Y-91749928D01*
X148222238Y-91845166D01*
X148317476Y-91940404D01*
X148365095Y-92035642D01*
M02*
