G04 #@! TF.GenerationSoftware,KiCad,Pcbnew,(5.1.2)-1*
G04 #@! TF.CreationDate,2019-06-29T15:08:14-05:00*
G04 #@! TF.ProjectId,TPDSI_1,54504453-495f-4312-9e6b-696361645f70,1.3*
G04 #@! TF.SameCoordinates,Original*
G04 #@! TF.FileFunction,Paste,Top*
G04 #@! TF.FilePolarity,Positive*
%FSLAX46Y46*%
G04 Gerber Fmt 4.6, Leading zero omitted, Abs format (unit mm)*
G04 Created by KiCad (PCBNEW (5.1.2)-1) date 2019-06-29 15:08:14*
%MOMM*%
%LPD*%
G04 APERTURE LIST*
%ADD10R,0.550000X1.500000*%
%ADD11R,1.500000X0.550000*%
%ADD12C,0.100000*%
%ADD13C,1.325000*%
%ADD14R,2.000000X2.500000*%
%ADD15C,2.075000*%
%ADD16C,0.875000*%
%ADD17R,1.200000X0.900000*%
%ADD18C,0.850000*%
%ADD19R,0.900000X1.200000*%
%ADD20R,1.500000X1.000000*%
%ADD21R,0.800000X0.900000*%
%ADD22C,0.950000*%
%ADD23R,2.200000X1.200000*%
%ADD24R,3.050000X2.750000*%
G04 APERTURE END LIST*
D10*
X135022000Y-72916000D03*
X134222000Y-72916000D03*
X133422000Y-72916000D03*
X132622000Y-72916000D03*
X131822000Y-72916000D03*
X131022000Y-72916000D03*
X130222000Y-72916000D03*
X129422000Y-72916000D03*
X128622000Y-72916000D03*
X127822000Y-72916000D03*
X127022000Y-72916000D03*
D11*
X125322000Y-74616000D03*
X125322000Y-75416000D03*
X125322000Y-76216000D03*
X125322000Y-77016000D03*
X125322000Y-77816000D03*
X125322000Y-78616000D03*
X125322000Y-79416000D03*
X125322000Y-80216000D03*
X125322000Y-81016000D03*
X125322000Y-81816000D03*
X125322000Y-82616000D03*
D10*
X127022000Y-84316000D03*
X127822000Y-84316000D03*
X128622000Y-84316000D03*
X129422000Y-84316000D03*
X130222000Y-84316000D03*
X131022000Y-84316000D03*
X131822000Y-84316000D03*
X132622000Y-84316000D03*
X133422000Y-84316000D03*
X134222000Y-84316000D03*
X135022000Y-84316000D03*
D11*
X136722000Y-82616000D03*
X136722000Y-81816000D03*
X136722000Y-81016000D03*
X136722000Y-80216000D03*
X136722000Y-79416000D03*
X136722000Y-78616000D03*
X136722000Y-77816000D03*
X136722000Y-77016000D03*
X136722000Y-76216000D03*
X136722000Y-75416000D03*
X136722000Y-74616000D03*
D12*
G36*
X181670505Y-74368704D02*
G01*
X181694773Y-74372304D01*
X181718572Y-74378265D01*
X181741671Y-74386530D01*
X181763850Y-74397020D01*
X181784893Y-74409632D01*
X181804599Y-74424247D01*
X181822777Y-74440723D01*
X181839253Y-74458901D01*
X181853868Y-74478607D01*
X181866480Y-74499650D01*
X181876970Y-74521829D01*
X181885235Y-74544928D01*
X181891196Y-74568727D01*
X181894796Y-74592995D01*
X181896000Y-74617499D01*
X181896000Y-75442501D01*
X181894796Y-75467005D01*
X181891196Y-75491273D01*
X181885235Y-75515072D01*
X181876970Y-75538171D01*
X181866480Y-75560350D01*
X181853868Y-75581393D01*
X181839253Y-75601099D01*
X181822777Y-75619277D01*
X181804599Y-75635753D01*
X181784893Y-75650368D01*
X181763850Y-75662980D01*
X181741671Y-75673470D01*
X181718572Y-75681735D01*
X181694773Y-75687696D01*
X181670505Y-75691296D01*
X181646001Y-75692500D01*
X179795999Y-75692500D01*
X179771495Y-75691296D01*
X179747227Y-75687696D01*
X179723428Y-75681735D01*
X179700329Y-75673470D01*
X179678150Y-75662980D01*
X179657107Y-75650368D01*
X179637401Y-75635753D01*
X179619223Y-75619277D01*
X179602747Y-75601099D01*
X179588132Y-75581393D01*
X179575520Y-75560350D01*
X179565030Y-75538171D01*
X179556765Y-75515072D01*
X179550804Y-75491273D01*
X179547204Y-75467005D01*
X179546000Y-75442501D01*
X179546000Y-74617499D01*
X179547204Y-74592995D01*
X179550804Y-74568727D01*
X179556765Y-74544928D01*
X179565030Y-74521829D01*
X179575520Y-74499650D01*
X179588132Y-74478607D01*
X179602747Y-74458901D01*
X179619223Y-74440723D01*
X179637401Y-74424247D01*
X179657107Y-74409632D01*
X179678150Y-74397020D01*
X179700329Y-74386530D01*
X179723428Y-74378265D01*
X179747227Y-74372304D01*
X179771495Y-74368704D01*
X179795999Y-74367500D01*
X181646001Y-74367500D01*
X181670505Y-74368704D01*
X181670505Y-74368704D01*
G37*
D13*
X180721000Y-75030000D03*
D12*
G36*
X181670505Y-77443704D02*
G01*
X181694773Y-77447304D01*
X181718572Y-77453265D01*
X181741671Y-77461530D01*
X181763850Y-77472020D01*
X181784893Y-77484632D01*
X181804599Y-77499247D01*
X181822777Y-77515723D01*
X181839253Y-77533901D01*
X181853868Y-77553607D01*
X181866480Y-77574650D01*
X181876970Y-77596829D01*
X181885235Y-77619928D01*
X181891196Y-77643727D01*
X181894796Y-77667995D01*
X181896000Y-77692499D01*
X181896000Y-78517501D01*
X181894796Y-78542005D01*
X181891196Y-78566273D01*
X181885235Y-78590072D01*
X181876970Y-78613171D01*
X181866480Y-78635350D01*
X181853868Y-78656393D01*
X181839253Y-78676099D01*
X181822777Y-78694277D01*
X181804599Y-78710753D01*
X181784893Y-78725368D01*
X181763850Y-78737980D01*
X181741671Y-78748470D01*
X181718572Y-78756735D01*
X181694773Y-78762696D01*
X181670505Y-78766296D01*
X181646001Y-78767500D01*
X179795999Y-78767500D01*
X179771495Y-78766296D01*
X179747227Y-78762696D01*
X179723428Y-78756735D01*
X179700329Y-78748470D01*
X179678150Y-78737980D01*
X179657107Y-78725368D01*
X179637401Y-78710753D01*
X179619223Y-78694277D01*
X179602747Y-78676099D01*
X179588132Y-78656393D01*
X179575520Y-78635350D01*
X179565030Y-78613171D01*
X179556765Y-78590072D01*
X179550804Y-78566273D01*
X179547204Y-78542005D01*
X179546000Y-78517501D01*
X179546000Y-77692499D01*
X179547204Y-77667995D01*
X179550804Y-77643727D01*
X179556765Y-77619928D01*
X179565030Y-77596829D01*
X179575520Y-77574650D01*
X179588132Y-77553607D01*
X179602747Y-77533901D01*
X179619223Y-77515723D01*
X179637401Y-77499247D01*
X179657107Y-77484632D01*
X179678150Y-77472020D01*
X179700329Y-77461530D01*
X179723428Y-77453265D01*
X179747227Y-77447304D01*
X179771495Y-77443704D01*
X179795999Y-77442500D01*
X181646001Y-77442500D01*
X181670505Y-77443704D01*
X181670505Y-77443704D01*
G37*
D13*
X180721000Y-78105000D03*
D14*
X140343000Y-116973000D03*
X138193000Y-108323000D03*
X136043000Y-116973000D03*
D12*
G36*
X187693504Y-90166204D02*
G01*
X187717773Y-90169804D01*
X187741571Y-90175765D01*
X187764671Y-90184030D01*
X187786849Y-90194520D01*
X187807893Y-90207133D01*
X187827598Y-90221747D01*
X187845777Y-90238223D01*
X187862253Y-90256402D01*
X187876867Y-90276107D01*
X187889480Y-90297151D01*
X187899970Y-90319329D01*
X187908235Y-90342429D01*
X187914196Y-90366227D01*
X187917796Y-90390496D01*
X187919000Y-90415000D01*
X187919000Y-92465000D01*
X187917796Y-92489504D01*
X187914196Y-92513773D01*
X187908235Y-92537571D01*
X187899970Y-92560671D01*
X187889480Y-92582849D01*
X187876867Y-92603893D01*
X187862253Y-92623598D01*
X187845777Y-92641777D01*
X187827598Y-92658253D01*
X187807893Y-92672867D01*
X187786849Y-92685480D01*
X187764671Y-92695970D01*
X187741571Y-92704235D01*
X187717773Y-92710196D01*
X187693504Y-92713796D01*
X187669000Y-92715000D01*
X186094000Y-92715000D01*
X186069496Y-92713796D01*
X186045227Y-92710196D01*
X186021429Y-92704235D01*
X185998329Y-92695970D01*
X185976151Y-92685480D01*
X185955107Y-92672867D01*
X185935402Y-92658253D01*
X185917223Y-92641777D01*
X185900747Y-92623598D01*
X185886133Y-92603893D01*
X185873520Y-92582849D01*
X185863030Y-92560671D01*
X185854765Y-92537571D01*
X185848804Y-92513773D01*
X185845204Y-92489504D01*
X185844000Y-92465000D01*
X185844000Y-90415000D01*
X185845204Y-90390496D01*
X185848804Y-90366227D01*
X185854765Y-90342429D01*
X185863030Y-90319329D01*
X185873520Y-90297151D01*
X185886133Y-90276107D01*
X185900747Y-90256402D01*
X185917223Y-90238223D01*
X185935402Y-90221747D01*
X185955107Y-90207133D01*
X185976151Y-90194520D01*
X185998329Y-90184030D01*
X186021429Y-90175765D01*
X186045227Y-90169804D01*
X186069496Y-90166204D01*
X186094000Y-90165000D01*
X187669000Y-90165000D01*
X187693504Y-90166204D01*
X187693504Y-90166204D01*
G37*
D15*
X186881500Y-91440000D03*
D12*
G36*
X181468504Y-90166204D02*
G01*
X181492773Y-90169804D01*
X181516571Y-90175765D01*
X181539671Y-90184030D01*
X181561849Y-90194520D01*
X181582893Y-90207133D01*
X181602598Y-90221747D01*
X181620777Y-90238223D01*
X181637253Y-90256402D01*
X181651867Y-90276107D01*
X181664480Y-90297151D01*
X181674970Y-90319329D01*
X181683235Y-90342429D01*
X181689196Y-90366227D01*
X181692796Y-90390496D01*
X181694000Y-90415000D01*
X181694000Y-92465000D01*
X181692796Y-92489504D01*
X181689196Y-92513773D01*
X181683235Y-92537571D01*
X181674970Y-92560671D01*
X181664480Y-92582849D01*
X181651867Y-92603893D01*
X181637253Y-92623598D01*
X181620777Y-92641777D01*
X181602598Y-92658253D01*
X181582893Y-92672867D01*
X181561849Y-92685480D01*
X181539671Y-92695970D01*
X181516571Y-92704235D01*
X181492773Y-92710196D01*
X181468504Y-92713796D01*
X181444000Y-92715000D01*
X179869000Y-92715000D01*
X179844496Y-92713796D01*
X179820227Y-92710196D01*
X179796429Y-92704235D01*
X179773329Y-92695970D01*
X179751151Y-92685480D01*
X179730107Y-92672867D01*
X179710402Y-92658253D01*
X179692223Y-92641777D01*
X179675747Y-92623598D01*
X179661133Y-92603893D01*
X179648520Y-92582849D01*
X179638030Y-92560671D01*
X179629765Y-92537571D01*
X179623804Y-92513773D01*
X179620204Y-92489504D01*
X179619000Y-92465000D01*
X179619000Y-90415000D01*
X179620204Y-90390496D01*
X179623804Y-90366227D01*
X179629765Y-90342429D01*
X179638030Y-90319329D01*
X179648520Y-90297151D01*
X179661133Y-90276107D01*
X179675747Y-90256402D01*
X179692223Y-90238223D01*
X179710402Y-90221747D01*
X179730107Y-90207133D01*
X179751151Y-90194520D01*
X179773329Y-90184030D01*
X179796429Y-90175765D01*
X179820227Y-90169804D01*
X179844496Y-90166204D01*
X179869000Y-90165000D01*
X181444000Y-90165000D01*
X181468504Y-90166204D01*
X181468504Y-90166204D01*
G37*
D15*
X180656500Y-91440000D03*
D12*
G36*
X182922505Y-98013204D02*
G01*
X182946773Y-98016804D01*
X182970572Y-98022765D01*
X182993671Y-98031030D01*
X183015850Y-98041520D01*
X183036893Y-98054132D01*
X183056599Y-98068747D01*
X183074777Y-98085223D01*
X183091253Y-98103401D01*
X183105868Y-98123107D01*
X183118480Y-98144150D01*
X183128970Y-98166329D01*
X183137235Y-98189428D01*
X183143196Y-98213227D01*
X183146796Y-98237495D01*
X183148000Y-98261999D01*
X183148000Y-100112001D01*
X183146796Y-100136505D01*
X183143196Y-100160773D01*
X183137235Y-100184572D01*
X183128970Y-100207671D01*
X183118480Y-100229850D01*
X183105868Y-100250893D01*
X183091253Y-100270599D01*
X183074777Y-100288777D01*
X183056599Y-100305253D01*
X183036893Y-100319868D01*
X183015850Y-100332480D01*
X182993671Y-100342970D01*
X182970572Y-100351235D01*
X182946773Y-100357196D01*
X182922505Y-100360796D01*
X182898001Y-100362000D01*
X182072999Y-100362000D01*
X182048495Y-100360796D01*
X182024227Y-100357196D01*
X182000428Y-100351235D01*
X181977329Y-100342970D01*
X181955150Y-100332480D01*
X181934107Y-100319868D01*
X181914401Y-100305253D01*
X181896223Y-100288777D01*
X181879747Y-100270599D01*
X181865132Y-100250893D01*
X181852520Y-100229850D01*
X181842030Y-100207671D01*
X181833765Y-100184572D01*
X181827804Y-100160773D01*
X181824204Y-100136505D01*
X181823000Y-100112001D01*
X181823000Y-98261999D01*
X181824204Y-98237495D01*
X181827804Y-98213227D01*
X181833765Y-98189428D01*
X181842030Y-98166329D01*
X181852520Y-98144150D01*
X181865132Y-98123107D01*
X181879747Y-98103401D01*
X181896223Y-98085223D01*
X181914401Y-98068747D01*
X181934107Y-98054132D01*
X181955150Y-98041520D01*
X181977329Y-98031030D01*
X182000428Y-98022765D01*
X182024227Y-98016804D01*
X182048495Y-98013204D01*
X182072999Y-98012000D01*
X182898001Y-98012000D01*
X182922505Y-98013204D01*
X182922505Y-98013204D01*
G37*
D13*
X182485500Y-99187000D03*
D12*
G36*
X185997505Y-98013204D02*
G01*
X186021773Y-98016804D01*
X186045572Y-98022765D01*
X186068671Y-98031030D01*
X186090850Y-98041520D01*
X186111893Y-98054132D01*
X186131599Y-98068747D01*
X186149777Y-98085223D01*
X186166253Y-98103401D01*
X186180868Y-98123107D01*
X186193480Y-98144150D01*
X186203970Y-98166329D01*
X186212235Y-98189428D01*
X186218196Y-98213227D01*
X186221796Y-98237495D01*
X186223000Y-98261999D01*
X186223000Y-100112001D01*
X186221796Y-100136505D01*
X186218196Y-100160773D01*
X186212235Y-100184572D01*
X186203970Y-100207671D01*
X186193480Y-100229850D01*
X186180868Y-100250893D01*
X186166253Y-100270599D01*
X186149777Y-100288777D01*
X186131599Y-100305253D01*
X186111893Y-100319868D01*
X186090850Y-100332480D01*
X186068671Y-100342970D01*
X186045572Y-100351235D01*
X186021773Y-100357196D01*
X185997505Y-100360796D01*
X185973001Y-100362000D01*
X185147999Y-100362000D01*
X185123495Y-100360796D01*
X185099227Y-100357196D01*
X185075428Y-100351235D01*
X185052329Y-100342970D01*
X185030150Y-100332480D01*
X185009107Y-100319868D01*
X184989401Y-100305253D01*
X184971223Y-100288777D01*
X184954747Y-100270599D01*
X184940132Y-100250893D01*
X184927520Y-100229850D01*
X184917030Y-100207671D01*
X184908765Y-100184572D01*
X184902804Y-100160773D01*
X184899204Y-100136505D01*
X184898000Y-100112001D01*
X184898000Y-98261999D01*
X184899204Y-98237495D01*
X184902804Y-98213227D01*
X184908765Y-98189428D01*
X184917030Y-98166329D01*
X184927520Y-98144150D01*
X184940132Y-98123107D01*
X184954747Y-98103401D01*
X184971223Y-98085223D01*
X184989401Y-98068747D01*
X185009107Y-98054132D01*
X185030150Y-98041520D01*
X185052329Y-98031030D01*
X185075428Y-98022765D01*
X185099227Y-98016804D01*
X185123495Y-98013204D01*
X185147999Y-98012000D01*
X185973001Y-98012000D01*
X185997505Y-98013204D01*
X185997505Y-98013204D01*
G37*
D13*
X185560500Y-99187000D03*
D12*
G36*
X183373504Y-110232204D02*
G01*
X183397773Y-110235804D01*
X183421571Y-110241765D01*
X183444671Y-110250030D01*
X183466849Y-110260520D01*
X183487893Y-110273133D01*
X183507598Y-110287747D01*
X183525777Y-110304223D01*
X183542253Y-110322402D01*
X183556867Y-110342107D01*
X183569480Y-110363151D01*
X183579970Y-110385329D01*
X183588235Y-110408429D01*
X183594196Y-110432227D01*
X183597796Y-110456496D01*
X183599000Y-110481000D01*
X183599000Y-112531000D01*
X183597796Y-112555504D01*
X183594196Y-112579773D01*
X183588235Y-112603571D01*
X183579970Y-112626671D01*
X183569480Y-112648849D01*
X183556867Y-112669893D01*
X183542253Y-112689598D01*
X183525777Y-112707777D01*
X183507598Y-112724253D01*
X183487893Y-112738867D01*
X183466849Y-112751480D01*
X183444671Y-112761970D01*
X183421571Y-112770235D01*
X183397773Y-112776196D01*
X183373504Y-112779796D01*
X183349000Y-112781000D01*
X181774000Y-112781000D01*
X181749496Y-112779796D01*
X181725227Y-112776196D01*
X181701429Y-112770235D01*
X181678329Y-112761970D01*
X181656151Y-112751480D01*
X181635107Y-112738867D01*
X181615402Y-112724253D01*
X181597223Y-112707777D01*
X181580747Y-112689598D01*
X181566133Y-112669893D01*
X181553520Y-112648849D01*
X181543030Y-112626671D01*
X181534765Y-112603571D01*
X181528804Y-112579773D01*
X181525204Y-112555504D01*
X181524000Y-112531000D01*
X181524000Y-110481000D01*
X181525204Y-110456496D01*
X181528804Y-110432227D01*
X181534765Y-110408429D01*
X181543030Y-110385329D01*
X181553520Y-110363151D01*
X181566133Y-110342107D01*
X181580747Y-110322402D01*
X181597223Y-110304223D01*
X181615402Y-110287747D01*
X181635107Y-110273133D01*
X181656151Y-110260520D01*
X181678329Y-110250030D01*
X181701429Y-110241765D01*
X181725227Y-110235804D01*
X181749496Y-110232204D01*
X181774000Y-110231000D01*
X183349000Y-110231000D01*
X183373504Y-110232204D01*
X183373504Y-110232204D01*
G37*
D15*
X182561500Y-111506000D03*
D12*
G36*
X189598504Y-110232204D02*
G01*
X189622773Y-110235804D01*
X189646571Y-110241765D01*
X189669671Y-110250030D01*
X189691849Y-110260520D01*
X189712893Y-110273133D01*
X189732598Y-110287747D01*
X189750777Y-110304223D01*
X189767253Y-110322402D01*
X189781867Y-110342107D01*
X189794480Y-110363151D01*
X189804970Y-110385329D01*
X189813235Y-110408429D01*
X189819196Y-110432227D01*
X189822796Y-110456496D01*
X189824000Y-110481000D01*
X189824000Y-112531000D01*
X189822796Y-112555504D01*
X189819196Y-112579773D01*
X189813235Y-112603571D01*
X189804970Y-112626671D01*
X189794480Y-112648849D01*
X189781867Y-112669893D01*
X189767253Y-112689598D01*
X189750777Y-112707777D01*
X189732598Y-112724253D01*
X189712893Y-112738867D01*
X189691849Y-112751480D01*
X189669671Y-112761970D01*
X189646571Y-112770235D01*
X189622773Y-112776196D01*
X189598504Y-112779796D01*
X189574000Y-112781000D01*
X187999000Y-112781000D01*
X187974496Y-112779796D01*
X187950227Y-112776196D01*
X187926429Y-112770235D01*
X187903329Y-112761970D01*
X187881151Y-112751480D01*
X187860107Y-112738867D01*
X187840402Y-112724253D01*
X187822223Y-112707777D01*
X187805747Y-112689598D01*
X187791133Y-112669893D01*
X187778520Y-112648849D01*
X187768030Y-112626671D01*
X187759765Y-112603571D01*
X187753804Y-112579773D01*
X187750204Y-112555504D01*
X187749000Y-112531000D01*
X187749000Y-110481000D01*
X187750204Y-110456496D01*
X187753804Y-110432227D01*
X187759765Y-110408429D01*
X187768030Y-110385329D01*
X187778520Y-110363151D01*
X187791133Y-110342107D01*
X187805747Y-110322402D01*
X187822223Y-110304223D01*
X187840402Y-110287747D01*
X187860107Y-110273133D01*
X187881151Y-110260520D01*
X187903329Y-110250030D01*
X187926429Y-110241765D01*
X187950227Y-110235804D01*
X187974496Y-110232204D01*
X187999000Y-110231000D01*
X189574000Y-110231000D01*
X189598504Y-110232204D01*
X189598504Y-110232204D01*
G37*
D15*
X188786500Y-111506000D03*
D12*
G36*
X140892091Y-82443853D02*
G01*
X140913326Y-82447003D01*
X140934150Y-82452219D01*
X140954362Y-82459451D01*
X140973768Y-82468630D01*
X140992181Y-82479666D01*
X141009424Y-82492454D01*
X141025330Y-82506870D01*
X141039746Y-82522776D01*
X141052534Y-82540019D01*
X141063570Y-82558432D01*
X141072749Y-82577838D01*
X141079981Y-82598050D01*
X141085197Y-82618874D01*
X141088347Y-82640109D01*
X141089400Y-82661550D01*
X141089400Y-83099050D01*
X141088347Y-83120491D01*
X141085197Y-83141726D01*
X141079981Y-83162550D01*
X141072749Y-83182762D01*
X141063570Y-83202168D01*
X141052534Y-83220581D01*
X141039746Y-83237824D01*
X141025330Y-83253730D01*
X141009424Y-83268146D01*
X140992181Y-83280934D01*
X140973768Y-83291970D01*
X140954362Y-83301149D01*
X140934150Y-83308381D01*
X140913326Y-83313597D01*
X140892091Y-83316747D01*
X140870650Y-83317800D01*
X140358150Y-83317800D01*
X140336709Y-83316747D01*
X140315474Y-83313597D01*
X140294650Y-83308381D01*
X140274438Y-83301149D01*
X140255032Y-83291970D01*
X140236619Y-83280934D01*
X140219376Y-83268146D01*
X140203470Y-83253730D01*
X140189054Y-83237824D01*
X140176266Y-83220581D01*
X140165230Y-83202168D01*
X140156051Y-83182762D01*
X140148819Y-83162550D01*
X140143603Y-83141726D01*
X140140453Y-83120491D01*
X140139400Y-83099050D01*
X140139400Y-82661550D01*
X140140453Y-82640109D01*
X140143603Y-82618874D01*
X140148819Y-82598050D01*
X140156051Y-82577838D01*
X140165230Y-82558432D01*
X140176266Y-82540019D01*
X140189054Y-82522776D01*
X140203470Y-82506870D01*
X140219376Y-82492454D01*
X140236619Y-82479666D01*
X140255032Y-82468630D01*
X140274438Y-82459451D01*
X140294650Y-82452219D01*
X140315474Y-82447003D01*
X140336709Y-82443853D01*
X140358150Y-82442800D01*
X140870650Y-82442800D01*
X140892091Y-82443853D01*
X140892091Y-82443853D01*
G37*
D16*
X140614400Y-82880300D03*
D12*
G36*
X140892091Y-80868853D02*
G01*
X140913326Y-80872003D01*
X140934150Y-80877219D01*
X140954362Y-80884451D01*
X140973768Y-80893630D01*
X140992181Y-80904666D01*
X141009424Y-80917454D01*
X141025330Y-80931870D01*
X141039746Y-80947776D01*
X141052534Y-80965019D01*
X141063570Y-80983432D01*
X141072749Y-81002838D01*
X141079981Y-81023050D01*
X141085197Y-81043874D01*
X141088347Y-81065109D01*
X141089400Y-81086550D01*
X141089400Y-81524050D01*
X141088347Y-81545491D01*
X141085197Y-81566726D01*
X141079981Y-81587550D01*
X141072749Y-81607762D01*
X141063570Y-81627168D01*
X141052534Y-81645581D01*
X141039746Y-81662824D01*
X141025330Y-81678730D01*
X141009424Y-81693146D01*
X140992181Y-81705934D01*
X140973768Y-81716970D01*
X140954362Y-81726149D01*
X140934150Y-81733381D01*
X140913326Y-81738597D01*
X140892091Y-81741747D01*
X140870650Y-81742800D01*
X140358150Y-81742800D01*
X140336709Y-81741747D01*
X140315474Y-81738597D01*
X140294650Y-81733381D01*
X140274438Y-81726149D01*
X140255032Y-81716970D01*
X140236619Y-81705934D01*
X140219376Y-81693146D01*
X140203470Y-81678730D01*
X140189054Y-81662824D01*
X140176266Y-81645581D01*
X140165230Y-81627168D01*
X140156051Y-81607762D01*
X140148819Y-81587550D01*
X140143603Y-81566726D01*
X140140453Y-81545491D01*
X140139400Y-81524050D01*
X140139400Y-81086550D01*
X140140453Y-81065109D01*
X140143603Y-81043874D01*
X140148819Y-81023050D01*
X140156051Y-81002838D01*
X140165230Y-80983432D01*
X140176266Y-80965019D01*
X140189054Y-80947776D01*
X140203470Y-80931870D01*
X140219376Y-80917454D01*
X140236619Y-80904666D01*
X140255032Y-80893630D01*
X140274438Y-80884451D01*
X140294650Y-80877219D01*
X140315474Y-80872003D01*
X140336709Y-80868853D01*
X140358150Y-80867800D01*
X140870650Y-80867800D01*
X140892091Y-80868853D01*
X140892091Y-80868853D01*
G37*
D16*
X140614400Y-81305300D03*
D12*
G36*
X140892091Y-91841653D02*
G01*
X140913326Y-91844803D01*
X140934150Y-91850019D01*
X140954362Y-91857251D01*
X140973768Y-91866430D01*
X140992181Y-91877466D01*
X141009424Y-91890254D01*
X141025330Y-91904670D01*
X141039746Y-91920576D01*
X141052534Y-91937819D01*
X141063570Y-91956232D01*
X141072749Y-91975638D01*
X141079981Y-91995850D01*
X141085197Y-92016674D01*
X141088347Y-92037909D01*
X141089400Y-92059350D01*
X141089400Y-92496850D01*
X141088347Y-92518291D01*
X141085197Y-92539526D01*
X141079981Y-92560350D01*
X141072749Y-92580562D01*
X141063570Y-92599968D01*
X141052534Y-92618381D01*
X141039746Y-92635624D01*
X141025330Y-92651530D01*
X141009424Y-92665946D01*
X140992181Y-92678734D01*
X140973768Y-92689770D01*
X140954362Y-92698949D01*
X140934150Y-92706181D01*
X140913326Y-92711397D01*
X140892091Y-92714547D01*
X140870650Y-92715600D01*
X140358150Y-92715600D01*
X140336709Y-92714547D01*
X140315474Y-92711397D01*
X140294650Y-92706181D01*
X140274438Y-92698949D01*
X140255032Y-92689770D01*
X140236619Y-92678734D01*
X140219376Y-92665946D01*
X140203470Y-92651530D01*
X140189054Y-92635624D01*
X140176266Y-92618381D01*
X140165230Y-92599968D01*
X140156051Y-92580562D01*
X140148819Y-92560350D01*
X140143603Y-92539526D01*
X140140453Y-92518291D01*
X140139400Y-92496850D01*
X140139400Y-92059350D01*
X140140453Y-92037909D01*
X140143603Y-92016674D01*
X140148819Y-91995850D01*
X140156051Y-91975638D01*
X140165230Y-91956232D01*
X140176266Y-91937819D01*
X140189054Y-91920576D01*
X140203470Y-91904670D01*
X140219376Y-91890254D01*
X140236619Y-91877466D01*
X140255032Y-91866430D01*
X140274438Y-91857251D01*
X140294650Y-91850019D01*
X140315474Y-91844803D01*
X140336709Y-91841653D01*
X140358150Y-91840600D01*
X140870650Y-91840600D01*
X140892091Y-91841653D01*
X140892091Y-91841653D01*
G37*
D16*
X140614400Y-92278100D03*
D12*
G36*
X140892091Y-93416653D02*
G01*
X140913326Y-93419803D01*
X140934150Y-93425019D01*
X140954362Y-93432251D01*
X140973768Y-93441430D01*
X140992181Y-93452466D01*
X141009424Y-93465254D01*
X141025330Y-93479670D01*
X141039746Y-93495576D01*
X141052534Y-93512819D01*
X141063570Y-93531232D01*
X141072749Y-93550638D01*
X141079981Y-93570850D01*
X141085197Y-93591674D01*
X141088347Y-93612909D01*
X141089400Y-93634350D01*
X141089400Y-94071850D01*
X141088347Y-94093291D01*
X141085197Y-94114526D01*
X141079981Y-94135350D01*
X141072749Y-94155562D01*
X141063570Y-94174968D01*
X141052534Y-94193381D01*
X141039746Y-94210624D01*
X141025330Y-94226530D01*
X141009424Y-94240946D01*
X140992181Y-94253734D01*
X140973768Y-94264770D01*
X140954362Y-94273949D01*
X140934150Y-94281181D01*
X140913326Y-94286397D01*
X140892091Y-94289547D01*
X140870650Y-94290600D01*
X140358150Y-94290600D01*
X140336709Y-94289547D01*
X140315474Y-94286397D01*
X140294650Y-94281181D01*
X140274438Y-94273949D01*
X140255032Y-94264770D01*
X140236619Y-94253734D01*
X140219376Y-94240946D01*
X140203470Y-94226530D01*
X140189054Y-94210624D01*
X140176266Y-94193381D01*
X140165230Y-94174968D01*
X140156051Y-94155562D01*
X140148819Y-94135350D01*
X140143603Y-94114526D01*
X140140453Y-94093291D01*
X140139400Y-94071850D01*
X140139400Y-93634350D01*
X140140453Y-93612909D01*
X140143603Y-93591674D01*
X140148819Y-93570850D01*
X140156051Y-93550638D01*
X140165230Y-93531232D01*
X140176266Y-93512819D01*
X140189054Y-93495576D01*
X140203470Y-93479670D01*
X140219376Y-93465254D01*
X140236619Y-93452466D01*
X140255032Y-93441430D01*
X140274438Y-93432251D01*
X140294650Y-93425019D01*
X140315474Y-93419803D01*
X140336709Y-93416653D01*
X140358150Y-93415600D01*
X140870650Y-93415600D01*
X140892091Y-93416653D01*
X140892091Y-93416653D01*
G37*
D16*
X140614400Y-93853100D03*
D12*
G36*
X131109691Y-87032053D02*
G01*
X131130926Y-87035203D01*
X131151750Y-87040419D01*
X131171962Y-87047651D01*
X131191368Y-87056830D01*
X131209781Y-87067866D01*
X131227024Y-87080654D01*
X131242930Y-87095070D01*
X131257346Y-87110976D01*
X131270134Y-87128219D01*
X131281170Y-87146632D01*
X131290349Y-87166038D01*
X131297581Y-87186250D01*
X131302797Y-87207074D01*
X131305947Y-87228309D01*
X131307000Y-87249750D01*
X131307000Y-87762250D01*
X131305947Y-87783691D01*
X131302797Y-87804926D01*
X131297581Y-87825750D01*
X131290349Y-87845962D01*
X131281170Y-87865368D01*
X131270134Y-87883781D01*
X131257346Y-87901024D01*
X131242930Y-87916930D01*
X131227024Y-87931346D01*
X131209781Y-87944134D01*
X131191368Y-87955170D01*
X131171962Y-87964349D01*
X131151750Y-87971581D01*
X131130926Y-87976797D01*
X131109691Y-87979947D01*
X131088250Y-87981000D01*
X130650750Y-87981000D01*
X130629309Y-87979947D01*
X130608074Y-87976797D01*
X130587250Y-87971581D01*
X130567038Y-87964349D01*
X130547632Y-87955170D01*
X130529219Y-87944134D01*
X130511976Y-87931346D01*
X130496070Y-87916930D01*
X130481654Y-87901024D01*
X130468866Y-87883781D01*
X130457830Y-87865368D01*
X130448651Y-87845962D01*
X130441419Y-87825750D01*
X130436203Y-87804926D01*
X130433053Y-87783691D01*
X130432000Y-87762250D01*
X130432000Y-87249750D01*
X130433053Y-87228309D01*
X130436203Y-87207074D01*
X130441419Y-87186250D01*
X130448651Y-87166038D01*
X130457830Y-87146632D01*
X130468866Y-87128219D01*
X130481654Y-87110976D01*
X130496070Y-87095070D01*
X130511976Y-87080654D01*
X130529219Y-87067866D01*
X130547632Y-87056830D01*
X130567038Y-87047651D01*
X130587250Y-87040419D01*
X130608074Y-87035203D01*
X130629309Y-87032053D01*
X130650750Y-87031000D01*
X131088250Y-87031000D01*
X131109691Y-87032053D01*
X131109691Y-87032053D01*
G37*
D16*
X130869500Y-87506000D03*
D12*
G36*
X132684691Y-87032053D02*
G01*
X132705926Y-87035203D01*
X132726750Y-87040419D01*
X132746962Y-87047651D01*
X132766368Y-87056830D01*
X132784781Y-87067866D01*
X132802024Y-87080654D01*
X132817930Y-87095070D01*
X132832346Y-87110976D01*
X132845134Y-87128219D01*
X132856170Y-87146632D01*
X132865349Y-87166038D01*
X132872581Y-87186250D01*
X132877797Y-87207074D01*
X132880947Y-87228309D01*
X132882000Y-87249750D01*
X132882000Y-87762250D01*
X132880947Y-87783691D01*
X132877797Y-87804926D01*
X132872581Y-87825750D01*
X132865349Y-87845962D01*
X132856170Y-87865368D01*
X132845134Y-87883781D01*
X132832346Y-87901024D01*
X132817930Y-87916930D01*
X132802024Y-87931346D01*
X132784781Y-87944134D01*
X132766368Y-87955170D01*
X132746962Y-87964349D01*
X132726750Y-87971581D01*
X132705926Y-87976797D01*
X132684691Y-87979947D01*
X132663250Y-87981000D01*
X132225750Y-87981000D01*
X132204309Y-87979947D01*
X132183074Y-87976797D01*
X132162250Y-87971581D01*
X132142038Y-87964349D01*
X132122632Y-87955170D01*
X132104219Y-87944134D01*
X132086976Y-87931346D01*
X132071070Y-87916930D01*
X132056654Y-87901024D01*
X132043866Y-87883781D01*
X132032830Y-87865368D01*
X132023651Y-87845962D01*
X132016419Y-87825750D01*
X132011203Y-87804926D01*
X132008053Y-87783691D01*
X132007000Y-87762250D01*
X132007000Y-87249750D01*
X132008053Y-87228309D01*
X132011203Y-87207074D01*
X132016419Y-87186250D01*
X132023651Y-87166038D01*
X132032830Y-87146632D01*
X132043866Y-87128219D01*
X132056654Y-87110976D01*
X132071070Y-87095070D01*
X132086976Y-87080654D01*
X132104219Y-87067866D01*
X132122632Y-87056830D01*
X132142038Y-87047651D01*
X132162250Y-87040419D01*
X132183074Y-87035203D01*
X132204309Y-87032053D01*
X132225750Y-87031000D01*
X132663250Y-87031000D01*
X132684691Y-87032053D01*
X132684691Y-87032053D01*
G37*
D16*
X132444500Y-87506000D03*
D12*
G36*
X172424691Y-89396053D02*
G01*
X172445926Y-89399203D01*
X172466750Y-89404419D01*
X172486962Y-89411651D01*
X172506368Y-89420830D01*
X172524781Y-89431866D01*
X172542024Y-89444654D01*
X172557930Y-89459070D01*
X172572346Y-89474976D01*
X172585134Y-89492219D01*
X172596170Y-89510632D01*
X172605349Y-89530038D01*
X172612581Y-89550250D01*
X172617797Y-89571074D01*
X172620947Y-89592309D01*
X172622000Y-89613750D01*
X172622000Y-90051250D01*
X172620947Y-90072691D01*
X172617797Y-90093926D01*
X172612581Y-90114750D01*
X172605349Y-90134962D01*
X172596170Y-90154368D01*
X172585134Y-90172781D01*
X172572346Y-90190024D01*
X172557930Y-90205930D01*
X172542024Y-90220346D01*
X172524781Y-90233134D01*
X172506368Y-90244170D01*
X172486962Y-90253349D01*
X172466750Y-90260581D01*
X172445926Y-90265797D01*
X172424691Y-90268947D01*
X172403250Y-90270000D01*
X171890750Y-90270000D01*
X171869309Y-90268947D01*
X171848074Y-90265797D01*
X171827250Y-90260581D01*
X171807038Y-90253349D01*
X171787632Y-90244170D01*
X171769219Y-90233134D01*
X171751976Y-90220346D01*
X171736070Y-90205930D01*
X171721654Y-90190024D01*
X171708866Y-90172781D01*
X171697830Y-90154368D01*
X171688651Y-90134962D01*
X171681419Y-90114750D01*
X171676203Y-90093926D01*
X171673053Y-90072691D01*
X171672000Y-90051250D01*
X171672000Y-89613750D01*
X171673053Y-89592309D01*
X171676203Y-89571074D01*
X171681419Y-89550250D01*
X171688651Y-89530038D01*
X171697830Y-89510632D01*
X171708866Y-89492219D01*
X171721654Y-89474976D01*
X171736070Y-89459070D01*
X171751976Y-89444654D01*
X171769219Y-89431866D01*
X171787632Y-89420830D01*
X171807038Y-89411651D01*
X171827250Y-89404419D01*
X171848074Y-89399203D01*
X171869309Y-89396053D01*
X171890750Y-89395000D01*
X172403250Y-89395000D01*
X172424691Y-89396053D01*
X172424691Y-89396053D01*
G37*
D16*
X172147000Y-89832500D03*
D12*
G36*
X172424691Y-87821053D02*
G01*
X172445926Y-87824203D01*
X172466750Y-87829419D01*
X172486962Y-87836651D01*
X172506368Y-87845830D01*
X172524781Y-87856866D01*
X172542024Y-87869654D01*
X172557930Y-87884070D01*
X172572346Y-87899976D01*
X172585134Y-87917219D01*
X172596170Y-87935632D01*
X172605349Y-87955038D01*
X172612581Y-87975250D01*
X172617797Y-87996074D01*
X172620947Y-88017309D01*
X172622000Y-88038750D01*
X172622000Y-88476250D01*
X172620947Y-88497691D01*
X172617797Y-88518926D01*
X172612581Y-88539750D01*
X172605349Y-88559962D01*
X172596170Y-88579368D01*
X172585134Y-88597781D01*
X172572346Y-88615024D01*
X172557930Y-88630930D01*
X172542024Y-88645346D01*
X172524781Y-88658134D01*
X172506368Y-88669170D01*
X172486962Y-88678349D01*
X172466750Y-88685581D01*
X172445926Y-88690797D01*
X172424691Y-88693947D01*
X172403250Y-88695000D01*
X171890750Y-88695000D01*
X171869309Y-88693947D01*
X171848074Y-88690797D01*
X171827250Y-88685581D01*
X171807038Y-88678349D01*
X171787632Y-88669170D01*
X171769219Y-88658134D01*
X171751976Y-88645346D01*
X171736070Y-88630930D01*
X171721654Y-88615024D01*
X171708866Y-88597781D01*
X171697830Y-88579368D01*
X171688651Y-88559962D01*
X171681419Y-88539750D01*
X171676203Y-88518926D01*
X171673053Y-88497691D01*
X171672000Y-88476250D01*
X171672000Y-88038750D01*
X171673053Y-88017309D01*
X171676203Y-87996074D01*
X171681419Y-87975250D01*
X171688651Y-87955038D01*
X171697830Y-87935632D01*
X171708866Y-87917219D01*
X171721654Y-87899976D01*
X171736070Y-87884070D01*
X171751976Y-87869654D01*
X171769219Y-87856866D01*
X171787632Y-87845830D01*
X171807038Y-87836651D01*
X171827250Y-87829419D01*
X171848074Y-87824203D01*
X171869309Y-87821053D01*
X171890750Y-87820000D01*
X172403250Y-87820000D01*
X172424691Y-87821053D01*
X172424691Y-87821053D01*
G37*
D16*
X172147000Y-88257500D03*
D17*
X188933000Y-78265000D03*
X188933000Y-74965000D03*
D12*
G36*
X184986329Y-74921023D02*
G01*
X185006957Y-74924083D01*
X185027185Y-74929150D01*
X185046820Y-74936176D01*
X185065672Y-74945092D01*
X185083559Y-74955813D01*
X185100309Y-74968235D01*
X185115760Y-74982240D01*
X185129765Y-74997691D01*
X185142187Y-75014441D01*
X185152908Y-75032328D01*
X185161824Y-75051180D01*
X185168850Y-75070815D01*
X185173917Y-75091043D01*
X185176977Y-75111671D01*
X185178000Y-75132500D01*
X185178000Y-75557500D01*
X185176977Y-75578329D01*
X185173917Y-75598957D01*
X185168850Y-75619185D01*
X185161824Y-75638820D01*
X185152908Y-75657672D01*
X185142187Y-75675559D01*
X185129765Y-75692309D01*
X185115760Y-75707760D01*
X185100309Y-75721765D01*
X185083559Y-75734187D01*
X185065672Y-75744908D01*
X185046820Y-75753824D01*
X185027185Y-75760850D01*
X185006957Y-75765917D01*
X184986329Y-75768977D01*
X184965500Y-75770000D01*
X184165500Y-75770000D01*
X184144671Y-75768977D01*
X184124043Y-75765917D01*
X184103815Y-75760850D01*
X184084180Y-75753824D01*
X184065328Y-75744908D01*
X184047441Y-75734187D01*
X184030691Y-75721765D01*
X184015240Y-75707760D01*
X184001235Y-75692309D01*
X183988813Y-75675559D01*
X183978092Y-75657672D01*
X183969176Y-75638820D01*
X183962150Y-75619185D01*
X183957083Y-75598957D01*
X183954023Y-75578329D01*
X183953000Y-75557500D01*
X183953000Y-75132500D01*
X183954023Y-75111671D01*
X183957083Y-75091043D01*
X183962150Y-75070815D01*
X183969176Y-75051180D01*
X183978092Y-75032328D01*
X183988813Y-75014441D01*
X184001235Y-74997691D01*
X184015240Y-74982240D01*
X184030691Y-74968235D01*
X184047441Y-74955813D01*
X184065328Y-74945092D01*
X184084180Y-74936176D01*
X184103815Y-74929150D01*
X184124043Y-74924083D01*
X184144671Y-74921023D01*
X184165500Y-74920000D01*
X184965500Y-74920000D01*
X184986329Y-74921023D01*
X184986329Y-74921023D01*
G37*
D18*
X184565500Y-75345000D03*
D12*
G36*
X186611329Y-74921023D02*
G01*
X186631957Y-74924083D01*
X186652185Y-74929150D01*
X186671820Y-74936176D01*
X186690672Y-74945092D01*
X186708559Y-74955813D01*
X186725309Y-74968235D01*
X186740760Y-74982240D01*
X186754765Y-74997691D01*
X186767187Y-75014441D01*
X186777908Y-75032328D01*
X186786824Y-75051180D01*
X186793850Y-75070815D01*
X186798917Y-75091043D01*
X186801977Y-75111671D01*
X186803000Y-75132500D01*
X186803000Y-75557500D01*
X186801977Y-75578329D01*
X186798917Y-75598957D01*
X186793850Y-75619185D01*
X186786824Y-75638820D01*
X186777908Y-75657672D01*
X186767187Y-75675559D01*
X186754765Y-75692309D01*
X186740760Y-75707760D01*
X186725309Y-75721765D01*
X186708559Y-75734187D01*
X186690672Y-75744908D01*
X186671820Y-75753824D01*
X186652185Y-75760850D01*
X186631957Y-75765917D01*
X186611329Y-75768977D01*
X186590500Y-75770000D01*
X185790500Y-75770000D01*
X185769671Y-75768977D01*
X185749043Y-75765917D01*
X185728815Y-75760850D01*
X185709180Y-75753824D01*
X185690328Y-75744908D01*
X185672441Y-75734187D01*
X185655691Y-75721765D01*
X185640240Y-75707760D01*
X185626235Y-75692309D01*
X185613813Y-75675559D01*
X185603092Y-75657672D01*
X185594176Y-75638820D01*
X185587150Y-75619185D01*
X185582083Y-75598957D01*
X185579023Y-75578329D01*
X185578000Y-75557500D01*
X185578000Y-75132500D01*
X185579023Y-75111671D01*
X185582083Y-75091043D01*
X185587150Y-75070815D01*
X185594176Y-75051180D01*
X185603092Y-75032328D01*
X185613813Y-75014441D01*
X185626235Y-74997691D01*
X185640240Y-74982240D01*
X185655691Y-74968235D01*
X185672441Y-74955813D01*
X185690328Y-74945092D01*
X185709180Y-74936176D01*
X185728815Y-74929150D01*
X185749043Y-74924083D01*
X185769671Y-74921023D01*
X185790500Y-74920000D01*
X186590500Y-74920000D01*
X186611329Y-74921023D01*
X186611329Y-74921023D01*
G37*
D18*
X186190500Y-75345000D03*
D19*
X182350500Y-95631000D03*
X185650500Y-95631000D03*
D12*
G36*
X134129329Y-97261523D02*
G01*
X134149957Y-97264583D01*
X134170185Y-97269650D01*
X134189820Y-97276676D01*
X134208672Y-97285592D01*
X134226559Y-97296313D01*
X134243309Y-97308735D01*
X134258760Y-97322740D01*
X134272765Y-97338191D01*
X134285187Y-97354941D01*
X134295908Y-97372828D01*
X134304824Y-97391680D01*
X134311850Y-97411315D01*
X134316917Y-97431543D01*
X134319977Y-97452171D01*
X134321000Y-97473000D01*
X134321000Y-98273000D01*
X134319977Y-98293829D01*
X134316917Y-98314457D01*
X134311850Y-98334685D01*
X134304824Y-98354320D01*
X134295908Y-98373172D01*
X134285187Y-98391059D01*
X134272765Y-98407809D01*
X134258760Y-98423260D01*
X134243309Y-98437265D01*
X134226559Y-98449687D01*
X134208672Y-98460408D01*
X134189820Y-98469324D01*
X134170185Y-98476350D01*
X134149957Y-98481417D01*
X134129329Y-98484477D01*
X134108500Y-98485500D01*
X133683500Y-98485500D01*
X133662671Y-98484477D01*
X133642043Y-98481417D01*
X133621815Y-98476350D01*
X133602180Y-98469324D01*
X133583328Y-98460408D01*
X133565441Y-98449687D01*
X133548691Y-98437265D01*
X133533240Y-98423260D01*
X133519235Y-98407809D01*
X133506813Y-98391059D01*
X133496092Y-98373172D01*
X133487176Y-98354320D01*
X133480150Y-98334685D01*
X133475083Y-98314457D01*
X133472023Y-98293829D01*
X133471000Y-98273000D01*
X133471000Y-97473000D01*
X133472023Y-97452171D01*
X133475083Y-97431543D01*
X133480150Y-97411315D01*
X133487176Y-97391680D01*
X133496092Y-97372828D01*
X133506813Y-97354941D01*
X133519235Y-97338191D01*
X133533240Y-97322740D01*
X133548691Y-97308735D01*
X133565441Y-97296313D01*
X133583328Y-97285592D01*
X133602180Y-97276676D01*
X133621815Y-97269650D01*
X133642043Y-97264583D01*
X133662671Y-97261523D01*
X133683500Y-97260500D01*
X134108500Y-97260500D01*
X134129329Y-97261523D01*
X134129329Y-97261523D01*
G37*
D18*
X133896000Y-97873000D03*
D12*
G36*
X134129329Y-98886523D02*
G01*
X134149957Y-98889583D01*
X134170185Y-98894650D01*
X134189820Y-98901676D01*
X134208672Y-98910592D01*
X134226559Y-98921313D01*
X134243309Y-98933735D01*
X134258760Y-98947740D01*
X134272765Y-98963191D01*
X134285187Y-98979941D01*
X134295908Y-98997828D01*
X134304824Y-99016680D01*
X134311850Y-99036315D01*
X134316917Y-99056543D01*
X134319977Y-99077171D01*
X134321000Y-99098000D01*
X134321000Y-99898000D01*
X134319977Y-99918829D01*
X134316917Y-99939457D01*
X134311850Y-99959685D01*
X134304824Y-99979320D01*
X134295908Y-99998172D01*
X134285187Y-100016059D01*
X134272765Y-100032809D01*
X134258760Y-100048260D01*
X134243309Y-100062265D01*
X134226559Y-100074687D01*
X134208672Y-100085408D01*
X134189820Y-100094324D01*
X134170185Y-100101350D01*
X134149957Y-100106417D01*
X134129329Y-100109477D01*
X134108500Y-100110500D01*
X133683500Y-100110500D01*
X133662671Y-100109477D01*
X133642043Y-100106417D01*
X133621815Y-100101350D01*
X133602180Y-100094324D01*
X133583328Y-100085408D01*
X133565441Y-100074687D01*
X133548691Y-100062265D01*
X133533240Y-100048260D01*
X133519235Y-100032809D01*
X133506813Y-100016059D01*
X133496092Y-99998172D01*
X133487176Y-99979320D01*
X133480150Y-99959685D01*
X133475083Y-99939457D01*
X133472023Y-99918829D01*
X133471000Y-99898000D01*
X133471000Y-99098000D01*
X133472023Y-99077171D01*
X133475083Y-99056543D01*
X133480150Y-99036315D01*
X133487176Y-99016680D01*
X133496092Y-98997828D01*
X133506813Y-98979941D01*
X133519235Y-98963191D01*
X133533240Y-98947740D01*
X133548691Y-98933735D01*
X133565441Y-98921313D01*
X133583328Y-98910592D01*
X133602180Y-98901676D01*
X133621815Y-98894650D01*
X133642043Y-98889583D01*
X133662671Y-98886523D01*
X133683500Y-98885500D01*
X134108500Y-98885500D01*
X134129329Y-98886523D01*
X134129329Y-98886523D01*
G37*
D18*
X133896000Y-99498000D03*
D20*
X127066000Y-97955500D03*
X127066000Y-99355500D03*
X130566000Y-97955500D03*
X130566000Y-99355500D03*
D17*
X179578000Y-113106000D03*
X179578000Y-109806000D03*
D21*
X144513000Y-102968000D03*
X143563000Y-100968000D03*
X145463000Y-100968000D03*
X145463000Y-114684000D03*
X143563000Y-114684000D03*
X144513000Y-116684000D03*
D12*
G36*
X134156779Y-93059144D02*
G01*
X134179834Y-93062563D01*
X134202443Y-93068227D01*
X134224387Y-93076079D01*
X134245457Y-93086044D01*
X134265448Y-93098026D01*
X134284168Y-93111910D01*
X134301438Y-93127562D01*
X134317090Y-93144832D01*
X134330974Y-93163552D01*
X134342956Y-93183543D01*
X134352921Y-93204613D01*
X134360773Y-93226557D01*
X134366437Y-93249166D01*
X134369856Y-93272221D01*
X134371000Y-93295500D01*
X134371000Y-93870500D01*
X134369856Y-93893779D01*
X134366437Y-93916834D01*
X134360773Y-93939443D01*
X134352921Y-93961387D01*
X134342956Y-93982457D01*
X134330974Y-94002448D01*
X134317090Y-94021168D01*
X134301438Y-94038438D01*
X134284168Y-94054090D01*
X134265448Y-94067974D01*
X134245457Y-94079956D01*
X134224387Y-94089921D01*
X134202443Y-94097773D01*
X134179834Y-94103437D01*
X134156779Y-94106856D01*
X134133500Y-94108000D01*
X133658500Y-94108000D01*
X133635221Y-94106856D01*
X133612166Y-94103437D01*
X133589557Y-94097773D01*
X133567613Y-94089921D01*
X133546543Y-94079956D01*
X133526552Y-94067974D01*
X133507832Y-94054090D01*
X133490562Y-94038438D01*
X133474910Y-94021168D01*
X133461026Y-94002448D01*
X133449044Y-93982457D01*
X133439079Y-93961387D01*
X133431227Y-93939443D01*
X133425563Y-93916834D01*
X133422144Y-93893779D01*
X133421000Y-93870500D01*
X133421000Y-93295500D01*
X133422144Y-93272221D01*
X133425563Y-93249166D01*
X133431227Y-93226557D01*
X133439079Y-93204613D01*
X133449044Y-93183543D01*
X133461026Y-93163552D01*
X133474910Y-93144832D01*
X133490562Y-93127562D01*
X133507832Y-93111910D01*
X133526552Y-93098026D01*
X133546543Y-93086044D01*
X133567613Y-93076079D01*
X133589557Y-93068227D01*
X133612166Y-93062563D01*
X133635221Y-93059144D01*
X133658500Y-93058000D01*
X134133500Y-93058000D01*
X134156779Y-93059144D01*
X134156779Y-93059144D01*
G37*
D22*
X133896000Y-93583000D03*
D12*
G36*
X134156779Y-94809144D02*
G01*
X134179834Y-94812563D01*
X134202443Y-94818227D01*
X134224387Y-94826079D01*
X134245457Y-94836044D01*
X134265448Y-94848026D01*
X134284168Y-94861910D01*
X134301438Y-94877562D01*
X134317090Y-94894832D01*
X134330974Y-94913552D01*
X134342956Y-94933543D01*
X134352921Y-94954613D01*
X134360773Y-94976557D01*
X134366437Y-94999166D01*
X134369856Y-95022221D01*
X134371000Y-95045500D01*
X134371000Y-95620500D01*
X134369856Y-95643779D01*
X134366437Y-95666834D01*
X134360773Y-95689443D01*
X134352921Y-95711387D01*
X134342956Y-95732457D01*
X134330974Y-95752448D01*
X134317090Y-95771168D01*
X134301438Y-95788438D01*
X134284168Y-95804090D01*
X134265448Y-95817974D01*
X134245457Y-95829956D01*
X134224387Y-95839921D01*
X134202443Y-95847773D01*
X134179834Y-95853437D01*
X134156779Y-95856856D01*
X134133500Y-95858000D01*
X133658500Y-95858000D01*
X133635221Y-95856856D01*
X133612166Y-95853437D01*
X133589557Y-95847773D01*
X133567613Y-95839921D01*
X133546543Y-95829956D01*
X133526552Y-95817974D01*
X133507832Y-95804090D01*
X133490562Y-95788438D01*
X133474910Y-95771168D01*
X133461026Y-95752448D01*
X133449044Y-95732457D01*
X133439079Y-95711387D01*
X133431227Y-95689443D01*
X133425563Y-95666834D01*
X133422144Y-95643779D01*
X133421000Y-95620500D01*
X133421000Y-95045500D01*
X133422144Y-95022221D01*
X133425563Y-94999166D01*
X133431227Y-94976557D01*
X133439079Y-94954613D01*
X133449044Y-94933543D01*
X133461026Y-94913552D01*
X133474910Y-94894832D01*
X133490562Y-94877562D01*
X133507832Y-94861910D01*
X133526552Y-94848026D01*
X133546543Y-94836044D01*
X133567613Y-94826079D01*
X133589557Y-94818227D01*
X133612166Y-94812563D01*
X133635221Y-94809144D01*
X133658500Y-94808000D01*
X134133500Y-94808000D01*
X134156779Y-94809144D01*
X134156779Y-94809144D01*
G37*
D22*
X133896000Y-95333000D03*
D12*
G36*
X126536779Y-94809144D02*
G01*
X126559834Y-94812563D01*
X126582443Y-94818227D01*
X126604387Y-94826079D01*
X126625457Y-94836044D01*
X126645448Y-94848026D01*
X126664168Y-94861910D01*
X126681438Y-94877562D01*
X126697090Y-94894832D01*
X126710974Y-94913552D01*
X126722956Y-94933543D01*
X126732921Y-94954613D01*
X126740773Y-94976557D01*
X126746437Y-94999166D01*
X126749856Y-95022221D01*
X126751000Y-95045500D01*
X126751000Y-95620500D01*
X126749856Y-95643779D01*
X126746437Y-95666834D01*
X126740773Y-95689443D01*
X126732921Y-95711387D01*
X126722956Y-95732457D01*
X126710974Y-95752448D01*
X126697090Y-95771168D01*
X126681438Y-95788438D01*
X126664168Y-95804090D01*
X126645448Y-95817974D01*
X126625457Y-95829956D01*
X126604387Y-95839921D01*
X126582443Y-95847773D01*
X126559834Y-95853437D01*
X126536779Y-95856856D01*
X126513500Y-95858000D01*
X126038500Y-95858000D01*
X126015221Y-95856856D01*
X125992166Y-95853437D01*
X125969557Y-95847773D01*
X125947613Y-95839921D01*
X125926543Y-95829956D01*
X125906552Y-95817974D01*
X125887832Y-95804090D01*
X125870562Y-95788438D01*
X125854910Y-95771168D01*
X125841026Y-95752448D01*
X125829044Y-95732457D01*
X125819079Y-95711387D01*
X125811227Y-95689443D01*
X125805563Y-95666834D01*
X125802144Y-95643779D01*
X125801000Y-95620500D01*
X125801000Y-95045500D01*
X125802144Y-95022221D01*
X125805563Y-94999166D01*
X125811227Y-94976557D01*
X125819079Y-94954613D01*
X125829044Y-94933543D01*
X125841026Y-94913552D01*
X125854910Y-94894832D01*
X125870562Y-94877562D01*
X125887832Y-94861910D01*
X125906552Y-94848026D01*
X125926543Y-94836044D01*
X125947613Y-94826079D01*
X125969557Y-94818227D01*
X125992166Y-94812563D01*
X126015221Y-94809144D01*
X126038500Y-94808000D01*
X126513500Y-94808000D01*
X126536779Y-94809144D01*
X126536779Y-94809144D01*
G37*
D22*
X126276000Y-95333000D03*
D12*
G36*
X126536779Y-93059144D02*
G01*
X126559834Y-93062563D01*
X126582443Y-93068227D01*
X126604387Y-93076079D01*
X126625457Y-93086044D01*
X126645448Y-93098026D01*
X126664168Y-93111910D01*
X126681438Y-93127562D01*
X126697090Y-93144832D01*
X126710974Y-93163552D01*
X126722956Y-93183543D01*
X126732921Y-93204613D01*
X126740773Y-93226557D01*
X126746437Y-93249166D01*
X126749856Y-93272221D01*
X126751000Y-93295500D01*
X126751000Y-93870500D01*
X126749856Y-93893779D01*
X126746437Y-93916834D01*
X126740773Y-93939443D01*
X126732921Y-93961387D01*
X126722956Y-93982457D01*
X126710974Y-94002448D01*
X126697090Y-94021168D01*
X126681438Y-94038438D01*
X126664168Y-94054090D01*
X126645448Y-94067974D01*
X126625457Y-94079956D01*
X126604387Y-94089921D01*
X126582443Y-94097773D01*
X126559834Y-94103437D01*
X126536779Y-94106856D01*
X126513500Y-94108000D01*
X126038500Y-94108000D01*
X126015221Y-94106856D01*
X125992166Y-94103437D01*
X125969557Y-94097773D01*
X125947613Y-94089921D01*
X125926543Y-94079956D01*
X125906552Y-94067974D01*
X125887832Y-94054090D01*
X125870562Y-94038438D01*
X125854910Y-94021168D01*
X125841026Y-94002448D01*
X125829044Y-93982457D01*
X125819079Y-93961387D01*
X125811227Y-93939443D01*
X125805563Y-93916834D01*
X125802144Y-93893779D01*
X125801000Y-93870500D01*
X125801000Y-93295500D01*
X125802144Y-93272221D01*
X125805563Y-93249166D01*
X125811227Y-93226557D01*
X125819079Y-93204613D01*
X125829044Y-93183543D01*
X125841026Y-93163552D01*
X125854910Y-93144832D01*
X125870562Y-93127562D01*
X125887832Y-93111910D01*
X125906552Y-93098026D01*
X125926543Y-93086044D01*
X125947613Y-93076079D01*
X125969557Y-93068227D01*
X125992166Y-93062563D01*
X126015221Y-93059144D01*
X126038500Y-93058000D01*
X126513500Y-93058000D01*
X126536779Y-93059144D01*
X126536779Y-93059144D01*
G37*
D22*
X126276000Y-93583000D03*
D12*
G36*
X129076779Y-93059144D02*
G01*
X129099834Y-93062563D01*
X129122443Y-93068227D01*
X129144387Y-93076079D01*
X129165457Y-93086044D01*
X129185448Y-93098026D01*
X129204168Y-93111910D01*
X129221438Y-93127562D01*
X129237090Y-93144832D01*
X129250974Y-93163552D01*
X129262956Y-93183543D01*
X129272921Y-93204613D01*
X129280773Y-93226557D01*
X129286437Y-93249166D01*
X129289856Y-93272221D01*
X129291000Y-93295500D01*
X129291000Y-93870500D01*
X129289856Y-93893779D01*
X129286437Y-93916834D01*
X129280773Y-93939443D01*
X129272921Y-93961387D01*
X129262956Y-93982457D01*
X129250974Y-94002448D01*
X129237090Y-94021168D01*
X129221438Y-94038438D01*
X129204168Y-94054090D01*
X129185448Y-94067974D01*
X129165457Y-94079956D01*
X129144387Y-94089921D01*
X129122443Y-94097773D01*
X129099834Y-94103437D01*
X129076779Y-94106856D01*
X129053500Y-94108000D01*
X128578500Y-94108000D01*
X128555221Y-94106856D01*
X128532166Y-94103437D01*
X128509557Y-94097773D01*
X128487613Y-94089921D01*
X128466543Y-94079956D01*
X128446552Y-94067974D01*
X128427832Y-94054090D01*
X128410562Y-94038438D01*
X128394910Y-94021168D01*
X128381026Y-94002448D01*
X128369044Y-93982457D01*
X128359079Y-93961387D01*
X128351227Y-93939443D01*
X128345563Y-93916834D01*
X128342144Y-93893779D01*
X128341000Y-93870500D01*
X128341000Y-93295500D01*
X128342144Y-93272221D01*
X128345563Y-93249166D01*
X128351227Y-93226557D01*
X128359079Y-93204613D01*
X128369044Y-93183543D01*
X128381026Y-93163552D01*
X128394910Y-93144832D01*
X128410562Y-93127562D01*
X128427832Y-93111910D01*
X128446552Y-93098026D01*
X128466543Y-93086044D01*
X128487613Y-93076079D01*
X128509557Y-93068227D01*
X128532166Y-93062563D01*
X128555221Y-93059144D01*
X128578500Y-93058000D01*
X129053500Y-93058000D01*
X129076779Y-93059144D01*
X129076779Y-93059144D01*
G37*
D22*
X128816000Y-93583000D03*
D12*
G36*
X129076779Y-94809144D02*
G01*
X129099834Y-94812563D01*
X129122443Y-94818227D01*
X129144387Y-94826079D01*
X129165457Y-94836044D01*
X129185448Y-94848026D01*
X129204168Y-94861910D01*
X129221438Y-94877562D01*
X129237090Y-94894832D01*
X129250974Y-94913552D01*
X129262956Y-94933543D01*
X129272921Y-94954613D01*
X129280773Y-94976557D01*
X129286437Y-94999166D01*
X129289856Y-95022221D01*
X129291000Y-95045500D01*
X129291000Y-95620500D01*
X129289856Y-95643779D01*
X129286437Y-95666834D01*
X129280773Y-95689443D01*
X129272921Y-95711387D01*
X129262956Y-95732457D01*
X129250974Y-95752448D01*
X129237090Y-95771168D01*
X129221438Y-95788438D01*
X129204168Y-95804090D01*
X129185448Y-95817974D01*
X129165457Y-95829956D01*
X129144387Y-95839921D01*
X129122443Y-95847773D01*
X129099834Y-95853437D01*
X129076779Y-95856856D01*
X129053500Y-95858000D01*
X128578500Y-95858000D01*
X128555221Y-95856856D01*
X128532166Y-95853437D01*
X128509557Y-95847773D01*
X128487613Y-95839921D01*
X128466543Y-95829956D01*
X128446552Y-95817974D01*
X128427832Y-95804090D01*
X128410562Y-95788438D01*
X128394910Y-95771168D01*
X128381026Y-95752448D01*
X128369044Y-95732457D01*
X128359079Y-95711387D01*
X128351227Y-95689443D01*
X128345563Y-95666834D01*
X128342144Y-95643779D01*
X128341000Y-95620500D01*
X128341000Y-95045500D01*
X128342144Y-95022221D01*
X128345563Y-94999166D01*
X128351227Y-94976557D01*
X128359079Y-94954613D01*
X128369044Y-94933543D01*
X128381026Y-94913552D01*
X128394910Y-94894832D01*
X128410562Y-94877562D01*
X128427832Y-94861910D01*
X128446552Y-94848026D01*
X128466543Y-94836044D01*
X128487613Y-94826079D01*
X128509557Y-94818227D01*
X128532166Y-94812563D01*
X128555221Y-94809144D01*
X128578500Y-94808000D01*
X129053500Y-94808000D01*
X129076779Y-94809144D01*
X129076779Y-94809144D01*
G37*
D22*
X128816000Y-95333000D03*
D12*
G36*
X131616779Y-94809144D02*
G01*
X131639834Y-94812563D01*
X131662443Y-94818227D01*
X131684387Y-94826079D01*
X131705457Y-94836044D01*
X131725448Y-94848026D01*
X131744168Y-94861910D01*
X131761438Y-94877562D01*
X131777090Y-94894832D01*
X131790974Y-94913552D01*
X131802956Y-94933543D01*
X131812921Y-94954613D01*
X131820773Y-94976557D01*
X131826437Y-94999166D01*
X131829856Y-95022221D01*
X131831000Y-95045500D01*
X131831000Y-95620500D01*
X131829856Y-95643779D01*
X131826437Y-95666834D01*
X131820773Y-95689443D01*
X131812921Y-95711387D01*
X131802956Y-95732457D01*
X131790974Y-95752448D01*
X131777090Y-95771168D01*
X131761438Y-95788438D01*
X131744168Y-95804090D01*
X131725448Y-95817974D01*
X131705457Y-95829956D01*
X131684387Y-95839921D01*
X131662443Y-95847773D01*
X131639834Y-95853437D01*
X131616779Y-95856856D01*
X131593500Y-95858000D01*
X131118500Y-95858000D01*
X131095221Y-95856856D01*
X131072166Y-95853437D01*
X131049557Y-95847773D01*
X131027613Y-95839921D01*
X131006543Y-95829956D01*
X130986552Y-95817974D01*
X130967832Y-95804090D01*
X130950562Y-95788438D01*
X130934910Y-95771168D01*
X130921026Y-95752448D01*
X130909044Y-95732457D01*
X130899079Y-95711387D01*
X130891227Y-95689443D01*
X130885563Y-95666834D01*
X130882144Y-95643779D01*
X130881000Y-95620500D01*
X130881000Y-95045500D01*
X130882144Y-95022221D01*
X130885563Y-94999166D01*
X130891227Y-94976557D01*
X130899079Y-94954613D01*
X130909044Y-94933543D01*
X130921026Y-94913552D01*
X130934910Y-94894832D01*
X130950562Y-94877562D01*
X130967832Y-94861910D01*
X130986552Y-94848026D01*
X131006543Y-94836044D01*
X131027613Y-94826079D01*
X131049557Y-94818227D01*
X131072166Y-94812563D01*
X131095221Y-94809144D01*
X131118500Y-94808000D01*
X131593500Y-94808000D01*
X131616779Y-94809144D01*
X131616779Y-94809144D01*
G37*
D22*
X131356000Y-95333000D03*
D12*
G36*
X131616779Y-93059144D02*
G01*
X131639834Y-93062563D01*
X131662443Y-93068227D01*
X131684387Y-93076079D01*
X131705457Y-93086044D01*
X131725448Y-93098026D01*
X131744168Y-93111910D01*
X131761438Y-93127562D01*
X131777090Y-93144832D01*
X131790974Y-93163552D01*
X131802956Y-93183543D01*
X131812921Y-93204613D01*
X131820773Y-93226557D01*
X131826437Y-93249166D01*
X131829856Y-93272221D01*
X131831000Y-93295500D01*
X131831000Y-93870500D01*
X131829856Y-93893779D01*
X131826437Y-93916834D01*
X131820773Y-93939443D01*
X131812921Y-93961387D01*
X131802956Y-93982457D01*
X131790974Y-94002448D01*
X131777090Y-94021168D01*
X131761438Y-94038438D01*
X131744168Y-94054090D01*
X131725448Y-94067974D01*
X131705457Y-94079956D01*
X131684387Y-94089921D01*
X131662443Y-94097773D01*
X131639834Y-94103437D01*
X131616779Y-94106856D01*
X131593500Y-94108000D01*
X131118500Y-94108000D01*
X131095221Y-94106856D01*
X131072166Y-94103437D01*
X131049557Y-94097773D01*
X131027613Y-94089921D01*
X131006543Y-94079956D01*
X130986552Y-94067974D01*
X130967832Y-94054090D01*
X130950562Y-94038438D01*
X130934910Y-94021168D01*
X130921026Y-94002448D01*
X130909044Y-93982457D01*
X130899079Y-93961387D01*
X130891227Y-93939443D01*
X130885563Y-93916834D01*
X130882144Y-93893779D01*
X130881000Y-93870500D01*
X130881000Y-93295500D01*
X130882144Y-93272221D01*
X130885563Y-93249166D01*
X130891227Y-93226557D01*
X130899079Y-93204613D01*
X130909044Y-93183543D01*
X130921026Y-93163552D01*
X130934910Y-93144832D01*
X130950562Y-93127562D01*
X130967832Y-93111910D01*
X130986552Y-93098026D01*
X131006543Y-93086044D01*
X131027613Y-93076079D01*
X131049557Y-93068227D01*
X131072166Y-93062563D01*
X131095221Y-93059144D01*
X131118500Y-93058000D01*
X131593500Y-93058000D01*
X131616779Y-93059144D01*
X131616779Y-93059144D01*
G37*
D22*
X131356000Y-93583000D03*
D12*
G36*
X143948779Y-108174144D02*
G01*
X143971834Y-108177563D01*
X143994443Y-108183227D01*
X144016387Y-108191079D01*
X144037457Y-108201044D01*
X144057448Y-108213026D01*
X144076168Y-108226910D01*
X144093438Y-108242562D01*
X144109090Y-108259832D01*
X144122974Y-108278552D01*
X144134956Y-108298543D01*
X144144921Y-108319613D01*
X144152773Y-108341557D01*
X144158437Y-108364166D01*
X144161856Y-108387221D01*
X144163000Y-108410500D01*
X144163000Y-108885500D01*
X144161856Y-108908779D01*
X144158437Y-108931834D01*
X144152773Y-108954443D01*
X144144921Y-108976387D01*
X144134956Y-108997457D01*
X144122974Y-109017448D01*
X144109090Y-109036168D01*
X144093438Y-109053438D01*
X144076168Y-109069090D01*
X144057448Y-109082974D01*
X144037457Y-109094956D01*
X144016387Y-109104921D01*
X143994443Y-109112773D01*
X143971834Y-109118437D01*
X143948779Y-109121856D01*
X143925500Y-109123000D01*
X143350500Y-109123000D01*
X143327221Y-109121856D01*
X143304166Y-109118437D01*
X143281557Y-109112773D01*
X143259613Y-109104921D01*
X143238543Y-109094956D01*
X143218552Y-109082974D01*
X143199832Y-109069090D01*
X143182562Y-109053438D01*
X143166910Y-109036168D01*
X143153026Y-109017448D01*
X143141044Y-108997457D01*
X143131079Y-108976387D01*
X143123227Y-108954443D01*
X143117563Y-108931834D01*
X143114144Y-108908779D01*
X143113000Y-108885500D01*
X143113000Y-108410500D01*
X143114144Y-108387221D01*
X143117563Y-108364166D01*
X143123227Y-108341557D01*
X143131079Y-108319613D01*
X143141044Y-108298543D01*
X143153026Y-108278552D01*
X143166910Y-108259832D01*
X143182562Y-108242562D01*
X143199832Y-108226910D01*
X143218552Y-108213026D01*
X143238543Y-108201044D01*
X143259613Y-108191079D01*
X143281557Y-108183227D01*
X143304166Y-108177563D01*
X143327221Y-108174144D01*
X143350500Y-108173000D01*
X143925500Y-108173000D01*
X143948779Y-108174144D01*
X143948779Y-108174144D01*
G37*
D22*
X143638000Y-108648000D03*
D12*
G36*
X145698779Y-108174144D02*
G01*
X145721834Y-108177563D01*
X145744443Y-108183227D01*
X145766387Y-108191079D01*
X145787457Y-108201044D01*
X145807448Y-108213026D01*
X145826168Y-108226910D01*
X145843438Y-108242562D01*
X145859090Y-108259832D01*
X145872974Y-108278552D01*
X145884956Y-108298543D01*
X145894921Y-108319613D01*
X145902773Y-108341557D01*
X145908437Y-108364166D01*
X145911856Y-108387221D01*
X145913000Y-108410500D01*
X145913000Y-108885500D01*
X145911856Y-108908779D01*
X145908437Y-108931834D01*
X145902773Y-108954443D01*
X145894921Y-108976387D01*
X145884956Y-108997457D01*
X145872974Y-109017448D01*
X145859090Y-109036168D01*
X145843438Y-109053438D01*
X145826168Y-109069090D01*
X145807448Y-109082974D01*
X145787457Y-109094956D01*
X145766387Y-109104921D01*
X145744443Y-109112773D01*
X145721834Y-109118437D01*
X145698779Y-109121856D01*
X145675500Y-109123000D01*
X145100500Y-109123000D01*
X145077221Y-109121856D01*
X145054166Y-109118437D01*
X145031557Y-109112773D01*
X145009613Y-109104921D01*
X144988543Y-109094956D01*
X144968552Y-109082974D01*
X144949832Y-109069090D01*
X144932562Y-109053438D01*
X144916910Y-109036168D01*
X144903026Y-109017448D01*
X144891044Y-108997457D01*
X144881079Y-108976387D01*
X144873227Y-108954443D01*
X144867563Y-108931834D01*
X144864144Y-108908779D01*
X144863000Y-108885500D01*
X144863000Y-108410500D01*
X144864144Y-108387221D01*
X144867563Y-108364166D01*
X144873227Y-108341557D01*
X144881079Y-108319613D01*
X144891044Y-108298543D01*
X144903026Y-108278552D01*
X144916910Y-108259832D01*
X144932562Y-108242562D01*
X144949832Y-108226910D01*
X144968552Y-108213026D01*
X144988543Y-108201044D01*
X145009613Y-108191079D01*
X145031557Y-108183227D01*
X145054166Y-108177563D01*
X145077221Y-108174144D01*
X145100500Y-108173000D01*
X145675500Y-108173000D01*
X145698779Y-108174144D01*
X145698779Y-108174144D01*
G37*
D22*
X145388000Y-108648000D03*
D12*
G36*
X141982779Y-72697144D02*
G01*
X142005834Y-72700563D01*
X142028443Y-72706227D01*
X142050387Y-72714079D01*
X142071457Y-72724044D01*
X142091448Y-72736026D01*
X142110168Y-72749910D01*
X142127438Y-72765562D01*
X142143090Y-72782832D01*
X142156974Y-72801552D01*
X142168956Y-72821543D01*
X142178921Y-72842613D01*
X142186773Y-72864557D01*
X142192437Y-72887166D01*
X142195856Y-72910221D01*
X142197000Y-72933500D01*
X142197000Y-73408500D01*
X142195856Y-73431779D01*
X142192437Y-73454834D01*
X142186773Y-73477443D01*
X142178921Y-73499387D01*
X142168956Y-73520457D01*
X142156974Y-73540448D01*
X142143090Y-73559168D01*
X142127438Y-73576438D01*
X142110168Y-73592090D01*
X142091448Y-73605974D01*
X142071457Y-73617956D01*
X142050387Y-73627921D01*
X142028443Y-73635773D01*
X142005834Y-73641437D01*
X141982779Y-73644856D01*
X141959500Y-73646000D01*
X141384500Y-73646000D01*
X141361221Y-73644856D01*
X141338166Y-73641437D01*
X141315557Y-73635773D01*
X141293613Y-73627921D01*
X141272543Y-73617956D01*
X141252552Y-73605974D01*
X141233832Y-73592090D01*
X141216562Y-73576438D01*
X141200910Y-73559168D01*
X141187026Y-73540448D01*
X141175044Y-73520457D01*
X141165079Y-73499387D01*
X141157227Y-73477443D01*
X141151563Y-73454834D01*
X141148144Y-73431779D01*
X141147000Y-73408500D01*
X141147000Y-72933500D01*
X141148144Y-72910221D01*
X141151563Y-72887166D01*
X141157227Y-72864557D01*
X141165079Y-72842613D01*
X141175044Y-72821543D01*
X141187026Y-72801552D01*
X141200910Y-72782832D01*
X141216562Y-72765562D01*
X141233832Y-72749910D01*
X141252552Y-72736026D01*
X141272543Y-72724044D01*
X141293613Y-72714079D01*
X141315557Y-72706227D01*
X141338166Y-72700563D01*
X141361221Y-72697144D01*
X141384500Y-72696000D01*
X141959500Y-72696000D01*
X141982779Y-72697144D01*
X141982779Y-72697144D01*
G37*
D22*
X141672000Y-73171000D03*
D12*
G36*
X143732779Y-72697144D02*
G01*
X143755834Y-72700563D01*
X143778443Y-72706227D01*
X143800387Y-72714079D01*
X143821457Y-72724044D01*
X143841448Y-72736026D01*
X143860168Y-72749910D01*
X143877438Y-72765562D01*
X143893090Y-72782832D01*
X143906974Y-72801552D01*
X143918956Y-72821543D01*
X143928921Y-72842613D01*
X143936773Y-72864557D01*
X143942437Y-72887166D01*
X143945856Y-72910221D01*
X143947000Y-72933500D01*
X143947000Y-73408500D01*
X143945856Y-73431779D01*
X143942437Y-73454834D01*
X143936773Y-73477443D01*
X143928921Y-73499387D01*
X143918956Y-73520457D01*
X143906974Y-73540448D01*
X143893090Y-73559168D01*
X143877438Y-73576438D01*
X143860168Y-73592090D01*
X143841448Y-73605974D01*
X143821457Y-73617956D01*
X143800387Y-73627921D01*
X143778443Y-73635773D01*
X143755834Y-73641437D01*
X143732779Y-73644856D01*
X143709500Y-73646000D01*
X143134500Y-73646000D01*
X143111221Y-73644856D01*
X143088166Y-73641437D01*
X143065557Y-73635773D01*
X143043613Y-73627921D01*
X143022543Y-73617956D01*
X143002552Y-73605974D01*
X142983832Y-73592090D01*
X142966562Y-73576438D01*
X142950910Y-73559168D01*
X142937026Y-73540448D01*
X142925044Y-73520457D01*
X142915079Y-73499387D01*
X142907227Y-73477443D01*
X142901563Y-73454834D01*
X142898144Y-73431779D01*
X142897000Y-73408500D01*
X142897000Y-72933500D01*
X142898144Y-72910221D01*
X142901563Y-72887166D01*
X142907227Y-72864557D01*
X142915079Y-72842613D01*
X142925044Y-72821543D01*
X142937026Y-72801552D01*
X142950910Y-72782832D01*
X142966562Y-72765562D01*
X142983832Y-72749910D01*
X143002552Y-72736026D01*
X143022543Y-72724044D01*
X143043613Y-72714079D01*
X143065557Y-72706227D01*
X143088166Y-72700563D01*
X143111221Y-72697144D01*
X143134500Y-72696000D01*
X143709500Y-72696000D01*
X143732779Y-72697144D01*
X143732779Y-72697144D01*
G37*
D22*
X143422000Y-73171000D03*
D12*
G36*
X143732779Y-70157144D02*
G01*
X143755834Y-70160563D01*
X143778443Y-70166227D01*
X143800387Y-70174079D01*
X143821457Y-70184044D01*
X143841448Y-70196026D01*
X143860168Y-70209910D01*
X143877438Y-70225562D01*
X143893090Y-70242832D01*
X143906974Y-70261552D01*
X143918956Y-70281543D01*
X143928921Y-70302613D01*
X143936773Y-70324557D01*
X143942437Y-70347166D01*
X143945856Y-70370221D01*
X143947000Y-70393500D01*
X143947000Y-70868500D01*
X143945856Y-70891779D01*
X143942437Y-70914834D01*
X143936773Y-70937443D01*
X143928921Y-70959387D01*
X143918956Y-70980457D01*
X143906974Y-71000448D01*
X143893090Y-71019168D01*
X143877438Y-71036438D01*
X143860168Y-71052090D01*
X143841448Y-71065974D01*
X143821457Y-71077956D01*
X143800387Y-71087921D01*
X143778443Y-71095773D01*
X143755834Y-71101437D01*
X143732779Y-71104856D01*
X143709500Y-71106000D01*
X143134500Y-71106000D01*
X143111221Y-71104856D01*
X143088166Y-71101437D01*
X143065557Y-71095773D01*
X143043613Y-71087921D01*
X143022543Y-71077956D01*
X143002552Y-71065974D01*
X142983832Y-71052090D01*
X142966562Y-71036438D01*
X142950910Y-71019168D01*
X142937026Y-71000448D01*
X142925044Y-70980457D01*
X142915079Y-70959387D01*
X142907227Y-70937443D01*
X142901563Y-70914834D01*
X142898144Y-70891779D01*
X142897000Y-70868500D01*
X142897000Y-70393500D01*
X142898144Y-70370221D01*
X142901563Y-70347166D01*
X142907227Y-70324557D01*
X142915079Y-70302613D01*
X142925044Y-70281543D01*
X142937026Y-70261552D01*
X142950910Y-70242832D01*
X142966562Y-70225562D01*
X142983832Y-70209910D01*
X143002552Y-70196026D01*
X143022543Y-70184044D01*
X143043613Y-70174079D01*
X143065557Y-70166227D01*
X143088166Y-70160563D01*
X143111221Y-70157144D01*
X143134500Y-70156000D01*
X143709500Y-70156000D01*
X143732779Y-70157144D01*
X143732779Y-70157144D01*
G37*
D22*
X143422000Y-70631000D03*
D12*
G36*
X141982779Y-70157144D02*
G01*
X142005834Y-70160563D01*
X142028443Y-70166227D01*
X142050387Y-70174079D01*
X142071457Y-70184044D01*
X142091448Y-70196026D01*
X142110168Y-70209910D01*
X142127438Y-70225562D01*
X142143090Y-70242832D01*
X142156974Y-70261552D01*
X142168956Y-70281543D01*
X142178921Y-70302613D01*
X142186773Y-70324557D01*
X142192437Y-70347166D01*
X142195856Y-70370221D01*
X142197000Y-70393500D01*
X142197000Y-70868500D01*
X142195856Y-70891779D01*
X142192437Y-70914834D01*
X142186773Y-70937443D01*
X142178921Y-70959387D01*
X142168956Y-70980457D01*
X142156974Y-71000448D01*
X142143090Y-71019168D01*
X142127438Y-71036438D01*
X142110168Y-71052090D01*
X142091448Y-71065974D01*
X142071457Y-71077956D01*
X142050387Y-71087921D01*
X142028443Y-71095773D01*
X142005834Y-71101437D01*
X141982779Y-71104856D01*
X141959500Y-71106000D01*
X141384500Y-71106000D01*
X141361221Y-71104856D01*
X141338166Y-71101437D01*
X141315557Y-71095773D01*
X141293613Y-71087921D01*
X141272543Y-71077956D01*
X141252552Y-71065974D01*
X141233832Y-71052090D01*
X141216562Y-71036438D01*
X141200910Y-71019168D01*
X141187026Y-71000448D01*
X141175044Y-70980457D01*
X141165079Y-70959387D01*
X141157227Y-70937443D01*
X141151563Y-70914834D01*
X141148144Y-70891779D01*
X141147000Y-70868500D01*
X141147000Y-70393500D01*
X141148144Y-70370221D01*
X141151563Y-70347166D01*
X141157227Y-70324557D01*
X141165079Y-70302613D01*
X141175044Y-70281543D01*
X141187026Y-70261552D01*
X141200910Y-70242832D01*
X141216562Y-70225562D01*
X141233832Y-70209910D01*
X141252552Y-70196026D01*
X141272543Y-70184044D01*
X141293613Y-70174079D01*
X141315557Y-70166227D01*
X141338166Y-70160563D01*
X141361221Y-70157144D01*
X141384500Y-70156000D01*
X141959500Y-70156000D01*
X141982779Y-70157144D01*
X141982779Y-70157144D01*
G37*
D22*
X141672000Y-70631000D03*
D12*
G36*
X129138779Y-105185144D02*
G01*
X129161834Y-105188563D01*
X129184443Y-105194227D01*
X129206387Y-105202079D01*
X129227457Y-105212044D01*
X129247448Y-105224026D01*
X129266168Y-105237910D01*
X129283438Y-105253562D01*
X129299090Y-105270832D01*
X129312974Y-105289552D01*
X129324956Y-105309543D01*
X129334921Y-105330613D01*
X129342773Y-105352557D01*
X129348437Y-105375166D01*
X129351856Y-105398221D01*
X129353000Y-105421500D01*
X129353000Y-105896500D01*
X129351856Y-105919779D01*
X129348437Y-105942834D01*
X129342773Y-105965443D01*
X129334921Y-105987387D01*
X129324956Y-106008457D01*
X129312974Y-106028448D01*
X129299090Y-106047168D01*
X129283438Y-106064438D01*
X129266168Y-106080090D01*
X129247448Y-106093974D01*
X129227457Y-106105956D01*
X129206387Y-106115921D01*
X129184443Y-106123773D01*
X129161834Y-106129437D01*
X129138779Y-106132856D01*
X129115500Y-106134000D01*
X128540500Y-106134000D01*
X128517221Y-106132856D01*
X128494166Y-106129437D01*
X128471557Y-106123773D01*
X128449613Y-106115921D01*
X128428543Y-106105956D01*
X128408552Y-106093974D01*
X128389832Y-106080090D01*
X128372562Y-106064438D01*
X128356910Y-106047168D01*
X128343026Y-106028448D01*
X128331044Y-106008457D01*
X128321079Y-105987387D01*
X128313227Y-105965443D01*
X128307563Y-105942834D01*
X128304144Y-105919779D01*
X128303000Y-105896500D01*
X128303000Y-105421500D01*
X128304144Y-105398221D01*
X128307563Y-105375166D01*
X128313227Y-105352557D01*
X128321079Y-105330613D01*
X128331044Y-105309543D01*
X128343026Y-105289552D01*
X128356910Y-105270832D01*
X128372562Y-105253562D01*
X128389832Y-105237910D01*
X128408552Y-105224026D01*
X128428543Y-105212044D01*
X128449613Y-105202079D01*
X128471557Y-105194227D01*
X128494166Y-105188563D01*
X128517221Y-105185144D01*
X128540500Y-105184000D01*
X129115500Y-105184000D01*
X129138779Y-105185144D01*
X129138779Y-105185144D01*
G37*
D22*
X128828000Y-105659000D03*
D12*
G36*
X130888779Y-105185144D02*
G01*
X130911834Y-105188563D01*
X130934443Y-105194227D01*
X130956387Y-105202079D01*
X130977457Y-105212044D01*
X130997448Y-105224026D01*
X131016168Y-105237910D01*
X131033438Y-105253562D01*
X131049090Y-105270832D01*
X131062974Y-105289552D01*
X131074956Y-105309543D01*
X131084921Y-105330613D01*
X131092773Y-105352557D01*
X131098437Y-105375166D01*
X131101856Y-105398221D01*
X131103000Y-105421500D01*
X131103000Y-105896500D01*
X131101856Y-105919779D01*
X131098437Y-105942834D01*
X131092773Y-105965443D01*
X131084921Y-105987387D01*
X131074956Y-106008457D01*
X131062974Y-106028448D01*
X131049090Y-106047168D01*
X131033438Y-106064438D01*
X131016168Y-106080090D01*
X130997448Y-106093974D01*
X130977457Y-106105956D01*
X130956387Y-106115921D01*
X130934443Y-106123773D01*
X130911834Y-106129437D01*
X130888779Y-106132856D01*
X130865500Y-106134000D01*
X130290500Y-106134000D01*
X130267221Y-106132856D01*
X130244166Y-106129437D01*
X130221557Y-106123773D01*
X130199613Y-106115921D01*
X130178543Y-106105956D01*
X130158552Y-106093974D01*
X130139832Y-106080090D01*
X130122562Y-106064438D01*
X130106910Y-106047168D01*
X130093026Y-106028448D01*
X130081044Y-106008457D01*
X130071079Y-105987387D01*
X130063227Y-105965443D01*
X130057563Y-105942834D01*
X130054144Y-105919779D01*
X130053000Y-105896500D01*
X130053000Y-105421500D01*
X130054144Y-105398221D01*
X130057563Y-105375166D01*
X130063227Y-105352557D01*
X130071079Y-105330613D01*
X130081044Y-105309543D01*
X130093026Y-105289552D01*
X130106910Y-105270832D01*
X130122562Y-105253562D01*
X130139832Y-105237910D01*
X130158552Y-105224026D01*
X130178543Y-105212044D01*
X130199613Y-105202079D01*
X130221557Y-105194227D01*
X130244166Y-105188563D01*
X130267221Y-105185144D01*
X130290500Y-105184000D01*
X130865500Y-105184000D01*
X130888779Y-105185144D01*
X130888779Y-105185144D01*
G37*
D22*
X130578000Y-105659000D03*
D12*
G36*
X130888779Y-107090144D02*
G01*
X130911834Y-107093563D01*
X130934443Y-107099227D01*
X130956387Y-107107079D01*
X130977457Y-107117044D01*
X130997448Y-107129026D01*
X131016168Y-107142910D01*
X131033438Y-107158562D01*
X131049090Y-107175832D01*
X131062974Y-107194552D01*
X131074956Y-107214543D01*
X131084921Y-107235613D01*
X131092773Y-107257557D01*
X131098437Y-107280166D01*
X131101856Y-107303221D01*
X131103000Y-107326500D01*
X131103000Y-107801500D01*
X131101856Y-107824779D01*
X131098437Y-107847834D01*
X131092773Y-107870443D01*
X131084921Y-107892387D01*
X131074956Y-107913457D01*
X131062974Y-107933448D01*
X131049090Y-107952168D01*
X131033438Y-107969438D01*
X131016168Y-107985090D01*
X130997448Y-107998974D01*
X130977457Y-108010956D01*
X130956387Y-108020921D01*
X130934443Y-108028773D01*
X130911834Y-108034437D01*
X130888779Y-108037856D01*
X130865500Y-108039000D01*
X130290500Y-108039000D01*
X130267221Y-108037856D01*
X130244166Y-108034437D01*
X130221557Y-108028773D01*
X130199613Y-108020921D01*
X130178543Y-108010956D01*
X130158552Y-107998974D01*
X130139832Y-107985090D01*
X130122562Y-107969438D01*
X130106910Y-107952168D01*
X130093026Y-107933448D01*
X130081044Y-107913457D01*
X130071079Y-107892387D01*
X130063227Y-107870443D01*
X130057563Y-107847834D01*
X130054144Y-107824779D01*
X130053000Y-107801500D01*
X130053000Y-107326500D01*
X130054144Y-107303221D01*
X130057563Y-107280166D01*
X130063227Y-107257557D01*
X130071079Y-107235613D01*
X130081044Y-107214543D01*
X130093026Y-107194552D01*
X130106910Y-107175832D01*
X130122562Y-107158562D01*
X130139832Y-107142910D01*
X130158552Y-107129026D01*
X130178543Y-107117044D01*
X130199613Y-107107079D01*
X130221557Y-107099227D01*
X130244166Y-107093563D01*
X130267221Y-107090144D01*
X130290500Y-107089000D01*
X130865500Y-107089000D01*
X130888779Y-107090144D01*
X130888779Y-107090144D01*
G37*
D22*
X130578000Y-107564000D03*
D12*
G36*
X129138779Y-107090144D02*
G01*
X129161834Y-107093563D01*
X129184443Y-107099227D01*
X129206387Y-107107079D01*
X129227457Y-107117044D01*
X129247448Y-107129026D01*
X129266168Y-107142910D01*
X129283438Y-107158562D01*
X129299090Y-107175832D01*
X129312974Y-107194552D01*
X129324956Y-107214543D01*
X129334921Y-107235613D01*
X129342773Y-107257557D01*
X129348437Y-107280166D01*
X129351856Y-107303221D01*
X129353000Y-107326500D01*
X129353000Y-107801500D01*
X129351856Y-107824779D01*
X129348437Y-107847834D01*
X129342773Y-107870443D01*
X129334921Y-107892387D01*
X129324956Y-107913457D01*
X129312974Y-107933448D01*
X129299090Y-107952168D01*
X129283438Y-107969438D01*
X129266168Y-107985090D01*
X129247448Y-107998974D01*
X129227457Y-108010956D01*
X129206387Y-108020921D01*
X129184443Y-108028773D01*
X129161834Y-108034437D01*
X129138779Y-108037856D01*
X129115500Y-108039000D01*
X128540500Y-108039000D01*
X128517221Y-108037856D01*
X128494166Y-108034437D01*
X128471557Y-108028773D01*
X128449613Y-108020921D01*
X128428543Y-108010956D01*
X128408552Y-107998974D01*
X128389832Y-107985090D01*
X128372562Y-107969438D01*
X128356910Y-107952168D01*
X128343026Y-107933448D01*
X128331044Y-107913457D01*
X128321079Y-107892387D01*
X128313227Y-107870443D01*
X128307563Y-107847834D01*
X128304144Y-107824779D01*
X128303000Y-107801500D01*
X128303000Y-107326500D01*
X128304144Y-107303221D01*
X128307563Y-107280166D01*
X128313227Y-107257557D01*
X128321079Y-107235613D01*
X128331044Y-107214543D01*
X128343026Y-107194552D01*
X128356910Y-107175832D01*
X128372562Y-107158562D01*
X128389832Y-107142910D01*
X128408552Y-107129026D01*
X128428543Y-107117044D01*
X128449613Y-107107079D01*
X128471557Y-107099227D01*
X128494166Y-107093563D01*
X128517221Y-107090144D01*
X128540500Y-107089000D01*
X129115500Y-107089000D01*
X129138779Y-107090144D01*
X129138779Y-107090144D01*
G37*
D22*
X128828000Y-107564000D03*
D12*
G36*
X121253779Y-105235144D02*
G01*
X121276834Y-105238563D01*
X121299443Y-105244227D01*
X121321387Y-105252079D01*
X121342457Y-105262044D01*
X121362448Y-105274026D01*
X121381168Y-105287910D01*
X121398438Y-105303562D01*
X121414090Y-105320832D01*
X121427974Y-105339552D01*
X121439956Y-105359543D01*
X121449921Y-105380613D01*
X121457773Y-105402557D01*
X121463437Y-105425166D01*
X121466856Y-105448221D01*
X121468000Y-105471500D01*
X121468000Y-105946500D01*
X121466856Y-105969779D01*
X121463437Y-105992834D01*
X121457773Y-106015443D01*
X121449921Y-106037387D01*
X121439956Y-106058457D01*
X121427974Y-106078448D01*
X121414090Y-106097168D01*
X121398438Y-106114438D01*
X121381168Y-106130090D01*
X121362448Y-106143974D01*
X121342457Y-106155956D01*
X121321387Y-106165921D01*
X121299443Y-106173773D01*
X121276834Y-106179437D01*
X121253779Y-106182856D01*
X121230500Y-106184000D01*
X120655500Y-106184000D01*
X120632221Y-106182856D01*
X120609166Y-106179437D01*
X120586557Y-106173773D01*
X120564613Y-106165921D01*
X120543543Y-106155956D01*
X120523552Y-106143974D01*
X120504832Y-106130090D01*
X120487562Y-106114438D01*
X120471910Y-106097168D01*
X120458026Y-106078448D01*
X120446044Y-106058457D01*
X120436079Y-106037387D01*
X120428227Y-106015443D01*
X120422563Y-105992834D01*
X120419144Y-105969779D01*
X120418000Y-105946500D01*
X120418000Y-105471500D01*
X120419144Y-105448221D01*
X120422563Y-105425166D01*
X120428227Y-105402557D01*
X120436079Y-105380613D01*
X120446044Y-105359543D01*
X120458026Y-105339552D01*
X120471910Y-105320832D01*
X120487562Y-105303562D01*
X120504832Y-105287910D01*
X120523552Y-105274026D01*
X120543543Y-105262044D01*
X120564613Y-105252079D01*
X120586557Y-105244227D01*
X120609166Y-105238563D01*
X120632221Y-105235144D01*
X120655500Y-105234000D01*
X121230500Y-105234000D01*
X121253779Y-105235144D01*
X121253779Y-105235144D01*
G37*
D22*
X120943000Y-105709000D03*
D12*
G36*
X119503779Y-105235144D02*
G01*
X119526834Y-105238563D01*
X119549443Y-105244227D01*
X119571387Y-105252079D01*
X119592457Y-105262044D01*
X119612448Y-105274026D01*
X119631168Y-105287910D01*
X119648438Y-105303562D01*
X119664090Y-105320832D01*
X119677974Y-105339552D01*
X119689956Y-105359543D01*
X119699921Y-105380613D01*
X119707773Y-105402557D01*
X119713437Y-105425166D01*
X119716856Y-105448221D01*
X119718000Y-105471500D01*
X119718000Y-105946500D01*
X119716856Y-105969779D01*
X119713437Y-105992834D01*
X119707773Y-106015443D01*
X119699921Y-106037387D01*
X119689956Y-106058457D01*
X119677974Y-106078448D01*
X119664090Y-106097168D01*
X119648438Y-106114438D01*
X119631168Y-106130090D01*
X119612448Y-106143974D01*
X119592457Y-106155956D01*
X119571387Y-106165921D01*
X119549443Y-106173773D01*
X119526834Y-106179437D01*
X119503779Y-106182856D01*
X119480500Y-106184000D01*
X118905500Y-106184000D01*
X118882221Y-106182856D01*
X118859166Y-106179437D01*
X118836557Y-106173773D01*
X118814613Y-106165921D01*
X118793543Y-106155956D01*
X118773552Y-106143974D01*
X118754832Y-106130090D01*
X118737562Y-106114438D01*
X118721910Y-106097168D01*
X118708026Y-106078448D01*
X118696044Y-106058457D01*
X118686079Y-106037387D01*
X118678227Y-106015443D01*
X118672563Y-105992834D01*
X118669144Y-105969779D01*
X118668000Y-105946500D01*
X118668000Y-105471500D01*
X118669144Y-105448221D01*
X118672563Y-105425166D01*
X118678227Y-105402557D01*
X118686079Y-105380613D01*
X118696044Y-105359543D01*
X118708026Y-105339552D01*
X118721910Y-105320832D01*
X118737562Y-105303562D01*
X118754832Y-105287910D01*
X118773552Y-105274026D01*
X118793543Y-105262044D01*
X118814613Y-105252079D01*
X118836557Y-105244227D01*
X118859166Y-105238563D01*
X118882221Y-105235144D01*
X118905500Y-105234000D01*
X119480500Y-105234000D01*
X119503779Y-105235144D01*
X119503779Y-105235144D01*
G37*
D22*
X119193000Y-105709000D03*
D12*
G36*
X119503779Y-107140144D02*
G01*
X119526834Y-107143563D01*
X119549443Y-107149227D01*
X119571387Y-107157079D01*
X119592457Y-107167044D01*
X119612448Y-107179026D01*
X119631168Y-107192910D01*
X119648438Y-107208562D01*
X119664090Y-107225832D01*
X119677974Y-107244552D01*
X119689956Y-107264543D01*
X119699921Y-107285613D01*
X119707773Y-107307557D01*
X119713437Y-107330166D01*
X119716856Y-107353221D01*
X119718000Y-107376500D01*
X119718000Y-107851500D01*
X119716856Y-107874779D01*
X119713437Y-107897834D01*
X119707773Y-107920443D01*
X119699921Y-107942387D01*
X119689956Y-107963457D01*
X119677974Y-107983448D01*
X119664090Y-108002168D01*
X119648438Y-108019438D01*
X119631168Y-108035090D01*
X119612448Y-108048974D01*
X119592457Y-108060956D01*
X119571387Y-108070921D01*
X119549443Y-108078773D01*
X119526834Y-108084437D01*
X119503779Y-108087856D01*
X119480500Y-108089000D01*
X118905500Y-108089000D01*
X118882221Y-108087856D01*
X118859166Y-108084437D01*
X118836557Y-108078773D01*
X118814613Y-108070921D01*
X118793543Y-108060956D01*
X118773552Y-108048974D01*
X118754832Y-108035090D01*
X118737562Y-108019438D01*
X118721910Y-108002168D01*
X118708026Y-107983448D01*
X118696044Y-107963457D01*
X118686079Y-107942387D01*
X118678227Y-107920443D01*
X118672563Y-107897834D01*
X118669144Y-107874779D01*
X118668000Y-107851500D01*
X118668000Y-107376500D01*
X118669144Y-107353221D01*
X118672563Y-107330166D01*
X118678227Y-107307557D01*
X118686079Y-107285613D01*
X118696044Y-107264543D01*
X118708026Y-107244552D01*
X118721910Y-107225832D01*
X118737562Y-107208562D01*
X118754832Y-107192910D01*
X118773552Y-107179026D01*
X118793543Y-107167044D01*
X118814613Y-107157079D01*
X118836557Y-107149227D01*
X118859166Y-107143563D01*
X118882221Y-107140144D01*
X118905500Y-107139000D01*
X119480500Y-107139000D01*
X119503779Y-107140144D01*
X119503779Y-107140144D01*
G37*
D22*
X119193000Y-107614000D03*
D12*
G36*
X121253779Y-107140144D02*
G01*
X121276834Y-107143563D01*
X121299443Y-107149227D01*
X121321387Y-107157079D01*
X121342457Y-107167044D01*
X121362448Y-107179026D01*
X121381168Y-107192910D01*
X121398438Y-107208562D01*
X121414090Y-107225832D01*
X121427974Y-107244552D01*
X121439956Y-107264543D01*
X121449921Y-107285613D01*
X121457773Y-107307557D01*
X121463437Y-107330166D01*
X121466856Y-107353221D01*
X121468000Y-107376500D01*
X121468000Y-107851500D01*
X121466856Y-107874779D01*
X121463437Y-107897834D01*
X121457773Y-107920443D01*
X121449921Y-107942387D01*
X121439956Y-107963457D01*
X121427974Y-107983448D01*
X121414090Y-108002168D01*
X121398438Y-108019438D01*
X121381168Y-108035090D01*
X121362448Y-108048974D01*
X121342457Y-108060956D01*
X121321387Y-108070921D01*
X121299443Y-108078773D01*
X121276834Y-108084437D01*
X121253779Y-108087856D01*
X121230500Y-108089000D01*
X120655500Y-108089000D01*
X120632221Y-108087856D01*
X120609166Y-108084437D01*
X120586557Y-108078773D01*
X120564613Y-108070921D01*
X120543543Y-108060956D01*
X120523552Y-108048974D01*
X120504832Y-108035090D01*
X120487562Y-108019438D01*
X120471910Y-108002168D01*
X120458026Y-107983448D01*
X120446044Y-107963457D01*
X120436079Y-107942387D01*
X120428227Y-107920443D01*
X120422563Y-107897834D01*
X120419144Y-107874779D01*
X120418000Y-107851500D01*
X120418000Y-107376500D01*
X120419144Y-107353221D01*
X120422563Y-107330166D01*
X120428227Y-107307557D01*
X120436079Y-107285613D01*
X120446044Y-107264543D01*
X120458026Y-107244552D01*
X120471910Y-107225832D01*
X120487562Y-107208562D01*
X120504832Y-107192910D01*
X120523552Y-107179026D01*
X120543543Y-107167044D01*
X120564613Y-107157079D01*
X120586557Y-107149227D01*
X120609166Y-107143563D01*
X120632221Y-107140144D01*
X120655500Y-107139000D01*
X121230500Y-107139000D01*
X121253779Y-107140144D01*
X121253779Y-107140144D01*
G37*
D22*
X120943000Y-107614000D03*
D12*
G36*
X184843779Y-77411144D02*
G01*
X184866834Y-77414563D01*
X184889443Y-77420227D01*
X184911387Y-77428079D01*
X184932457Y-77438044D01*
X184952448Y-77450026D01*
X184971168Y-77463910D01*
X184988438Y-77479562D01*
X185004090Y-77496832D01*
X185017974Y-77515552D01*
X185029956Y-77535543D01*
X185039921Y-77556613D01*
X185047773Y-77578557D01*
X185053437Y-77601166D01*
X185056856Y-77624221D01*
X185058000Y-77647500D01*
X185058000Y-78122500D01*
X185056856Y-78145779D01*
X185053437Y-78168834D01*
X185047773Y-78191443D01*
X185039921Y-78213387D01*
X185029956Y-78234457D01*
X185017974Y-78254448D01*
X185004090Y-78273168D01*
X184988438Y-78290438D01*
X184971168Y-78306090D01*
X184952448Y-78319974D01*
X184932457Y-78331956D01*
X184911387Y-78341921D01*
X184889443Y-78349773D01*
X184866834Y-78355437D01*
X184843779Y-78358856D01*
X184820500Y-78360000D01*
X184245500Y-78360000D01*
X184222221Y-78358856D01*
X184199166Y-78355437D01*
X184176557Y-78349773D01*
X184154613Y-78341921D01*
X184133543Y-78331956D01*
X184113552Y-78319974D01*
X184094832Y-78306090D01*
X184077562Y-78290438D01*
X184061910Y-78273168D01*
X184048026Y-78254448D01*
X184036044Y-78234457D01*
X184026079Y-78213387D01*
X184018227Y-78191443D01*
X184012563Y-78168834D01*
X184009144Y-78145779D01*
X184008000Y-78122500D01*
X184008000Y-77647500D01*
X184009144Y-77624221D01*
X184012563Y-77601166D01*
X184018227Y-77578557D01*
X184026079Y-77556613D01*
X184036044Y-77535543D01*
X184048026Y-77515552D01*
X184061910Y-77496832D01*
X184077562Y-77479562D01*
X184094832Y-77463910D01*
X184113552Y-77450026D01*
X184133543Y-77438044D01*
X184154613Y-77428079D01*
X184176557Y-77420227D01*
X184199166Y-77414563D01*
X184222221Y-77411144D01*
X184245500Y-77410000D01*
X184820500Y-77410000D01*
X184843779Y-77411144D01*
X184843779Y-77411144D01*
G37*
D22*
X184533000Y-77885000D03*
D12*
G36*
X186593779Y-77411144D02*
G01*
X186616834Y-77414563D01*
X186639443Y-77420227D01*
X186661387Y-77428079D01*
X186682457Y-77438044D01*
X186702448Y-77450026D01*
X186721168Y-77463910D01*
X186738438Y-77479562D01*
X186754090Y-77496832D01*
X186767974Y-77515552D01*
X186779956Y-77535543D01*
X186789921Y-77556613D01*
X186797773Y-77578557D01*
X186803437Y-77601166D01*
X186806856Y-77624221D01*
X186808000Y-77647500D01*
X186808000Y-78122500D01*
X186806856Y-78145779D01*
X186803437Y-78168834D01*
X186797773Y-78191443D01*
X186789921Y-78213387D01*
X186779956Y-78234457D01*
X186767974Y-78254448D01*
X186754090Y-78273168D01*
X186738438Y-78290438D01*
X186721168Y-78306090D01*
X186702448Y-78319974D01*
X186682457Y-78331956D01*
X186661387Y-78341921D01*
X186639443Y-78349773D01*
X186616834Y-78355437D01*
X186593779Y-78358856D01*
X186570500Y-78360000D01*
X185995500Y-78360000D01*
X185972221Y-78358856D01*
X185949166Y-78355437D01*
X185926557Y-78349773D01*
X185904613Y-78341921D01*
X185883543Y-78331956D01*
X185863552Y-78319974D01*
X185844832Y-78306090D01*
X185827562Y-78290438D01*
X185811910Y-78273168D01*
X185798026Y-78254448D01*
X185786044Y-78234457D01*
X185776079Y-78213387D01*
X185768227Y-78191443D01*
X185762563Y-78168834D01*
X185759144Y-78145779D01*
X185758000Y-78122500D01*
X185758000Y-77647500D01*
X185759144Y-77624221D01*
X185762563Y-77601166D01*
X185768227Y-77578557D01*
X185776079Y-77556613D01*
X185786044Y-77535543D01*
X185798026Y-77515552D01*
X185811910Y-77496832D01*
X185827562Y-77479562D01*
X185844832Y-77463910D01*
X185863552Y-77450026D01*
X185883543Y-77438044D01*
X185904613Y-77428079D01*
X185926557Y-77420227D01*
X185949166Y-77414563D01*
X185972221Y-77411144D01*
X185995500Y-77410000D01*
X186570500Y-77410000D01*
X186593779Y-77411144D01*
X186593779Y-77411144D01*
G37*
D22*
X186283000Y-77885000D03*
D12*
G36*
X143948779Y-98446144D02*
G01*
X143971834Y-98449563D01*
X143994443Y-98455227D01*
X144016387Y-98463079D01*
X144037457Y-98473044D01*
X144057448Y-98485026D01*
X144076168Y-98498910D01*
X144093438Y-98514562D01*
X144109090Y-98531832D01*
X144122974Y-98550552D01*
X144134956Y-98570543D01*
X144144921Y-98591613D01*
X144152773Y-98613557D01*
X144158437Y-98636166D01*
X144161856Y-98659221D01*
X144163000Y-98682500D01*
X144163000Y-99157500D01*
X144161856Y-99180779D01*
X144158437Y-99203834D01*
X144152773Y-99226443D01*
X144144921Y-99248387D01*
X144134956Y-99269457D01*
X144122974Y-99289448D01*
X144109090Y-99308168D01*
X144093438Y-99325438D01*
X144076168Y-99341090D01*
X144057448Y-99354974D01*
X144037457Y-99366956D01*
X144016387Y-99376921D01*
X143994443Y-99384773D01*
X143971834Y-99390437D01*
X143948779Y-99393856D01*
X143925500Y-99395000D01*
X143350500Y-99395000D01*
X143327221Y-99393856D01*
X143304166Y-99390437D01*
X143281557Y-99384773D01*
X143259613Y-99376921D01*
X143238543Y-99366956D01*
X143218552Y-99354974D01*
X143199832Y-99341090D01*
X143182562Y-99325438D01*
X143166910Y-99308168D01*
X143153026Y-99289448D01*
X143141044Y-99269457D01*
X143131079Y-99248387D01*
X143123227Y-99226443D01*
X143117563Y-99203834D01*
X143114144Y-99180779D01*
X143113000Y-99157500D01*
X143113000Y-98682500D01*
X143114144Y-98659221D01*
X143117563Y-98636166D01*
X143123227Y-98613557D01*
X143131079Y-98591613D01*
X143141044Y-98570543D01*
X143153026Y-98550552D01*
X143166910Y-98531832D01*
X143182562Y-98514562D01*
X143199832Y-98498910D01*
X143218552Y-98485026D01*
X143238543Y-98473044D01*
X143259613Y-98463079D01*
X143281557Y-98455227D01*
X143304166Y-98449563D01*
X143327221Y-98446144D01*
X143350500Y-98445000D01*
X143925500Y-98445000D01*
X143948779Y-98446144D01*
X143948779Y-98446144D01*
G37*
D22*
X143638000Y-98920000D03*
D12*
G36*
X145698779Y-98446144D02*
G01*
X145721834Y-98449563D01*
X145744443Y-98455227D01*
X145766387Y-98463079D01*
X145787457Y-98473044D01*
X145807448Y-98485026D01*
X145826168Y-98498910D01*
X145843438Y-98514562D01*
X145859090Y-98531832D01*
X145872974Y-98550552D01*
X145884956Y-98570543D01*
X145894921Y-98591613D01*
X145902773Y-98613557D01*
X145908437Y-98636166D01*
X145911856Y-98659221D01*
X145913000Y-98682500D01*
X145913000Y-99157500D01*
X145911856Y-99180779D01*
X145908437Y-99203834D01*
X145902773Y-99226443D01*
X145894921Y-99248387D01*
X145884956Y-99269457D01*
X145872974Y-99289448D01*
X145859090Y-99308168D01*
X145843438Y-99325438D01*
X145826168Y-99341090D01*
X145807448Y-99354974D01*
X145787457Y-99366956D01*
X145766387Y-99376921D01*
X145744443Y-99384773D01*
X145721834Y-99390437D01*
X145698779Y-99393856D01*
X145675500Y-99395000D01*
X145100500Y-99395000D01*
X145077221Y-99393856D01*
X145054166Y-99390437D01*
X145031557Y-99384773D01*
X145009613Y-99376921D01*
X144988543Y-99366956D01*
X144968552Y-99354974D01*
X144949832Y-99341090D01*
X144932562Y-99325438D01*
X144916910Y-99308168D01*
X144903026Y-99289448D01*
X144891044Y-99269457D01*
X144881079Y-99248387D01*
X144873227Y-99226443D01*
X144867563Y-99203834D01*
X144864144Y-99180779D01*
X144863000Y-99157500D01*
X144863000Y-98682500D01*
X144864144Y-98659221D01*
X144867563Y-98636166D01*
X144873227Y-98613557D01*
X144881079Y-98591613D01*
X144891044Y-98570543D01*
X144903026Y-98550552D01*
X144916910Y-98531832D01*
X144932562Y-98514562D01*
X144949832Y-98498910D01*
X144968552Y-98485026D01*
X144988543Y-98473044D01*
X145009613Y-98463079D01*
X145031557Y-98455227D01*
X145054166Y-98449563D01*
X145077221Y-98446144D01*
X145100500Y-98445000D01*
X145675500Y-98445000D01*
X145698779Y-98446144D01*
X145698779Y-98446144D01*
G37*
D22*
X145388000Y-98920000D03*
D12*
G36*
X143948779Y-104796144D02*
G01*
X143971834Y-104799563D01*
X143994443Y-104805227D01*
X144016387Y-104813079D01*
X144037457Y-104823044D01*
X144057448Y-104835026D01*
X144076168Y-104848910D01*
X144093438Y-104864562D01*
X144109090Y-104881832D01*
X144122974Y-104900552D01*
X144134956Y-104920543D01*
X144144921Y-104941613D01*
X144152773Y-104963557D01*
X144158437Y-104986166D01*
X144161856Y-105009221D01*
X144163000Y-105032500D01*
X144163000Y-105507500D01*
X144161856Y-105530779D01*
X144158437Y-105553834D01*
X144152773Y-105576443D01*
X144144921Y-105598387D01*
X144134956Y-105619457D01*
X144122974Y-105639448D01*
X144109090Y-105658168D01*
X144093438Y-105675438D01*
X144076168Y-105691090D01*
X144057448Y-105704974D01*
X144037457Y-105716956D01*
X144016387Y-105726921D01*
X143994443Y-105734773D01*
X143971834Y-105740437D01*
X143948779Y-105743856D01*
X143925500Y-105745000D01*
X143350500Y-105745000D01*
X143327221Y-105743856D01*
X143304166Y-105740437D01*
X143281557Y-105734773D01*
X143259613Y-105726921D01*
X143238543Y-105716956D01*
X143218552Y-105704974D01*
X143199832Y-105691090D01*
X143182562Y-105675438D01*
X143166910Y-105658168D01*
X143153026Y-105639448D01*
X143141044Y-105619457D01*
X143131079Y-105598387D01*
X143123227Y-105576443D01*
X143117563Y-105553834D01*
X143114144Y-105530779D01*
X143113000Y-105507500D01*
X143113000Y-105032500D01*
X143114144Y-105009221D01*
X143117563Y-104986166D01*
X143123227Y-104963557D01*
X143131079Y-104941613D01*
X143141044Y-104920543D01*
X143153026Y-104900552D01*
X143166910Y-104881832D01*
X143182562Y-104864562D01*
X143199832Y-104848910D01*
X143218552Y-104835026D01*
X143238543Y-104823044D01*
X143259613Y-104813079D01*
X143281557Y-104805227D01*
X143304166Y-104799563D01*
X143327221Y-104796144D01*
X143350500Y-104795000D01*
X143925500Y-104795000D01*
X143948779Y-104796144D01*
X143948779Y-104796144D01*
G37*
D22*
X143638000Y-105270000D03*
D12*
G36*
X145698779Y-104796144D02*
G01*
X145721834Y-104799563D01*
X145744443Y-104805227D01*
X145766387Y-104813079D01*
X145787457Y-104823044D01*
X145807448Y-104835026D01*
X145826168Y-104848910D01*
X145843438Y-104864562D01*
X145859090Y-104881832D01*
X145872974Y-104900552D01*
X145884956Y-104920543D01*
X145894921Y-104941613D01*
X145902773Y-104963557D01*
X145908437Y-104986166D01*
X145911856Y-105009221D01*
X145913000Y-105032500D01*
X145913000Y-105507500D01*
X145911856Y-105530779D01*
X145908437Y-105553834D01*
X145902773Y-105576443D01*
X145894921Y-105598387D01*
X145884956Y-105619457D01*
X145872974Y-105639448D01*
X145859090Y-105658168D01*
X145843438Y-105675438D01*
X145826168Y-105691090D01*
X145807448Y-105704974D01*
X145787457Y-105716956D01*
X145766387Y-105726921D01*
X145744443Y-105734773D01*
X145721834Y-105740437D01*
X145698779Y-105743856D01*
X145675500Y-105745000D01*
X145100500Y-105745000D01*
X145077221Y-105743856D01*
X145054166Y-105740437D01*
X145031557Y-105734773D01*
X145009613Y-105726921D01*
X144988543Y-105716956D01*
X144968552Y-105704974D01*
X144949832Y-105691090D01*
X144932562Y-105675438D01*
X144916910Y-105658168D01*
X144903026Y-105639448D01*
X144891044Y-105619457D01*
X144881079Y-105598387D01*
X144873227Y-105576443D01*
X144867563Y-105553834D01*
X144864144Y-105530779D01*
X144863000Y-105507500D01*
X144863000Y-105032500D01*
X144864144Y-105009221D01*
X144867563Y-104986166D01*
X144873227Y-104963557D01*
X144881079Y-104941613D01*
X144891044Y-104920543D01*
X144903026Y-104900552D01*
X144916910Y-104881832D01*
X144932562Y-104864562D01*
X144949832Y-104848910D01*
X144968552Y-104835026D01*
X144988543Y-104823044D01*
X145009613Y-104813079D01*
X145031557Y-104805227D01*
X145054166Y-104799563D01*
X145077221Y-104796144D01*
X145100500Y-104795000D01*
X145675500Y-104795000D01*
X145698779Y-104796144D01*
X145698779Y-104796144D01*
G37*
D22*
X145388000Y-105270000D03*
D12*
G36*
X161612779Y-95016144D02*
G01*
X161635834Y-95019563D01*
X161658443Y-95025227D01*
X161680387Y-95033079D01*
X161701457Y-95043044D01*
X161721448Y-95055026D01*
X161740168Y-95068910D01*
X161757438Y-95084562D01*
X161773090Y-95101832D01*
X161786974Y-95120552D01*
X161798956Y-95140543D01*
X161808921Y-95161613D01*
X161816773Y-95183557D01*
X161822437Y-95206166D01*
X161825856Y-95229221D01*
X161827000Y-95252500D01*
X161827000Y-95827500D01*
X161825856Y-95850779D01*
X161822437Y-95873834D01*
X161816773Y-95896443D01*
X161808921Y-95918387D01*
X161798956Y-95939457D01*
X161786974Y-95959448D01*
X161773090Y-95978168D01*
X161757438Y-95995438D01*
X161740168Y-96011090D01*
X161721448Y-96024974D01*
X161701457Y-96036956D01*
X161680387Y-96046921D01*
X161658443Y-96054773D01*
X161635834Y-96060437D01*
X161612779Y-96063856D01*
X161589500Y-96065000D01*
X161114500Y-96065000D01*
X161091221Y-96063856D01*
X161068166Y-96060437D01*
X161045557Y-96054773D01*
X161023613Y-96046921D01*
X161002543Y-96036956D01*
X160982552Y-96024974D01*
X160963832Y-96011090D01*
X160946562Y-95995438D01*
X160930910Y-95978168D01*
X160917026Y-95959448D01*
X160905044Y-95939457D01*
X160895079Y-95918387D01*
X160887227Y-95896443D01*
X160881563Y-95873834D01*
X160878144Y-95850779D01*
X160877000Y-95827500D01*
X160877000Y-95252500D01*
X160878144Y-95229221D01*
X160881563Y-95206166D01*
X160887227Y-95183557D01*
X160895079Y-95161613D01*
X160905044Y-95140543D01*
X160917026Y-95120552D01*
X160930910Y-95101832D01*
X160946562Y-95084562D01*
X160963832Y-95068910D01*
X160982552Y-95055026D01*
X161002543Y-95043044D01*
X161023613Y-95033079D01*
X161045557Y-95025227D01*
X161068166Y-95019563D01*
X161091221Y-95016144D01*
X161114500Y-95015000D01*
X161589500Y-95015000D01*
X161612779Y-95016144D01*
X161612779Y-95016144D01*
G37*
D22*
X161352000Y-95540000D03*
D12*
G36*
X161612779Y-93266144D02*
G01*
X161635834Y-93269563D01*
X161658443Y-93275227D01*
X161680387Y-93283079D01*
X161701457Y-93293044D01*
X161721448Y-93305026D01*
X161740168Y-93318910D01*
X161757438Y-93334562D01*
X161773090Y-93351832D01*
X161786974Y-93370552D01*
X161798956Y-93390543D01*
X161808921Y-93411613D01*
X161816773Y-93433557D01*
X161822437Y-93456166D01*
X161825856Y-93479221D01*
X161827000Y-93502500D01*
X161827000Y-94077500D01*
X161825856Y-94100779D01*
X161822437Y-94123834D01*
X161816773Y-94146443D01*
X161808921Y-94168387D01*
X161798956Y-94189457D01*
X161786974Y-94209448D01*
X161773090Y-94228168D01*
X161757438Y-94245438D01*
X161740168Y-94261090D01*
X161721448Y-94274974D01*
X161701457Y-94286956D01*
X161680387Y-94296921D01*
X161658443Y-94304773D01*
X161635834Y-94310437D01*
X161612779Y-94313856D01*
X161589500Y-94315000D01*
X161114500Y-94315000D01*
X161091221Y-94313856D01*
X161068166Y-94310437D01*
X161045557Y-94304773D01*
X161023613Y-94296921D01*
X161002543Y-94286956D01*
X160982552Y-94274974D01*
X160963832Y-94261090D01*
X160946562Y-94245438D01*
X160930910Y-94228168D01*
X160917026Y-94209448D01*
X160905044Y-94189457D01*
X160895079Y-94168387D01*
X160887227Y-94146443D01*
X160881563Y-94123834D01*
X160878144Y-94100779D01*
X160877000Y-94077500D01*
X160877000Y-93502500D01*
X160878144Y-93479221D01*
X160881563Y-93456166D01*
X160887227Y-93433557D01*
X160895079Y-93411613D01*
X160905044Y-93390543D01*
X160917026Y-93370552D01*
X160930910Y-93351832D01*
X160946562Y-93334562D01*
X160963832Y-93318910D01*
X160982552Y-93305026D01*
X161002543Y-93293044D01*
X161023613Y-93283079D01*
X161045557Y-93275227D01*
X161068166Y-93269563D01*
X161091221Y-93266144D01*
X161114500Y-93265000D01*
X161589500Y-93265000D01*
X161612779Y-93266144D01*
X161612779Y-93266144D01*
G37*
D22*
X161352000Y-93790000D03*
D12*
G36*
X158966946Y-93266144D02*
G01*
X158990001Y-93269563D01*
X159012610Y-93275227D01*
X159034554Y-93283079D01*
X159055624Y-93293044D01*
X159075615Y-93305026D01*
X159094335Y-93318910D01*
X159111605Y-93334562D01*
X159127257Y-93351832D01*
X159141141Y-93370552D01*
X159153123Y-93390543D01*
X159163088Y-93411613D01*
X159170940Y-93433557D01*
X159176604Y-93456166D01*
X159180023Y-93479221D01*
X159181167Y-93502500D01*
X159181167Y-94077500D01*
X159180023Y-94100779D01*
X159176604Y-94123834D01*
X159170940Y-94146443D01*
X159163088Y-94168387D01*
X159153123Y-94189457D01*
X159141141Y-94209448D01*
X159127257Y-94228168D01*
X159111605Y-94245438D01*
X159094335Y-94261090D01*
X159075615Y-94274974D01*
X159055624Y-94286956D01*
X159034554Y-94296921D01*
X159012610Y-94304773D01*
X158990001Y-94310437D01*
X158966946Y-94313856D01*
X158943667Y-94315000D01*
X158468667Y-94315000D01*
X158445388Y-94313856D01*
X158422333Y-94310437D01*
X158399724Y-94304773D01*
X158377780Y-94296921D01*
X158356710Y-94286956D01*
X158336719Y-94274974D01*
X158317999Y-94261090D01*
X158300729Y-94245438D01*
X158285077Y-94228168D01*
X158271193Y-94209448D01*
X158259211Y-94189457D01*
X158249246Y-94168387D01*
X158241394Y-94146443D01*
X158235730Y-94123834D01*
X158232311Y-94100779D01*
X158231167Y-94077500D01*
X158231167Y-93502500D01*
X158232311Y-93479221D01*
X158235730Y-93456166D01*
X158241394Y-93433557D01*
X158249246Y-93411613D01*
X158259211Y-93390543D01*
X158271193Y-93370552D01*
X158285077Y-93351832D01*
X158300729Y-93334562D01*
X158317999Y-93318910D01*
X158336719Y-93305026D01*
X158356710Y-93293044D01*
X158377780Y-93283079D01*
X158399724Y-93275227D01*
X158422333Y-93269563D01*
X158445388Y-93266144D01*
X158468667Y-93265000D01*
X158943667Y-93265000D01*
X158966946Y-93266144D01*
X158966946Y-93266144D01*
G37*
D22*
X158706167Y-93790000D03*
D12*
G36*
X158966946Y-95016144D02*
G01*
X158990001Y-95019563D01*
X159012610Y-95025227D01*
X159034554Y-95033079D01*
X159055624Y-95043044D01*
X159075615Y-95055026D01*
X159094335Y-95068910D01*
X159111605Y-95084562D01*
X159127257Y-95101832D01*
X159141141Y-95120552D01*
X159153123Y-95140543D01*
X159163088Y-95161613D01*
X159170940Y-95183557D01*
X159176604Y-95206166D01*
X159180023Y-95229221D01*
X159181167Y-95252500D01*
X159181167Y-95827500D01*
X159180023Y-95850779D01*
X159176604Y-95873834D01*
X159170940Y-95896443D01*
X159163088Y-95918387D01*
X159153123Y-95939457D01*
X159141141Y-95959448D01*
X159127257Y-95978168D01*
X159111605Y-95995438D01*
X159094335Y-96011090D01*
X159075615Y-96024974D01*
X159055624Y-96036956D01*
X159034554Y-96046921D01*
X159012610Y-96054773D01*
X158990001Y-96060437D01*
X158966946Y-96063856D01*
X158943667Y-96065000D01*
X158468667Y-96065000D01*
X158445388Y-96063856D01*
X158422333Y-96060437D01*
X158399724Y-96054773D01*
X158377780Y-96046921D01*
X158356710Y-96036956D01*
X158336719Y-96024974D01*
X158317999Y-96011090D01*
X158300729Y-95995438D01*
X158285077Y-95978168D01*
X158271193Y-95959448D01*
X158259211Y-95939457D01*
X158249246Y-95918387D01*
X158241394Y-95896443D01*
X158235730Y-95873834D01*
X158232311Y-95850779D01*
X158231167Y-95827500D01*
X158231167Y-95252500D01*
X158232311Y-95229221D01*
X158235730Y-95206166D01*
X158241394Y-95183557D01*
X158249246Y-95161613D01*
X158259211Y-95140543D01*
X158271193Y-95120552D01*
X158285077Y-95101832D01*
X158300729Y-95084562D01*
X158317999Y-95068910D01*
X158336719Y-95055026D01*
X158356710Y-95043044D01*
X158377780Y-95033079D01*
X158399724Y-95025227D01*
X158422333Y-95019563D01*
X158445388Y-95016144D01*
X158468667Y-95015000D01*
X158943667Y-95015000D01*
X158966946Y-95016144D01*
X158966946Y-95016144D01*
G37*
D22*
X158706167Y-95540000D03*
D12*
G36*
X156321113Y-95016144D02*
G01*
X156344168Y-95019563D01*
X156366777Y-95025227D01*
X156388721Y-95033079D01*
X156409791Y-95043044D01*
X156429782Y-95055026D01*
X156448502Y-95068910D01*
X156465772Y-95084562D01*
X156481424Y-95101832D01*
X156495308Y-95120552D01*
X156507290Y-95140543D01*
X156517255Y-95161613D01*
X156525107Y-95183557D01*
X156530771Y-95206166D01*
X156534190Y-95229221D01*
X156535334Y-95252500D01*
X156535334Y-95827500D01*
X156534190Y-95850779D01*
X156530771Y-95873834D01*
X156525107Y-95896443D01*
X156517255Y-95918387D01*
X156507290Y-95939457D01*
X156495308Y-95959448D01*
X156481424Y-95978168D01*
X156465772Y-95995438D01*
X156448502Y-96011090D01*
X156429782Y-96024974D01*
X156409791Y-96036956D01*
X156388721Y-96046921D01*
X156366777Y-96054773D01*
X156344168Y-96060437D01*
X156321113Y-96063856D01*
X156297834Y-96065000D01*
X155822834Y-96065000D01*
X155799555Y-96063856D01*
X155776500Y-96060437D01*
X155753891Y-96054773D01*
X155731947Y-96046921D01*
X155710877Y-96036956D01*
X155690886Y-96024974D01*
X155672166Y-96011090D01*
X155654896Y-95995438D01*
X155639244Y-95978168D01*
X155625360Y-95959448D01*
X155613378Y-95939457D01*
X155603413Y-95918387D01*
X155595561Y-95896443D01*
X155589897Y-95873834D01*
X155586478Y-95850779D01*
X155585334Y-95827500D01*
X155585334Y-95252500D01*
X155586478Y-95229221D01*
X155589897Y-95206166D01*
X155595561Y-95183557D01*
X155603413Y-95161613D01*
X155613378Y-95140543D01*
X155625360Y-95120552D01*
X155639244Y-95101832D01*
X155654896Y-95084562D01*
X155672166Y-95068910D01*
X155690886Y-95055026D01*
X155710877Y-95043044D01*
X155731947Y-95033079D01*
X155753891Y-95025227D01*
X155776500Y-95019563D01*
X155799555Y-95016144D01*
X155822834Y-95015000D01*
X156297834Y-95015000D01*
X156321113Y-95016144D01*
X156321113Y-95016144D01*
G37*
D22*
X156060334Y-95540000D03*
D12*
G36*
X156321113Y-93266144D02*
G01*
X156344168Y-93269563D01*
X156366777Y-93275227D01*
X156388721Y-93283079D01*
X156409791Y-93293044D01*
X156429782Y-93305026D01*
X156448502Y-93318910D01*
X156465772Y-93334562D01*
X156481424Y-93351832D01*
X156495308Y-93370552D01*
X156507290Y-93390543D01*
X156517255Y-93411613D01*
X156525107Y-93433557D01*
X156530771Y-93456166D01*
X156534190Y-93479221D01*
X156535334Y-93502500D01*
X156535334Y-94077500D01*
X156534190Y-94100779D01*
X156530771Y-94123834D01*
X156525107Y-94146443D01*
X156517255Y-94168387D01*
X156507290Y-94189457D01*
X156495308Y-94209448D01*
X156481424Y-94228168D01*
X156465772Y-94245438D01*
X156448502Y-94261090D01*
X156429782Y-94274974D01*
X156409791Y-94286956D01*
X156388721Y-94296921D01*
X156366777Y-94304773D01*
X156344168Y-94310437D01*
X156321113Y-94313856D01*
X156297834Y-94315000D01*
X155822834Y-94315000D01*
X155799555Y-94313856D01*
X155776500Y-94310437D01*
X155753891Y-94304773D01*
X155731947Y-94296921D01*
X155710877Y-94286956D01*
X155690886Y-94274974D01*
X155672166Y-94261090D01*
X155654896Y-94245438D01*
X155639244Y-94228168D01*
X155625360Y-94209448D01*
X155613378Y-94189457D01*
X155603413Y-94168387D01*
X155595561Y-94146443D01*
X155589897Y-94123834D01*
X155586478Y-94100779D01*
X155585334Y-94077500D01*
X155585334Y-93502500D01*
X155586478Y-93479221D01*
X155589897Y-93456166D01*
X155595561Y-93433557D01*
X155603413Y-93411613D01*
X155613378Y-93390543D01*
X155625360Y-93370552D01*
X155639244Y-93351832D01*
X155654896Y-93334562D01*
X155672166Y-93318910D01*
X155690886Y-93305026D01*
X155710877Y-93293044D01*
X155731947Y-93283079D01*
X155753891Y-93275227D01*
X155776500Y-93269563D01*
X155799555Y-93266144D01*
X155822834Y-93265000D01*
X156297834Y-93265000D01*
X156321113Y-93266144D01*
X156321113Y-93266144D01*
G37*
D22*
X156060334Y-93790000D03*
D12*
G36*
X153675280Y-93266144D02*
G01*
X153698335Y-93269563D01*
X153720944Y-93275227D01*
X153742888Y-93283079D01*
X153763958Y-93293044D01*
X153783949Y-93305026D01*
X153802669Y-93318910D01*
X153819939Y-93334562D01*
X153835591Y-93351832D01*
X153849475Y-93370552D01*
X153861457Y-93390543D01*
X153871422Y-93411613D01*
X153879274Y-93433557D01*
X153884938Y-93456166D01*
X153888357Y-93479221D01*
X153889501Y-93502500D01*
X153889501Y-94077500D01*
X153888357Y-94100779D01*
X153884938Y-94123834D01*
X153879274Y-94146443D01*
X153871422Y-94168387D01*
X153861457Y-94189457D01*
X153849475Y-94209448D01*
X153835591Y-94228168D01*
X153819939Y-94245438D01*
X153802669Y-94261090D01*
X153783949Y-94274974D01*
X153763958Y-94286956D01*
X153742888Y-94296921D01*
X153720944Y-94304773D01*
X153698335Y-94310437D01*
X153675280Y-94313856D01*
X153652001Y-94315000D01*
X153177001Y-94315000D01*
X153153722Y-94313856D01*
X153130667Y-94310437D01*
X153108058Y-94304773D01*
X153086114Y-94296921D01*
X153065044Y-94286956D01*
X153045053Y-94274974D01*
X153026333Y-94261090D01*
X153009063Y-94245438D01*
X152993411Y-94228168D01*
X152979527Y-94209448D01*
X152967545Y-94189457D01*
X152957580Y-94168387D01*
X152949728Y-94146443D01*
X152944064Y-94123834D01*
X152940645Y-94100779D01*
X152939501Y-94077500D01*
X152939501Y-93502500D01*
X152940645Y-93479221D01*
X152944064Y-93456166D01*
X152949728Y-93433557D01*
X152957580Y-93411613D01*
X152967545Y-93390543D01*
X152979527Y-93370552D01*
X152993411Y-93351832D01*
X153009063Y-93334562D01*
X153026333Y-93318910D01*
X153045053Y-93305026D01*
X153065044Y-93293044D01*
X153086114Y-93283079D01*
X153108058Y-93275227D01*
X153130667Y-93269563D01*
X153153722Y-93266144D01*
X153177001Y-93265000D01*
X153652001Y-93265000D01*
X153675280Y-93266144D01*
X153675280Y-93266144D01*
G37*
D22*
X153414501Y-93790000D03*
D12*
G36*
X153675280Y-95016144D02*
G01*
X153698335Y-95019563D01*
X153720944Y-95025227D01*
X153742888Y-95033079D01*
X153763958Y-95043044D01*
X153783949Y-95055026D01*
X153802669Y-95068910D01*
X153819939Y-95084562D01*
X153835591Y-95101832D01*
X153849475Y-95120552D01*
X153861457Y-95140543D01*
X153871422Y-95161613D01*
X153879274Y-95183557D01*
X153884938Y-95206166D01*
X153888357Y-95229221D01*
X153889501Y-95252500D01*
X153889501Y-95827500D01*
X153888357Y-95850779D01*
X153884938Y-95873834D01*
X153879274Y-95896443D01*
X153871422Y-95918387D01*
X153861457Y-95939457D01*
X153849475Y-95959448D01*
X153835591Y-95978168D01*
X153819939Y-95995438D01*
X153802669Y-96011090D01*
X153783949Y-96024974D01*
X153763958Y-96036956D01*
X153742888Y-96046921D01*
X153720944Y-96054773D01*
X153698335Y-96060437D01*
X153675280Y-96063856D01*
X153652001Y-96065000D01*
X153177001Y-96065000D01*
X153153722Y-96063856D01*
X153130667Y-96060437D01*
X153108058Y-96054773D01*
X153086114Y-96046921D01*
X153065044Y-96036956D01*
X153045053Y-96024974D01*
X153026333Y-96011090D01*
X153009063Y-95995438D01*
X152993411Y-95978168D01*
X152979527Y-95959448D01*
X152967545Y-95939457D01*
X152957580Y-95918387D01*
X152949728Y-95896443D01*
X152944064Y-95873834D01*
X152940645Y-95850779D01*
X152939501Y-95827500D01*
X152939501Y-95252500D01*
X152940645Y-95229221D01*
X152944064Y-95206166D01*
X152949728Y-95183557D01*
X152957580Y-95161613D01*
X152967545Y-95140543D01*
X152979527Y-95120552D01*
X152993411Y-95101832D01*
X153009063Y-95084562D01*
X153026333Y-95068910D01*
X153045053Y-95055026D01*
X153065044Y-95043044D01*
X153086114Y-95033079D01*
X153108058Y-95025227D01*
X153130667Y-95019563D01*
X153153722Y-95016144D01*
X153177001Y-95015000D01*
X153652001Y-95015000D01*
X153675280Y-95016144D01*
X153675280Y-95016144D01*
G37*
D22*
X153414501Y-95540000D03*
D12*
G36*
X166798614Y-93266144D02*
G01*
X166821669Y-93269563D01*
X166844278Y-93275227D01*
X166866222Y-93283079D01*
X166887292Y-93293044D01*
X166907283Y-93305026D01*
X166926003Y-93318910D01*
X166943273Y-93334562D01*
X166958925Y-93351832D01*
X166972809Y-93370552D01*
X166984791Y-93390543D01*
X166994756Y-93411613D01*
X167002608Y-93433557D01*
X167008272Y-93456166D01*
X167011691Y-93479221D01*
X167012835Y-93502500D01*
X167012835Y-94077500D01*
X167011691Y-94100779D01*
X167008272Y-94123834D01*
X167002608Y-94146443D01*
X166994756Y-94168387D01*
X166984791Y-94189457D01*
X166972809Y-94209448D01*
X166958925Y-94228168D01*
X166943273Y-94245438D01*
X166926003Y-94261090D01*
X166907283Y-94274974D01*
X166887292Y-94286956D01*
X166866222Y-94296921D01*
X166844278Y-94304773D01*
X166821669Y-94310437D01*
X166798614Y-94313856D01*
X166775335Y-94315000D01*
X166300335Y-94315000D01*
X166277056Y-94313856D01*
X166254001Y-94310437D01*
X166231392Y-94304773D01*
X166209448Y-94296921D01*
X166188378Y-94286956D01*
X166168387Y-94274974D01*
X166149667Y-94261090D01*
X166132397Y-94245438D01*
X166116745Y-94228168D01*
X166102861Y-94209448D01*
X166090879Y-94189457D01*
X166080914Y-94168387D01*
X166073062Y-94146443D01*
X166067398Y-94123834D01*
X166063979Y-94100779D01*
X166062835Y-94077500D01*
X166062835Y-93502500D01*
X166063979Y-93479221D01*
X166067398Y-93456166D01*
X166073062Y-93433557D01*
X166080914Y-93411613D01*
X166090879Y-93390543D01*
X166102861Y-93370552D01*
X166116745Y-93351832D01*
X166132397Y-93334562D01*
X166149667Y-93318910D01*
X166168387Y-93305026D01*
X166188378Y-93293044D01*
X166209448Y-93283079D01*
X166231392Y-93275227D01*
X166254001Y-93269563D01*
X166277056Y-93266144D01*
X166300335Y-93265000D01*
X166775335Y-93265000D01*
X166798614Y-93266144D01*
X166798614Y-93266144D01*
G37*
D22*
X166537835Y-93790000D03*
D12*
G36*
X166798614Y-95016144D02*
G01*
X166821669Y-95019563D01*
X166844278Y-95025227D01*
X166866222Y-95033079D01*
X166887292Y-95043044D01*
X166907283Y-95055026D01*
X166926003Y-95068910D01*
X166943273Y-95084562D01*
X166958925Y-95101832D01*
X166972809Y-95120552D01*
X166984791Y-95140543D01*
X166994756Y-95161613D01*
X167002608Y-95183557D01*
X167008272Y-95206166D01*
X167011691Y-95229221D01*
X167012835Y-95252500D01*
X167012835Y-95827500D01*
X167011691Y-95850779D01*
X167008272Y-95873834D01*
X167002608Y-95896443D01*
X166994756Y-95918387D01*
X166984791Y-95939457D01*
X166972809Y-95959448D01*
X166958925Y-95978168D01*
X166943273Y-95995438D01*
X166926003Y-96011090D01*
X166907283Y-96024974D01*
X166887292Y-96036956D01*
X166866222Y-96046921D01*
X166844278Y-96054773D01*
X166821669Y-96060437D01*
X166798614Y-96063856D01*
X166775335Y-96065000D01*
X166300335Y-96065000D01*
X166277056Y-96063856D01*
X166254001Y-96060437D01*
X166231392Y-96054773D01*
X166209448Y-96046921D01*
X166188378Y-96036956D01*
X166168387Y-96024974D01*
X166149667Y-96011090D01*
X166132397Y-95995438D01*
X166116745Y-95978168D01*
X166102861Y-95959448D01*
X166090879Y-95939457D01*
X166080914Y-95918387D01*
X166073062Y-95896443D01*
X166067398Y-95873834D01*
X166063979Y-95850779D01*
X166062835Y-95827500D01*
X166062835Y-95252500D01*
X166063979Y-95229221D01*
X166067398Y-95206166D01*
X166073062Y-95183557D01*
X166080914Y-95161613D01*
X166090879Y-95140543D01*
X166102861Y-95120552D01*
X166116745Y-95101832D01*
X166132397Y-95084562D01*
X166149667Y-95068910D01*
X166168387Y-95055026D01*
X166188378Y-95043044D01*
X166209448Y-95033079D01*
X166231392Y-95025227D01*
X166254001Y-95019563D01*
X166277056Y-95016144D01*
X166300335Y-95015000D01*
X166775335Y-95015000D01*
X166798614Y-95016144D01*
X166798614Y-95016144D01*
G37*
D22*
X166537835Y-95540000D03*
D12*
G36*
X164152779Y-95016144D02*
G01*
X164175834Y-95019563D01*
X164198443Y-95025227D01*
X164220387Y-95033079D01*
X164241457Y-95043044D01*
X164261448Y-95055026D01*
X164280168Y-95068910D01*
X164297438Y-95084562D01*
X164313090Y-95101832D01*
X164326974Y-95120552D01*
X164338956Y-95140543D01*
X164348921Y-95161613D01*
X164356773Y-95183557D01*
X164362437Y-95206166D01*
X164365856Y-95229221D01*
X164367000Y-95252500D01*
X164367000Y-95827500D01*
X164365856Y-95850779D01*
X164362437Y-95873834D01*
X164356773Y-95896443D01*
X164348921Y-95918387D01*
X164338956Y-95939457D01*
X164326974Y-95959448D01*
X164313090Y-95978168D01*
X164297438Y-95995438D01*
X164280168Y-96011090D01*
X164261448Y-96024974D01*
X164241457Y-96036956D01*
X164220387Y-96046921D01*
X164198443Y-96054773D01*
X164175834Y-96060437D01*
X164152779Y-96063856D01*
X164129500Y-96065000D01*
X163654500Y-96065000D01*
X163631221Y-96063856D01*
X163608166Y-96060437D01*
X163585557Y-96054773D01*
X163563613Y-96046921D01*
X163542543Y-96036956D01*
X163522552Y-96024974D01*
X163503832Y-96011090D01*
X163486562Y-95995438D01*
X163470910Y-95978168D01*
X163457026Y-95959448D01*
X163445044Y-95939457D01*
X163435079Y-95918387D01*
X163427227Y-95896443D01*
X163421563Y-95873834D01*
X163418144Y-95850779D01*
X163417000Y-95827500D01*
X163417000Y-95252500D01*
X163418144Y-95229221D01*
X163421563Y-95206166D01*
X163427227Y-95183557D01*
X163435079Y-95161613D01*
X163445044Y-95140543D01*
X163457026Y-95120552D01*
X163470910Y-95101832D01*
X163486562Y-95084562D01*
X163503832Y-95068910D01*
X163522552Y-95055026D01*
X163542543Y-95043044D01*
X163563613Y-95033079D01*
X163585557Y-95025227D01*
X163608166Y-95019563D01*
X163631221Y-95016144D01*
X163654500Y-95015000D01*
X164129500Y-95015000D01*
X164152779Y-95016144D01*
X164152779Y-95016144D01*
G37*
D22*
X163892000Y-95540000D03*
D12*
G36*
X164152779Y-93266144D02*
G01*
X164175834Y-93269563D01*
X164198443Y-93275227D01*
X164220387Y-93283079D01*
X164241457Y-93293044D01*
X164261448Y-93305026D01*
X164280168Y-93318910D01*
X164297438Y-93334562D01*
X164313090Y-93351832D01*
X164326974Y-93370552D01*
X164338956Y-93390543D01*
X164348921Y-93411613D01*
X164356773Y-93433557D01*
X164362437Y-93456166D01*
X164365856Y-93479221D01*
X164367000Y-93502500D01*
X164367000Y-94077500D01*
X164365856Y-94100779D01*
X164362437Y-94123834D01*
X164356773Y-94146443D01*
X164348921Y-94168387D01*
X164338956Y-94189457D01*
X164326974Y-94209448D01*
X164313090Y-94228168D01*
X164297438Y-94245438D01*
X164280168Y-94261090D01*
X164261448Y-94274974D01*
X164241457Y-94286956D01*
X164220387Y-94296921D01*
X164198443Y-94304773D01*
X164175834Y-94310437D01*
X164152779Y-94313856D01*
X164129500Y-94315000D01*
X163654500Y-94315000D01*
X163631221Y-94313856D01*
X163608166Y-94310437D01*
X163585557Y-94304773D01*
X163563613Y-94296921D01*
X163542543Y-94286956D01*
X163522552Y-94274974D01*
X163503832Y-94261090D01*
X163486562Y-94245438D01*
X163470910Y-94228168D01*
X163457026Y-94209448D01*
X163445044Y-94189457D01*
X163435079Y-94168387D01*
X163427227Y-94146443D01*
X163421563Y-94123834D01*
X163418144Y-94100779D01*
X163417000Y-94077500D01*
X163417000Y-93502500D01*
X163418144Y-93479221D01*
X163421563Y-93456166D01*
X163427227Y-93433557D01*
X163435079Y-93411613D01*
X163445044Y-93390543D01*
X163457026Y-93370552D01*
X163470910Y-93351832D01*
X163486562Y-93334562D01*
X163503832Y-93318910D01*
X163522552Y-93305026D01*
X163542543Y-93293044D01*
X163563613Y-93283079D01*
X163585557Y-93275227D01*
X163608166Y-93269563D01*
X163631221Y-93266144D01*
X163654500Y-93265000D01*
X164129500Y-93265000D01*
X164152779Y-93266144D01*
X164152779Y-93266144D01*
G37*
D22*
X163892000Y-93790000D03*
D12*
G36*
X143948779Y-111400144D02*
G01*
X143971834Y-111403563D01*
X143994443Y-111409227D01*
X144016387Y-111417079D01*
X144037457Y-111427044D01*
X144057448Y-111439026D01*
X144076168Y-111452910D01*
X144093438Y-111468562D01*
X144109090Y-111485832D01*
X144122974Y-111504552D01*
X144134956Y-111524543D01*
X144144921Y-111545613D01*
X144152773Y-111567557D01*
X144158437Y-111590166D01*
X144161856Y-111613221D01*
X144163000Y-111636500D01*
X144163000Y-112111500D01*
X144161856Y-112134779D01*
X144158437Y-112157834D01*
X144152773Y-112180443D01*
X144144921Y-112202387D01*
X144134956Y-112223457D01*
X144122974Y-112243448D01*
X144109090Y-112262168D01*
X144093438Y-112279438D01*
X144076168Y-112295090D01*
X144057448Y-112308974D01*
X144037457Y-112320956D01*
X144016387Y-112330921D01*
X143994443Y-112338773D01*
X143971834Y-112344437D01*
X143948779Y-112347856D01*
X143925500Y-112349000D01*
X143350500Y-112349000D01*
X143327221Y-112347856D01*
X143304166Y-112344437D01*
X143281557Y-112338773D01*
X143259613Y-112330921D01*
X143238543Y-112320956D01*
X143218552Y-112308974D01*
X143199832Y-112295090D01*
X143182562Y-112279438D01*
X143166910Y-112262168D01*
X143153026Y-112243448D01*
X143141044Y-112223457D01*
X143131079Y-112202387D01*
X143123227Y-112180443D01*
X143117563Y-112157834D01*
X143114144Y-112134779D01*
X143113000Y-112111500D01*
X143113000Y-111636500D01*
X143114144Y-111613221D01*
X143117563Y-111590166D01*
X143123227Y-111567557D01*
X143131079Y-111545613D01*
X143141044Y-111524543D01*
X143153026Y-111504552D01*
X143166910Y-111485832D01*
X143182562Y-111468562D01*
X143199832Y-111452910D01*
X143218552Y-111439026D01*
X143238543Y-111427044D01*
X143259613Y-111417079D01*
X143281557Y-111409227D01*
X143304166Y-111403563D01*
X143327221Y-111400144D01*
X143350500Y-111399000D01*
X143925500Y-111399000D01*
X143948779Y-111400144D01*
X143948779Y-111400144D01*
G37*
D22*
X143638000Y-111874000D03*
D12*
G36*
X145698779Y-111400144D02*
G01*
X145721834Y-111403563D01*
X145744443Y-111409227D01*
X145766387Y-111417079D01*
X145787457Y-111427044D01*
X145807448Y-111439026D01*
X145826168Y-111452910D01*
X145843438Y-111468562D01*
X145859090Y-111485832D01*
X145872974Y-111504552D01*
X145884956Y-111524543D01*
X145894921Y-111545613D01*
X145902773Y-111567557D01*
X145908437Y-111590166D01*
X145911856Y-111613221D01*
X145913000Y-111636500D01*
X145913000Y-112111500D01*
X145911856Y-112134779D01*
X145908437Y-112157834D01*
X145902773Y-112180443D01*
X145894921Y-112202387D01*
X145884956Y-112223457D01*
X145872974Y-112243448D01*
X145859090Y-112262168D01*
X145843438Y-112279438D01*
X145826168Y-112295090D01*
X145807448Y-112308974D01*
X145787457Y-112320956D01*
X145766387Y-112330921D01*
X145744443Y-112338773D01*
X145721834Y-112344437D01*
X145698779Y-112347856D01*
X145675500Y-112349000D01*
X145100500Y-112349000D01*
X145077221Y-112347856D01*
X145054166Y-112344437D01*
X145031557Y-112338773D01*
X145009613Y-112330921D01*
X144988543Y-112320956D01*
X144968552Y-112308974D01*
X144949832Y-112295090D01*
X144932562Y-112279438D01*
X144916910Y-112262168D01*
X144903026Y-112243448D01*
X144891044Y-112223457D01*
X144881079Y-112202387D01*
X144873227Y-112180443D01*
X144867563Y-112157834D01*
X144864144Y-112134779D01*
X144863000Y-112111500D01*
X144863000Y-111636500D01*
X144864144Y-111613221D01*
X144867563Y-111590166D01*
X144873227Y-111567557D01*
X144881079Y-111545613D01*
X144891044Y-111524543D01*
X144903026Y-111504552D01*
X144916910Y-111485832D01*
X144932562Y-111468562D01*
X144949832Y-111452910D01*
X144968552Y-111439026D01*
X144988543Y-111427044D01*
X145009613Y-111417079D01*
X145031557Y-111409227D01*
X145054166Y-111403563D01*
X145077221Y-111400144D01*
X145100500Y-111399000D01*
X145675500Y-111399000D01*
X145698779Y-111400144D01*
X145698779Y-111400144D01*
G37*
D22*
X145388000Y-111874000D03*
D12*
G36*
X145698779Y-118512144D02*
G01*
X145721834Y-118515563D01*
X145744443Y-118521227D01*
X145766387Y-118529079D01*
X145787457Y-118539044D01*
X145807448Y-118551026D01*
X145826168Y-118564910D01*
X145843438Y-118580562D01*
X145859090Y-118597832D01*
X145872974Y-118616552D01*
X145884956Y-118636543D01*
X145894921Y-118657613D01*
X145902773Y-118679557D01*
X145908437Y-118702166D01*
X145911856Y-118725221D01*
X145913000Y-118748500D01*
X145913000Y-119223500D01*
X145911856Y-119246779D01*
X145908437Y-119269834D01*
X145902773Y-119292443D01*
X145894921Y-119314387D01*
X145884956Y-119335457D01*
X145872974Y-119355448D01*
X145859090Y-119374168D01*
X145843438Y-119391438D01*
X145826168Y-119407090D01*
X145807448Y-119420974D01*
X145787457Y-119432956D01*
X145766387Y-119442921D01*
X145744443Y-119450773D01*
X145721834Y-119456437D01*
X145698779Y-119459856D01*
X145675500Y-119461000D01*
X145100500Y-119461000D01*
X145077221Y-119459856D01*
X145054166Y-119456437D01*
X145031557Y-119450773D01*
X145009613Y-119442921D01*
X144988543Y-119432956D01*
X144968552Y-119420974D01*
X144949832Y-119407090D01*
X144932562Y-119391438D01*
X144916910Y-119374168D01*
X144903026Y-119355448D01*
X144891044Y-119335457D01*
X144881079Y-119314387D01*
X144873227Y-119292443D01*
X144867563Y-119269834D01*
X144864144Y-119246779D01*
X144863000Y-119223500D01*
X144863000Y-118748500D01*
X144864144Y-118725221D01*
X144867563Y-118702166D01*
X144873227Y-118679557D01*
X144881079Y-118657613D01*
X144891044Y-118636543D01*
X144903026Y-118616552D01*
X144916910Y-118597832D01*
X144932562Y-118580562D01*
X144949832Y-118564910D01*
X144968552Y-118551026D01*
X144988543Y-118539044D01*
X145009613Y-118529079D01*
X145031557Y-118521227D01*
X145054166Y-118515563D01*
X145077221Y-118512144D01*
X145100500Y-118511000D01*
X145675500Y-118511000D01*
X145698779Y-118512144D01*
X145698779Y-118512144D01*
G37*
D22*
X145388000Y-118986000D03*
D12*
G36*
X143948779Y-118512144D02*
G01*
X143971834Y-118515563D01*
X143994443Y-118521227D01*
X144016387Y-118529079D01*
X144037457Y-118539044D01*
X144057448Y-118551026D01*
X144076168Y-118564910D01*
X144093438Y-118580562D01*
X144109090Y-118597832D01*
X144122974Y-118616552D01*
X144134956Y-118636543D01*
X144144921Y-118657613D01*
X144152773Y-118679557D01*
X144158437Y-118702166D01*
X144161856Y-118725221D01*
X144163000Y-118748500D01*
X144163000Y-119223500D01*
X144161856Y-119246779D01*
X144158437Y-119269834D01*
X144152773Y-119292443D01*
X144144921Y-119314387D01*
X144134956Y-119335457D01*
X144122974Y-119355448D01*
X144109090Y-119374168D01*
X144093438Y-119391438D01*
X144076168Y-119407090D01*
X144057448Y-119420974D01*
X144037457Y-119432956D01*
X144016387Y-119442921D01*
X143994443Y-119450773D01*
X143971834Y-119456437D01*
X143948779Y-119459856D01*
X143925500Y-119461000D01*
X143350500Y-119461000D01*
X143327221Y-119459856D01*
X143304166Y-119456437D01*
X143281557Y-119450773D01*
X143259613Y-119442921D01*
X143238543Y-119432956D01*
X143218552Y-119420974D01*
X143199832Y-119407090D01*
X143182562Y-119391438D01*
X143166910Y-119374168D01*
X143153026Y-119355448D01*
X143141044Y-119335457D01*
X143131079Y-119314387D01*
X143123227Y-119292443D01*
X143117563Y-119269834D01*
X143114144Y-119246779D01*
X143113000Y-119223500D01*
X143113000Y-118748500D01*
X143114144Y-118725221D01*
X143117563Y-118702166D01*
X143123227Y-118679557D01*
X143131079Y-118657613D01*
X143141044Y-118636543D01*
X143153026Y-118616552D01*
X143166910Y-118597832D01*
X143182562Y-118580562D01*
X143199832Y-118564910D01*
X143218552Y-118551026D01*
X143238543Y-118539044D01*
X143259613Y-118529079D01*
X143281557Y-118521227D01*
X143304166Y-118515563D01*
X143327221Y-118512144D01*
X143350500Y-118511000D01*
X143925500Y-118511000D01*
X143948779Y-118512144D01*
X143948779Y-118512144D01*
G37*
D22*
X143638000Y-118986000D03*
D23*
X180333000Y-82590000D03*
X180333000Y-87150000D03*
D24*
X188308000Y-86395000D03*
X184958000Y-83345000D03*
X188308000Y-83345000D03*
X184958000Y-86395000D03*
X184958000Y-106300000D03*
X188308000Y-103250000D03*
X184958000Y-103250000D03*
X188308000Y-106300000D03*
D23*
X180333000Y-107055000D03*
X180333000Y-102495000D03*
M02*
