M48
; DRILL file {KiCad (5.1.2)-1} date 6/29/2019 3:07:53 PM
; FORMAT={-:-/ absolute / inch / decimal}
; #@! TF.CreationDate,2019-06-29T15:07:53-05:00
; #@! TF.GenerationSoftware,Kicad,Pcbnew,(5.1.2)-1
; #@! TF.FileFunction,Plated,1,2,PTH
FMAT,2
INCH
T1C0.0157
T2C0.0315
T3C0.0394
T4C0.0433
T5C0.0598
%
G90
G05
T1
X4.274Y-3.246
X4.274Y-3.3193
X4.274Y-3.3927
X4.274Y-3.466
X4.274Y-3.83
X4.274Y-3.9033
X4.274Y-3.9767
X4.274Y-4.05
X4.274Y-4.122
X4.274Y-4.1953
X4.274Y-4.2687
X4.274Y-4.342
X4.276Y-3.0193
X4.276Y-3.0927
X4.276Y-3.166
X4.276Y-3.544
X4.276Y-3.6173
X4.276Y-3.6907
X4.276Y-3.764
X4.566Y-4.792
X4.594Y-3.982
X4.608Y-3.902
X4.6393Y-4.792
X4.6673Y-3.982
X4.668Y-2.938
X4.668Y-3.01
X4.67Y-2.662
X4.67Y-2.734
X4.6713Y-2.866
X4.672Y-2.804
X4.6813Y-3.902
X4.7127Y-4.792
X4.7407Y-3.982
X4.7547Y-3.902
X4.78Y-3.03
X4.78Y-3.13
X4.786Y-4.792
X4.802Y-3.496
X4.802Y-3.5693
X4.802Y-3.6427
X4.802Y-3.716
X4.814Y-3.982
X4.828Y-3.902
X4.858Y-4.792
X4.9Y-3.494
X4.92Y-4.394
X4.92Y-4.4673
X4.92Y-4.5407
X4.92Y-4.614
X4.9313Y-4.792
X4.986Y-3.972
X5.002Y-2.972
X5.002Y-3.04
X5.002Y-3.142
X5.002Y-3.21
X5.0047Y-4.792
X5.018Y-3.448
X5.024Y-3.722
X5.024Y-3.7953
X5.042Y-3.084
X5.07Y-3.946
X5.078Y-4.792
X5.088Y-3.994
X5.094Y-4.386
X5.094Y-4.4593
X5.094Y-4.5327
X5.094Y-4.606
X5.1425Y-4.0875
X5.144Y-4.794
X5.1525Y-2.7975
X5.2173Y-4.794
X5.254Y-3.508
X5.268Y-3.988
X5.29Y-2.966
X5.29Y-3.0393
X5.29Y-3.1127
X5.29Y-3.186
X5.2907Y-4.794
X5.322Y-4.218
X5.3543Y-3.5039
X5.364Y-4.794
X5.368Y-3.848
X5.368Y-3.9213
X5.368Y-3.9947
X5.368Y-4.068
X5.392Y-3.358
X5.3937Y-3.4449
X5.442Y-4.792
X5.446Y-2.97
X5.476Y-4.518
X5.504Y-3.948
X5.504Y-4.02
X5.5073Y-3.876
X5.5153Y-4.792
X5.528Y-3.4953
X5.534Y-3.356
X5.588Y-3.992
X5.5887Y-4.792
X5.59Y-3.402
X5.662Y-4.792
X5.674Y-4.354
X5.676Y-3.398
X5.686Y-3.212
X5.742Y-4.794
X5.7447Y-3.4
X5.752Y-3.244
X5.812Y-3.318
X5.814Y-3.566
X5.814Y-3.6393
X5.814Y-3.7127
X5.8153Y-4.794
X5.818Y-3.4
X5.824Y-3.122
X5.8887Y-4.794
X5.958Y-4.288
X5.962Y-4.794
X6.0313Y-4.288
X6.036Y-4.794
X6.1047Y-4.288
X6.108Y-2.99
X6.1093Y-4.794
X6.112Y-4.458
X6.1175Y-2.68
X6.12Y-2.62
X6.178Y-4.288
X6.18Y-2.7883
X6.18Y-2.99
X6.1827Y-4.794
X6.1853Y-4.458
X6.232Y-2.818
X6.25Y-2.99
X6.256Y-4.794
X6.2587Y-4.458
X6.302Y-2.816
X6.312Y-2.99
X6.332Y-4.458
X6.334Y-4.794
X6.374Y-2.816
X6.384Y-2.99
X6.4073Y-4.794
X6.432Y-4.362
X6.446Y-2.8193
X6.456Y-2.99
X6.48Y-4.222
X6.4807Y-4.794
X6.5053Y-4.362
X6.526Y-2.99
X6.5533Y-4.222
X6.554Y-4.794
X6.5787Y-4.362
X6.59Y-3.418
X6.592Y-3.372
X6.622Y-3.618
X6.6267Y-4.222
X6.63Y-3.674
X6.634Y-3.738
X6.638Y-4.788
X6.652Y-4.362
X6.688Y-3.61
X6.688Y-3.672
X6.692Y-3.962
X6.7Y-4.222
X6.71Y-2.496
X6.7113Y-4.788
X6.742Y-3.972
X6.748Y-3.914
X6.7833Y-2.496
X6.7847Y-4.788
X6.786Y-3.94
X6.792Y-3.86
X6.8567Y-2.496
X6.858Y-4.788
X6.872Y-4.454
X6.872Y-4.53
X6.872Y-4.6
X6.872Y-4.658
X6.916Y-3.254
X6.916Y-3.326
X6.9193Y-3.182
X6.93Y-2.496
X6.936Y-4.786
X6.972Y-4.454
X6.972Y-4.53
X6.972Y-4.6
X6.972Y-4.658
X6.98Y-3.802
X6.98Y-3.874
X6.982Y-3.568
X6.982Y-3.64
X6.9833Y-3.73
X6.9853Y-3.496
X6.996Y-2.496
X7.0093Y-4.786
X7.0693Y-2.496
X7.0827Y-4.786
X7.098Y-2.898
X7.1427Y-2.496
X7.156Y-4.786
X7.1713Y-2.898
X7.2447Y-2.898
X7.268Y-3.344
X7.27Y-3.27
X7.27Y-3.416
X7.272Y-3.582
X7.274Y-3.508
X7.274Y-3.654
X7.274Y-3.724
X7.276Y-4.12
X7.278Y-4.046
X7.278Y-4.192
X7.298Y-4.382
X7.3Y-4.308
X7.3Y-4.454
X7.3Y-4.524
X7.318Y-2.898
X7.34Y-3.342
X7.34Y-3.414
X7.3433Y-3.27
X7.348Y-4.118
X7.348Y-4.19
X7.3513Y-4.046
X7.356Y-4.382
X7.358Y-4.308
X7.358Y-4.454
X7.358Y-4.524
X7.4167Y-3.27
X7.418Y-3.342
X7.42Y-3.414
X7.422Y-3.818
X7.424Y-3.542
X7.424Y-3.744
X7.424Y-3.89
X7.424Y-3.96
X7.4247Y-4.046
X7.426Y-3.614
X7.426Y-3.684
X7.426Y-4.118
X7.428Y-4.19
X7.494Y-3.816
X7.494Y-3.888
X7.496Y-3.54
X7.496Y-3.612
X7.496Y-3.958
X7.4973Y-3.744
X7.498Y-3.682
T2
X5.9524Y-3.2307
X5.9524Y-3.5307
X6.0524Y-3.2307
X6.0524Y-3.5307
X6.1524Y-3.2307
X6.1524Y-3.5307
X6.2524Y-3.2307
X6.2524Y-3.5307
X6.3524Y-3.2307
X6.3524Y-3.5307
X6.4524Y-3.2307
X6.4524Y-3.5307
X6.5524Y-3.2307
X6.5524Y-3.5307
X6.6524Y-3.2307
X6.6524Y-3.5307
X5.7015Y-3.3112
X5.7015Y-3.5041
T3
X6.5221Y-2.5452
X6.6221Y-2.5452
X4.4958Y-2.872
X4.4958Y-2.972
X4.4958Y-3.072
X4.4958Y-3.172
X4.4958Y-3.272
X4.4958Y-3.372
X4.6194Y-2.5452
X4.7194Y-2.5452
X4.8194Y-2.5452
X4.9194Y-2.5452
X5.0194Y-2.5452
X5.1194Y-2.5452
X5.2194Y-2.5452
X5.3194Y-2.5452
X5.4194Y-2.5452
X5.5194Y-2.5452
X5.9774Y-4.0589
X5.9774Y-4.6589
X6.0774Y-4.0589
X6.0774Y-4.6589
X6.1774Y-4.0589
X6.1774Y-4.6589
X6.2774Y-4.0589
X6.2774Y-4.6589
X6.3774Y-4.0589
X6.3774Y-4.6589
X6.4774Y-4.0589
X6.4774Y-4.6589
X6.5774Y-4.0589
X6.5774Y-4.6589
X6.6774Y-4.0589
X6.6774Y-4.6589
X6.7774Y-4.0589
X6.7774Y-4.6589
X4.4958Y-3.5444
X4.4958Y-3.6444
X4.4958Y-3.7444
X4.4958Y-3.8444
X5.7211Y-2.5452
X5.8211Y-2.5452
X5.9211Y-2.5452
X6.0211Y-2.5452
X6.222Y-2.5452
X6.322Y-2.5452
X6.858Y-2.9389
X6.858Y-3.0389
X6.858Y-3.1389
T4
X5.0064Y-4.3539
X5.0064Y-4.6098
X5.1836Y-4.3539
X5.1836Y-4.6098
X4.6521Y-4.3559
X4.6521Y-4.6118
X4.8293Y-4.3559
X4.8293Y-4.6118
T5
X6.868Y-2.6338
X7.068Y-2.6338
T0
M30
