G04 #@! TF.GenerationSoftware,KiCad,Pcbnew,(5.1.2)-1*
G04 #@! TF.CreationDate,2019-06-29T15:08:14-05:00*
G04 #@! TF.ProjectId,TPDSI_1,54504453-495f-4312-9e6b-696361645f70,1.3*
G04 #@! TF.SameCoordinates,Original*
G04 #@! TF.FileFunction,Soldermask,Bot*
G04 #@! TF.FilePolarity,Negative*
%FSLAX46Y46*%
G04 Gerber Fmt 4.6, Leading zero omitted, Abs format (unit mm)*
G04 Created by KiCad (PCBNEW (5.1.2)-1) date 2019-06-29 15:08:14*
%MOMM*%
%LPD*%
G04 APERTURE LIST*
%ADD10C,0.100000*%
G04 APERTURE END LIST*
D10*
G36*
X187568256Y-118039298D02*
G01*
X187674579Y-118060447D01*
X187975042Y-118184903D01*
X188245451Y-118365585D01*
X188475415Y-118595549D01*
X188656097Y-118865958D01*
X188780553Y-119166421D01*
X188844000Y-119485391D01*
X188844000Y-119810609D01*
X188780553Y-120129579D01*
X188656097Y-120430042D01*
X188475415Y-120700451D01*
X188245451Y-120930415D01*
X187975042Y-121111097D01*
X187674579Y-121235553D01*
X187568256Y-121256702D01*
X187355611Y-121299000D01*
X187030389Y-121299000D01*
X186817744Y-121256702D01*
X186711421Y-121235553D01*
X186410958Y-121111097D01*
X186140549Y-120930415D01*
X185910585Y-120700451D01*
X185729903Y-120430042D01*
X185605447Y-120129579D01*
X185542000Y-119810609D01*
X185542000Y-119485391D01*
X185605447Y-119166421D01*
X185729903Y-118865958D01*
X185910585Y-118595549D01*
X186140549Y-118365585D01*
X186410958Y-118184903D01*
X186711421Y-118060447D01*
X186817744Y-118039298D01*
X187030389Y-117997000D01*
X187355611Y-117997000D01*
X187568256Y-118039298D01*
X187568256Y-118039298D01*
G37*
G36*
X111568256Y-118039298D02*
G01*
X111674579Y-118060447D01*
X111975042Y-118184903D01*
X112245451Y-118365585D01*
X112475415Y-118595549D01*
X112656097Y-118865958D01*
X112780553Y-119166421D01*
X112844000Y-119485391D01*
X112844000Y-119810609D01*
X112780553Y-120129579D01*
X112656097Y-120430042D01*
X112475415Y-120700451D01*
X112245451Y-120930415D01*
X111975042Y-121111097D01*
X111674579Y-121235553D01*
X111568256Y-121256702D01*
X111355611Y-121299000D01*
X111030389Y-121299000D01*
X110817744Y-121256702D01*
X110711421Y-121235553D01*
X110410958Y-121111097D01*
X110140549Y-120930415D01*
X109910585Y-120700451D01*
X109729903Y-120430042D01*
X109605447Y-120129579D01*
X109542000Y-119810609D01*
X109542000Y-119485391D01*
X109605447Y-119166421D01*
X109729903Y-118865958D01*
X109910585Y-118595549D01*
X110140549Y-118365585D01*
X110410958Y-118184903D01*
X110711421Y-118060447D01*
X110817744Y-118039298D01*
X111030389Y-117997000D01*
X111355611Y-117997000D01*
X111568256Y-118039298D01*
X111568256Y-118039298D01*
G37*
G36*
X154600642Y-117564781D02*
G01*
X154746414Y-117625162D01*
X154746416Y-117625163D01*
X154877608Y-117712822D01*
X154989178Y-117824392D01*
X155076837Y-117955584D01*
X155076838Y-117955586D01*
X155137219Y-118101358D01*
X155168000Y-118256107D01*
X155168000Y-118413893D01*
X155137219Y-118568642D01*
X155076838Y-118714414D01*
X155076837Y-118714416D01*
X154989178Y-118845608D01*
X154877608Y-118957178D01*
X154746416Y-119044837D01*
X154746415Y-119044838D01*
X154746414Y-119044838D01*
X154600642Y-119105219D01*
X154445893Y-119136000D01*
X154288107Y-119136000D01*
X154133358Y-119105219D01*
X153987586Y-119044838D01*
X153987585Y-119044838D01*
X153987584Y-119044837D01*
X153856392Y-118957178D01*
X153744822Y-118845608D01*
X153657163Y-118714416D01*
X153657162Y-118714414D01*
X153596781Y-118568642D01*
X153566000Y-118413893D01*
X153566000Y-118256107D01*
X153596781Y-118101358D01*
X153657162Y-117955586D01*
X153657163Y-117955584D01*
X153744822Y-117824392D01*
X153856392Y-117712822D01*
X153987584Y-117625163D01*
X153987586Y-117625162D01*
X154133358Y-117564781D01*
X154288107Y-117534000D01*
X154445893Y-117534000D01*
X154600642Y-117564781D01*
X154600642Y-117564781D01*
G37*
G36*
X152628000Y-119136000D02*
G01*
X151026000Y-119136000D01*
X151026000Y-117534000D01*
X152628000Y-117534000D01*
X152628000Y-119136000D01*
X152628000Y-119136000D01*
G37*
G36*
X157140642Y-117564781D02*
G01*
X157286414Y-117625162D01*
X157286416Y-117625163D01*
X157417608Y-117712822D01*
X157529178Y-117824392D01*
X157616837Y-117955584D01*
X157616838Y-117955586D01*
X157677219Y-118101358D01*
X157708000Y-118256107D01*
X157708000Y-118413893D01*
X157677219Y-118568642D01*
X157616838Y-118714414D01*
X157616837Y-118714416D01*
X157529178Y-118845608D01*
X157417608Y-118957178D01*
X157286416Y-119044837D01*
X157286415Y-119044838D01*
X157286414Y-119044838D01*
X157140642Y-119105219D01*
X156985893Y-119136000D01*
X156828107Y-119136000D01*
X156673358Y-119105219D01*
X156527586Y-119044838D01*
X156527585Y-119044838D01*
X156527584Y-119044837D01*
X156396392Y-118957178D01*
X156284822Y-118845608D01*
X156197163Y-118714416D01*
X156197162Y-118714414D01*
X156136781Y-118568642D01*
X156106000Y-118413893D01*
X156106000Y-118256107D01*
X156136781Y-118101358D01*
X156197162Y-117955586D01*
X156197163Y-117955584D01*
X156284822Y-117824392D01*
X156396392Y-117712822D01*
X156527584Y-117625163D01*
X156527586Y-117625162D01*
X156673358Y-117564781D01*
X156828107Y-117534000D01*
X156985893Y-117534000D01*
X157140642Y-117564781D01*
X157140642Y-117564781D01*
G37*
G36*
X159680642Y-117564781D02*
G01*
X159826414Y-117625162D01*
X159826416Y-117625163D01*
X159957608Y-117712822D01*
X160069178Y-117824392D01*
X160156837Y-117955584D01*
X160156838Y-117955586D01*
X160217219Y-118101358D01*
X160248000Y-118256107D01*
X160248000Y-118413893D01*
X160217219Y-118568642D01*
X160156838Y-118714414D01*
X160156837Y-118714416D01*
X160069178Y-118845608D01*
X159957608Y-118957178D01*
X159826416Y-119044837D01*
X159826415Y-119044838D01*
X159826414Y-119044838D01*
X159680642Y-119105219D01*
X159525893Y-119136000D01*
X159368107Y-119136000D01*
X159213358Y-119105219D01*
X159067586Y-119044838D01*
X159067585Y-119044838D01*
X159067584Y-119044837D01*
X158936392Y-118957178D01*
X158824822Y-118845608D01*
X158737163Y-118714416D01*
X158737162Y-118714414D01*
X158676781Y-118568642D01*
X158646000Y-118413893D01*
X158646000Y-118256107D01*
X158676781Y-118101358D01*
X158737162Y-117955586D01*
X158737163Y-117955584D01*
X158824822Y-117824392D01*
X158936392Y-117712822D01*
X159067584Y-117625163D01*
X159067586Y-117625162D01*
X159213358Y-117564781D01*
X159368107Y-117534000D01*
X159525893Y-117534000D01*
X159680642Y-117564781D01*
X159680642Y-117564781D01*
G37*
G36*
X162220642Y-117564781D02*
G01*
X162366414Y-117625162D01*
X162366416Y-117625163D01*
X162497608Y-117712822D01*
X162609178Y-117824392D01*
X162696837Y-117955584D01*
X162696838Y-117955586D01*
X162757219Y-118101358D01*
X162788000Y-118256107D01*
X162788000Y-118413893D01*
X162757219Y-118568642D01*
X162696838Y-118714414D01*
X162696837Y-118714416D01*
X162609178Y-118845608D01*
X162497608Y-118957178D01*
X162366416Y-119044837D01*
X162366415Y-119044838D01*
X162366414Y-119044838D01*
X162220642Y-119105219D01*
X162065893Y-119136000D01*
X161908107Y-119136000D01*
X161753358Y-119105219D01*
X161607586Y-119044838D01*
X161607585Y-119044838D01*
X161607584Y-119044837D01*
X161476392Y-118957178D01*
X161364822Y-118845608D01*
X161277163Y-118714416D01*
X161277162Y-118714414D01*
X161216781Y-118568642D01*
X161186000Y-118413893D01*
X161186000Y-118256107D01*
X161216781Y-118101358D01*
X161277162Y-117955586D01*
X161277163Y-117955584D01*
X161364822Y-117824392D01*
X161476392Y-117712822D01*
X161607584Y-117625163D01*
X161607586Y-117625162D01*
X161753358Y-117564781D01*
X161908107Y-117534000D01*
X162065893Y-117534000D01*
X162220642Y-117564781D01*
X162220642Y-117564781D01*
G37*
G36*
X167300642Y-117564781D02*
G01*
X167446414Y-117625162D01*
X167446416Y-117625163D01*
X167577608Y-117712822D01*
X167689178Y-117824392D01*
X167776837Y-117955584D01*
X167776838Y-117955586D01*
X167837219Y-118101358D01*
X167868000Y-118256107D01*
X167868000Y-118413893D01*
X167837219Y-118568642D01*
X167776838Y-118714414D01*
X167776837Y-118714416D01*
X167689178Y-118845608D01*
X167577608Y-118957178D01*
X167446416Y-119044837D01*
X167446415Y-119044838D01*
X167446414Y-119044838D01*
X167300642Y-119105219D01*
X167145893Y-119136000D01*
X166988107Y-119136000D01*
X166833358Y-119105219D01*
X166687586Y-119044838D01*
X166687585Y-119044838D01*
X166687584Y-119044837D01*
X166556392Y-118957178D01*
X166444822Y-118845608D01*
X166357163Y-118714416D01*
X166357162Y-118714414D01*
X166296781Y-118568642D01*
X166266000Y-118413893D01*
X166266000Y-118256107D01*
X166296781Y-118101358D01*
X166357162Y-117955586D01*
X166357163Y-117955584D01*
X166444822Y-117824392D01*
X166556392Y-117712822D01*
X166687584Y-117625163D01*
X166687586Y-117625162D01*
X166833358Y-117564781D01*
X166988107Y-117534000D01*
X167145893Y-117534000D01*
X167300642Y-117564781D01*
X167300642Y-117564781D01*
G37*
G36*
X169840642Y-117564781D02*
G01*
X169986414Y-117625162D01*
X169986416Y-117625163D01*
X170117608Y-117712822D01*
X170229178Y-117824392D01*
X170316837Y-117955584D01*
X170316838Y-117955586D01*
X170377219Y-118101358D01*
X170408000Y-118256107D01*
X170408000Y-118413893D01*
X170377219Y-118568642D01*
X170316838Y-118714414D01*
X170316837Y-118714416D01*
X170229178Y-118845608D01*
X170117608Y-118957178D01*
X169986416Y-119044837D01*
X169986415Y-119044838D01*
X169986414Y-119044838D01*
X169840642Y-119105219D01*
X169685893Y-119136000D01*
X169528107Y-119136000D01*
X169373358Y-119105219D01*
X169227586Y-119044838D01*
X169227585Y-119044838D01*
X169227584Y-119044837D01*
X169096392Y-118957178D01*
X168984822Y-118845608D01*
X168897163Y-118714416D01*
X168897162Y-118714414D01*
X168836781Y-118568642D01*
X168806000Y-118413893D01*
X168806000Y-118256107D01*
X168836781Y-118101358D01*
X168897162Y-117955586D01*
X168897163Y-117955584D01*
X168984822Y-117824392D01*
X169096392Y-117712822D01*
X169227584Y-117625163D01*
X169227586Y-117625162D01*
X169373358Y-117564781D01*
X169528107Y-117534000D01*
X169685893Y-117534000D01*
X169840642Y-117564781D01*
X169840642Y-117564781D01*
G37*
G36*
X172380642Y-117564781D02*
G01*
X172526414Y-117625162D01*
X172526416Y-117625163D01*
X172657608Y-117712822D01*
X172769178Y-117824392D01*
X172856837Y-117955584D01*
X172856838Y-117955586D01*
X172917219Y-118101358D01*
X172948000Y-118256107D01*
X172948000Y-118413893D01*
X172917219Y-118568642D01*
X172856838Y-118714414D01*
X172856837Y-118714416D01*
X172769178Y-118845608D01*
X172657608Y-118957178D01*
X172526416Y-119044837D01*
X172526415Y-119044838D01*
X172526414Y-119044838D01*
X172380642Y-119105219D01*
X172225893Y-119136000D01*
X172068107Y-119136000D01*
X171913358Y-119105219D01*
X171767586Y-119044838D01*
X171767585Y-119044838D01*
X171767584Y-119044837D01*
X171636392Y-118957178D01*
X171524822Y-118845608D01*
X171437163Y-118714416D01*
X171437162Y-118714414D01*
X171376781Y-118568642D01*
X171346000Y-118413893D01*
X171346000Y-118256107D01*
X171376781Y-118101358D01*
X171437162Y-117955586D01*
X171437163Y-117955584D01*
X171524822Y-117824392D01*
X171636392Y-117712822D01*
X171767584Y-117625163D01*
X171767586Y-117625162D01*
X171913358Y-117564781D01*
X172068107Y-117534000D01*
X172225893Y-117534000D01*
X172380642Y-117564781D01*
X172380642Y-117564781D01*
G37*
G36*
X164760642Y-117564781D02*
G01*
X164906414Y-117625162D01*
X164906416Y-117625163D01*
X165037608Y-117712822D01*
X165149178Y-117824392D01*
X165236837Y-117955584D01*
X165236838Y-117955586D01*
X165297219Y-118101358D01*
X165328000Y-118256107D01*
X165328000Y-118413893D01*
X165297219Y-118568642D01*
X165236838Y-118714414D01*
X165236837Y-118714416D01*
X165149178Y-118845608D01*
X165037608Y-118957178D01*
X164906416Y-119044837D01*
X164906415Y-119044838D01*
X164906414Y-119044838D01*
X164760642Y-119105219D01*
X164605893Y-119136000D01*
X164448107Y-119136000D01*
X164293358Y-119105219D01*
X164147586Y-119044838D01*
X164147585Y-119044838D01*
X164147584Y-119044837D01*
X164016392Y-118957178D01*
X163904822Y-118845608D01*
X163817163Y-118714416D01*
X163817162Y-118714414D01*
X163756781Y-118568642D01*
X163726000Y-118413893D01*
X163726000Y-118256107D01*
X163756781Y-118101358D01*
X163817162Y-117955586D01*
X163817163Y-117955584D01*
X163904822Y-117824392D01*
X164016392Y-117712822D01*
X164147584Y-117625163D01*
X164147586Y-117625162D01*
X164293358Y-117564781D01*
X164448107Y-117534000D01*
X164605893Y-117534000D01*
X164760642Y-117564781D01*
X164760642Y-117564781D01*
G37*
G36*
X122969564Y-116128389D02*
G01*
X123160833Y-116207615D01*
X123160835Y-116207616D01*
X123258143Y-116272635D01*
X123332973Y-116322635D01*
X123479365Y-116469027D01*
X123594385Y-116641167D01*
X123673611Y-116832436D01*
X123714000Y-117035484D01*
X123714000Y-117242516D01*
X123673611Y-117445564D01*
X123615095Y-117586835D01*
X123594384Y-117636835D01*
X123479365Y-117808973D01*
X123332973Y-117955365D01*
X123160835Y-118070384D01*
X123160834Y-118070385D01*
X123160833Y-118070385D01*
X122969564Y-118149611D01*
X122766516Y-118190000D01*
X122559484Y-118190000D01*
X122356436Y-118149611D01*
X122165167Y-118070385D01*
X122165166Y-118070385D01*
X122165165Y-118070384D01*
X121993027Y-117955365D01*
X121846635Y-117808973D01*
X121731616Y-117636835D01*
X121710905Y-117586835D01*
X121652389Y-117445564D01*
X121612000Y-117242516D01*
X121612000Y-117035484D01*
X121652389Y-116832436D01*
X121731615Y-116641167D01*
X121846635Y-116469027D01*
X121993027Y-116322635D01*
X122067857Y-116272635D01*
X122165165Y-116207616D01*
X122165167Y-116207615D01*
X122356436Y-116128389D01*
X122559484Y-116088000D01*
X122766516Y-116088000D01*
X122969564Y-116128389D01*
X122969564Y-116128389D01*
G37*
G36*
X118469564Y-116128389D02*
G01*
X118660833Y-116207615D01*
X118660835Y-116207616D01*
X118758143Y-116272635D01*
X118832973Y-116322635D01*
X118979365Y-116469027D01*
X119094385Y-116641167D01*
X119173611Y-116832436D01*
X119214000Y-117035484D01*
X119214000Y-117242516D01*
X119173611Y-117445564D01*
X119115095Y-117586835D01*
X119094384Y-117636835D01*
X118979365Y-117808973D01*
X118832973Y-117955365D01*
X118660835Y-118070384D01*
X118660834Y-118070385D01*
X118660833Y-118070385D01*
X118469564Y-118149611D01*
X118266516Y-118190000D01*
X118059484Y-118190000D01*
X117856436Y-118149611D01*
X117665167Y-118070385D01*
X117665166Y-118070385D01*
X117665165Y-118070384D01*
X117493027Y-117955365D01*
X117346635Y-117808973D01*
X117231616Y-117636835D01*
X117210905Y-117586835D01*
X117152389Y-117445564D01*
X117112000Y-117242516D01*
X117112000Y-117035484D01*
X117152389Y-116832436D01*
X117231615Y-116641167D01*
X117346635Y-116469027D01*
X117493027Y-116322635D01*
X117567857Y-116272635D01*
X117665165Y-116207616D01*
X117665167Y-116207615D01*
X117856436Y-116128389D01*
X118059484Y-116088000D01*
X118266516Y-116088000D01*
X118469564Y-116128389D01*
X118469564Y-116128389D01*
G37*
G36*
X131969564Y-116078389D02*
G01*
X132090277Y-116128390D01*
X132160835Y-116157616D01*
X132235665Y-116207616D01*
X132332973Y-116272635D01*
X132479365Y-116419027D01*
X132594385Y-116591167D01*
X132673611Y-116782436D01*
X132714000Y-116985484D01*
X132714000Y-117192516D01*
X132673611Y-117395564D01*
X132616269Y-117534000D01*
X132594384Y-117586835D01*
X132479365Y-117758973D01*
X132332973Y-117905365D01*
X132160835Y-118020384D01*
X132160834Y-118020385D01*
X132160833Y-118020385D01*
X131969564Y-118099611D01*
X131766516Y-118140000D01*
X131559484Y-118140000D01*
X131356436Y-118099611D01*
X131165167Y-118020385D01*
X131165166Y-118020385D01*
X131165165Y-118020384D01*
X130993027Y-117905365D01*
X130846635Y-117758973D01*
X130731616Y-117586835D01*
X130709731Y-117534000D01*
X130652389Y-117395564D01*
X130612000Y-117192516D01*
X130612000Y-116985484D01*
X130652389Y-116782436D01*
X130731615Y-116591167D01*
X130846635Y-116419027D01*
X130993027Y-116272635D01*
X131090335Y-116207616D01*
X131165165Y-116157616D01*
X131235723Y-116128390D01*
X131356436Y-116078389D01*
X131559484Y-116038000D01*
X131766516Y-116038000D01*
X131969564Y-116078389D01*
X131969564Y-116078389D01*
G37*
G36*
X127469564Y-116078389D02*
G01*
X127590277Y-116128390D01*
X127660835Y-116157616D01*
X127735665Y-116207616D01*
X127832973Y-116272635D01*
X127979365Y-116419027D01*
X128094385Y-116591167D01*
X128173611Y-116782436D01*
X128214000Y-116985484D01*
X128214000Y-117192516D01*
X128173611Y-117395564D01*
X128116269Y-117534000D01*
X128094384Y-117586835D01*
X127979365Y-117758973D01*
X127832973Y-117905365D01*
X127660835Y-118020384D01*
X127660834Y-118020385D01*
X127660833Y-118020385D01*
X127469564Y-118099611D01*
X127266516Y-118140000D01*
X127059484Y-118140000D01*
X126856436Y-118099611D01*
X126665167Y-118020385D01*
X126665166Y-118020385D01*
X126665165Y-118020384D01*
X126493027Y-117905365D01*
X126346635Y-117758973D01*
X126231616Y-117586835D01*
X126209731Y-117534000D01*
X126152389Y-117395564D01*
X126112000Y-117192516D01*
X126112000Y-116985484D01*
X126152389Y-116782436D01*
X126231615Y-116591167D01*
X126346635Y-116419027D01*
X126493027Y-116272635D01*
X126590335Y-116207616D01*
X126665165Y-116157616D01*
X126735723Y-116128390D01*
X126856436Y-116078389D01*
X127059484Y-116038000D01*
X127266516Y-116038000D01*
X127469564Y-116078389D01*
X127469564Y-116078389D01*
G37*
G36*
X122969564Y-109628389D02*
G01*
X123160833Y-109707615D01*
X123160835Y-109707616D01*
X123258143Y-109772635D01*
X123332973Y-109822635D01*
X123479365Y-109969027D01*
X123594385Y-110141167D01*
X123673611Y-110332436D01*
X123714000Y-110535484D01*
X123714000Y-110742516D01*
X123673611Y-110945564D01*
X123615095Y-111086835D01*
X123594384Y-111136835D01*
X123479365Y-111308973D01*
X123332973Y-111455365D01*
X123160835Y-111570384D01*
X123160834Y-111570385D01*
X123160833Y-111570385D01*
X122969564Y-111649611D01*
X122766516Y-111690000D01*
X122559484Y-111690000D01*
X122356436Y-111649611D01*
X122165167Y-111570385D01*
X122165166Y-111570385D01*
X122165165Y-111570384D01*
X121993027Y-111455365D01*
X121846635Y-111308973D01*
X121731616Y-111136835D01*
X121710905Y-111086835D01*
X121652389Y-110945564D01*
X121612000Y-110742516D01*
X121612000Y-110535484D01*
X121652389Y-110332436D01*
X121731615Y-110141167D01*
X121846635Y-109969027D01*
X121993027Y-109822635D01*
X122067857Y-109772635D01*
X122165165Y-109707616D01*
X122165167Y-109707615D01*
X122356436Y-109628389D01*
X122559484Y-109588000D01*
X122766516Y-109588000D01*
X122969564Y-109628389D01*
X122969564Y-109628389D01*
G37*
G36*
X118469564Y-109628389D02*
G01*
X118660833Y-109707615D01*
X118660835Y-109707616D01*
X118758143Y-109772635D01*
X118832973Y-109822635D01*
X118979365Y-109969027D01*
X119094385Y-110141167D01*
X119173611Y-110332436D01*
X119214000Y-110535484D01*
X119214000Y-110742516D01*
X119173611Y-110945564D01*
X119115095Y-111086835D01*
X119094384Y-111136835D01*
X118979365Y-111308973D01*
X118832973Y-111455365D01*
X118660835Y-111570384D01*
X118660834Y-111570385D01*
X118660833Y-111570385D01*
X118469564Y-111649611D01*
X118266516Y-111690000D01*
X118059484Y-111690000D01*
X117856436Y-111649611D01*
X117665167Y-111570385D01*
X117665166Y-111570385D01*
X117665165Y-111570384D01*
X117493027Y-111455365D01*
X117346635Y-111308973D01*
X117231616Y-111136835D01*
X117210905Y-111086835D01*
X117152389Y-110945564D01*
X117112000Y-110742516D01*
X117112000Y-110535484D01*
X117152389Y-110332436D01*
X117231615Y-110141167D01*
X117346635Y-109969027D01*
X117493027Y-109822635D01*
X117567857Y-109772635D01*
X117665165Y-109707616D01*
X117665167Y-109707615D01*
X117856436Y-109628389D01*
X118059484Y-109588000D01*
X118266516Y-109588000D01*
X118469564Y-109628389D01*
X118469564Y-109628389D01*
G37*
G36*
X131969564Y-109578389D02*
G01*
X132090277Y-109628390D01*
X132160835Y-109657616D01*
X132235665Y-109707616D01*
X132332973Y-109772635D01*
X132479365Y-109919027D01*
X132594385Y-110091167D01*
X132673611Y-110282436D01*
X132714000Y-110485484D01*
X132714000Y-110692516D01*
X132673611Y-110895564D01*
X132594385Y-111086833D01*
X132594384Y-111086835D01*
X132479365Y-111258973D01*
X132332973Y-111405365D01*
X132160835Y-111520384D01*
X132160834Y-111520385D01*
X132160833Y-111520385D01*
X131969564Y-111599611D01*
X131766516Y-111640000D01*
X131559484Y-111640000D01*
X131356436Y-111599611D01*
X131165167Y-111520385D01*
X131165166Y-111520385D01*
X131165165Y-111520384D01*
X130993027Y-111405365D01*
X130846635Y-111258973D01*
X130731616Y-111086835D01*
X130731615Y-111086833D01*
X130652389Y-110895564D01*
X130612000Y-110692516D01*
X130612000Y-110485484D01*
X130652389Y-110282436D01*
X130731615Y-110091167D01*
X130846635Y-109919027D01*
X130993027Y-109772635D01*
X131090335Y-109707616D01*
X131165165Y-109657616D01*
X131235723Y-109628390D01*
X131356436Y-109578389D01*
X131559484Y-109538000D01*
X131766516Y-109538000D01*
X131969564Y-109578389D01*
X131969564Y-109578389D01*
G37*
G36*
X127469564Y-109578389D02*
G01*
X127590277Y-109628390D01*
X127660835Y-109657616D01*
X127735665Y-109707616D01*
X127832973Y-109772635D01*
X127979365Y-109919027D01*
X128094385Y-110091167D01*
X128173611Y-110282436D01*
X128214000Y-110485484D01*
X128214000Y-110692516D01*
X128173611Y-110895564D01*
X128094385Y-111086833D01*
X128094384Y-111086835D01*
X127979365Y-111258973D01*
X127832973Y-111405365D01*
X127660835Y-111520384D01*
X127660834Y-111520385D01*
X127660833Y-111520385D01*
X127469564Y-111599611D01*
X127266516Y-111640000D01*
X127059484Y-111640000D01*
X126856436Y-111599611D01*
X126665167Y-111520385D01*
X126665166Y-111520385D01*
X126665165Y-111520384D01*
X126493027Y-111405365D01*
X126346635Y-111258973D01*
X126231616Y-111086835D01*
X126231615Y-111086833D01*
X126152389Y-110895564D01*
X126112000Y-110692516D01*
X126112000Y-110485484D01*
X126152389Y-110282436D01*
X126231615Y-110091167D01*
X126346635Y-109919027D01*
X126493027Y-109772635D01*
X126590335Y-109707616D01*
X126665165Y-109657616D01*
X126735723Y-109628390D01*
X126856436Y-109578389D01*
X127059484Y-109538000D01*
X127266516Y-109538000D01*
X127469564Y-109578389D01*
X127469564Y-109578389D01*
G37*
G36*
X169840642Y-102324781D02*
G01*
X169986414Y-102385162D01*
X169986416Y-102385163D01*
X170117608Y-102472822D01*
X170229178Y-102584392D01*
X170316837Y-102715584D01*
X170316838Y-102715586D01*
X170377219Y-102861358D01*
X170408000Y-103016107D01*
X170408000Y-103173893D01*
X170377219Y-103328642D01*
X170316838Y-103474414D01*
X170316837Y-103474416D01*
X170229178Y-103605608D01*
X170117608Y-103717178D01*
X169986416Y-103804837D01*
X169986415Y-103804838D01*
X169986414Y-103804838D01*
X169840642Y-103865219D01*
X169685893Y-103896000D01*
X169528107Y-103896000D01*
X169373358Y-103865219D01*
X169227586Y-103804838D01*
X169227585Y-103804838D01*
X169227584Y-103804837D01*
X169096392Y-103717178D01*
X168984822Y-103605608D01*
X168897163Y-103474416D01*
X168897162Y-103474414D01*
X168836781Y-103328642D01*
X168806000Y-103173893D01*
X168806000Y-103016107D01*
X168836781Y-102861358D01*
X168897162Y-102715586D01*
X168897163Y-102715584D01*
X168984822Y-102584392D01*
X169096392Y-102472822D01*
X169227584Y-102385163D01*
X169227586Y-102385162D01*
X169373358Y-102324781D01*
X169528107Y-102294000D01*
X169685893Y-102294000D01*
X169840642Y-102324781D01*
X169840642Y-102324781D01*
G37*
G36*
X167300642Y-102324781D02*
G01*
X167446414Y-102385162D01*
X167446416Y-102385163D01*
X167577608Y-102472822D01*
X167689178Y-102584392D01*
X167776837Y-102715584D01*
X167776838Y-102715586D01*
X167837219Y-102861358D01*
X167868000Y-103016107D01*
X167868000Y-103173893D01*
X167837219Y-103328642D01*
X167776838Y-103474414D01*
X167776837Y-103474416D01*
X167689178Y-103605608D01*
X167577608Y-103717178D01*
X167446416Y-103804837D01*
X167446415Y-103804838D01*
X167446414Y-103804838D01*
X167300642Y-103865219D01*
X167145893Y-103896000D01*
X166988107Y-103896000D01*
X166833358Y-103865219D01*
X166687586Y-103804838D01*
X166687585Y-103804838D01*
X166687584Y-103804837D01*
X166556392Y-103717178D01*
X166444822Y-103605608D01*
X166357163Y-103474416D01*
X166357162Y-103474414D01*
X166296781Y-103328642D01*
X166266000Y-103173893D01*
X166266000Y-103016107D01*
X166296781Y-102861358D01*
X166357162Y-102715586D01*
X166357163Y-102715584D01*
X166444822Y-102584392D01*
X166556392Y-102472822D01*
X166687584Y-102385163D01*
X166687586Y-102385162D01*
X166833358Y-102324781D01*
X166988107Y-102294000D01*
X167145893Y-102294000D01*
X167300642Y-102324781D01*
X167300642Y-102324781D01*
G37*
G36*
X154600642Y-102324781D02*
G01*
X154746414Y-102385162D01*
X154746416Y-102385163D01*
X154877608Y-102472822D01*
X154989178Y-102584392D01*
X155076837Y-102715584D01*
X155076838Y-102715586D01*
X155137219Y-102861358D01*
X155168000Y-103016107D01*
X155168000Y-103173893D01*
X155137219Y-103328642D01*
X155076838Y-103474414D01*
X155076837Y-103474416D01*
X154989178Y-103605608D01*
X154877608Y-103717178D01*
X154746416Y-103804837D01*
X154746415Y-103804838D01*
X154746414Y-103804838D01*
X154600642Y-103865219D01*
X154445893Y-103896000D01*
X154288107Y-103896000D01*
X154133358Y-103865219D01*
X153987586Y-103804838D01*
X153987585Y-103804838D01*
X153987584Y-103804837D01*
X153856392Y-103717178D01*
X153744822Y-103605608D01*
X153657163Y-103474416D01*
X153657162Y-103474414D01*
X153596781Y-103328642D01*
X153566000Y-103173893D01*
X153566000Y-103016107D01*
X153596781Y-102861358D01*
X153657162Y-102715586D01*
X153657163Y-102715584D01*
X153744822Y-102584392D01*
X153856392Y-102472822D01*
X153987584Y-102385163D01*
X153987586Y-102385162D01*
X154133358Y-102324781D01*
X154288107Y-102294000D01*
X154445893Y-102294000D01*
X154600642Y-102324781D01*
X154600642Y-102324781D01*
G37*
G36*
X164760642Y-102324781D02*
G01*
X164906414Y-102385162D01*
X164906416Y-102385163D01*
X165037608Y-102472822D01*
X165149178Y-102584392D01*
X165236837Y-102715584D01*
X165236838Y-102715586D01*
X165297219Y-102861358D01*
X165328000Y-103016107D01*
X165328000Y-103173893D01*
X165297219Y-103328642D01*
X165236838Y-103474414D01*
X165236837Y-103474416D01*
X165149178Y-103605608D01*
X165037608Y-103717178D01*
X164906416Y-103804837D01*
X164906415Y-103804838D01*
X164906414Y-103804838D01*
X164760642Y-103865219D01*
X164605893Y-103896000D01*
X164448107Y-103896000D01*
X164293358Y-103865219D01*
X164147586Y-103804838D01*
X164147585Y-103804838D01*
X164147584Y-103804837D01*
X164016392Y-103717178D01*
X163904822Y-103605608D01*
X163817163Y-103474416D01*
X163817162Y-103474414D01*
X163756781Y-103328642D01*
X163726000Y-103173893D01*
X163726000Y-103016107D01*
X163756781Y-102861358D01*
X163817162Y-102715586D01*
X163817163Y-102715584D01*
X163904822Y-102584392D01*
X164016392Y-102472822D01*
X164147584Y-102385163D01*
X164147586Y-102385162D01*
X164293358Y-102324781D01*
X164448107Y-102294000D01*
X164605893Y-102294000D01*
X164760642Y-102324781D01*
X164760642Y-102324781D01*
G37*
G36*
X162220642Y-102324781D02*
G01*
X162366414Y-102385162D01*
X162366416Y-102385163D01*
X162497608Y-102472822D01*
X162609178Y-102584392D01*
X162696837Y-102715584D01*
X162696838Y-102715586D01*
X162757219Y-102861358D01*
X162788000Y-103016107D01*
X162788000Y-103173893D01*
X162757219Y-103328642D01*
X162696838Y-103474414D01*
X162696837Y-103474416D01*
X162609178Y-103605608D01*
X162497608Y-103717178D01*
X162366416Y-103804837D01*
X162366415Y-103804838D01*
X162366414Y-103804838D01*
X162220642Y-103865219D01*
X162065893Y-103896000D01*
X161908107Y-103896000D01*
X161753358Y-103865219D01*
X161607586Y-103804838D01*
X161607585Y-103804838D01*
X161607584Y-103804837D01*
X161476392Y-103717178D01*
X161364822Y-103605608D01*
X161277163Y-103474416D01*
X161277162Y-103474414D01*
X161216781Y-103328642D01*
X161186000Y-103173893D01*
X161186000Y-103016107D01*
X161216781Y-102861358D01*
X161277162Y-102715586D01*
X161277163Y-102715584D01*
X161364822Y-102584392D01*
X161476392Y-102472822D01*
X161607584Y-102385163D01*
X161607586Y-102385162D01*
X161753358Y-102324781D01*
X161908107Y-102294000D01*
X162065893Y-102294000D01*
X162220642Y-102324781D01*
X162220642Y-102324781D01*
G37*
G36*
X157140642Y-102324781D02*
G01*
X157286414Y-102385162D01*
X157286416Y-102385163D01*
X157417608Y-102472822D01*
X157529178Y-102584392D01*
X157616837Y-102715584D01*
X157616838Y-102715586D01*
X157677219Y-102861358D01*
X157708000Y-103016107D01*
X157708000Y-103173893D01*
X157677219Y-103328642D01*
X157616838Y-103474414D01*
X157616837Y-103474416D01*
X157529178Y-103605608D01*
X157417608Y-103717178D01*
X157286416Y-103804837D01*
X157286415Y-103804838D01*
X157286414Y-103804838D01*
X157140642Y-103865219D01*
X156985893Y-103896000D01*
X156828107Y-103896000D01*
X156673358Y-103865219D01*
X156527586Y-103804838D01*
X156527585Y-103804838D01*
X156527584Y-103804837D01*
X156396392Y-103717178D01*
X156284822Y-103605608D01*
X156197163Y-103474416D01*
X156197162Y-103474414D01*
X156136781Y-103328642D01*
X156106000Y-103173893D01*
X156106000Y-103016107D01*
X156136781Y-102861358D01*
X156197162Y-102715586D01*
X156197163Y-102715584D01*
X156284822Y-102584392D01*
X156396392Y-102472822D01*
X156527584Y-102385163D01*
X156527586Y-102385162D01*
X156673358Y-102324781D01*
X156828107Y-102294000D01*
X156985893Y-102294000D01*
X157140642Y-102324781D01*
X157140642Y-102324781D01*
G37*
G36*
X152060642Y-102324781D02*
G01*
X152206414Y-102385162D01*
X152206416Y-102385163D01*
X152337608Y-102472822D01*
X152449178Y-102584392D01*
X152536837Y-102715584D01*
X152536838Y-102715586D01*
X152597219Y-102861358D01*
X152628000Y-103016107D01*
X152628000Y-103173893D01*
X152597219Y-103328642D01*
X152536838Y-103474414D01*
X152536837Y-103474416D01*
X152449178Y-103605608D01*
X152337608Y-103717178D01*
X152206416Y-103804837D01*
X152206415Y-103804838D01*
X152206414Y-103804838D01*
X152060642Y-103865219D01*
X151905893Y-103896000D01*
X151748107Y-103896000D01*
X151593358Y-103865219D01*
X151447586Y-103804838D01*
X151447585Y-103804838D01*
X151447584Y-103804837D01*
X151316392Y-103717178D01*
X151204822Y-103605608D01*
X151117163Y-103474416D01*
X151117162Y-103474414D01*
X151056781Y-103328642D01*
X151026000Y-103173893D01*
X151026000Y-103016107D01*
X151056781Y-102861358D01*
X151117162Y-102715586D01*
X151117163Y-102715584D01*
X151204822Y-102584392D01*
X151316392Y-102472822D01*
X151447584Y-102385163D01*
X151447586Y-102385162D01*
X151593358Y-102324781D01*
X151748107Y-102294000D01*
X151905893Y-102294000D01*
X152060642Y-102324781D01*
X152060642Y-102324781D01*
G37*
G36*
X172380642Y-102324781D02*
G01*
X172526414Y-102385162D01*
X172526416Y-102385163D01*
X172657608Y-102472822D01*
X172769178Y-102584392D01*
X172856837Y-102715584D01*
X172856838Y-102715586D01*
X172917219Y-102861358D01*
X172948000Y-103016107D01*
X172948000Y-103173893D01*
X172917219Y-103328642D01*
X172856838Y-103474414D01*
X172856837Y-103474416D01*
X172769178Y-103605608D01*
X172657608Y-103717178D01*
X172526416Y-103804837D01*
X172526415Y-103804838D01*
X172526414Y-103804838D01*
X172380642Y-103865219D01*
X172225893Y-103896000D01*
X172068107Y-103896000D01*
X171913358Y-103865219D01*
X171767586Y-103804838D01*
X171767585Y-103804838D01*
X171767584Y-103804837D01*
X171636392Y-103717178D01*
X171524822Y-103605608D01*
X171437163Y-103474416D01*
X171437162Y-103474414D01*
X171376781Y-103328642D01*
X171346000Y-103173893D01*
X171346000Y-103016107D01*
X171376781Y-102861358D01*
X171437162Y-102715586D01*
X171437163Y-102715584D01*
X171524822Y-102584392D01*
X171636392Y-102472822D01*
X171767584Y-102385163D01*
X171767586Y-102385162D01*
X171913358Y-102324781D01*
X172068107Y-102294000D01*
X172225893Y-102294000D01*
X172380642Y-102324781D01*
X172380642Y-102324781D01*
G37*
G36*
X159680642Y-102324781D02*
G01*
X159826414Y-102385162D01*
X159826416Y-102385163D01*
X159957608Y-102472822D01*
X160069178Y-102584392D01*
X160156837Y-102715584D01*
X160156838Y-102715586D01*
X160217219Y-102861358D01*
X160248000Y-103016107D01*
X160248000Y-103173893D01*
X160217219Y-103328642D01*
X160156838Y-103474414D01*
X160156837Y-103474416D01*
X160069178Y-103605608D01*
X159957608Y-103717178D01*
X159826416Y-103804837D01*
X159826415Y-103804838D01*
X159826414Y-103804838D01*
X159680642Y-103865219D01*
X159525893Y-103896000D01*
X159368107Y-103896000D01*
X159213358Y-103865219D01*
X159067586Y-103804838D01*
X159067585Y-103804838D01*
X159067584Y-103804837D01*
X158936392Y-103717178D01*
X158824822Y-103605608D01*
X158737163Y-103474416D01*
X158737162Y-103474414D01*
X158676781Y-103328642D01*
X158646000Y-103173893D01*
X158646000Y-103016107D01*
X158676781Y-102861358D01*
X158737162Y-102715586D01*
X158737163Y-102715584D01*
X158824822Y-102584392D01*
X158936392Y-102472822D01*
X159067584Y-102385163D01*
X159067586Y-102385162D01*
X159213358Y-102324781D01*
X159368107Y-102294000D01*
X159525893Y-102294000D01*
X159680642Y-102324781D01*
X159680642Y-102324781D01*
G37*
G36*
X115094000Y-98549000D02*
G01*
X113292000Y-98549000D01*
X113292000Y-96747000D01*
X115094000Y-96747000D01*
X115094000Y-98549000D01*
X115094000Y-98549000D01*
G37*
G36*
X114303442Y-94213518D02*
G01*
X114369627Y-94220037D01*
X114539466Y-94271557D01*
X114695991Y-94355222D01*
X114731729Y-94384552D01*
X114833186Y-94467814D01*
X114916448Y-94569271D01*
X114945778Y-94605009D01*
X115029443Y-94761534D01*
X115080963Y-94931373D01*
X115098359Y-95108000D01*
X115080963Y-95284627D01*
X115029443Y-95454466D01*
X114945778Y-95610991D01*
X114916448Y-95646729D01*
X114833186Y-95748186D01*
X114731729Y-95831448D01*
X114695991Y-95860778D01*
X114539466Y-95944443D01*
X114369627Y-95995963D01*
X114303443Y-96002481D01*
X114237260Y-96009000D01*
X114148740Y-96009000D01*
X114082557Y-96002481D01*
X114016373Y-95995963D01*
X113846534Y-95944443D01*
X113690009Y-95860778D01*
X113654271Y-95831448D01*
X113552814Y-95748186D01*
X113469552Y-95646729D01*
X113440222Y-95610991D01*
X113356557Y-95454466D01*
X113305037Y-95284627D01*
X113287641Y-95108000D01*
X113305037Y-94931373D01*
X113356557Y-94761534D01*
X113440222Y-94605009D01*
X113469552Y-94569271D01*
X113552814Y-94467814D01*
X113654271Y-94384552D01*
X113690009Y-94355222D01*
X113846534Y-94271557D01*
X114016373Y-94220037D01*
X114082558Y-94213518D01*
X114148740Y-94207000D01*
X114237260Y-94207000D01*
X114303442Y-94213518D01*
X114303442Y-94213518D01*
G37*
G36*
X114303443Y-91673519D02*
G01*
X114369627Y-91680037D01*
X114539466Y-91731557D01*
X114695991Y-91815222D01*
X114731729Y-91844552D01*
X114833186Y-91927814D01*
X114916448Y-92029271D01*
X114945778Y-92065009D01*
X115029443Y-92221534D01*
X115080963Y-92391373D01*
X115098359Y-92568000D01*
X115080963Y-92744627D01*
X115029443Y-92914466D01*
X114945778Y-93070991D01*
X114916448Y-93106729D01*
X114833186Y-93208186D01*
X114731729Y-93291448D01*
X114695991Y-93320778D01*
X114539466Y-93404443D01*
X114369627Y-93455963D01*
X114303442Y-93462482D01*
X114237260Y-93469000D01*
X114148740Y-93469000D01*
X114082558Y-93462482D01*
X114016373Y-93455963D01*
X113846534Y-93404443D01*
X113690009Y-93320778D01*
X113654271Y-93291448D01*
X113552814Y-93208186D01*
X113469552Y-93106729D01*
X113440222Y-93070991D01*
X113356557Y-92914466D01*
X113305037Y-92744627D01*
X113287641Y-92568000D01*
X113305037Y-92391373D01*
X113356557Y-92221534D01*
X113440222Y-92065009D01*
X113469552Y-92029271D01*
X113552814Y-91927814D01*
X113654271Y-91844552D01*
X113690009Y-91815222D01*
X113846534Y-91731557D01*
X114016373Y-91680037D01*
X114082557Y-91673519D01*
X114148740Y-91667000D01*
X114237260Y-91667000D01*
X114303443Y-91673519D01*
X114303443Y-91673519D01*
G37*
G36*
X114303442Y-89133518D02*
G01*
X114369627Y-89140037D01*
X114539466Y-89191557D01*
X114695991Y-89275222D01*
X114731729Y-89304552D01*
X114833186Y-89387814D01*
X114916448Y-89489271D01*
X114945778Y-89525009D01*
X115029443Y-89681534D01*
X115080963Y-89851373D01*
X115098359Y-90028000D01*
X115080963Y-90204627D01*
X115029443Y-90374466D01*
X114945778Y-90530991D01*
X114916448Y-90566729D01*
X114833186Y-90668186D01*
X114731729Y-90751448D01*
X114695991Y-90780778D01*
X114539466Y-90864443D01*
X114369627Y-90915963D01*
X114303442Y-90922482D01*
X114237260Y-90929000D01*
X114148740Y-90929000D01*
X114082558Y-90922482D01*
X114016373Y-90915963D01*
X113846534Y-90864443D01*
X113690009Y-90780778D01*
X113654271Y-90751448D01*
X113552814Y-90668186D01*
X113469552Y-90566729D01*
X113440222Y-90530991D01*
X113356557Y-90374466D01*
X113305037Y-90204627D01*
X113287641Y-90028000D01*
X113305037Y-89851373D01*
X113356557Y-89681534D01*
X113440222Y-89525009D01*
X113469552Y-89489271D01*
X113552814Y-89387814D01*
X113654271Y-89304552D01*
X113690009Y-89275222D01*
X113846534Y-89191557D01*
X114016373Y-89140037D01*
X114082558Y-89133518D01*
X114148740Y-89127000D01*
X114237260Y-89127000D01*
X114303442Y-89133518D01*
X114303442Y-89133518D01*
G37*
G36*
X153898823Y-88841313D02*
G01*
X154059242Y-88889976D01*
X154191906Y-88960886D01*
X154207078Y-88968996D01*
X154336659Y-89075341D01*
X154443004Y-89204922D01*
X154443005Y-89204924D01*
X154522024Y-89352758D01*
X154570687Y-89513177D01*
X154587117Y-89680000D01*
X154570687Y-89846823D01*
X154522024Y-90007242D01*
X154451114Y-90139906D01*
X154443004Y-90155078D01*
X154336659Y-90284659D01*
X154207078Y-90391004D01*
X154207076Y-90391005D01*
X154059242Y-90470024D01*
X153898823Y-90518687D01*
X153773804Y-90531000D01*
X153690196Y-90531000D01*
X153565177Y-90518687D01*
X153404758Y-90470024D01*
X153256924Y-90391005D01*
X153256922Y-90391004D01*
X153127341Y-90284659D01*
X153020996Y-90155078D01*
X153012886Y-90139906D01*
X152941976Y-90007242D01*
X152893313Y-89846823D01*
X152876883Y-89680000D01*
X152893313Y-89513177D01*
X152941976Y-89352758D01*
X153020995Y-89204924D01*
X153020996Y-89204922D01*
X153127341Y-89075341D01*
X153256922Y-88968996D01*
X153272094Y-88960886D01*
X153404758Y-88889976D01*
X153565177Y-88841313D01*
X153690196Y-88829000D01*
X153773804Y-88829000D01*
X153898823Y-88841313D01*
X153898823Y-88841313D01*
G37*
G36*
X156438823Y-88841313D02*
G01*
X156599242Y-88889976D01*
X156731906Y-88960886D01*
X156747078Y-88968996D01*
X156876659Y-89075341D01*
X156983004Y-89204922D01*
X156983005Y-89204924D01*
X157062024Y-89352758D01*
X157110687Y-89513177D01*
X157127117Y-89680000D01*
X157110687Y-89846823D01*
X157062024Y-90007242D01*
X156991114Y-90139906D01*
X156983004Y-90155078D01*
X156876659Y-90284659D01*
X156747078Y-90391004D01*
X156747076Y-90391005D01*
X156599242Y-90470024D01*
X156438823Y-90518687D01*
X156313804Y-90531000D01*
X156230196Y-90531000D01*
X156105177Y-90518687D01*
X155944758Y-90470024D01*
X155796924Y-90391005D01*
X155796922Y-90391004D01*
X155667341Y-90284659D01*
X155560996Y-90155078D01*
X155552886Y-90139906D01*
X155481976Y-90007242D01*
X155433313Y-89846823D01*
X155416883Y-89680000D01*
X155433313Y-89513177D01*
X155481976Y-89352758D01*
X155560995Y-89204924D01*
X155560996Y-89204922D01*
X155667341Y-89075341D01*
X155796922Y-88968996D01*
X155812094Y-88960886D01*
X155944758Y-88889976D01*
X156105177Y-88841313D01*
X156230196Y-88829000D01*
X156313804Y-88829000D01*
X156438823Y-88841313D01*
X156438823Y-88841313D01*
G37*
G36*
X161518823Y-88841313D02*
G01*
X161679242Y-88889976D01*
X161811906Y-88960886D01*
X161827078Y-88968996D01*
X161956659Y-89075341D01*
X162063004Y-89204922D01*
X162063005Y-89204924D01*
X162142024Y-89352758D01*
X162190687Y-89513177D01*
X162207117Y-89680000D01*
X162190687Y-89846823D01*
X162142024Y-90007242D01*
X162071114Y-90139906D01*
X162063004Y-90155078D01*
X161956659Y-90284659D01*
X161827078Y-90391004D01*
X161827076Y-90391005D01*
X161679242Y-90470024D01*
X161518823Y-90518687D01*
X161393804Y-90531000D01*
X161310196Y-90531000D01*
X161185177Y-90518687D01*
X161024758Y-90470024D01*
X160876924Y-90391005D01*
X160876922Y-90391004D01*
X160747341Y-90284659D01*
X160640996Y-90155078D01*
X160632886Y-90139906D01*
X160561976Y-90007242D01*
X160513313Y-89846823D01*
X160496883Y-89680000D01*
X160513313Y-89513177D01*
X160561976Y-89352758D01*
X160640995Y-89204924D01*
X160640996Y-89204922D01*
X160747341Y-89075341D01*
X160876922Y-88968996D01*
X160892094Y-88960886D01*
X161024758Y-88889976D01*
X161185177Y-88841313D01*
X161310196Y-88829000D01*
X161393804Y-88829000D01*
X161518823Y-88841313D01*
X161518823Y-88841313D01*
G37*
G36*
X164058823Y-88841313D02*
G01*
X164219242Y-88889976D01*
X164351906Y-88960886D01*
X164367078Y-88968996D01*
X164496659Y-89075341D01*
X164603004Y-89204922D01*
X164603005Y-89204924D01*
X164682024Y-89352758D01*
X164730687Y-89513177D01*
X164747117Y-89680000D01*
X164730687Y-89846823D01*
X164682024Y-90007242D01*
X164611114Y-90139906D01*
X164603004Y-90155078D01*
X164496659Y-90284659D01*
X164367078Y-90391004D01*
X164367076Y-90391005D01*
X164219242Y-90470024D01*
X164058823Y-90518687D01*
X163933804Y-90531000D01*
X163850196Y-90531000D01*
X163725177Y-90518687D01*
X163564758Y-90470024D01*
X163416924Y-90391005D01*
X163416922Y-90391004D01*
X163287341Y-90284659D01*
X163180996Y-90155078D01*
X163172886Y-90139906D01*
X163101976Y-90007242D01*
X163053313Y-89846823D01*
X163036883Y-89680000D01*
X163053313Y-89513177D01*
X163101976Y-89352758D01*
X163180995Y-89204924D01*
X163180996Y-89204922D01*
X163287341Y-89075341D01*
X163416922Y-88968996D01*
X163432094Y-88960886D01*
X163564758Y-88889976D01*
X163725177Y-88841313D01*
X163850196Y-88829000D01*
X163933804Y-88829000D01*
X164058823Y-88841313D01*
X164058823Y-88841313D01*
G37*
G36*
X166598823Y-88841313D02*
G01*
X166759242Y-88889976D01*
X166891906Y-88960886D01*
X166907078Y-88968996D01*
X167036659Y-89075341D01*
X167143004Y-89204922D01*
X167143005Y-89204924D01*
X167222024Y-89352758D01*
X167270687Y-89513177D01*
X167287117Y-89680000D01*
X167270687Y-89846823D01*
X167222024Y-90007242D01*
X167151114Y-90139906D01*
X167143004Y-90155078D01*
X167036659Y-90284659D01*
X166907078Y-90391004D01*
X166907076Y-90391005D01*
X166759242Y-90470024D01*
X166598823Y-90518687D01*
X166473804Y-90531000D01*
X166390196Y-90531000D01*
X166265177Y-90518687D01*
X166104758Y-90470024D01*
X165956924Y-90391005D01*
X165956922Y-90391004D01*
X165827341Y-90284659D01*
X165720996Y-90155078D01*
X165712886Y-90139906D01*
X165641976Y-90007242D01*
X165593313Y-89846823D01*
X165576883Y-89680000D01*
X165593313Y-89513177D01*
X165641976Y-89352758D01*
X165720995Y-89204924D01*
X165720996Y-89204922D01*
X165827341Y-89075341D01*
X165956922Y-88968996D01*
X165972094Y-88960886D01*
X166104758Y-88889976D01*
X166265177Y-88841313D01*
X166390196Y-88829000D01*
X166473804Y-88829000D01*
X166598823Y-88841313D01*
X166598823Y-88841313D01*
G37*
G36*
X169138823Y-88841313D02*
G01*
X169299242Y-88889976D01*
X169431906Y-88960886D01*
X169447078Y-88968996D01*
X169576659Y-89075341D01*
X169683004Y-89204922D01*
X169683005Y-89204924D01*
X169762024Y-89352758D01*
X169810687Y-89513177D01*
X169827117Y-89680000D01*
X169810687Y-89846823D01*
X169762024Y-90007242D01*
X169691114Y-90139906D01*
X169683004Y-90155078D01*
X169576659Y-90284659D01*
X169447078Y-90391004D01*
X169447076Y-90391005D01*
X169299242Y-90470024D01*
X169138823Y-90518687D01*
X169013804Y-90531000D01*
X168930196Y-90531000D01*
X168805177Y-90518687D01*
X168644758Y-90470024D01*
X168496924Y-90391005D01*
X168496922Y-90391004D01*
X168367341Y-90284659D01*
X168260996Y-90155078D01*
X168252886Y-90139906D01*
X168181976Y-90007242D01*
X168133313Y-89846823D01*
X168116883Y-89680000D01*
X168133313Y-89513177D01*
X168181976Y-89352758D01*
X168260995Y-89204924D01*
X168260996Y-89204922D01*
X168367341Y-89075341D01*
X168496922Y-88968996D01*
X168512094Y-88960886D01*
X168644758Y-88889976D01*
X168805177Y-88841313D01*
X168930196Y-88829000D01*
X169013804Y-88829000D01*
X169138823Y-88841313D01*
X169138823Y-88841313D01*
G37*
G36*
X158978823Y-88841313D02*
G01*
X159139242Y-88889976D01*
X159271906Y-88960886D01*
X159287078Y-88968996D01*
X159416659Y-89075341D01*
X159523004Y-89204922D01*
X159523005Y-89204924D01*
X159602024Y-89352758D01*
X159650687Y-89513177D01*
X159667117Y-89680000D01*
X159650687Y-89846823D01*
X159602024Y-90007242D01*
X159531114Y-90139906D01*
X159523004Y-90155078D01*
X159416659Y-90284659D01*
X159287078Y-90391004D01*
X159287076Y-90391005D01*
X159139242Y-90470024D01*
X158978823Y-90518687D01*
X158853804Y-90531000D01*
X158770196Y-90531000D01*
X158645177Y-90518687D01*
X158484758Y-90470024D01*
X158336924Y-90391005D01*
X158336922Y-90391004D01*
X158207341Y-90284659D01*
X158100996Y-90155078D01*
X158092886Y-90139906D01*
X158021976Y-90007242D01*
X157973313Y-89846823D01*
X157956883Y-89680000D01*
X157973313Y-89513177D01*
X158021976Y-89352758D01*
X158100995Y-89204924D01*
X158100996Y-89204922D01*
X158207341Y-89075341D01*
X158336922Y-88968996D01*
X158352094Y-88960886D01*
X158484758Y-88889976D01*
X158645177Y-88841313D01*
X158770196Y-88829000D01*
X158853804Y-88829000D01*
X158978823Y-88841313D01*
X158978823Y-88841313D01*
G37*
G36*
X151358823Y-88841313D02*
G01*
X151519242Y-88889976D01*
X151651906Y-88960886D01*
X151667078Y-88968996D01*
X151796659Y-89075341D01*
X151903004Y-89204922D01*
X151903005Y-89204924D01*
X151982024Y-89352758D01*
X152030687Y-89513177D01*
X152047117Y-89680000D01*
X152030687Y-89846823D01*
X151982024Y-90007242D01*
X151911114Y-90139906D01*
X151903004Y-90155078D01*
X151796659Y-90284659D01*
X151667078Y-90391004D01*
X151667076Y-90391005D01*
X151519242Y-90470024D01*
X151358823Y-90518687D01*
X151233804Y-90531000D01*
X151150196Y-90531000D01*
X151025177Y-90518687D01*
X150864758Y-90470024D01*
X150716924Y-90391005D01*
X150716922Y-90391004D01*
X150587341Y-90284659D01*
X150480996Y-90155078D01*
X150472886Y-90139906D01*
X150401976Y-90007242D01*
X150353313Y-89846823D01*
X150336883Y-89680000D01*
X150353313Y-89513177D01*
X150401976Y-89352758D01*
X150480995Y-89204924D01*
X150480996Y-89204922D01*
X150587341Y-89075341D01*
X150716922Y-88968996D01*
X150732094Y-88960886D01*
X150864758Y-88889976D01*
X151025177Y-88841313D01*
X151150196Y-88829000D01*
X151233804Y-88829000D01*
X151358823Y-88841313D01*
X151358823Y-88841313D01*
G37*
G36*
X145050642Y-88233281D02*
G01*
X145196414Y-88293662D01*
X145196416Y-88293663D01*
X145327608Y-88381322D01*
X145439178Y-88492892D01*
X145526837Y-88624084D01*
X145526838Y-88624086D01*
X145587219Y-88769858D01*
X145618000Y-88924607D01*
X145618000Y-89082393D01*
X145587219Y-89237142D01*
X145539329Y-89352758D01*
X145526837Y-89382916D01*
X145439178Y-89514108D01*
X145327608Y-89625678D01*
X145196416Y-89713337D01*
X145196415Y-89713338D01*
X145196414Y-89713338D01*
X145050642Y-89773719D01*
X144895893Y-89804500D01*
X144738107Y-89804500D01*
X144583358Y-89773719D01*
X144437586Y-89713338D01*
X144437585Y-89713338D01*
X144437584Y-89713337D01*
X144306392Y-89625678D01*
X144194822Y-89514108D01*
X144107163Y-89382916D01*
X144094671Y-89352758D01*
X144046781Y-89237142D01*
X144016000Y-89082393D01*
X144016000Y-88924607D01*
X144046781Y-88769858D01*
X144107162Y-88624086D01*
X144107163Y-88624084D01*
X144194822Y-88492892D01*
X144306392Y-88381322D01*
X144437584Y-88293663D01*
X144437586Y-88293662D01*
X144583358Y-88233281D01*
X144738107Y-88202500D01*
X144895893Y-88202500D01*
X145050642Y-88233281D01*
X145050642Y-88233281D01*
G37*
G36*
X115094000Y-86549000D02*
G01*
X113292000Y-86549000D01*
X113292000Y-84747000D01*
X115094000Y-84747000D01*
X115094000Y-86549000D01*
X115094000Y-86549000D01*
G37*
G36*
X145050642Y-83333281D02*
G01*
X145196414Y-83393662D01*
X145196416Y-83393663D01*
X145327608Y-83481322D01*
X145439178Y-83592892D01*
X145451271Y-83610991D01*
X145526838Y-83724086D01*
X145587219Y-83869858D01*
X145618000Y-84024607D01*
X145618000Y-84182393D01*
X145587219Y-84337142D01*
X145526838Y-84482914D01*
X145526837Y-84482916D01*
X145439178Y-84614108D01*
X145327608Y-84725678D01*
X145196416Y-84813337D01*
X145196415Y-84813338D01*
X145196414Y-84813338D01*
X145050642Y-84873719D01*
X144895893Y-84904500D01*
X144738107Y-84904500D01*
X144583358Y-84873719D01*
X144437586Y-84813338D01*
X144437585Y-84813338D01*
X144437584Y-84813337D01*
X144306392Y-84725678D01*
X144194822Y-84614108D01*
X144107163Y-84482916D01*
X144107162Y-84482914D01*
X144046781Y-84337142D01*
X144016000Y-84182393D01*
X144016000Y-84024607D01*
X144046781Y-83869858D01*
X144107162Y-83724086D01*
X144182729Y-83610991D01*
X144194822Y-83592892D01*
X144306392Y-83481322D01*
X144437584Y-83393663D01*
X144437586Y-83393662D01*
X144583358Y-83333281D01*
X144738107Y-83302500D01*
X144895893Y-83302500D01*
X145050642Y-83333281D01*
X145050642Y-83333281D01*
G37*
G36*
X114303442Y-82213518D02*
G01*
X114369627Y-82220037D01*
X114539466Y-82271557D01*
X114695991Y-82355222D01*
X114731729Y-82384552D01*
X114833186Y-82467814D01*
X114888387Y-82535078D01*
X114945778Y-82605009D01*
X115029443Y-82761534D01*
X115080963Y-82931373D01*
X115098359Y-83108000D01*
X115080963Y-83284627D01*
X115029443Y-83454466D01*
X114945778Y-83610991D01*
X114916448Y-83646729D01*
X114833186Y-83748186D01*
X114731729Y-83831448D01*
X114695991Y-83860778D01*
X114539466Y-83944443D01*
X114369627Y-83995963D01*
X114303443Y-84002481D01*
X114237260Y-84009000D01*
X114148740Y-84009000D01*
X114082557Y-84002481D01*
X114016373Y-83995963D01*
X113846534Y-83944443D01*
X113690009Y-83860778D01*
X113654271Y-83831448D01*
X113552814Y-83748186D01*
X113469552Y-83646729D01*
X113440222Y-83610991D01*
X113356557Y-83454466D01*
X113305037Y-83284627D01*
X113287641Y-83108000D01*
X113305037Y-82931373D01*
X113356557Y-82761534D01*
X113440222Y-82605009D01*
X113497613Y-82535078D01*
X113552814Y-82467814D01*
X113654271Y-82384552D01*
X113690009Y-82355222D01*
X113846534Y-82271557D01*
X114016373Y-82220037D01*
X114082558Y-82213518D01*
X114148740Y-82207000D01*
X114237260Y-82207000D01*
X114303442Y-82213518D01*
X114303442Y-82213518D01*
G37*
G36*
X169823000Y-82911000D02*
G01*
X168121000Y-82911000D01*
X168121000Y-81209000D01*
X169823000Y-81209000D01*
X169823000Y-82911000D01*
X169823000Y-82911000D01*
G37*
G36*
X151358823Y-81221313D02*
G01*
X151519242Y-81269976D01*
X151651906Y-81340886D01*
X151667078Y-81348996D01*
X151796659Y-81455341D01*
X151903004Y-81584922D01*
X151903005Y-81584924D01*
X151982024Y-81732758D01*
X152030687Y-81893177D01*
X152047117Y-82060000D01*
X152030687Y-82226823D01*
X151982024Y-82387242D01*
X151938957Y-82467814D01*
X151903004Y-82535078D01*
X151796659Y-82664659D01*
X151667078Y-82771004D01*
X151667076Y-82771005D01*
X151519242Y-82850024D01*
X151358823Y-82898687D01*
X151233804Y-82911000D01*
X151150196Y-82911000D01*
X151025177Y-82898687D01*
X150864758Y-82850024D01*
X150716924Y-82771005D01*
X150716922Y-82771004D01*
X150587341Y-82664659D01*
X150480996Y-82535078D01*
X150445043Y-82467814D01*
X150401976Y-82387242D01*
X150353313Y-82226823D01*
X150336883Y-82060000D01*
X150353313Y-81893177D01*
X150401976Y-81732758D01*
X150480995Y-81584924D01*
X150480996Y-81584922D01*
X150587341Y-81455341D01*
X150716922Y-81348996D01*
X150732094Y-81340886D01*
X150864758Y-81269976D01*
X151025177Y-81221313D01*
X151150196Y-81209000D01*
X151233804Y-81209000D01*
X151358823Y-81221313D01*
X151358823Y-81221313D01*
G37*
G36*
X166598823Y-81221313D02*
G01*
X166759242Y-81269976D01*
X166891906Y-81340886D01*
X166907078Y-81348996D01*
X167036659Y-81455341D01*
X167143004Y-81584922D01*
X167143005Y-81584924D01*
X167222024Y-81732758D01*
X167270687Y-81893177D01*
X167287117Y-82060000D01*
X167270687Y-82226823D01*
X167222024Y-82387242D01*
X167178957Y-82467814D01*
X167143004Y-82535078D01*
X167036659Y-82664659D01*
X166907078Y-82771004D01*
X166907076Y-82771005D01*
X166759242Y-82850024D01*
X166598823Y-82898687D01*
X166473804Y-82911000D01*
X166390196Y-82911000D01*
X166265177Y-82898687D01*
X166104758Y-82850024D01*
X165956924Y-82771005D01*
X165956922Y-82771004D01*
X165827341Y-82664659D01*
X165720996Y-82535078D01*
X165685043Y-82467814D01*
X165641976Y-82387242D01*
X165593313Y-82226823D01*
X165576883Y-82060000D01*
X165593313Y-81893177D01*
X165641976Y-81732758D01*
X165720995Y-81584924D01*
X165720996Y-81584922D01*
X165827341Y-81455341D01*
X165956922Y-81348996D01*
X165972094Y-81340886D01*
X166104758Y-81269976D01*
X166265177Y-81221313D01*
X166390196Y-81209000D01*
X166473804Y-81209000D01*
X166598823Y-81221313D01*
X166598823Y-81221313D01*
G37*
G36*
X153898823Y-81221313D02*
G01*
X154059242Y-81269976D01*
X154191906Y-81340886D01*
X154207078Y-81348996D01*
X154336659Y-81455341D01*
X154443004Y-81584922D01*
X154443005Y-81584924D01*
X154522024Y-81732758D01*
X154570687Y-81893177D01*
X154587117Y-82060000D01*
X154570687Y-82226823D01*
X154522024Y-82387242D01*
X154478957Y-82467814D01*
X154443004Y-82535078D01*
X154336659Y-82664659D01*
X154207078Y-82771004D01*
X154207076Y-82771005D01*
X154059242Y-82850024D01*
X153898823Y-82898687D01*
X153773804Y-82911000D01*
X153690196Y-82911000D01*
X153565177Y-82898687D01*
X153404758Y-82850024D01*
X153256924Y-82771005D01*
X153256922Y-82771004D01*
X153127341Y-82664659D01*
X153020996Y-82535078D01*
X152985043Y-82467814D01*
X152941976Y-82387242D01*
X152893313Y-82226823D01*
X152876883Y-82060000D01*
X152893313Y-81893177D01*
X152941976Y-81732758D01*
X153020995Y-81584924D01*
X153020996Y-81584922D01*
X153127341Y-81455341D01*
X153256922Y-81348996D01*
X153272094Y-81340886D01*
X153404758Y-81269976D01*
X153565177Y-81221313D01*
X153690196Y-81209000D01*
X153773804Y-81209000D01*
X153898823Y-81221313D01*
X153898823Y-81221313D01*
G37*
G36*
X164058823Y-81221313D02*
G01*
X164219242Y-81269976D01*
X164351906Y-81340886D01*
X164367078Y-81348996D01*
X164496659Y-81455341D01*
X164603004Y-81584922D01*
X164603005Y-81584924D01*
X164682024Y-81732758D01*
X164730687Y-81893177D01*
X164747117Y-82060000D01*
X164730687Y-82226823D01*
X164682024Y-82387242D01*
X164638957Y-82467814D01*
X164603004Y-82535078D01*
X164496659Y-82664659D01*
X164367078Y-82771004D01*
X164367076Y-82771005D01*
X164219242Y-82850024D01*
X164058823Y-82898687D01*
X163933804Y-82911000D01*
X163850196Y-82911000D01*
X163725177Y-82898687D01*
X163564758Y-82850024D01*
X163416924Y-82771005D01*
X163416922Y-82771004D01*
X163287341Y-82664659D01*
X163180996Y-82535078D01*
X163145043Y-82467814D01*
X163101976Y-82387242D01*
X163053313Y-82226823D01*
X163036883Y-82060000D01*
X163053313Y-81893177D01*
X163101976Y-81732758D01*
X163180995Y-81584924D01*
X163180996Y-81584922D01*
X163287341Y-81455341D01*
X163416922Y-81348996D01*
X163432094Y-81340886D01*
X163564758Y-81269976D01*
X163725177Y-81221313D01*
X163850196Y-81209000D01*
X163933804Y-81209000D01*
X164058823Y-81221313D01*
X164058823Y-81221313D01*
G37*
G36*
X156438823Y-81221313D02*
G01*
X156599242Y-81269976D01*
X156731906Y-81340886D01*
X156747078Y-81348996D01*
X156876659Y-81455341D01*
X156983004Y-81584922D01*
X156983005Y-81584924D01*
X157062024Y-81732758D01*
X157110687Y-81893177D01*
X157127117Y-82060000D01*
X157110687Y-82226823D01*
X157062024Y-82387242D01*
X157018957Y-82467814D01*
X156983004Y-82535078D01*
X156876659Y-82664659D01*
X156747078Y-82771004D01*
X156747076Y-82771005D01*
X156599242Y-82850024D01*
X156438823Y-82898687D01*
X156313804Y-82911000D01*
X156230196Y-82911000D01*
X156105177Y-82898687D01*
X155944758Y-82850024D01*
X155796924Y-82771005D01*
X155796922Y-82771004D01*
X155667341Y-82664659D01*
X155560996Y-82535078D01*
X155525043Y-82467814D01*
X155481976Y-82387242D01*
X155433313Y-82226823D01*
X155416883Y-82060000D01*
X155433313Y-81893177D01*
X155481976Y-81732758D01*
X155560995Y-81584924D01*
X155560996Y-81584922D01*
X155667341Y-81455341D01*
X155796922Y-81348996D01*
X155812094Y-81340886D01*
X155944758Y-81269976D01*
X156105177Y-81221313D01*
X156230196Y-81209000D01*
X156313804Y-81209000D01*
X156438823Y-81221313D01*
X156438823Y-81221313D01*
G37*
G36*
X161518823Y-81221313D02*
G01*
X161679242Y-81269976D01*
X161811906Y-81340886D01*
X161827078Y-81348996D01*
X161956659Y-81455341D01*
X162063004Y-81584922D01*
X162063005Y-81584924D01*
X162142024Y-81732758D01*
X162190687Y-81893177D01*
X162207117Y-82060000D01*
X162190687Y-82226823D01*
X162142024Y-82387242D01*
X162098957Y-82467814D01*
X162063004Y-82535078D01*
X161956659Y-82664659D01*
X161827078Y-82771004D01*
X161827076Y-82771005D01*
X161679242Y-82850024D01*
X161518823Y-82898687D01*
X161393804Y-82911000D01*
X161310196Y-82911000D01*
X161185177Y-82898687D01*
X161024758Y-82850024D01*
X160876924Y-82771005D01*
X160876922Y-82771004D01*
X160747341Y-82664659D01*
X160640996Y-82535078D01*
X160605043Y-82467814D01*
X160561976Y-82387242D01*
X160513313Y-82226823D01*
X160496883Y-82060000D01*
X160513313Y-81893177D01*
X160561976Y-81732758D01*
X160640995Y-81584924D01*
X160640996Y-81584922D01*
X160747341Y-81455341D01*
X160876922Y-81348996D01*
X160892094Y-81340886D01*
X161024758Y-81269976D01*
X161185177Y-81221313D01*
X161310196Y-81209000D01*
X161393804Y-81209000D01*
X161518823Y-81221313D01*
X161518823Y-81221313D01*
G37*
G36*
X158978823Y-81221313D02*
G01*
X159139242Y-81269976D01*
X159271906Y-81340886D01*
X159287078Y-81348996D01*
X159416659Y-81455341D01*
X159523004Y-81584922D01*
X159523005Y-81584924D01*
X159602024Y-81732758D01*
X159650687Y-81893177D01*
X159667117Y-82060000D01*
X159650687Y-82226823D01*
X159602024Y-82387242D01*
X159558957Y-82467814D01*
X159523004Y-82535078D01*
X159416659Y-82664659D01*
X159287078Y-82771004D01*
X159287076Y-82771005D01*
X159139242Y-82850024D01*
X158978823Y-82898687D01*
X158853804Y-82911000D01*
X158770196Y-82911000D01*
X158645177Y-82898687D01*
X158484758Y-82850024D01*
X158336924Y-82771005D01*
X158336922Y-82771004D01*
X158207341Y-82664659D01*
X158100996Y-82535078D01*
X158065043Y-82467814D01*
X158021976Y-82387242D01*
X157973313Y-82226823D01*
X157956883Y-82060000D01*
X157973313Y-81893177D01*
X158021976Y-81732758D01*
X158100995Y-81584924D01*
X158100996Y-81584922D01*
X158207341Y-81455341D01*
X158336922Y-81348996D01*
X158352094Y-81340886D01*
X158484758Y-81269976D01*
X158645177Y-81221313D01*
X158770196Y-81209000D01*
X158853804Y-81209000D01*
X158978823Y-81221313D01*
X158978823Y-81221313D01*
G37*
G36*
X114303442Y-79673518D02*
G01*
X114369627Y-79680037D01*
X114539466Y-79731557D01*
X114695991Y-79815222D01*
X114731729Y-79844552D01*
X114833186Y-79927814D01*
X114916448Y-80029271D01*
X114945778Y-80065009D01*
X115029443Y-80221534D01*
X115080963Y-80391373D01*
X115098359Y-80568000D01*
X115080963Y-80744627D01*
X115029443Y-80914466D01*
X114945778Y-81070991D01*
X114916448Y-81106729D01*
X114833186Y-81208186D01*
X114731729Y-81291448D01*
X114695991Y-81320778D01*
X114539466Y-81404443D01*
X114369627Y-81455963D01*
X114303442Y-81462482D01*
X114237260Y-81469000D01*
X114148740Y-81469000D01*
X114082558Y-81462482D01*
X114016373Y-81455963D01*
X113846534Y-81404443D01*
X113690009Y-81320778D01*
X113654271Y-81291448D01*
X113552814Y-81208186D01*
X113469552Y-81106729D01*
X113440222Y-81070991D01*
X113356557Y-80914466D01*
X113305037Y-80744627D01*
X113287641Y-80568000D01*
X113305037Y-80391373D01*
X113356557Y-80221534D01*
X113440222Y-80065009D01*
X113469552Y-80029271D01*
X113552814Y-79927814D01*
X113654271Y-79844552D01*
X113690009Y-79815222D01*
X113846534Y-79731557D01*
X114016373Y-79680037D01*
X114082558Y-79673518D01*
X114148740Y-79667000D01*
X114237260Y-79667000D01*
X114303442Y-79673518D01*
X114303442Y-79673518D01*
G37*
G36*
X174303443Y-78833519D02*
G01*
X174369627Y-78840037D01*
X174539466Y-78891557D01*
X174695991Y-78975222D01*
X174731729Y-79004552D01*
X174833186Y-79087814D01*
X174916448Y-79189271D01*
X174945778Y-79225009D01*
X175029443Y-79381534D01*
X175080963Y-79551373D01*
X175098359Y-79728000D01*
X175080963Y-79904627D01*
X175029443Y-80074466D01*
X174945778Y-80230991D01*
X174916448Y-80266729D01*
X174833186Y-80368186D01*
X174731729Y-80451448D01*
X174695991Y-80480778D01*
X174539466Y-80564443D01*
X174369627Y-80615963D01*
X174303442Y-80622482D01*
X174237260Y-80629000D01*
X174148740Y-80629000D01*
X174082558Y-80622482D01*
X174016373Y-80615963D01*
X173846534Y-80564443D01*
X173690009Y-80480778D01*
X173654271Y-80451448D01*
X173552814Y-80368186D01*
X173469552Y-80266729D01*
X173440222Y-80230991D01*
X173356557Y-80074466D01*
X173305037Y-79904627D01*
X173287641Y-79728000D01*
X173305037Y-79551373D01*
X173356557Y-79381534D01*
X173440222Y-79225009D01*
X173469552Y-79189271D01*
X173552814Y-79087814D01*
X173654271Y-79004552D01*
X173690009Y-78975222D01*
X173846534Y-78891557D01*
X174016373Y-78840037D01*
X174082557Y-78833519D01*
X174148740Y-78827000D01*
X174237260Y-78827000D01*
X174303443Y-78833519D01*
X174303443Y-78833519D01*
G37*
G36*
X114303443Y-77133519D02*
G01*
X114369627Y-77140037D01*
X114539466Y-77191557D01*
X114695991Y-77275222D01*
X114731729Y-77304552D01*
X114833186Y-77387814D01*
X114916448Y-77489271D01*
X114945778Y-77525009D01*
X115029443Y-77681534D01*
X115080963Y-77851373D01*
X115098359Y-78028000D01*
X115080963Y-78204627D01*
X115029443Y-78374466D01*
X114945778Y-78530991D01*
X114916448Y-78566729D01*
X114833186Y-78668186D01*
X114731729Y-78751448D01*
X114695991Y-78780778D01*
X114539466Y-78864443D01*
X114369627Y-78915963D01*
X114303443Y-78922481D01*
X114237260Y-78929000D01*
X114148740Y-78929000D01*
X114082557Y-78922481D01*
X114016373Y-78915963D01*
X113846534Y-78864443D01*
X113690009Y-78780778D01*
X113654271Y-78751448D01*
X113552814Y-78668186D01*
X113469552Y-78566729D01*
X113440222Y-78530991D01*
X113356557Y-78374466D01*
X113305037Y-78204627D01*
X113287641Y-78028000D01*
X113305037Y-77851373D01*
X113356557Y-77681534D01*
X113440222Y-77525009D01*
X113469552Y-77489271D01*
X113552814Y-77387814D01*
X113654271Y-77304552D01*
X113690009Y-77275222D01*
X113846534Y-77191557D01*
X114016373Y-77140037D01*
X114082557Y-77133519D01*
X114148740Y-77127000D01*
X114237260Y-77127000D01*
X114303443Y-77133519D01*
X114303443Y-77133519D01*
G37*
G36*
X174303443Y-76293519D02*
G01*
X174369627Y-76300037D01*
X174539466Y-76351557D01*
X174695991Y-76435222D01*
X174731729Y-76464552D01*
X174833186Y-76547814D01*
X174916448Y-76649271D01*
X174945778Y-76685009D01*
X175029443Y-76841534D01*
X175080963Y-77011373D01*
X175098359Y-77188000D01*
X175080963Y-77364627D01*
X175029443Y-77534466D01*
X174945778Y-77690991D01*
X174916448Y-77726729D01*
X174833186Y-77828186D01*
X174731729Y-77911448D01*
X174695991Y-77940778D01*
X174539466Y-78024443D01*
X174369627Y-78075963D01*
X174303443Y-78082481D01*
X174237260Y-78089000D01*
X174148740Y-78089000D01*
X174082557Y-78082481D01*
X174016373Y-78075963D01*
X173846534Y-78024443D01*
X173690009Y-77940778D01*
X173654271Y-77911448D01*
X173552814Y-77828186D01*
X173469552Y-77726729D01*
X173440222Y-77690991D01*
X173356557Y-77534466D01*
X173305037Y-77364627D01*
X173287641Y-77188000D01*
X173305037Y-77011373D01*
X173356557Y-76841534D01*
X173440222Y-76685009D01*
X173469552Y-76649271D01*
X173552814Y-76547814D01*
X173654271Y-76464552D01*
X173690009Y-76435222D01*
X173846534Y-76351557D01*
X174016373Y-76300037D01*
X174082557Y-76293519D01*
X174148740Y-76287000D01*
X174237260Y-76287000D01*
X174303443Y-76293519D01*
X174303443Y-76293519D01*
G37*
G36*
X114303442Y-74593518D02*
G01*
X114369627Y-74600037D01*
X114539466Y-74651557D01*
X114695991Y-74735222D01*
X114731729Y-74764552D01*
X114833186Y-74847814D01*
X114916448Y-74949271D01*
X114945778Y-74985009D01*
X115029443Y-75141534D01*
X115080963Y-75311373D01*
X115098359Y-75488000D01*
X115080963Y-75664627D01*
X115029443Y-75834466D01*
X114945778Y-75990991D01*
X114916448Y-76026729D01*
X114833186Y-76128186D01*
X114731729Y-76211448D01*
X114695991Y-76240778D01*
X114539466Y-76324443D01*
X114369627Y-76375963D01*
X114303443Y-76382481D01*
X114237260Y-76389000D01*
X114148740Y-76389000D01*
X114082557Y-76382481D01*
X114016373Y-76375963D01*
X113846534Y-76324443D01*
X113690009Y-76240778D01*
X113654271Y-76211448D01*
X113552814Y-76128186D01*
X113469552Y-76026729D01*
X113440222Y-75990991D01*
X113356557Y-75834466D01*
X113305037Y-75664627D01*
X113287641Y-75488000D01*
X113305037Y-75311373D01*
X113356557Y-75141534D01*
X113440222Y-74985009D01*
X113469552Y-74949271D01*
X113552814Y-74847814D01*
X113654271Y-74764552D01*
X113690009Y-74735222D01*
X113846534Y-74651557D01*
X114016373Y-74600037D01*
X114082558Y-74593518D01*
X114148740Y-74587000D01*
X114237260Y-74587000D01*
X114303442Y-74593518D01*
X114303442Y-74593518D01*
G37*
G36*
X175094000Y-75549000D02*
G01*
X173292000Y-75549000D01*
X173292000Y-73747000D01*
X175094000Y-73747000D01*
X175094000Y-75549000D01*
X175094000Y-75549000D01*
G37*
G36*
X114303443Y-72053519D02*
G01*
X114369627Y-72060037D01*
X114539466Y-72111557D01*
X114695991Y-72195222D01*
X114731729Y-72224552D01*
X114833186Y-72307814D01*
X114916448Y-72409271D01*
X114945778Y-72445009D01*
X115029443Y-72601534D01*
X115080963Y-72771373D01*
X115098359Y-72948000D01*
X115080963Y-73124627D01*
X115029443Y-73294466D01*
X114945778Y-73450991D01*
X114916448Y-73486729D01*
X114833186Y-73588186D01*
X114731729Y-73671448D01*
X114695991Y-73700778D01*
X114539466Y-73784443D01*
X114369627Y-73835963D01*
X114303442Y-73842482D01*
X114237260Y-73849000D01*
X114148740Y-73849000D01*
X114082558Y-73842482D01*
X114016373Y-73835963D01*
X113846534Y-73784443D01*
X113690009Y-73700778D01*
X113654271Y-73671448D01*
X113552814Y-73588186D01*
X113469552Y-73486729D01*
X113440222Y-73450991D01*
X113356557Y-73294466D01*
X113305037Y-73124627D01*
X113287641Y-72948000D01*
X113305037Y-72771373D01*
X113356557Y-72601534D01*
X113440222Y-72445009D01*
X113469552Y-72409271D01*
X113552814Y-72307814D01*
X113654271Y-72224552D01*
X113690009Y-72195222D01*
X113846534Y-72111557D01*
X114016373Y-72060037D01*
X114082557Y-72053519D01*
X114148740Y-72047000D01*
X114237260Y-72047000D01*
X114303443Y-72053519D01*
X114303443Y-72053519D01*
G37*
G36*
X181078200Y-68449000D02*
G01*
X177976200Y-68449000D01*
X177976200Y-65347000D01*
X181078200Y-65347000D01*
X181078200Y-68449000D01*
X181078200Y-68449000D01*
G37*
G36*
X174749785Y-65376802D02*
G01*
X174899610Y-65406604D01*
X175181874Y-65523521D01*
X175435905Y-65693259D01*
X175651941Y-65909295D01*
X175821679Y-66163326D01*
X175938596Y-66445590D01*
X175998200Y-66745240D01*
X175998200Y-67050760D01*
X175938596Y-67350410D01*
X175821679Y-67632674D01*
X175651941Y-67886705D01*
X175435905Y-68102741D01*
X175181874Y-68272479D01*
X174899610Y-68389396D01*
X174749785Y-68419198D01*
X174599961Y-68449000D01*
X174294439Y-68449000D01*
X174144615Y-68419198D01*
X173994790Y-68389396D01*
X173712526Y-68272479D01*
X173458495Y-68102741D01*
X173242459Y-67886705D01*
X173072721Y-67632674D01*
X172955804Y-67350410D01*
X172896200Y-67050760D01*
X172896200Y-66745240D01*
X172955804Y-66445590D01*
X173072721Y-66163326D01*
X173242459Y-65909295D01*
X173458495Y-65693259D01*
X173712526Y-65523521D01*
X173994790Y-65406604D01*
X174144615Y-65376802D01*
X174294439Y-65347000D01*
X174599961Y-65347000D01*
X174749785Y-65376802D01*
X174749785Y-65376802D01*
G37*
G36*
X187568256Y-64039298D02*
G01*
X187674579Y-64060447D01*
X187975042Y-64184903D01*
X188245451Y-64365585D01*
X188475415Y-64595549D01*
X188656097Y-64865958D01*
X188774162Y-65150991D01*
X188780553Y-65166422D01*
X188843812Y-65484443D01*
X188844000Y-65485391D01*
X188844000Y-65810609D01*
X188780553Y-66129579D01*
X188656097Y-66430042D01*
X188475415Y-66700451D01*
X188245451Y-66930415D01*
X187975042Y-67111097D01*
X187674579Y-67235553D01*
X187568256Y-67256702D01*
X187355611Y-67299000D01*
X187030389Y-67299000D01*
X186817744Y-67256702D01*
X186711421Y-67235553D01*
X186410958Y-67111097D01*
X186140549Y-66930415D01*
X185910585Y-66700451D01*
X185729903Y-66430042D01*
X185605447Y-66129579D01*
X185542000Y-65810609D01*
X185542000Y-65485391D01*
X185542189Y-65484443D01*
X185605447Y-65166422D01*
X185611839Y-65150991D01*
X185729903Y-64865958D01*
X185910585Y-64595549D01*
X186140549Y-64365585D01*
X186410958Y-64184903D01*
X186711421Y-64060447D01*
X186817744Y-64039298D01*
X187030389Y-63997000D01*
X187355611Y-63997000D01*
X187568256Y-64039298D01*
X187568256Y-64039298D01*
G37*
G36*
X111568256Y-64039298D02*
G01*
X111674579Y-64060447D01*
X111975042Y-64184903D01*
X112245451Y-64365585D01*
X112475415Y-64595549D01*
X112656097Y-64865958D01*
X112774162Y-65150991D01*
X112780553Y-65166422D01*
X112843812Y-65484443D01*
X112844000Y-65485391D01*
X112844000Y-65810609D01*
X112780553Y-66129579D01*
X112656097Y-66430042D01*
X112475415Y-66700451D01*
X112245451Y-66930415D01*
X111975042Y-67111097D01*
X111674579Y-67235553D01*
X111568256Y-67256702D01*
X111355611Y-67299000D01*
X111030389Y-67299000D01*
X110817744Y-67256702D01*
X110711421Y-67235553D01*
X110410958Y-67111097D01*
X110140549Y-66930415D01*
X109910585Y-66700451D01*
X109729903Y-66430042D01*
X109605447Y-66129579D01*
X109542000Y-65810609D01*
X109542000Y-65485391D01*
X109542189Y-65484443D01*
X109605447Y-65166422D01*
X109611839Y-65150991D01*
X109729903Y-64865958D01*
X109910585Y-64595549D01*
X110140549Y-64365585D01*
X110410958Y-64184903D01*
X110711421Y-64060447D01*
X110817744Y-64039298D01*
X111030389Y-63997000D01*
X111355611Y-63997000D01*
X111568256Y-64039298D01*
X111568256Y-64039298D01*
G37*
G36*
X130143442Y-63753518D02*
G01*
X130209627Y-63760037D01*
X130379466Y-63811557D01*
X130535991Y-63895222D01*
X130571729Y-63924552D01*
X130673186Y-64007814D01*
X130756448Y-64109271D01*
X130785778Y-64145009D01*
X130869443Y-64301534D01*
X130920963Y-64471373D01*
X130938359Y-64648000D01*
X130920963Y-64824627D01*
X130869443Y-64994466D01*
X130785778Y-65150991D01*
X130773114Y-65166422D01*
X130673186Y-65288186D01*
X130571729Y-65371448D01*
X130535991Y-65400778D01*
X130379466Y-65484443D01*
X130209627Y-65535963D01*
X130143443Y-65542481D01*
X130077260Y-65549000D01*
X129988740Y-65549000D01*
X129922557Y-65542481D01*
X129856373Y-65535963D01*
X129686534Y-65484443D01*
X129530009Y-65400778D01*
X129494271Y-65371448D01*
X129392814Y-65288186D01*
X129292886Y-65166422D01*
X129280222Y-65150991D01*
X129196557Y-64994466D01*
X129145037Y-64824627D01*
X129127641Y-64648000D01*
X129145037Y-64471373D01*
X129196557Y-64301534D01*
X129280222Y-64145009D01*
X129309552Y-64109271D01*
X129392814Y-64007814D01*
X129494271Y-63924552D01*
X129530009Y-63895222D01*
X129686534Y-63811557D01*
X129856373Y-63760037D01*
X129922558Y-63753518D01*
X129988740Y-63747000D01*
X130077260Y-63747000D01*
X130143442Y-63753518D01*
X130143442Y-63753518D01*
G37*
G36*
X158939000Y-65549000D02*
G01*
X157137000Y-65549000D01*
X157137000Y-63747000D01*
X158939000Y-63747000D01*
X158939000Y-65549000D01*
X158939000Y-65549000D01*
G37*
G36*
X166561500Y-65549000D02*
G01*
X164759500Y-65549000D01*
X164759500Y-63747000D01*
X166561500Y-63747000D01*
X166561500Y-65549000D01*
X166561500Y-65549000D01*
G37*
G36*
X168310942Y-63753518D02*
G01*
X168377127Y-63760037D01*
X168546966Y-63811557D01*
X168703491Y-63895222D01*
X168739229Y-63924552D01*
X168840686Y-64007814D01*
X168923948Y-64109271D01*
X168953278Y-64145009D01*
X169036943Y-64301534D01*
X169088463Y-64471373D01*
X169105859Y-64648000D01*
X169088463Y-64824627D01*
X169036943Y-64994466D01*
X168953278Y-65150991D01*
X168940614Y-65166422D01*
X168840686Y-65288186D01*
X168739229Y-65371448D01*
X168703491Y-65400778D01*
X168546966Y-65484443D01*
X168377127Y-65535963D01*
X168310943Y-65542481D01*
X168244760Y-65549000D01*
X168156240Y-65549000D01*
X168090057Y-65542481D01*
X168023873Y-65535963D01*
X167854034Y-65484443D01*
X167697509Y-65400778D01*
X167661771Y-65371448D01*
X167560314Y-65288186D01*
X167460386Y-65166422D01*
X167447722Y-65150991D01*
X167364057Y-64994466D01*
X167312537Y-64824627D01*
X167295141Y-64648000D01*
X167312537Y-64471373D01*
X167364057Y-64301534D01*
X167447722Y-64145009D01*
X167477052Y-64109271D01*
X167560314Y-64007814D01*
X167661771Y-63924552D01*
X167697509Y-63895222D01*
X167854034Y-63811557D01*
X168023873Y-63760037D01*
X168090058Y-63753518D01*
X168156240Y-63747000D01*
X168244760Y-63747000D01*
X168310942Y-63753518D01*
X168310942Y-63753518D01*
G37*
G36*
X160688442Y-63753518D02*
G01*
X160754627Y-63760037D01*
X160924466Y-63811557D01*
X161080991Y-63895222D01*
X161116729Y-63924552D01*
X161218186Y-64007814D01*
X161301448Y-64109271D01*
X161330778Y-64145009D01*
X161414443Y-64301534D01*
X161465963Y-64471373D01*
X161483359Y-64648000D01*
X161465963Y-64824627D01*
X161414443Y-64994466D01*
X161330778Y-65150991D01*
X161318114Y-65166422D01*
X161218186Y-65288186D01*
X161116729Y-65371448D01*
X161080991Y-65400778D01*
X160924466Y-65484443D01*
X160754627Y-65535963D01*
X160688443Y-65542481D01*
X160622260Y-65549000D01*
X160533740Y-65549000D01*
X160467557Y-65542481D01*
X160401373Y-65535963D01*
X160231534Y-65484443D01*
X160075009Y-65400778D01*
X160039271Y-65371448D01*
X159937814Y-65288186D01*
X159837886Y-65166422D01*
X159825222Y-65150991D01*
X159741557Y-64994466D01*
X159690037Y-64824627D01*
X159672641Y-64648000D01*
X159690037Y-64471373D01*
X159741557Y-64301534D01*
X159825222Y-64145009D01*
X159854552Y-64109271D01*
X159937814Y-64007814D01*
X160039271Y-63924552D01*
X160075009Y-63895222D01*
X160231534Y-63811557D01*
X160401373Y-63760037D01*
X160467558Y-63753518D01*
X160533740Y-63747000D01*
X160622260Y-63747000D01*
X160688442Y-63753518D01*
X160688442Y-63753518D01*
G37*
G36*
X117443442Y-63753518D02*
G01*
X117509627Y-63760037D01*
X117679466Y-63811557D01*
X117835991Y-63895222D01*
X117871729Y-63924552D01*
X117973186Y-64007814D01*
X118056448Y-64109271D01*
X118085778Y-64145009D01*
X118169443Y-64301534D01*
X118220963Y-64471373D01*
X118238359Y-64648000D01*
X118220963Y-64824627D01*
X118169443Y-64994466D01*
X118085778Y-65150991D01*
X118073114Y-65166422D01*
X117973186Y-65288186D01*
X117871729Y-65371448D01*
X117835991Y-65400778D01*
X117679466Y-65484443D01*
X117509627Y-65535963D01*
X117443443Y-65542481D01*
X117377260Y-65549000D01*
X117288740Y-65549000D01*
X117222557Y-65542481D01*
X117156373Y-65535963D01*
X116986534Y-65484443D01*
X116830009Y-65400778D01*
X116794271Y-65371448D01*
X116692814Y-65288186D01*
X116592886Y-65166422D01*
X116580222Y-65150991D01*
X116496557Y-64994466D01*
X116445037Y-64824627D01*
X116427641Y-64648000D01*
X116445037Y-64471373D01*
X116496557Y-64301534D01*
X116580222Y-64145009D01*
X116609552Y-64109271D01*
X116692814Y-64007814D01*
X116794271Y-63924552D01*
X116830009Y-63895222D01*
X116986534Y-63811557D01*
X117156373Y-63760037D01*
X117222558Y-63753518D01*
X117288740Y-63747000D01*
X117377260Y-63747000D01*
X117443442Y-63753518D01*
X117443442Y-63753518D01*
G37*
G36*
X119983442Y-63753518D02*
G01*
X120049627Y-63760037D01*
X120219466Y-63811557D01*
X120375991Y-63895222D01*
X120411729Y-63924552D01*
X120513186Y-64007814D01*
X120596448Y-64109271D01*
X120625778Y-64145009D01*
X120709443Y-64301534D01*
X120760963Y-64471373D01*
X120778359Y-64648000D01*
X120760963Y-64824627D01*
X120709443Y-64994466D01*
X120625778Y-65150991D01*
X120613114Y-65166422D01*
X120513186Y-65288186D01*
X120411729Y-65371448D01*
X120375991Y-65400778D01*
X120219466Y-65484443D01*
X120049627Y-65535963D01*
X119983443Y-65542481D01*
X119917260Y-65549000D01*
X119828740Y-65549000D01*
X119762557Y-65542481D01*
X119696373Y-65535963D01*
X119526534Y-65484443D01*
X119370009Y-65400778D01*
X119334271Y-65371448D01*
X119232814Y-65288186D01*
X119132886Y-65166422D01*
X119120222Y-65150991D01*
X119036557Y-64994466D01*
X118985037Y-64824627D01*
X118967641Y-64648000D01*
X118985037Y-64471373D01*
X119036557Y-64301534D01*
X119120222Y-64145009D01*
X119149552Y-64109271D01*
X119232814Y-64007814D01*
X119334271Y-63924552D01*
X119370009Y-63895222D01*
X119526534Y-63811557D01*
X119696373Y-63760037D01*
X119762558Y-63753518D01*
X119828740Y-63747000D01*
X119917260Y-63747000D01*
X119983442Y-63753518D01*
X119983442Y-63753518D01*
G37*
G36*
X122523442Y-63753518D02*
G01*
X122589627Y-63760037D01*
X122759466Y-63811557D01*
X122915991Y-63895222D01*
X122951729Y-63924552D01*
X123053186Y-64007814D01*
X123136448Y-64109271D01*
X123165778Y-64145009D01*
X123249443Y-64301534D01*
X123300963Y-64471373D01*
X123318359Y-64648000D01*
X123300963Y-64824627D01*
X123249443Y-64994466D01*
X123165778Y-65150991D01*
X123153114Y-65166422D01*
X123053186Y-65288186D01*
X122951729Y-65371448D01*
X122915991Y-65400778D01*
X122759466Y-65484443D01*
X122589627Y-65535963D01*
X122523443Y-65542481D01*
X122457260Y-65549000D01*
X122368740Y-65549000D01*
X122302557Y-65542481D01*
X122236373Y-65535963D01*
X122066534Y-65484443D01*
X121910009Y-65400778D01*
X121874271Y-65371448D01*
X121772814Y-65288186D01*
X121672886Y-65166422D01*
X121660222Y-65150991D01*
X121576557Y-64994466D01*
X121525037Y-64824627D01*
X121507641Y-64648000D01*
X121525037Y-64471373D01*
X121576557Y-64301534D01*
X121660222Y-64145009D01*
X121689552Y-64109271D01*
X121772814Y-64007814D01*
X121874271Y-63924552D01*
X121910009Y-63895222D01*
X122066534Y-63811557D01*
X122236373Y-63760037D01*
X122302558Y-63753518D01*
X122368740Y-63747000D01*
X122457260Y-63747000D01*
X122523442Y-63753518D01*
X122523442Y-63753518D01*
G37*
G36*
X125063442Y-63753518D02*
G01*
X125129627Y-63760037D01*
X125299466Y-63811557D01*
X125455991Y-63895222D01*
X125491729Y-63924552D01*
X125593186Y-64007814D01*
X125676448Y-64109271D01*
X125705778Y-64145009D01*
X125789443Y-64301534D01*
X125840963Y-64471373D01*
X125858359Y-64648000D01*
X125840963Y-64824627D01*
X125789443Y-64994466D01*
X125705778Y-65150991D01*
X125693114Y-65166422D01*
X125593186Y-65288186D01*
X125491729Y-65371448D01*
X125455991Y-65400778D01*
X125299466Y-65484443D01*
X125129627Y-65535963D01*
X125063443Y-65542481D01*
X124997260Y-65549000D01*
X124908740Y-65549000D01*
X124842557Y-65542481D01*
X124776373Y-65535963D01*
X124606534Y-65484443D01*
X124450009Y-65400778D01*
X124414271Y-65371448D01*
X124312814Y-65288186D01*
X124212886Y-65166422D01*
X124200222Y-65150991D01*
X124116557Y-64994466D01*
X124065037Y-64824627D01*
X124047641Y-64648000D01*
X124065037Y-64471373D01*
X124116557Y-64301534D01*
X124200222Y-64145009D01*
X124229552Y-64109271D01*
X124312814Y-64007814D01*
X124414271Y-63924552D01*
X124450009Y-63895222D01*
X124606534Y-63811557D01*
X124776373Y-63760037D01*
X124842558Y-63753518D01*
X124908740Y-63747000D01*
X124997260Y-63747000D01*
X125063442Y-63753518D01*
X125063442Y-63753518D01*
G37*
G36*
X127603442Y-63753518D02*
G01*
X127669627Y-63760037D01*
X127839466Y-63811557D01*
X127995991Y-63895222D01*
X128031729Y-63924552D01*
X128133186Y-64007814D01*
X128216448Y-64109271D01*
X128245778Y-64145009D01*
X128329443Y-64301534D01*
X128380963Y-64471373D01*
X128398359Y-64648000D01*
X128380963Y-64824627D01*
X128329443Y-64994466D01*
X128245778Y-65150991D01*
X128233114Y-65166422D01*
X128133186Y-65288186D01*
X128031729Y-65371448D01*
X127995991Y-65400778D01*
X127839466Y-65484443D01*
X127669627Y-65535963D01*
X127603443Y-65542481D01*
X127537260Y-65549000D01*
X127448740Y-65549000D01*
X127382557Y-65542481D01*
X127316373Y-65535963D01*
X127146534Y-65484443D01*
X126990009Y-65400778D01*
X126954271Y-65371448D01*
X126852814Y-65288186D01*
X126752886Y-65166422D01*
X126740222Y-65150991D01*
X126656557Y-64994466D01*
X126605037Y-64824627D01*
X126587641Y-64648000D01*
X126605037Y-64471373D01*
X126656557Y-64301534D01*
X126740222Y-64145009D01*
X126769552Y-64109271D01*
X126852814Y-64007814D01*
X126954271Y-63924552D01*
X126990009Y-63895222D01*
X127146534Y-63811557D01*
X127316373Y-63760037D01*
X127382558Y-63753518D01*
X127448740Y-63747000D01*
X127537260Y-63747000D01*
X127603442Y-63753518D01*
X127603442Y-63753518D01*
G37*
G36*
X146216500Y-65549000D02*
G01*
X144414500Y-65549000D01*
X144414500Y-63747000D01*
X146216500Y-63747000D01*
X146216500Y-65549000D01*
X146216500Y-65549000D01*
G37*
G36*
X147965942Y-63753518D02*
G01*
X148032127Y-63760037D01*
X148201966Y-63811557D01*
X148358491Y-63895222D01*
X148394229Y-63924552D01*
X148495686Y-64007814D01*
X148578948Y-64109271D01*
X148608278Y-64145009D01*
X148691943Y-64301534D01*
X148743463Y-64471373D01*
X148760859Y-64648000D01*
X148743463Y-64824627D01*
X148691943Y-64994466D01*
X148608278Y-65150991D01*
X148595614Y-65166422D01*
X148495686Y-65288186D01*
X148394229Y-65371448D01*
X148358491Y-65400778D01*
X148201966Y-65484443D01*
X148032127Y-65535963D01*
X147965943Y-65542481D01*
X147899760Y-65549000D01*
X147811240Y-65549000D01*
X147745057Y-65542481D01*
X147678873Y-65535963D01*
X147509034Y-65484443D01*
X147352509Y-65400778D01*
X147316771Y-65371448D01*
X147215314Y-65288186D01*
X147115386Y-65166422D01*
X147102722Y-65150991D01*
X147019057Y-64994466D01*
X146967537Y-64824627D01*
X146950141Y-64648000D01*
X146967537Y-64471373D01*
X147019057Y-64301534D01*
X147102722Y-64145009D01*
X147132052Y-64109271D01*
X147215314Y-64007814D01*
X147316771Y-63924552D01*
X147352509Y-63895222D01*
X147509034Y-63811557D01*
X147678873Y-63760037D01*
X147745058Y-63753518D01*
X147811240Y-63747000D01*
X147899760Y-63747000D01*
X147965942Y-63753518D01*
X147965942Y-63753518D01*
G37*
G36*
X150505942Y-63753518D02*
G01*
X150572127Y-63760037D01*
X150741966Y-63811557D01*
X150898491Y-63895222D01*
X150934229Y-63924552D01*
X151035686Y-64007814D01*
X151118948Y-64109271D01*
X151148278Y-64145009D01*
X151231943Y-64301534D01*
X151283463Y-64471373D01*
X151300859Y-64648000D01*
X151283463Y-64824627D01*
X151231943Y-64994466D01*
X151148278Y-65150991D01*
X151135614Y-65166422D01*
X151035686Y-65288186D01*
X150934229Y-65371448D01*
X150898491Y-65400778D01*
X150741966Y-65484443D01*
X150572127Y-65535963D01*
X150505943Y-65542481D01*
X150439760Y-65549000D01*
X150351240Y-65549000D01*
X150285057Y-65542481D01*
X150218873Y-65535963D01*
X150049034Y-65484443D01*
X149892509Y-65400778D01*
X149856771Y-65371448D01*
X149755314Y-65288186D01*
X149655386Y-65166422D01*
X149642722Y-65150991D01*
X149559057Y-64994466D01*
X149507537Y-64824627D01*
X149490141Y-64648000D01*
X149507537Y-64471373D01*
X149559057Y-64301534D01*
X149642722Y-64145009D01*
X149672052Y-64109271D01*
X149755314Y-64007814D01*
X149856771Y-63924552D01*
X149892509Y-63895222D01*
X150049034Y-63811557D01*
X150218873Y-63760037D01*
X150285058Y-63753518D01*
X150351240Y-63747000D01*
X150439760Y-63747000D01*
X150505942Y-63753518D01*
X150505942Y-63753518D01*
G37*
G36*
X153045942Y-63753518D02*
G01*
X153112127Y-63760037D01*
X153281966Y-63811557D01*
X153438491Y-63895222D01*
X153474229Y-63924552D01*
X153575686Y-64007814D01*
X153658948Y-64109271D01*
X153688278Y-64145009D01*
X153771943Y-64301534D01*
X153823463Y-64471373D01*
X153840859Y-64648000D01*
X153823463Y-64824627D01*
X153771943Y-64994466D01*
X153688278Y-65150991D01*
X153675614Y-65166422D01*
X153575686Y-65288186D01*
X153474229Y-65371448D01*
X153438491Y-65400778D01*
X153281966Y-65484443D01*
X153112127Y-65535963D01*
X153045943Y-65542481D01*
X152979760Y-65549000D01*
X152891240Y-65549000D01*
X152825057Y-65542481D01*
X152758873Y-65535963D01*
X152589034Y-65484443D01*
X152432509Y-65400778D01*
X152396771Y-65371448D01*
X152295314Y-65288186D01*
X152195386Y-65166422D01*
X152182722Y-65150991D01*
X152099057Y-64994466D01*
X152047537Y-64824627D01*
X152030141Y-64648000D01*
X152047537Y-64471373D01*
X152099057Y-64301534D01*
X152182722Y-64145009D01*
X152212052Y-64109271D01*
X152295314Y-64007814D01*
X152396771Y-63924552D01*
X152432509Y-63895222D01*
X152589034Y-63811557D01*
X152758873Y-63760037D01*
X152825058Y-63753518D01*
X152891240Y-63747000D01*
X152979760Y-63747000D01*
X153045942Y-63753518D01*
X153045942Y-63753518D01*
G37*
G36*
X141094000Y-65549000D02*
G01*
X139292000Y-65549000D01*
X139292000Y-63747000D01*
X141094000Y-63747000D01*
X141094000Y-65549000D01*
X141094000Y-65549000D01*
G37*
G36*
X137763442Y-63753518D02*
G01*
X137829627Y-63760037D01*
X137999466Y-63811557D01*
X138155991Y-63895222D01*
X138191729Y-63924552D01*
X138293186Y-64007814D01*
X138376448Y-64109271D01*
X138405778Y-64145009D01*
X138489443Y-64301534D01*
X138540963Y-64471373D01*
X138558359Y-64648000D01*
X138540963Y-64824627D01*
X138489443Y-64994466D01*
X138405778Y-65150991D01*
X138393114Y-65166422D01*
X138293186Y-65288186D01*
X138191729Y-65371448D01*
X138155991Y-65400778D01*
X137999466Y-65484443D01*
X137829627Y-65535963D01*
X137763443Y-65542481D01*
X137697260Y-65549000D01*
X137608740Y-65549000D01*
X137542557Y-65542481D01*
X137476373Y-65535963D01*
X137306534Y-65484443D01*
X137150009Y-65400778D01*
X137114271Y-65371448D01*
X137012814Y-65288186D01*
X136912886Y-65166422D01*
X136900222Y-65150991D01*
X136816557Y-64994466D01*
X136765037Y-64824627D01*
X136747641Y-64648000D01*
X136765037Y-64471373D01*
X136816557Y-64301534D01*
X136900222Y-64145009D01*
X136929552Y-64109271D01*
X137012814Y-64007814D01*
X137114271Y-63924552D01*
X137150009Y-63895222D01*
X137306534Y-63811557D01*
X137476373Y-63760037D01*
X137542558Y-63753518D01*
X137608740Y-63747000D01*
X137697260Y-63747000D01*
X137763442Y-63753518D01*
X137763442Y-63753518D01*
G37*
G36*
X132683442Y-63753518D02*
G01*
X132749627Y-63760037D01*
X132919466Y-63811557D01*
X133075991Y-63895222D01*
X133111729Y-63924552D01*
X133213186Y-64007814D01*
X133296448Y-64109271D01*
X133325778Y-64145009D01*
X133409443Y-64301534D01*
X133460963Y-64471373D01*
X133478359Y-64648000D01*
X133460963Y-64824627D01*
X133409443Y-64994466D01*
X133325778Y-65150991D01*
X133313114Y-65166422D01*
X133213186Y-65288186D01*
X133111729Y-65371448D01*
X133075991Y-65400778D01*
X132919466Y-65484443D01*
X132749627Y-65535963D01*
X132683443Y-65542481D01*
X132617260Y-65549000D01*
X132528740Y-65549000D01*
X132462557Y-65542481D01*
X132396373Y-65535963D01*
X132226534Y-65484443D01*
X132070009Y-65400778D01*
X132034271Y-65371448D01*
X131932814Y-65288186D01*
X131832886Y-65166422D01*
X131820222Y-65150991D01*
X131736557Y-64994466D01*
X131685037Y-64824627D01*
X131667641Y-64648000D01*
X131685037Y-64471373D01*
X131736557Y-64301534D01*
X131820222Y-64145009D01*
X131849552Y-64109271D01*
X131932814Y-64007814D01*
X132034271Y-63924552D01*
X132070009Y-63895222D01*
X132226534Y-63811557D01*
X132396373Y-63760037D01*
X132462558Y-63753518D01*
X132528740Y-63747000D01*
X132617260Y-63747000D01*
X132683442Y-63753518D01*
X132683442Y-63753518D01*
G37*
G36*
X135223442Y-63753518D02*
G01*
X135289627Y-63760037D01*
X135459466Y-63811557D01*
X135615991Y-63895222D01*
X135651729Y-63924552D01*
X135753186Y-64007814D01*
X135836448Y-64109271D01*
X135865778Y-64145009D01*
X135949443Y-64301534D01*
X136000963Y-64471373D01*
X136018359Y-64648000D01*
X136000963Y-64824627D01*
X135949443Y-64994466D01*
X135865778Y-65150991D01*
X135853114Y-65166422D01*
X135753186Y-65288186D01*
X135651729Y-65371448D01*
X135615991Y-65400778D01*
X135459466Y-65484443D01*
X135289627Y-65535963D01*
X135223443Y-65542481D01*
X135157260Y-65549000D01*
X135068740Y-65549000D01*
X135002557Y-65542481D01*
X134936373Y-65535963D01*
X134766534Y-65484443D01*
X134610009Y-65400778D01*
X134574271Y-65371448D01*
X134472814Y-65288186D01*
X134372886Y-65166422D01*
X134360222Y-65150991D01*
X134276557Y-64994466D01*
X134225037Y-64824627D01*
X134207641Y-64648000D01*
X134225037Y-64471373D01*
X134276557Y-64301534D01*
X134360222Y-64145009D01*
X134389552Y-64109271D01*
X134472814Y-64007814D01*
X134574271Y-63924552D01*
X134610009Y-63895222D01*
X134766534Y-63811557D01*
X134936373Y-63760037D01*
X135002558Y-63753518D01*
X135068740Y-63747000D01*
X135157260Y-63747000D01*
X135223442Y-63753518D01*
X135223442Y-63753518D01*
G37*
M02*
