G04 #@! TF.GenerationSoftware,KiCad,Pcbnew,(5.1.2)-1*
G04 #@! TF.CreationDate,2019-06-29T15:08:14-05:00*
G04 #@! TF.ProjectId,TPDSI_1,54504453-495f-4312-9e6b-696361645f70,1.3*
G04 #@! TF.SameCoordinates,Original*
G04 #@! TF.FileFunction,Soldermask,Top*
G04 #@! TF.FilePolarity,Negative*
%FSLAX46Y46*%
G04 Gerber Fmt 4.6, Leading zero omitted, Abs format (unit mm)*
G04 Created by KiCad (PCBNEW (5.1.2)-1) date 2019-06-29 15:08:14*
%MOMM*%
%LPD*%
G04 APERTURE LIST*
%ADD10C,0.100000*%
G04 APERTURE END LIST*
D10*
G36*
X187568256Y-118039298D02*
G01*
X187674579Y-118060447D01*
X187975042Y-118184903D01*
X188245451Y-118365585D01*
X188475415Y-118595549D01*
X188656097Y-118865958D01*
X188656098Y-118865960D01*
X188657580Y-118869539D01*
X188730192Y-119044838D01*
X188780553Y-119166422D01*
X188840477Y-119467677D01*
X188844000Y-119485391D01*
X188844000Y-119810609D01*
X188780553Y-120129579D01*
X188656097Y-120430042D01*
X188475415Y-120700451D01*
X188245451Y-120930415D01*
X187975042Y-121111097D01*
X187674579Y-121235553D01*
X187568256Y-121256702D01*
X187355611Y-121299000D01*
X187030389Y-121299000D01*
X186817744Y-121256702D01*
X186711421Y-121235553D01*
X186410958Y-121111097D01*
X186140549Y-120930415D01*
X185910585Y-120700451D01*
X185729903Y-120430042D01*
X185605447Y-120129579D01*
X185542000Y-119810609D01*
X185542000Y-119485391D01*
X185545524Y-119467677D01*
X185605447Y-119166422D01*
X185655809Y-119044838D01*
X185728420Y-118869539D01*
X185729902Y-118865960D01*
X185729903Y-118865958D01*
X185910585Y-118595549D01*
X186140549Y-118365585D01*
X186410958Y-118184903D01*
X186711421Y-118060447D01*
X186817744Y-118039298D01*
X187030389Y-117997000D01*
X187355611Y-117997000D01*
X187568256Y-118039298D01*
X187568256Y-118039298D01*
G37*
G36*
X111568256Y-118039298D02*
G01*
X111674579Y-118060447D01*
X111975042Y-118184903D01*
X112245451Y-118365585D01*
X112475415Y-118595549D01*
X112656097Y-118865958D01*
X112656098Y-118865960D01*
X112657580Y-118869539D01*
X112730192Y-119044838D01*
X112780553Y-119166422D01*
X112840477Y-119467677D01*
X112844000Y-119485391D01*
X112844000Y-119810609D01*
X112780553Y-120129579D01*
X112656097Y-120430042D01*
X112475415Y-120700451D01*
X112245451Y-120930415D01*
X111975042Y-121111097D01*
X111674579Y-121235553D01*
X111568256Y-121256702D01*
X111355611Y-121299000D01*
X111030389Y-121299000D01*
X110817744Y-121256702D01*
X110711421Y-121235553D01*
X110410958Y-121111097D01*
X110140549Y-120930415D01*
X109910585Y-120700451D01*
X109729903Y-120430042D01*
X109605447Y-120129579D01*
X109542000Y-119810609D01*
X109542000Y-119485391D01*
X109545524Y-119467677D01*
X109605447Y-119166422D01*
X109655809Y-119044838D01*
X109728420Y-118869539D01*
X109729902Y-118865960D01*
X109729903Y-118865958D01*
X109910585Y-118595549D01*
X110140549Y-118365585D01*
X110410958Y-118184903D01*
X110711421Y-118060447D01*
X110817744Y-118039298D01*
X111030389Y-117997000D01*
X111355611Y-117997000D01*
X111568256Y-118039298D01*
X111568256Y-118039298D01*
G37*
G36*
X181456290Y-118532619D02*
G01*
X181520689Y-118545429D01*
X181702678Y-118620811D01*
X181866463Y-118730249D01*
X182005751Y-118869537D01*
X182115189Y-119033322D01*
X182190571Y-119215311D01*
X182229000Y-119408509D01*
X182229000Y-119605491D01*
X182190571Y-119798689D01*
X182115189Y-119980678D01*
X182005751Y-120144463D01*
X181866463Y-120283751D01*
X181702678Y-120393189D01*
X181520689Y-120468571D01*
X181456290Y-120481381D01*
X181327493Y-120507000D01*
X181130507Y-120507000D01*
X181001710Y-120481381D01*
X180937311Y-120468571D01*
X180755322Y-120393189D01*
X180591537Y-120283751D01*
X180452249Y-120144463D01*
X180342811Y-119980678D01*
X180267429Y-119798689D01*
X180229000Y-119605491D01*
X180229000Y-119408509D01*
X180267429Y-119215311D01*
X180342811Y-119033322D01*
X180452249Y-118869537D01*
X180591537Y-118730249D01*
X180755322Y-118620811D01*
X180937311Y-118545429D01*
X181001710Y-118532619D01*
X181130507Y-118507000D01*
X181327493Y-118507000D01*
X181456290Y-118532619D01*
X181456290Y-118532619D01*
G37*
G36*
X145802499Y-118464445D02*
G01*
X145839995Y-118475820D01*
X145874554Y-118494292D01*
X145904847Y-118519153D01*
X145929708Y-118549446D01*
X145948180Y-118584005D01*
X145959555Y-118621501D01*
X145964000Y-118666638D01*
X145964000Y-119305362D01*
X145959555Y-119350499D01*
X145948180Y-119387995D01*
X145929708Y-119422554D01*
X145904847Y-119452847D01*
X145874554Y-119477708D01*
X145839995Y-119496180D01*
X145802499Y-119507555D01*
X145757362Y-119512000D01*
X145018638Y-119512000D01*
X144973501Y-119507555D01*
X144936005Y-119496180D01*
X144901446Y-119477708D01*
X144871153Y-119452847D01*
X144846292Y-119422554D01*
X144827820Y-119387995D01*
X144816445Y-119350499D01*
X144812000Y-119305362D01*
X144812000Y-118666638D01*
X144816445Y-118621501D01*
X144827820Y-118584005D01*
X144846292Y-118549446D01*
X144871153Y-118519153D01*
X144901446Y-118494292D01*
X144936005Y-118475820D01*
X144973501Y-118464445D01*
X145018638Y-118460000D01*
X145757362Y-118460000D01*
X145802499Y-118464445D01*
X145802499Y-118464445D01*
G37*
G36*
X144052499Y-118464445D02*
G01*
X144089995Y-118475820D01*
X144124554Y-118494292D01*
X144154847Y-118519153D01*
X144179708Y-118549446D01*
X144198180Y-118584005D01*
X144209555Y-118621501D01*
X144214000Y-118666638D01*
X144214000Y-119305362D01*
X144209555Y-119350499D01*
X144198180Y-119387995D01*
X144179708Y-119422554D01*
X144154847Y-119452847D01*
X144124554Y-119477708D01*
X144089995Y-119496180D01*
X144052499Y-119507555D01*
X144007362Y-119512000D01*
X143268638Y-119512000D01*
X143223501Y-119507555D01*
X143186005Y-119496180D01*
X143151446Y-119477708D01*
X143121153Y-119452847D01*
X143096292Y-119422554D01*
X143077820Y-119387995D01*
X143066445Y-119350499D01*
X143062000Y-119305362D01*
X143062000Y-118666638D01*
X143066445Y-118621501D01*
X143077820Y-118584005D01*
X143096292Y-118549446D01*
X143121153Y-118519153D01*
X143151446Y-118494292D01*
X143186005Y-118475820D01*
X143223501Y-118464445D01*
X143268638Y-118460000D01*
X144007362Y-118460000D01*
X144052499Y-118464445D01*
X144052499Y-118464445D01*
G37*
G36*
X152628000Y-119136000D02*
G01*
X151026000Y-119136000D01*
X151026000Y-117534000D01*
X152628000Y-117534000D01*
X152628000Y-119136000D01*
X152628000Y-119136000D01*
G37*
G36*
X154600642Y-117564781D02*
G01*
X154746414Y-117625162D01*
X154746416Y-117625163D01*
X154877608Y-117712822D01*
X154989178Y-117824392D01*
X155076837Y-117955584D01*
X155076838Y-117955586D01*
X155137219Y-118101358D01*
X155168000Y-118256107D01*
X155168000Y-118413893D01*
X155137219Y-118568642D01*
X155076838Y-118714414D01*
X155076837Y-118714416D01*
X154989178Y-118845608D01*
X154877608Y-118957178D01*
X154746416Y-119044837D01*
X154746415Y-119044838D01*
X154746414Y-119044838D01*
X154600642Y-119105219D01*
X154445893Y-119136000D01*
X154288107Y-119136000D01*
X154133358Y-119105219D01*
X153987586Y-119044838D01*
X153987585Y-119044838D01*
X153987584Y-119044837D01*
X153856392Y-118957178D01*
X153744822Y-118845608D01*
X153657163Y-118714416D01*
X153657162Y-118714414D01*
X153596781Y-118568642D01*
X153566000Y-118413893D01*
X153566000Y-118256107D01*
X153596781Y-118101358D01*
X153657162Y-117955586D01*
X153657163Y-117955584D01*
X153744822Y-117824392D01*
X153856392Y-117712822D01*
X153987584Y-117625163D01*
X153987586Y-117625162D01*
X154133358Y-117564781D01*
X154288107Y-117534000D01*
X154445893Y-117534000D01*
X154600642Y-117564781D01*
X154600642Y-117564781D01*
G37*
G36*
X157140642Y-117564781D02*
G01*
X157286414Y-117625162D01*
X157286416Y-117625163D01*
X157417608Y-117712822D01*
X157529178Y-117824392D01*
X157616837Y-117955584D01*
X157616838Y-117955586D01*
X157677219Y-118101358D01*
X157708000Y-118256107D01*
X157708000Y-118413893D01*
X157677219Y-118568642D01*
X157616838Y-118714414D01*
X157616837Y-118714416D01*
X157529178Y-118845608D01*
X157417608Y-118957178D01*
X157286416Y-119044837D01*
X157286415Y-119044838D01*
X157286414Y-119044838D01*
X157140642Y-119105219D01*
X156985893Y-119136000D01*
X156828107Y-119136000D01*
X156673358Y-119105219D01*
X156527586Y-119044838D01*
X156527585Y-119044838D01*
X156527584Y-119044837D01*
X156396392Y-118957178D01*
X156284822Y-118845608D01*
X156197163Y-118714416D01*
X156197162Y-118714414D01*
X156136781Y-118568642D01*
X156106000Y-118413893D01*
X156106000Y-118256107D01*
X156136781Y-118101358D01*
X156197162Y-117955586D01*
X156197163Y-117955584D01*
X156284822Y-117824392D01*
X156396392Y-117712822D01*
X156527584Y-117625163D01*
X156527586Y-117625162D01*
X156673358Y-117564781D01*
X156828107Y-117534000D01*
X156985893Y-117534000D01*
X157140642Y-117564781D01*
X157140642Y-117564781D01*
G37*
G36*
X159680642Y-117564781D02*
G01*
X159826414Y-117625162D01*
X159826416Y-117625163D01*
X159957608Y-117712822D01*
X160069178Y-117824392D01*
X160156837Y-117955584D01*
X160156838Y-117955586D01*
X160217219Y-118101358D01*
X160248000Y-118256107D01*
X160248000Y-118413893D01*
X160217219Y-118568642D01*
X160156838Y-118714414D01*
X160156837Y-118714416D01*
X160069178Y-118845608D01*
X159957608Y-118957178D01*
X159826416Y-119044837D01*
X159826415Y-119044838D01*
X159826414Y-119044838D01*
X159680642Y-119105219D01*
X159525893Y-119136000D01*
X159368107Y-119136000D01*
X159213358Y-119105219D01*
X159067586Y-119044838D01*
X159067585Y-119044838D01*
X159067584Y-119044837D01*
X158936392Y-118957178D01*
X158824822Y-118845608D01*
X158737163Y-118714416D01*
X158737162Y-118714414D01*
X158676781Y-118568642D01*
X158646000Y-118413893D01*
X158646000Y-118256107D01*
X158676781Y-118101358D01*
X158737162Y-117955586D01*
X158737163Y-117955584D01*
X158824822Y-117824392D01*
X158936392Y-117712822D01*
X159067584Y-117625163D01*
X159067586Y-117625162D01*
X159213358Y-117564781D01*
X159368107Y-117534000D01*
X159525893Y-117534000D01*
X159680642Y-117564781D01*
X159680642Y-117564781D01*
G37*
G36*
X162220642Y-117564781D02*
G01*
X162366414Y-117625162D01*
X162366416Y-117625163D01*
X162497608Y-117712822D01*
X162609178Y-117824392D01*
X162696837Y-117955584D01*
X162696838Y-117955586D01*
X162757219Y-118101358D01*
X162788000Y-118256107D01*
X162788000Y-118413893D01*
X162757219Y-118568642D01*
X162696838Y-118714414D01*
X162696837Y-118714416D01*
X162609178Y-118845608D01*
X162497608Y-118957178D01*
X162366416Y-119044837D01*
X162366415Y-119044838D01*
X162366414Y-119044838D01*
X162220642Y-119105219D01*
X162065893Y-119136000D01*
X161908107Y-119136000D01*
X161753358Y-119105219D01*
X161607586Y-119044838D01*
X161607585Y-119044838D01*
X161607584Y-119044837D01*
X161476392Y-118957178D01*
X161364822Y-118845608D01*
X161277163Y-118714416D01*
X161277162Y-118714414D01*
X161216781Y-118568642D01*
X161186000Y-118413893D01*
X161186000Y-118256107D01*
X161216781Y-118101358D01*
X161277162Y-117955586D01*
X161277163Y-117955584D01*
X161364822Y-117824392D01*
X161476392Y-117712822D01*
X161607584Y-117625163D01*
X161607586Y-117625162D01*
X161753358Y-117564781D01*
X161908107Y-117534000D01*
X162065893Y-117534000D01*
X162220642Y-117564781D01*
X162220642Y-117564781D01*
G37*
G36*
X164760642Y-117564781D02*
G01*
X164906414Y-117625162D01*
X164906416Y-117625163D01*
X165037608Y-117712822D01*
X165149178Y-117824392D01*
X165236837Y-117955584D01*
X165236838Y-117955586D01*
X165297219Y-118101358D01*
X165328000Y-118256107D01*
X165328000Y-118413893D01*
X165297219Y-118568642D01*
X165236838Y-118714414D01*
X165236837Y-118714416D01*
X165149178Y-118845608D01*
X165037608Y-118957178D01*
X164906416Y-119044837D01*
X164906415Y-119044838D01*
X164906414Y-119044838D01*
X164760642Y-119105219D01*
X164605893Y-119136000D01*
X164448107Y-119136000D01*
X164293358Y-119105219D01*
X164147586Y-119044838D01*
X164147585Y-119044838D01*
X164147584Y-119044837D01*
X164016392Y-118957178D01*
X163904822Y-118845608D01*
X163817163Y-118714416D01*
X163817162Y-118714414D01*
X163756781Y-118568642D01*
X163726000Y-118413893D01*
X163726000Y-118256107D01*
X163756781Y-118101358D01*
X163817162Y-117955586D01*
X163817163Y-117955584D01*
X163904822Y-117824392D01*
X164016392Y-117712822D01*
X164147584Y-117625163D01*
X164147586Y-117625162D01*
X164293358Y-117564781D01*
X164448107Y-117534000D01*
X164605893Y-117534000D01*
X164760642Y-117564781D01*
X164760642Y-117564781D01*
G37*
G36*
X167300642Y-117564781D02*
G01*
X167446414Y-117625162D01*
X167446416Y-117625163D01*
X167577608Y-117712822D01*
X167689178Y-117824392D01*
X167776837Y-117955584D01*
X167776838Y-117955586D01*
X167837219Y-118101358D01*
X167868000Y-118256107D01*
X167868000Y-118413893D01*
X167837219Y-118568642D01*
X167776838Y-118714414D01*
X167776837Y-118714416D01*
X167689178Y-118845608D01*
X167577608Y-118957178D01*
X167446416Y-119044837D01*
X167446415Y-119044838D01*
X167446414Y-119044838D01*
X167300642Y-119105219D01*
X167145893Y-119136000D01*
X166988107Y-119136000D01*
X166833358Y-119105219D01*
X166687586Y-119044838D01*
X166687585Y-119044838D01*
X166687584Y-119044837D01*
X166556392Y-118957178D01*
X166444822Y-118845608D01*
X166357163Y-118714416D01*
X166357162Y-118714414D01*
X166296781Y-118568642D01*
X166266000Y-118413893D01*
X166266000Y-118256107D01*
X166296781Y-118101358D01*
X166357162Y-117955586D01*
X166357163Y-117955584D01*
X166444822Y-117824392D01*
X166556392Y-117712822D01*
X166687584Y-117625163D01*
X166687586Y-117625162D01*
X166833358Y-117564781D01*
X166988107Y-117534000D01*
X167145893Y-117534000D01*
X167300642Y-117564781D01*
X167300642Y-117564781D01*
G37*
G36*
X169840642Y-117564781D02*
G01*
X169986414Y-117625162D01*
X169986416Y-117625163D01*
X170117608Y-117712822D01*
X170229178Y-117824392D01*
X170316837Y-117955584D01*
X170316838Y-117955586D01*
X170377219Y-118101358D01*
X170408000Y-118256107D01*
X170408000Y-118413893D01*
X170377219Y-118568642D01*
X170316838Y-118714414D01*
X170316837Y-118714416D01*
X170229178Y-118845608D01*
X170117608Y-118957178D01*
X169986416Y-119044837D01*
X169986415Y-119044838D01*
X169986414Y-119044838D01*
X169840642Y-119105219D01*
X169685893Y-119136000D01*
X169528107Y-119136000D01*
X169373358Y-119105219D01*
X169227586Y-119044838D01*
X169227585Y-119044838D01*
X169227584Y-119044837D01*
X169096392Y-118957178D01*
X168984822Y-118845608D01*
X168897163Y-118714416D01*
X168897162Y-118714414D01*
X168836781Y-118568642D01*
X168806000Y-118413893D01*
X168806000Y-118256107D01*
X168836781Y-118101358D01*
X168897162Y-117955586D01*
X168897163Y-117955584D01*
X168984822Y-117824392D01*
X169096392Y-117712822D01*
X169227584Y-117625163D01*
X169227586Y-117625162D01*
X169373358Y-117564781D01*
X169528107Y-117534000D01*
X169685893Y-117534000D01*
X169840642Y-117564781D01*
X169840642Y-117564781D01*
G37*
G36*
X172380642Y-117564781D02*
G01*
X172526414Y-117625162D01*
X172526416Y-117625163D01*
X172657608Y-117712822D01*
X172769178Y-117824392D01*
X172856837Y-117955584D01*
X172856838Y-117955586D01*
X172917219Y-118101358D01*
X172948000Y-118256107D01*
X172948000Y-118413893D01*
X172917219Y-118568642D01*
X172856838Y-118714414D01*
X172856837Y-118714416D01*
X172769178Y-118845608D01*
X172657608Y-118957178D01*
X172526416Y-119044837D01*
X172526415Y-119044838D01*
X172526414Y-119044838D01*
X172380642Y-119105219D01*
X172225893Y-119136000D01*
X172068107Y-119136000D01*
X171913358Y-119105219D01*
X171767586Y-119044838D01*
X171767585Y-119044838D01*
X171767584Y-119044837D01*
X171636392Y-118957178D01*
X171524822Y-118845608D01*
X171437163Y-118714416D01*
X171437162Y-118714414D01*
X171376781Y-118568642D01*
X171346000Y-118413893D01*
X171346000Y-118256107D01*
X171376781Y-118101358D01*
X171437162Y-117955586D01*
X171437163Y-117955584D01*
X171524822Y-117824392D01*
X171636392Y-117712822D01*
X171767584Y-117625163D01*
X171767586Y-117625162D01*
X171913358Y-117564781D01*
X172068107Y-117534000D01*
X172225893Y-117534000D01*
X172380642Y-117564781D01*
X172380642Y-117564781D01*
G37*
G36*
X141394000Y-118274000D02*
G01*
X139292000Y-118274000D01*
X139292000Y-115672000D01*
X141394000Y-115672000D01*
X141394000Y-118274000D01*
X141394000Y-118274000D01*
G37*
G36*
X137094000Y-118274000D02*
G01*
X134992000Y-118274000D01*
X134992000Y-115672000D01*
X137094000Y-115672000D01*
X137094000Y-118274000D01*
X137094000Y-118274000D01*
G37*
G36*
X122969564Y-116128389D02*
G01*
X123160833Y-116207615D01*
X123160835Y-116207616D01*
X123258143Y-116272635D01*
X123332973Y-116322635D01*
X123479365Y-116469027D01*
X123594385Y-116641167D01*
X123673611Y-116832436D01*
X123714000Y-117035484D01*
X123714000Y-117242516D01*
X123673611Y-117445564D01*
X123615095Y-117586835D01*
X123594384Y-117636835D01*
X123479365Y-117808973D01*
X123332973Y-117955365D01*
X123160835Y-118070384D01*
X123160834Y-118070385D01*
X123160833Y-118070385D01*
X122969564Y-118149611D01*
X122766516Y-118190000D01*
X122559484Y-118190000D01*
X122356436Y-118149611D01*
X122165167Y-118070385D01*
X122165166Y-118070385D01*
X122165165Y-118070384D01*
X121993027Y-117955365D01*
X121846635Y-117808973D01*
X121731616Y-117636835D01*
X121710905Y-117586835D01*
X121652389Y-117445564D01*
X121612000Y-117242516D01*
X121612000Y-117035484D01*
X121652389Y-116832436D01*
X121731615Y-116641167D01*
X121846635Y-116469027D01*
X121993027Y-116322635D01*
X122067857Y-116272635D01*
X122165165Y-116207616D01*
X122165167Y-116207615D01*
X122356436Y-116128389D01*
X122559484Y-116088000D01*
X122766516Y-116088000D01*
X122969564Y-116128389D01*
X122969564Y-116128389D01*
G37*
G36*
X118469564Y-116128389D02*
G01*
X118660833Y-116207615D01*
X118660835Y-116207616D01*
X118758143Y-116272635D01*
X118832973Y-116322635D01*
X118979365Y-116469027D01*
X119094385Y-116641167D01*
X119173611Y-116832436D01*
X119214000Y-117035484D01*
X119214000Y-117242516D01*
X119173611Y-117445564D01*
X119115095Y-117586835D01*
X119094384Y-117636835D01*
X118979365Y-117808973D01*
X118832973Y-117955365D01*
X118660835Y-118070384D01*
X118660834Y-118070385D01*
X118660833Y-118070385D01*
X118469564Y-118149611D01*
X118266516Y-118190000D01*
X118059484Y-118190000D01*
X117856436Y-118149611D01*
X117665167Y-118070385D01*
X117665166Y-118070385D01*
X117665165Y-118070384D01*
X117493027Y-117955365D01*
X117346635Y-117808973D01*
X117231616Y-117636835D01*
X117210905Y-117586835D01*
X117152389Y-117445564D01*
X117112000Y-117242516D01*
X117112000Y-117035484D01*
X117152389Y-116832436D01*
X117231615Y-116641167D01*
X117346635Y-116469027D01*
X117493027Y-116322635D01*
X117567857Y-116272635D01*
X117665165Y-116207616D01*
X117665167Y-116207615D01*
X117856436Y-116128389D01*
X118059484Y-116088000D01*
X118266516Y-116088000D01*
X118469564Y-116128389D01*
X118469564Y-116128389D01*
G37*
G36*
X127469564Y-116078389D02*
G01*
X127590277Y-116128390D01*
X127660835Y-116157616D01*
X127735665Y-116207616D01*
X127832973Y-116272635D01*
X127979365Y-116419027D01*
X128094385Y-116591167D01*
X128173611Y-116782436D01*
X128214000Y-116985484D01*
X128214000Y-117192516D01*
X128173611Y-117395564D01*
X128116269Y-117534000D01*
X128094384Y-117586835D01*
X127979365Y-117758973D01*
X127832973Y-117905365D01*
X127660835Y-118020384D01*
X127660834Y-118020385D01*
X127660833Y-118020385D01*
X127469564Y-118099611D01*
X127266516Y-118140000D01*
X127059484Y-118140000D01*
X126856436Y-118099611D01*
X126665167Y-118020385D01*
X126665166Y-118020385D01*
X126665165Y-118020384D01*
X126493027Y-117905365D01*
X126346635Y-117758973D01*
X126231616Y-117586835D01*
X126209731Y-117534000D01*
X126152389Y-117395564D01*
X126112000Y-117192516D01*
X126112000Y-116985484D01*
X126152389Y-116782436D01*
X126231615Y-116591167D01*
X126346635Y-116419027D01*
X126493027Y-116272635D01*
X126590335Y-116207616D01*
X126665165Y-116157616D01*
X126735723Y-116128390D01*
X126856436Y-116078389D01*
X127059484Y-116038000D01*
X127266516Y-116038000D01*
X127469564Y-116078389D01*
X127469564Y-116078389D01*
G37*
G36*
X131969564Y-116078389D02*
G01*
X132090277Y-116128390D01*
X132160835Y-116157616D01*
X132235665Y-116207616D01*
X132332973Y-116272635D01*
X132479365Y-116419027D01*
X132594385Y-116591167D01*
X132673611Y-116782436D01*
X132714000Y-116985484D01*
X132714000Y-117192516D01*
X132673611Y-117395564D01*
X132616269Y-117534000D01*
X132594384Y-117586835D01*
X132479365Y-117758973D01*
X132332973Y-117905365D01*
X132160835Y-118020384D01*
X132160834Y-118020385D01*
X132160833Y-118020385D01*
X131969564Y-118099611D01*
X131766516Y-118140000D01*
X131559484Y-118140000D01*
X131356436Y-118099611D01*
X131165167Y-118020385D01*
X131165166Y-118020385D01*
X131165165Y-118020384D01*
X130993027Y-117905365D01*
X130846635Y-117758973D01*
X130731616Y-117586835D01*
X130709731Y-117534000D01*
X130652389Y-117395564D01*
X130612000Y-117192516D01*
X130612000Y-116985484D01*
X130652389Y-116782436D01*
X130731615Y-116591167D01*
X130846635Y-116419027D01*
X130993027Y-116272635D01*
X131090335Y-116207616D01*
X131165165Y-116157616D01*
X131235723Y-116128390D01*
X131356436Y-116078389D01*
X131559484Y-116038000D01*
X131766516Y-116038000D01*
X131969564Y-116078389D01*
X131969564Y-116078389D01*
G37*
G36*
X144964000Y-117185000D02*
G01*
X144062000Y-117185000D01*
X144062000Y-116183000D01*
X144964000Y-116183000D01*
X144964000Y-117185000D01*
X144964000Y-117185000D01*
G37*
G36*
X144014000Y-115185000D02*
G01*
X143112000Y-115185000D01*
X143112000Y-114183000D01*
X144014000Y-114183000D01*
X144014000Y-115185000D01*
X144014000Y-115185000D01*
G37*
G36*
X145914000Y-115185000D02*
G01*
X145012000Y-115185000D01*
X145012000Y-114183000D01*
X145914000Y-114183000D01*
X145914000Y-115185000D01*
X145914000Y-115185000D01*
G37*
G36*
X180229000Y-113607000D02*
G01*
X178927000Y-113607000D01*
X178927000Y-112605000D01*
X180229000Y-112605000D01*
X180229000Y-113607000D01*
X180229000Y-113607000D01*
G37*
G36*
X109561289Y-111293619D02*
G01*
X109625688Y-111306429D01*
X109807677Y-111381811D01*
X109971462Y-111491249D01*
X110110750Y-111630537D01*
X110220188Y-111794322D01*
X110295570Y-111976311D01*
X110295570Y-111976312D01*
X110333999Y-112169507D01*
X110333999Y-112366493D01*
X110328339Y-112394947D01*
X110295570Y-112559689D01*
X110220188Y-112741678D01*
X110110750Y-112905463D01*
X109971462Y-113044751D01*
X109807677Y-113154189D01*
X109625688Y-113229571D01*
X109561289Y-113242381D01*
X109432492Y-113268000D01*
X109235506Y-113268000D01*
X109106709Y-113242381D01*
X109042310Y-113229571D01*
X108860321Y-113154189D01*
X108696536Y-113044751D01*
X108557248Y-112905463D01*
X108447810Y-112741678D01*
X108372428Y-112559689D01*
X108339659Y-112394947D01*
X108333999Y-112366493D01*
X108333999Y-112169507D01*
X108372428Y-111976312D01*
X108372428Y-111976311D01*
X108447810Y-111794322D01*
X108557248Y-111630537D01*
X108696536Y-111491249D01*
X108860321Y-111381811D01*
X109042310Y-111306429D01*
X109106709Y-111293619D01*
X109235506Y-111268000D01*
X109432492Y-111268000D01*
X109561289Y-111293619D01*
X109561289Y-111293619D01*
G37*
G36*
X183515132Y-110183810D02*
G01*
X183546423Y-110193302D01*
X183575263Y-110208717D01*
X183600539Y-110229461D01*
X183621283Y-110254737D01*
X183636698Y-110283577D01*
X183646190Y-110314868D01*
X183650000Y-110353551D01*
X183650000Y-112658449D01*
X183646190Y-112697132D01*
X183636698Y-112728423D01*
X183621283Y-112757263D01*
X183600539Y-112782539D01*
X183575263Y-112803283D01*
X183546423Y-112818698D01*
X183515132Y-112828190D01*
X183476449Y-112832000D01*
X181646551Y-112832000D01*
X181607868Y-112828190D01*
X181576577Y-112818698D01*
X181547737Y-112803283D01*
X181522461Y-112782539D01*
X181501717Y-112757263D01*
X181486302Y-112728423D01*
X181476810Y-112697132D01*
X181473000Y-112658449D01*
X181473000Y-110353551D01*
X181476810Y-110314868D01*
X181486302Y-110283577D01*
X181501717Y-110254737D01*
X181522461Y-110229461D01*
X181547737Y-110208717D01*
X181576577Y-110193302D01*
X181607868Y-110183810D01*
X181646551Y-110180000D01*
X183476449Y-110180000D01*
X183515132Y-110183810D01*
X183515132Y-110183810D01*
G37*
G36*
X189740132Y-110183810D02*
G01*
X189771423Y-110193302D01*
X189800263Y-110208717D01*
X189825539Y-110229461D01*
X189846283Y-110254737D01*
X189861698Y-110283577D01*
X189871190Y-110314868D01*
X189875000Y-110353551D01*
X189875000Y-112658449D01*
X189871190Y-112697132D01*
X189861698Y-112728423D01*
X189846283Y-112757263D01*
X189825539Y-112782539D01*
X189800263Y-112803283D01*
X189771423Y-112818698D01*
X189740132Y-112828190D01*
X189701449Y-112832000D01*
X187871551Y-112832000D01*
X187832868Y-112828190D01*
X187801577Y-112818698D01*
X187772737Y-112803283D01*
X187747461Y-112782539D01*
X187726717Y-112757263D01*
X187711302Y-112728423D01*
X187701810Y-112697132D01*
X187698000Y-112658449D01*
X187698000Y-110353551D01*
X187701810Y-110314868D01*
X187711302Y-110283577D01*
X187726717Y-110254737D01*
X187747461Y-110229461D01*
X187772737Y-110208717D01*
X187801577Y-110193302D01*
X187832868Y-110183810D01*
X187871551Y-110180000D01*
X189701449Y-110180000D01*
X189740132Y-110183810D01*
X189740132Y-110183810D01*
G37*
G36*
X145802499Y-111352445D02*
G01*
X145839995Y-111363820D01*
X145874554Y-111382292D01*
X145904847Y-111407153D01*
X145929708Y-111437446D01*
X145948180Y-111472005D01*
X145959555Y-111509501D01*
X145964000Y-111554638D01*
X145964000Y-112193362D01*
X145959555Y-112238499D01*
X145948180Y-112275995D01*
X145929708Y-112310554D01*
X145904847Y-112340847D01*
X145874554Y-112365708D01*
X145839995Y-112384180D01*
X145802499Y-112395555D01*
X145757362Y-112400000D01*
X145018638Y-112400000D01*
X144973501Y-112395555D01*
X144936005Y-112384180D01*
X144901446Y-112365708D01*
X144871153Y-112340847D01*
X144846292Y-112310554D01*
X144827820Y-112275995D01*
X144816445Y-112238499D01*
X144812000Y-112193362D01*
X144812000Y-111554638D01*
X144816445Y-111509501D01*
X144827820Y-111472005D01*
X144846292Y-111437446D01*
X144871153Y-111407153D01*
X144901446Y-111382292D01*
X144936005Y-111363820D01*
X144973501Y-111352445D01*
X145018638Y-111348000D01*
X145757362Y-111348000D01*
X145802499Y-111352445D01*
X145802499Y-111352445D01*
G37*
G36*
X144052499Y-111352445D02*
G01*
X144089995Y-111363820D01*
X144124554Y-111382292D01*
X144154847Y-111407153D01*
X144179708Y-111437446D01*
X144198180Y-111472005D01*
X144209555Y-111509501D01*
X144214000Y-111554638D01*
X144214000Y-112193362D01*
X144209555Y-112238499D01*
X144198180Y-112275995D01*
X144179708Y-112310554D01*
X144154847Y-112340847D01*
X144124554Y-112365708D01*
X144089995Y-112384180D01*
X144052499Y-112395555D01*
X144007362Y-112400000D01*
X143268638Y-112400000D01*
X143223501Y-112395555D01*
X143186005Y-112384180D01*
X143151446Y-112365708D01*
X143121153Y-112340847D01*
X143096292Y-112310554D01*
X143077820Y-112275995D01*
X143066445Y-112238499D01*
X143062000Y-112193362D01*
X143062000Y-111554638D01*
X143066445Y-111509501D01*
X143077820Y-111472005D01*
X143096292Y-111437446D01*
X143121153Y-111407153D01*
X143151446Y-111382292D01*
X143186005Y-111363820D01*
X143223501Y-111352445D01*
X143268638Y-111348000D01*
X144007362Y-111348000D01*
X144052499Y-111352445D01*
X144052499Y-111352445D01*
G37*
G36*
X118469564Y-109628389D02*
G01*
X118660833Y-109707615D01*
X118660835Y-109707616D01*
X118758143Y-109772635D01*
X118832973Y-109822635D01*
X118979365Y-109969027D01*
X119094385Y-110141167D01*
X119173611Y-110332436D01*
X119214000Y-110535484D01*
X119214000Y-110742516D01*
X119173611Y-110945564D01*
X119115095Y-111086835D01*
X119094384Y-111136835D01*
X118979365Y-111308973D01*
X118832973Y-111455365D01*
X118660835Y-111570384D01*
X118660834Y-111570385D01*
X118660833Y-111570385D01*
X118469564Y-111649611D01*
X118266516Y-111690000D01*
X118059484Y-111690000D01*
X117856436Y-111649611D01*
X117665167Y-111570385D01*
X117665166Y-111570385D01*
X117665165Y-111570384D01*
X117493027Y-111455365D01*
X117346635Y-111308973D01*
X117231616Y-111136835D01*
X117210905Y-111086835D01*
X117152389Y-110945564D01*
X117112000Y-110742516D01*
X117112000Y-110535484D01*
X117152389Y-110332436D01*
X117231615Y-110141167D01*
X117346635Y-109969027D01*
X117493027Y-109822635D01*
X117567857Y-109772635D01*
X117665165Y-109707616D01*
X117665167Y-109707615D01*
X117856436Y-109628389D01*
X118059484Y-109588000D01*
X118266516Y-109588000D01*
X118469564Y-109628389D01*
X118469564Y-109628389D01*
G37*
G36*
X122969564Y-109628389D02*
G01*
X123160833Y-109707615D01*
X123160835Y-109707616D01*
X123258143Y-109772635D01*
X123332973Y-109822635D01*
X123479365Y-109969027D01*
X123594385Y-110141167D01*
X123673611Y-110332436D01*
X123714000Y-110535484D01*
X123714000Y-110742516D01*
X123673611Y-110945564D01*
X123615095Y-111086835D01*
X123594384Y-111136835D01*
X123479365Y-111308973D01*
X123332973Y-111455365D01*
X123160835Y-111570384D01*
X123160834Y-111570385D01*
X123160833Y-111570385D01*
X122969564Y-111649611D01*
X122766516Y-111690000D01*
X122559484Y-111690000D01*
X122356436Y-111649611D01*
X122165167Y-111570385D01*
X122165166Y-111570385D01*
X122165165Y-111570384D01*
X121993027Y-111455365D01*
X121846635Y-111308973D01*
X121731616Y-111136835D01*
X121710905Y-111086835D01*
X121652389Y-110945564D01*
X121612000Y-110742516D01*
X121612000Y-110535484D01*
X121652389Y-110332436D01*
X121731615Y-110141167D01*
X121846635Y-109969027D01*
X121993027Y-109822635D01*
X122067857Y-109772635D01*
X122165165Y-109707616D01*
X122165167Y-109707615D01*
X122356436Y-109628389D01*
X122559484Y-109588000D01*
X122766516Y-109588000D01*
X122969564Y-109628389D01*
X122969564Y-109628389D01*
G37*
G36*
X131969564Y-109578389D02*
G01*
X132090277Y-109628390D01*
X132160835Y-109657616D01*
X132235665Y-109707616D01*
X132332973Y-109772635D01*
X132479365Y-109919027D01*
X132594385Y-110091167D01*
X132673611Y-110282436D01*
X132714000Y-110485484D01*
X132714000Y-110692516D01*
X132673611Y-110895564D01*
X132594385Y-111086833D01*
X132594384Y-111086835D01*
X132479365Y-111258973D01*
X132332973Y-111405365D01*
X132160835Y-111520384D01*
X132160834Y-111520385D01*
X132160833Y-111520385D01*
X131969564Y-111599611D01*
X131766516Y-111640000D01*
X131559484Y-111640000D01*
X131356436Y-111599611D01*
X131165167Y-111520385D01*
X131165166Y-111520385D01*
X131165165Y-111520384D01*
X130993027Y-111405365D01*
X130846635Y-111258973D01*
X130731616Y-111086835D01*
X130731615Y-111086833D01*
X130652389Y-110895564D01*
X130612000Y-110692516D01*
X130612000Y-110485484D01*
X130652389Y-110282436D01*
X130731615Y-110091167D01*
X130846635Y-109919027D01*
X130993027Y-109772635D01*
X131090335Y-109707616D01*
X131165165Y-109657616D01*
X131235723Y-109628390D01*
X131356436Y-109578389D01*
X131559484Y-109538000D01*
X131766516Y-109538000D01*
X131969564Y-109578389D01*
X131969564Y-109578389D01*
G37*
G36*
X127469564Y-109578389D02*
G01*
X127590277Y-109628390D01*
X127660835Y-109657616D01*
X127735665Y-109707616D01*
X127832973Y-109772635D01*
X127979365Y-109919027D01*
X128094385Y-110091167D01*
X128173611Y-110282436D01*
X128214000Y-110485484D01*
X128214000Y-110692516D01*
X128173611Y-110895564D01*
X128094385Y-111086833D01*
X128094384Y-111086835D01*
X127979365Y-111258973D01*
X127832973Y-111405365D01*
X127660835Y-111520384D01*
X127660834Y-111520385D01*
X127660833Y-111520385D01*
X127469564Y-111599611D01*
X127266516Y-111640000D01*
X127059484Y-111640000D01*
X126856436Y-111599611D01*
X126665167Y-111520385D01*
X126665166Y-111520385D01*
X126665165Y-111520384D01*
X126493027Y-111405365D01*
X126346635Y-111258973D01*
X126231616Y-111086835D01*
X126231615Y-111086833D01*
X126152389Y-110895564D01*
X126112000Y-110692516D01*
X126112000Y-110485484D01*
X126152389Y-110282436D01*
X126231615Y-110091167D01*
X126346635Y-109919027D01*
X126493027Y-109772635D01*
X126590335Y-109707616D01*
X126665165Y-109657616D01*
X126735723Y-109628390D01*
X126856436Y-109578389D01*
X127059484Y-109538000D01*
X127266516Y-109538000D01*
X127469564Y-109578389D01*
X127469564Y-109578389D01*
G37*
G36*
X180229000Y-110307000D02*
G01*
X178927000Y-110307000D01*
X178927000Y-109305000D01*
X180229000Y-109305000D01*
X180229000Y-110307000D01*
X180229000Y-110307000D01*
G37*
G36*
X139244000Y-109624000D02*
G01*
X137142000Y-109624000D01*
X137142000Y-107022000D01*
X139244000Y-107022000D01*
X139244000Y-109624000D01*
X139244000Y-109624000D01*
G37*
G36*
X145802499Y-108126445D02*
G01*
X145839995Y-108137820D01*
X145874554Y-108156292D01*
X145904847Y-108181153D01*
X145929708Y-108211446D01*
X145948180Y-108246005D01*
X145959555Y-108283501D01*
X145964000Y-108328638D01*
X145964000Y-108967362D01*
X145959555Y-109012499D01*
X145948180Y-109049995D01*
X145929708Y-109084554D01*
X145904847Y-109114847D01*
X145874554Y-109139708D01*
X145839995Y-109158180D01*
X145802499Y-109169555D01*
X145757362Y-109174000D01*
X145018638Y-109174000D01*
X144973501Y-109169555D01*
X144936005Y-109158180D01*
X144901446Y-109139708D01*
X144871153Y-109114847D01*
X144846292Y-109084554D01*
X144827820Y-109049995D01*
X144816445Y-109012499D01*
X144812000Y-108967362D01*
X144812000Y-108328638D01*
X144816445Y-108283501D01*
X144827820Y-108246005D01*
X144846292Y-108211446D01*
X144871153Y-108181153D01*
X144901446Y-108156292D01*
X144936005Y-108137820D01*
X144973501Y-108126445D01*
X145018638Y-108122000D01*
X145757362Y-108122000D01*
X145802499Y-108126445D01*
X145802499Y-108126445D01*
G37*
G36*
X144052499Y-108126445D02*
G01*
X144089995Y-108137820D01*
X144124554Y-108156292D01*
X144154847Y-108181153D01*
X144179708Y-108211446D01*
X144198180Y-108246005D01*
X144209555Y-108283501D01*
X144214000Y-108328638D01*
X144214000Y-108967362D01*
X144209555Y-109012499D01*
X144198180Y-109049995D01*
X144179708Y-109084554D01*
X144154847Y-109114847D01*
X144124554Y-109139708D01*
X144089995Y-109158180D01*
X144052499Y-109169555D01*
X144007362Y-109174000D01*
X143268638Y-109174000D01*
X143223501Y-109169555D01*
X143186005Y-109158180D01*
X143151446Y-109139708D01*
X143121153Y-109114847D01*
X143096292Y-109084554D01*
X143077820Y-109049995D01*
X143066445Y-109012499D01*
X143062000Y-108967362D01*
X143062000Y-108328638D01*
X143066445Y-108283501D01*
X143077820Y-108246005D01*
X143096292Y-108211446D01*
X143121153Y-108181153D01*
X143151446Y-108156292D01*
X143186005Y-108137820D01*
X143223501Y-108126445D01*
X143268638Y-108122000D01*
X144007362Y-108122000D01*
X144052499Y-108126445D01*
X144052499Y-108126445D01*
G37*
G36*
X119607499Y-107092445D02*
G01*
X119644995Y-107103820D01*
X119679554Y-107122292D01*
X119709847Y-107147153D01*
X119734708Y-107177446D01*
X119753180Y-107212005D01*
X119764555Y-107249501D01*
X119769000Y-107294638D01*
X119769000Y-107933362D01*
X119764555Y-107978499D01*
X119753180Y-108015995D01*
X119734708Y-108050554D01*
X119709847Y-108080847D01*
X119679554Y-108105708D01*
X119644995Y-108124180D01*
X119607499Y-108135555D01*
X119562362Y-108140000D01*
X118823638Y-108140000D01*
X118778501Y-108135555D01*
X118741005Y-108124180D01*
X118706446Y-108105708D01*
X118676153Y-108080847D01*
X118651292Y-108050554D01*
X118632820Y-108015995D01*
X118621445Y-107978499D01*
X118617000Y-107933362D01*
X118617000Y-107294638D01*
X118621445Y-107249501D01*
X118632820Y-107212005D01*
X118651292Y-107177446D01*
X118676153Y-107147153D01*
X118706446Y-107122292D01*
X118741005Y-107103820D01*
X118778501Y-107092445D01*
X118823638Y-107088000D01*
X119562362Y-107088000D01*
X119607499Y-107092445D01*
X119607499Y-107092445D01*
G37*
G36*
X121357499Y-107092445D02*
G01*
X121394995Y-107103820D01*
X121429554Y-107122292D01*
X121459847Y-107147153D01*
X121484708Y-107177446D01*
X121503180Y-107212005D01*
X121514555Y-107249501D01*
X121519000Y-107294638D01*
X121519000Y-107933362D01*
X121514555Y-107978499D01*
X121503180Y-108015995D01*
X121484708Y-108050554D01*
X121459847Y-108080847D01*
X121429554Y-108105708D01*
X121394995Y-108124180D01*
X121357499Y-108135555D01*
X121312362Y-108140000D01*
X120573638Y-108140000D01*
X120528501Y-108135555D01*
X120491005Y-108124180D01*
X120456446Y-108105708D01*
X120426153Y-108080847D01*
X120401292Y-108050554D01*
X120382820Y-108015995D01*
X120371445Y-107978499D01*
X120367000Y-107933362D01*
X120367000Y-107294638D01*
X120371445Y-107249501D01*
X120382820Y-107212005D01*
X120401292Y-107177446D01*
X120426153Y-107147153D01*
X120456446Y-107122292D01*
X120491005Y-107103820D01*
X120528501Y-107092445D01*
X120573638Y-107088000D01*
X121312362Y-107088000D01*
X121357499Y-107092445D01*
X121357499Y-107092445D01*
G37*
G36*
X129242499Y-107042445D02*
G01*
X129279995Y-107053820D01*
X129314554Y-107072292D01*
X129344847Y-107097153D01*
X129369708Y-107127446D01*
X129388180Y-107162005D01*
X129399555Y-107199501D01*
X129404000Y-107244638D01*
X129404000Y-107883362D01*
X129399555Y-107928499D01*
X129388180Y-107965995D01*
X129369708Y-108000554D01*
X129344847Y-108030847D01*
X129314554Y-108055708D01*
X129279995Y-108074180D01*
X129242499Y-108085555D01*
X129197362Y-108090000D01*
X128458638Y-108090000D01*
X128413501Y-108085555D01*
X128376005Y-108074180D01*
X128341446Y-108055708D01*
X128311153Y-108030847D01*
X128286292Y-108000554D01*
X128267820Y-107965995D01*
X128256445Y-107928499D01*
X128252000Y-107883362D01*
X128252000Y-107244638D01*
X128256445Y-107199501D01*
X128267820Y-107162005D01*
X128286292Y-107127446D01*
X128311153Y-107097153D01*
X128341446Y-107072292D01*
X128376005Y-107053820D01*
X128413501Y-107042445D01*
X128458638Y-107038000D01*
X129197362Y-107038000D01*
X129242499Y-107042445D01*
X129242499Y-107042445D01*
G37*
G36*
X130992499Y-107042445D02*
G01*
X131029995Y-107053820D01*
X131064554Y-107072292D01*
X131094847Y-107097153D01*
X131119708Y-107127446D01*
X131138180Y-107162005D01*
X131149555Y-107199501D01*
X131154000Y-107244638D01*
X131154000Y-107883362D01*
X131149555Y-107928499D01*
X131138180Y-107965995D01*
X131119708Y-108000554D01*
X131094847Y-108030847D01*
X131064554Y-108055708D01*
X131029995Y-108074180D01*
X130992499Y-108085555D01*
X130947362Y-108090000D01*
X130208638Y-108090000D01*
X130163501Y-108085555D01*
X130126005Y-108074180D01*
X130091446Y-108055708D01*
X130061153Y-108030847D01*
X130036292Y-108000554D01*
X130017820Y-107965995D01*
X130006445Y-107928499D01*
X130002000Y-107883362D01*
X130002000Y-107244638D01*
X130006445Y-107199501D01*
X130017820Y-107162005D01*
X130036292Y-107127446D01*
X130061153Y-107097153D01*
X130091446Y-107072292D01*
X130126005Y-107053820D01*
X130163501Y-107042445D01*
X130208638Y-107038000D01*
X130947362Y-107038000D01*
X130992499Y-107042445D01*
X130992499Y-107042445D01*
G37*
G36*
X189884000Y-107726000D02*
G01*
X183382000Y-107726000D01*
X183382000Y-101824000D01*
X189884000Y-101824000D01*
X189884000Y-107726000D01*
X189884000Y-107726000D01*
G37*
G36*
X181484000Y-107706000D02*
G01*
X179182000Y-107706000D01*
X179182000Y-106404000D01*
X181484000Y-106404000D01*
X181484000Y-107706000D01*
X181484000Y-107706000D01*
G37*
G36*
X119607499Y-105187445D02*
G01*
X119644995Y-105198820D01*
X119679554Y-105217292D01*
X119709847Y-105242153D01*
X119734708Y-105272446D01*
X119753180Y-105307005D01*
X119764555Y-105344501D01*
X119769000Y-105389638D01*
X119769000Y-106028362D01*
X119764555Y-106073499D01*
X119753180Y-106110995D01*
X119734708Y-106145554D01*
X119709847Y-106175847D01*
X119679554Y-106200708D01*
X119644995Y-106219180D01*
X119607499Y-106230555D01*
X119562362Y-106235000D01*
X118823638Y-106235000D01*
X118778501Y-106230555D01*
X118741005Y-106219180D01*
X118706446Y-106200708D01*
X118676153Y-106175847D01*
X118651292Y-106145554D01*
X118632820Y-106110995D01*
X118621445Y-106073499D01*
X118617000Y-106028362D01*
X118617000Y-105389638D01*
X118621445Y-105344501D01*
X118632820Y-105307005D01*
X118651292Y-105272446D01*
X118676153Y-105242153D01*
X118706446Y-105217292D01*
X118741005Y-105198820D01*
X118778501Y-105187445D01*
X118823638Y-105183000D01*
X119562362Y-105183000D01*
X119607499Y-105187445D01*
X119607499Y-105187445D01*
G37*
G36*
X121357499Y-105187445D02*
G01*
X121394995Y-105198820D01*
X121429554Y-105217292D01*
X121459847Y-105242153D01*
X121484708Y-105272446D01*
X121503180Y-105307005D01*
X121514555Y-105344501D01*
X121519000Y-105389638D01*
X121519000Y-106028362D01*
X121514555Y-106073499D01*
X121503180Y-106110995D01*
X121484708Y-106145554D01*
X121459847Y-106175847D01*
X121429554Y-106200708D01*
X121394995Y-106219180D01*
X121357499Y-106230555D01*
X121312362Y-106235000D01*
X120573638Y-106235000D01*
X120528501Y-106230555D01*
X120491005Y-106219180D01*
X120456446Y-106200708D01*
X120426153Y-106175847D01*
X120401292Y-106145554D01*
X120382820Y-106110995D01*
X120371445Y-106073499D01*
X120367000Y-106028362D01*
X120367000Y-105389638D01*
X120371445Y-105344501D01*
X120382820Y-105307005D01*
X120401292Y-105272446D01*
X120426153Y-105242153D01*
X120456446Y-105217292D01*
X120491005Y-105198820D01*
X120528501Y-105187445D01*
X120573638Y-105183000D01*
X121312362Y-105183000D01*
X121357499Y-105187445D01*
X121357499Y-105187445D01*
G37*
G36*
X130992499Y-105137445D02*
G01*
X131029995Y-105148820D01*
X131064554Y-105167292D01*
X131094847Y-105192153D01*
X131119708Y-105222446D01*
X131138180Y-105257005D01*
X131149555Y-105294501D01*
X131154000Y-105339638D01*
X131154000Y-105978362D01*
X131149555Y-106023499D01*
X131138180Y-106060995D01*
X131119708Y-106095554D01*
X131094847Y-106125847D01*
X131064554Y-106150708D01*
X131029995Y-106169180D01*
X130992499Y-106180555D01*
X130947362Y-106185000D01*
X130208638Y-106185000D01*
X130163501Y-106180555D01*
X130126005Y-106169180D01*
X130091446Y-106150708D01*
X130061153Y-106125847D01*
X130036292Y-106095554D01*
X130017820Y-106060995D01*
X130006445Y-106023499D01*
X130002000Y-105978362D01*
X130002000Y-105339638D01*
X130006445Y-105294501D01*
X130017820Y-105257005D01*
X130036292Y-105222446D01*
X130061153Y-105192153D01*
X130091446Y-105167292D01*
X130126005Y-105148820D01*
X130163501Y-105137445D01*
X130208638Y-105133000D01*
X130947362Y-105133000D01*
X130992499Y-105137445D01*
X130992499Y-105137445D01*
G37*
G36*
X129242499Y-105137445D02*
G01*
X129279995Y-105148820D01*
X129314554Y-105167292D01*
X129344847Y-105192153D01*
X129369708Y-105222446D01*
X129388180Y-105257005D01*
X129399555Y-105294501D01*
X129404000Y-105339638D01*
X129404000Y-105978362D01*
X129399555Y-106023499D01*
X129388180Y-106060995D01*
X129369708Y-106095554D01*
X129344847Y-106125847D01*
X129314554Y-106150708D01*
X129279995Y-106169180D01*
X129242499Y-106180555D01*
X129197362Y-106185000D01*
X128458638Y-106185000D01*
X128413501Y-106180555D01*
X128376005Y-106169180D01*
X128341446Y-106150708D01*
X128311153Y-106125847D01*
X128286292Y-106095554D01*
X128267820Y-106060995D01*
X128256445Y-106023499D01*
X128252000Y-105978362D01*
X128252000Y-105339638D01*
X128256445Y-105294501D01*
X128267820Y-105257005D01*
X128286292Y-105222446D01*
X128311153Y-105192153D01*
X128341446Y-105167292D01*
X128376005Y-105148820D01*
X128413501Y-105137445D01*
X128458638Y-105133000D01*
X129197362Y-105133000D01*
X129242499Y-105137445D01*
X129242499Y-105137445D01*
G37*
G36*
X145802499Y-104748445D02*
G01*
X145839995Y-104759820D01*
X145874554Y-104778292D01*
X145904847Y-104803153D01*
X145929708Y-104833446D01*
X145948180Y-104868005D01*
X145959555Y-104905501D01*
X145964000Y-104950638D01*
X145964000Y-105589362D01*
X145959555Y-105634499D01*
X145948180Y-105671995D01*
X145929708Y-105706554D01*
X145904847Y-105736847D01*
X145874554Y-105761708D01*
X145839995Y-105780180D01*
X145802499Y-105791555D01*
X145757362Y-105796000D01*
X145018638Y-105796000D01*
X144973501Y-105791555D01*
X144936005Y-105780180D01*
X144901446Y-105761708D01*
X144871153Y-105736847D01*
X144846292Y-105706554D01*
X144827820Y-105671995D01*
X144816445Y-105634499D01*
X144812000Y-105589362D01*
X144812000Y-104950638D01*
X144816445Y-104905501D01*
X144827820Y-104868005D01*
X144846292Y-104833446D01*
X144871153Y-104803153D01*
X144901446Y-104778292D01*
X144936005Y-104759820D01*
X144973501Y-104748445D01*
X145018638Y-104744000D01*
X145757362Y-104744000D01*
X145802499Y-104748445D01*
X145802499Y-104748445D01*
G37*
G36*
X144052499Y-104748445D02*
G01*
X144089995Y-104759820D01*
X144124554Y-104778292D01*
X144154847Y-104803153D01*
X144179708Y-104833446D01*
X144198180Y-104868005D01*
X144209555Y-104905501D01*
X144214000Y-104950638D01*
X144214000Y-105589362D01*
X144209555Y-105634499D01*
X144198180Y-105671995D01*
X144179708Y-105706554D01*
X144154847Y-105736847D01*
X144124554Y-105761708D01*
X144089995Y-105780180D01*
X144052499Y-105791555D01*
X144007362Y-105796000D01*
X143268638Y-105796000D01*
X143223501Y-105791555D01*
X143186005Y-105780180D01*
X143151446Y-105761708D01*
X143121153Y-105736847D01*
X143096292Y-105706554D01*
X143077820Y-105671995D01*
X143066445Y-105634499D01*
X143062000Y-105589362D01*
X143062000Y-104950638D01*
X143066445Y-104905501D01*
X143077820Y-104868005D01*
X143096292Y-104833446D01*
X143121153Y-104803153D01*
X143151446Y-104778292D01*
X143186005Y-104759820D01*
X143223501Y-104748445D01*
X143268638Y-104744000D01*
X144007362Y-104744000D01*
X144052499Y-104748445D01*
X144052499Y-104748445D01*
G37*
G36*
X169840642Y-102324781D02*
G01*
X169986414Y-102385162D01*
X169986416Y-102385163D01*
X170117608Y-102472822D01*
X170229178Y-102584392D01*
X170316837Y-102715584D01*
X170316838Y-102715586D01*
X170377219Y-102861358D01*
X170408000Y-103016107D01*
X170408000Y-103173893D01*
X170377219Y-103328642D01*
X170316838Y-103474414D01*
X170316837Y-103474416D01*
X170229178Y-103605608D01*
X170117608Y-103717178D01*
X169986416Y-103804837D01*
X169986415Y-103804838D01*
X169986414Y-103804838D01*
X169840642Y-103865219D01*
X169685893Y-103896000D01*
X169528107Y-103896000D01*
X169373358Y-103865219D01*
X169227586Y-103804838D01*
X169227585Y-103804838D01*
X169227584Y-103804837D01*
X169096392Y-103717178D01*
X168984822Y-103605608D01*
X168897163Y-103474416D01*
X168897162Y-103474414D01*
X168836781Y-103328642D01*
X168806000Y-103173893D01*
X168806000Y-103016107D01*
X168836781Y-102861358D01*
X168897162Y-102715586D01*
X168897163Y-102715584D01*
X168984822Y-102584392D01*
X169096392Y-102472822D01*
X169227584Y-102385163D01*
X169227586Y-102385162D01*
X169373358Y-102324781D01*
X169528107Y-102294000D01*
X169685893Y-102294000D01*
X169840642Y-102324781D01*
X169840642Y-102324781D01*
G37*
G36*
X167300642Y-102324781D02*
G01*
X167446414Y-102385162D01*
X167446416Y-102385163D01*
X167577608Y-102472822D01*
X167689178Y-102584392D01*
X167776837Y-102715584D01*
X167776838Y-102715586D01*
X167837219Y-102861358D01*
X167868000Y-103016107D01*
X167868000Y-103173893D01*
X167837219Y-103328642D01*
X167776838Y-103474414D01*
X167776837Y-103474416D01*
X167689178Y-103605608D01*
X167577608Y-103717178D01*
X167446416Y-103804837D01*
X167446415Y-103804838D01*
X167446414Y-103804838D01*
X167300642Y-103865219D01*
X167145893Y-103896000D01*
X166988107Y-103896000D01*
X166833358Y-103865219D01*
X166687586Y-103804838D01*
X166687585Y-103804838D01*
X166687584Y-103804837D01*
X166556392Y-103717178D01*
X166444822Y-103605608D01*
X166357163Y-103474416D01*
X166357162Y-103474414D01*
X166296781Y-103328642D01*
X166266000Y-103173893D01*
X166266000Y-103016107D01*
X166296781Y-102861358D01*
X166357162Y-102715586D01*
X166357163Y-102715584D01*
X166444822Y-102584392D01*
X166556392Y-102472822D01*
X166687584Y-102385163D01*
X166687586Y-102385162D01*
X166833358Y-102324781D01*
X166988107Y-102294000D01*
X167145893Y-102294000D01*
X167300642Y-102324781D01*
X167300642Y-102324781D01*
G37*
G36*
X164760642Y-102324781D02*
G01*
X164906414Y-102385162D01*
X164906416Y-102385163D01*
X165037608Y-102472822D01*
X165149178Y-102584392D01*
X165236837Y-102715584D01*
X165236838Y-102715586D01*
X165297219Y-102861358D01*
X165328000Y-103016107D01*
X165328000Y-103173893D01*
X165297219Y-103328642D01*
X165236838Y-103474414D01*
X165236837Y-103474416D01*
X165149178Y-103605608D01*
X165037608Y-103717178D01*
X164906416Y-103804837D01*
X164906415Y-103804838D01*
X164906414Y-103804838D01*
X164760642Y-103865219D01*
X164605893Y-103896000D01*
X164448107Y-103896000D01*
X164293358Y-103865219D01*
X164147586Y-103804838D01*
X164147585Y-103804838D01*
X164147584Y-103804837D01*
X164016392Y-103717178D01*
X163904822Y-103605608D01*
X163817163Y-103474416D01*
X163817162Y-103474414D01*
X163756781Y-103328642D01*
X163726000Y-103173893D01*
X163726000Y-103016107D01*
X163756781Y-102861358D01*
X163817162Y-102715586D01*
X163817163Y-102715584D01*
X163904822Y-102584392D01*
X164016392Y-102472822D01*
X164147584Y-102385163D01*
X164147586Y-102385162D01*
X164293358Y-102324781D01*
X164448107Y-102294000D01*
X164605893Y-102294000D01*
X164760642Y-102324781D01*
X164760642Y-102324781D01*
G37*
G36*
X162220642Y-102324781D02*
G01*
X162366414Y-102385162D01*
X162366416Y-102385163D01*
X162497608Y-102472822D01*
X162609178Y-102584392D01*
X162696837Y-102715584D01*
X162696838Y-102715586D01*
X162757219Y-102861358D01*
X162788000Y-103016107D01*
X162788000Y-103173893D01*
X162757219Y-103328642D01*
X162696838Y-103474414D01*
X162696837Y-103474416D01*
X162609178Y-103605608D01*
X162497608Y-103717178D01*
X162366416Y-103804837D01*
X162366415Y-103804838D01*
X162366414Y-103804838D01*
X162220642Y-103865219D01*
X162065893Y-103896000D01*
X161908107Y-103896000D01*
X161753358Y-103865219D01*
X161607586Y-103804838D01*
X161607585Y-103804838D01*
X161607584Y-103804837D01*
X161476392Y-103717178D01*
X161364822Y-103605608D01*
X161277163Y-103474416D01*
X161277162Y-103474414D01*
X161216781Y-103328642D01*
X161186000Y-103173893D01*
X161186000Y-103016107D01*
X161216781Y-102861358D01*
X161277162Y-102715586D01*
X161277163Y-102715584D01*
X161364822Y-102584392D01*
X161476392Y-102472822D01*
X161607584Y-102385163D01*
X161607586Y-102385162D01*
X161753358Y-102324781D01*
X161908107Y-102294000D01*
X162065893Y-102294000D01*
X162220642Y-102324781D01*
X162220642Y-102324781D01*
G37*
G36*
X159680642Y-102324781D02*
G01*
X159826414Y-102385162D01*
X159826416Y-102385163D01*
X159957608Y-102472822D01*
X160069178Y-102584392D01*
X160156837Y-102715584D01*
X160156838Y-102715586D01*
X160217219Y-102861358D01*
X160248000Y-103016107D01*
X160248000Y-103173893D01*
X160217219Y-103328642D01*
X160156838Y-103474414D01*
X160156837Y-103474416D01*
X160069178Y-103605608D01*
X159957608Y-103717178D01*
X159826416Y-103804837D01*
X159826415Y-103804838D01*
X159826414Y-103804838D01*
X159680642Y-103865219D01*
X159525893Y-103896000D01*
X159368107Y-103896000D01*
X159213358Y-103865219D01*
X159067586Y-103804838D01*
X159067585Y-103804838D01*
X159067584Y-103804837D01*
X158936392Y-103717178D01*
X158824822Y-103605608D01*
X158737163Y-103474416D01*
X158737162Y-103474414D01*
X158676781Y-103328642D01*
X158646000Y-103173893D01*
X158646000Y-103016107D01*
X158676781Y-102861358D01*
X158737162Y-102715586D01*
X158737163Y-102715584D01*
X158824822Y-102584392D01*
X158936392Y-102472822D01*
X159067584Y-102385163D01*
X159067586Y-102385162D01*
X159213358Y-102324781D01*
X159368107Y-102294000D01*
X159525893Y-102294000D01*
X159680642Y-102324781D01*
X159680642Y-102324781D01*
G37*
G36*
X157140642Y-102324781D02*
G01*
X157286414Y-102385162D01*
X157286416Y-102385163D01*
X157417608Y-102472822D01*
X157529178Y-102584392D01*
X157616837Y-102715584D01*
X157616838Y-102715586D01*
X157677219Y-102861358D01*
X157708000Y-103016107D01*
X157708000Y-103173893D01*
X157677219Y-103328642D01*
X157616838Y-103474414D01*
X157616837Y-103474416D01*
X157529178Y-103605608D01*
X157417608Y-103717178D01*
X157286416Y-103804837D01*
X157286415Y-103804838D01*
X157286414Y-103804838D01*
X157140642Y-103865219D01*
X156985893Y-103896000D01*
X156828107Y-103896000D01*
X156673358Y-103865219D01*
X156527586Y-103804838D01*
X156527585Y-103804838D01*
X156527584Y-103804837D01*
X156396392Y-103717178D01*
X156284822Y-103605608D01*
X156197163Y-103474416D01*
X156197162Y-103474414D01*
X156136781Y-103328642D01*
X156106000Y-103173893D01*
X156106000Y-103016107D01*
X156136781Y-102861358D01*
X156197162Y-102715586D01*
X156197163Y-102715584D01*
X156284822Y-102584392D01*
X156396392Y-102472822D01*
X156527584Y-102385163D01*
X156527586Y-102385162D01*
X156673358Y-102324781D01*
X156828107Y-102294000D01*
X156985893Y-102294000D01*
X157140642Y-102324781D01*
X157140642Y-102324781D01*
G37*
G36*
X154600642Y-102324781D02*
G01*
X154746414Y-102385162D01*
X154746416Y-102385163D01*
X154877608Y-102472822D01*
X154989178Y-102584392D01*
X155076837Y-102715584D01*
X155076838Y-102715586D01*
X155137219Y-102861358D01*
X155168000Y-103016107D01*
X155168000Y-103173893D01*
X155137219Y-103328642D01*
X155076838Y-103474414D01*
X155076837Y-103474416D01*
X154989178Y-103605608D01*
X154877608Y-103717178D01*
X154746416Y-103804837D01*
X154746415Y-103804838D01*
X154746414Y-103804838D01*
X154600642Y-103865219D01*
X154445893Y-103896000D01*
X154288107Y-103896000D01*
X154133358Y-103865219D01*
X153987586Y-103804838D01*
X153987585Y-103804838D01*
X153987584Y-103804837D01*
X153856392Y-103717178D01*
X153744822Y-103605608D01*
X153657163Y-103474416D01*
X153657162Y-103474414D01*
X153596781Y-103328642D01*
X153566000Y-103173893D01*
X153566000Y-103016107D01*
X153596781Y-102861358D01*
X153657162Y-102715586D01*
X153657163Y-102715584D01*
X153744822Y-102584392D01*
X153856392Y-102472822D01*
X153987584Y-102385163D01*
X153987586Y-102385162D01*
X154133358Y-102324781D01*
X154288107Y-102294000D01*
X154445893Y-102294000D01*
X154600642Y-102324781D01*
X154600642Y-102324781D01*
G37*
G36*
X172380642Y-102324781D02*
G01*
X172526414Y-102385162D01*
X172526416Y-102385163D01*
X172657608Y-102472822D01*
X172769178Y-102584392D01*
X172856837Y-102715584D01*
X172856838Y-102715586D01*
X172917219Y-102861358D01*
X172948000Y-103016107D01*
X172948000Y-103173893D01*
X172917219Y-103328642D01*
X172856838Y-103474414D01*
X172856837Y-103474416D01*
X172769178Y-103605608D01*
X172657608Y-103717178D01*
X172526416Y-103804837D01*
X172526415Y-103804838D01*
X172526414Y-103804838D01*
X172380642Y-103865219D01*
X172225893Y-103896000D01*
X172068107Y-103896000D01*
X171913358Y-103865219D01*
X171767586Y-103804838D01*
X171767585Y-103804838D01*
X171767584Y-103804837D01*
X171636392Y-103717178D01*
X171524822Y-103605608D01*
X171437163Y-103474416D01*
X171437162Y-103474414D01*
X171376781Y-103328642D01*
X171346000Y-103173893D01*
X171346000Y-103016107D01*
X171376781Y-102861358D01*
X171437162Y-102715586D01*
X171437163Y-102715584D01*
X171524822Y-102584392D01*
X171636392Y-102472822D01*
X171767584Y-102385163D01*
X171767586Y-102385162D01*
X171913358Y-102324781D01*
X172068107Y-102294000D01*
X172225893Y-102294000D01*
X172380642Y-102324781D01*
X172380642Y-102324781D01*
G37*
G36*
X152060642Y-102324781D02*
G01*
X152206414Y-102385162D01*
X152206416Y-102385163D01*
X152337608Y-102472822D01*
X152449178Y-102584392D01*
X152536837Y-102715584D01*
X152536838Y-102715586D01*
X152597219Y-102861358D01*
X152628000Y-103016107D01*
X152628000Y-103173893D01*
X152597219Y-103328642D01*
X152536838Y-103474414D01*
X152536837Y-103474416D01*
X152449178Y-103605608D01*
X152337608Y-103717178D01*
X152206416Y-103804837D01*
X152206415Y-103804838D01*
X152206414Y-103804838D01*
X152060642Y-103865219D01*
X151905893Y-103896000D01*
X151748107Y-103896000D01*
X151593358Y-103865219D01*
X151447586Y-103804838D01*
X151447585Y-103804838D01*
X151447584Y-103804837D01*
X151316392Y-103717178D01*
X151204822Y-103605608D01*
X151117163Y-103474416D01*
X151117162Y-103474414D01*
X151056781Y-103328642D01*
X151026000Y-103173893D01*
X151026000Y-103016107D01*
X151056781Y-102861358D01*
X151117162Y-102715586D01*
X151117163Y-102715584D01*
X151204822Y-102584392D01*
X151316392Y-102472822D01*
X151447584Y-102385163D01*
X151447586Y-102385162D01*
X151593358Y-102324781D01*
X151748107Y-102294000D01*
X151905893Y-102294000D01*
X152060642Y-102324781D01*
X152060642Y-102324781D01*
G37*
G36*
X144964000Y-103469000D02*
G01*
X144062000Y-103469000D01*
X144062000Y-102467000D01*
X144964000Y-102467000D01*
X144964000Y-103469000D01*
X144964000Y-103469000D01*
G37*
G36*
X181484000Y-103146000D02*
G01*
X179182000Y-103146000D01*
X179182000Y-101844000D01*
X181484000Y-101844000D01*
X181484000Y-103146000D01*
X181484000Y-103146000D01*
G37*
G36*
X144014000Y-101469000D02*
G01*
X143112000Y-101469000D01*
X143112000Y-100467000D01*
X144014000Y-100467000D01*
X144014000Y-101469000D01*
X144014000Y-101469000D01*
G37*
G36*
X145914000Y-101469000D02*
G01*
X145012000Y-101469000D01*
X145012000Y-100467000D01*
X145914000Y-100467000D01*
X145914000Y-101469000D01*
X145914000Y-101469000D01*
G37*
G36*
X183044811Y-97965271D02*
G01*
X183080603Y-97976129D01*
X183113595Y-97993763D01*
X183142508Y-98017492D01*
X183166237Y-98046405D01*
X183183871Y-98079397D01*
X183194729Y-98115189D01*
X183199000Y-98158555D01*
X183199000Y-100215445D01*
X183194729Y-100258811D01*
X183183871Y-100294603D01*
X183166237Y-100327595D01*
X183142508Y-100356508D01*
X183113595Y-100380237D01*
X183080603Y-100397871D01*
X183044811Y-100408729D01*
X183001445Y-100413000D01*
X181969555Y-100413000D01*
X181926189Y-100408729D01*
X181890397Y-100397871D01*
X181857405Y-100380237D01*
X181828492Y-100356508D01*
X181804763Y-100327595D01*
X181787129Y-100294603D01*
X181776271Y-100258811D01*
X181772000Y-100215445D01*
X181772000Y-98158555D01*
X181776271Y-98115189D01*
X181787129Y-98079397D01*
X181804763Y-98046405D01*
X181828492Y-98017492D01*
X181857405Y-97993763D01*
X181890397Y-97976129D01*
X181926189Y-97965271D01*
X181969555Y-97961000D01*
X183001445Y-97961000D01*
X183044811Y-97965271D01*
X183044811Y-97965271D01*
G37*
G36*
X186119811Y-97965271D02*
G01*
X186155603Y-97976129D01*
X186188595Y-97993763D01*
X186217508Y-98017492D01*
X186241237Y-98046405D01*
X186258871Y-98079397D01*
X186269729Y-98115189D01*
X186274000Y-98158555D01*
X186274000Y-100215445D01*
X186269729Y-100258811D01*
X186258871Y-100294603D01*
X186241237Y-100327595D01*
X186217508Y-100356508D01*
X186188595Y-100380237D01*
X186155603Y-100397871D01*
X186119811Y-100408729D01*
X186076445Y-100413000D01*
X185044555Y-100413000D01*
X185001189Y-100408729D01*
X184965397Y-100397871D01*
X184932405Y-100380237D01*
X184903492Y-100356508D01*
X184879763Y-100327595D01*
X184862129Y-100294603D01*
X184851271Y-100258811D01*
X184847000Y-100215445D01*
X184847000Y-98158555D01*
X184851271Y-98115189D01*
X184862129Y-98079397D01*
X184879763Y-98046405D01*
X184903492Y-98017492D01*
X184932405Y-97993763D01*
X184965397Y-97976129D01*
X185001189Y-97965271D01*
X185044555Y-97961000D01*
X186076445Y-97961000D01*
X186119811Y-97965271D01*
X186119811Y-97965271D01*
G37*
G36*
X134230618Y-98838465D02*
G01*
X134263433Y-98848419D01*
X134293665Y-98864579D01*
X134320170Y-98886330D01*
X134341921Y-98912835D01*
X134358081Y-98943067D01*
X134368035Y-98975882D01*
X134372000Y-99016140D01*
X134372000Y-99979860D01*
X134368035Y-100020118D01*
X134358081Y-100052933D01*
X134341921Y-100083165D01*
X134320170Y-100109670D01*
X134293665Y-100131421D01*
X134263433Y-100147581D01*
X134230618Y-100157535D01*
X134190360Y-100161500D01*
X133601640Y-100161500D01*
X133561382Y-100157535D01*
X133528567Y-100147581D01*
X133498335Y-100131421D01*
X133471830Y-100109670D01*
X133450079Y-100083165D01*
X133433919Y-100052933D01*
X133423965Y-100020118D01*
X133420000Y-99979860D01*
X133420000Y-99016140D01*
X133423965Y-98975882D01*
X133433919Y-98943067D01*
X133450079Y-98912835D01*
X133471830Y-98886330D01*
X133498335Y-98864579D01*
X133528567Y-98848419D01*
X133561382Y-98838465D01*
X133601640Y-98834500D01*
X134190360Y-98834500D01*
X134230618Y-98838465D01*
X134230618Y-98838465D01*
G37*
G36*
X127867000Y-99906500D02*
G01*
X126265000Y-99906500D01*
X126265000Y-98804500D01*
X127867000Y-98804500D01*
X127867000Y-99906500D01*
X127867000Y-99906500D01*
G37*
G36*
X131367000Y-99906500D02*
G01*
X129765000Y-99906500D01*
X129765000Y-98804500D01*
X131367000Y-98804500D01*
X131367000Y-99906500D01*
X131367000Y-99906500D01*
G37*
G36*
X145802499Y-98398445D02*
G01*
X145839995Y-98409820D01*
X145874554Y-98428292D01*
X145904847Y-98453153D01*
X145929708Y-98483446D01*
X145948180Y-98518005D01*
X145959555Y-98555501D01*
X145964000Y-98600638D01*
X145964000Y-99239362D01*
X145959555Y-99284499D01*
X145948180Y-99321995D01*
X145929708Y-99356554D01*
X145904847Y-99386847D01*
X145874554Y-99411708D01*
X145839995Y-99430180D01*
X145802499Y-99441555D01*
X145757362Y-99446000D01*
X145018638Y-99446000D01*
X144973501Y-99441555D01*
X144936005Y-99430180D01*
X144901446Y-99411708D01*
X144871153Y-99386847D01*
X144846292Y-99356554D01*
X144827820Y-99321995D01*
X144816445Y-99284499D01*
X144812000Y-99239362D01*
X144812000Y-98600638D01*
X144816445Y-98555501D01*
X144827820Y-98518005D01*
X144846292Y-98483446D01*
X144871153Y-98453153D01*
X144901446Y-98428292D01*
X144936005Y-98409820D01*
X144973501Y-98398445D01*
X145018638Y-98394000D01*
X145757362Y-98394000D01*
X145802499Y-98398445D01*
X145802499Y-98398445D01*
G37*
G36*
X144052499Y-98398445D02*
G01*
X144089995Y-98409820D01*
X144124554Y-98428292D01*
X144154847Y-98453153D01*
X144179708Y-98483446D01*
X144198180Y-98518005D01*
X144209555Y-98555501D01*
X144214000Y-98600638D01*
X144214000Y-99239362D01*
X144209555Y-99284499D01*
X144198180Y-99321995D01*
X144179708Y-99356554D01*
X144154847Y-99386847D01*
X144124554Y-99411708D01*
X144089995Y-99430180D01*
X144052499Y-99441555D01*
X144007362Y-99446000D01*
X143268638Y-99446000D01*
X143223501Y-99441555D01*
X143186005Y-99430180D01*
X143151446Y-99411708D01*
X143121153Y-99386847D01*
X143096292Y-99356554D01*
X143077820Y-99321995D01*
X143066445Y-99284499D01*
X143062000Y-99239362D01*
X143062000Y-98600638D01*
X143066445Y-98555501D01*
X143077820Y-98518005D01*
X143096292Y-98483446D01*
X143121153Y-98453153D01*
X143151446Y-98428292D01*
X143186005Y-98409820D01*
X143223501Y-98398445D01*
X143268638Y-98394000D01*
X144007362Y-98394000D01*
X144052499Y-98398445D01*
X144052499Y-98398445D01*
G37*
G36*
X115094000Y-98549000D02*
G01*
X113292000Y-98549000D01*
X113292000Y-96747000D01*
X115094000Y-96747000D01*
X115094000Y-98549000D01*
X115094000Y-98549000D01*
G37*
G36*
X134230618Y-97213465D02*
G01*
X134263433Y-97223419D01*
X134293665Y-97239579D01*
X134320170Y-97261330D01*
X134341921Y-97287835D01*
X134358081Y-97318067D01*
X134368035Y-97350882D01*
X134372000Y-97391140D01*
X134372000Y-98354860D01*
X134368035Y-98395118D01*
X134358081Y-98427933D01*
X134341921Y-98458165D01*
X134320170Y-98484670D01*
X134293665Y-98506421D01*
X134263433Y-98522581D01*
X134230618Y-98532535D01*
X134190360Y-98536500D01*
X133601640Y-98536500D01*
X133561382Y-98532535D01*
X133528567Y-98522581D01*
X133498335Y-98506421D01*
X133471830Y-98484670D01*
X133450079Y-98458165D01*
X133433919Y-98427933D01*
X133423965Y-98395118D01*
X133420000Y-98354860D01*
X133420000Y-97391140D01*
X133423965Y-97350882D01*
X133433919Y-97318067D01*
X133450079Y-97287835D01*
X133471830Y-97261330D01*
X133498335Y-97239579D01*
X133528567Y-97223419D01*
X133561382Y-97213465D01*
X133601640Y-97209500D01*
X134190360Y-97209500D01*
X134230618Y-97213465D01*
X134230618Y-97213465D01*
G37*
G36*
X127867000Y-98506500D02*
G01*
X126265000Y-98506500D01*
X126265000Y-97404500D01*
X127867000Y-97404500D01*
X127867000Y-98506500D01*
X127867000Y-98506500D01*
G37*
G36*
X131367000Y-98506500D02*
G01*
X129765000Y-98506500D01*
X129765000Y-97404500D01*
X131367000Y-97404500D01*
X131367000Y-98506500D01*
X131367000Y-98506500D01*
G37*
G36*
X182851500Y-96282000D02*
G01*
X181849500Y-96282000D01*
X181849500Y-94980000D01*
X182851500Y-94980000D01*
X182851500Y-96282000D01*
X182851500Y-96282000D01*
G37*
G36*
X186151500Y-96282000D02*
G01*
X185149500Y-96282000D01*
X185149500Y-94980000D01*
X186151500Y-94980000D01*
X186151500Y-96282000D01*
X186151500Y-96282000D01*
G37*
G36*
X159070666Y-94968445D02*
G01*
X159108162Y-94979820D01*
X159142721Y-94998292D01*
X159173014Y-95023153D01*
X159197875Y-95053446D01*
X159216347Y-95088005D01*
X159227722Y-95125501D01*
X159232167Y-95170638D01*
X159232167Y-95909362D01*
X159227722Y-95954499D01*
X159216347Y-95991995D01*
X159197875Y-96026554D01*
X159173014Y-96056847D01*
X159142721Y-96081708D01*
X159108162Y-96100180D01*
X159070666Y-96111555D01*
X159025529Y-96116000D01*
X158386805Y-96116000D01*
X158341668Y-96111555D01*
X158304172Y-96100180D01*
X158269613Y-96081708D01*
X158239320Y-96056847D01*
X158214459Y-96026554D01*
X158195987Y-95991995D01*
X158184612Y-95954499D01*
X158180167Y-95909362D01*
X158180167Y-95170638D01*
X158184612Y-95125501D01*
X158195987Y-95088005D01*
X158214459Y-95053446D01*
X158239320Y-95023153D01*
X158269613Y-94998292D01*
X158304172Y-94979820D01*
X158341668Y-94968445D01*
X158386805Y-94964000D01*
X159025529Y-94964000D01*
X159070666Y-94968445D01*
X159070666Y-94968445D01*
G37*
G36*
X153779000Y-94968445D02*
G01*
X153816496Y-94979820D01*
X153851055Y-94998292D01*
X153881348Y-95023153D01*
X153906209Y-95053446D01*
X153924681Y-95088005D01*
X153936056Y-95125501D01*
X153940501Y-95170638D01*
X153940501Y-95909362D01*
X153936056Y-95954499D01*
X153924681Y-95991995D01*
X153906209Y-96026554D01*
X153881348Y-96056847D01*
X153851055Y-96081708D01*
X153816496Y-96100180D01*
X153779000Y-96111555D01*
X153733863Y-96116000D01*
X153095139Y-96116000D01*
X153050002Y-96111555D01*
X153012506Y-96100180D01*
X152977947Y-96081708D01*
X152947654Y-96056847D01*
X152922793Y-96026554D01*
X152904321Y-95991995D01*
X152892946Y-95954499D01*
X152888501Y-95909362D01*
X152888501Y-95170638D01*
X152892946Y-95125501D01*
X152904321Y-95088005D01*
X152922793Y-95053446D01*
X152947654Y-95023153D01*
X152977947Y-94998292D01*
X153012506Y-94979820D01*
X153050002Y-94968445D01*
X153095139Y-94964000D01*
X153733863Y-94964000D01*
X153779000Y-94968445D01*
X153779000Y-94968445D01*
G37*
G36*
X156424833Y-94968445D02*
G01*
X156462329Y-94979820D01*
X156496888Y-94998292D01*
X156527181Y-95023153D01*
X156552042Y-95053446D01*
X156570514Y-95088005D01*
X156581889Y-95125501D01*
X156586334Y-95170638D01*
X156586334Y-95909362D01*
X156581889Y-95954499D01*
X156570514Y-95991995D01*
X156552042Y-96026554D01*
X156527181Y-96056847D01*
X156496888Y-96081708D01*
X156462329Y-96100180D01*
X156424833Y-96111555D01*
X156379696Y-96116000D01*
X155740972Y-96116000D01*
X155695835Y-96111555D01*
X155658339Y-96100180D01*
X155623780Y-96081708D01*
X155593487Y-96056847D01*
X155568626Y-96026554D01*
X155550154Y-95991995D01*
X155538779Y-95954499D01*
X155534334Y-95909362D01*
X155534334Y-95170638D01*
X155538779Y-95125501D01*
X155550154Y-95088005D01*
X155568626Y-95053446D01*
X155593487Y-95023153D01*
X155623780Y-94998292D01*
X155658339Y-94979820D01*
X155695835Y-94968445D01*
X155740972Y-94964000D01*
X156379696Y-94964000D01*
X156424833Y-94968445D01*
X156424833Y-94968445D01*
G37*
G36*
X161716499Y-94968445D02*
G01*
X161753995Y-94979820D01*
X161788554Y-94998292D01*
X161818847Y-95023153D01*
X161843708Y-95053446D01*
X161862180Y-95088005D01*
X161873555Y-95125501D01*
X161878000Y-95170638D01*
X161878000Y-95909362D01*
X161873555Y-95954499D01*
X161862180Y-95991995D01*
X161843708Y-96026554D01*
X161818847Y-96056847D01*
X161788554Y-96081708D01*
X161753995Y-96100180D01*
X161716499Y-96111555D01*
X161671362Y-96116000D01*
X161032638Y-96116000D01*
X160987501Y-96111555D01*
X160950005Y-96100180D01*
X160915446Y-96081708D01*
X160885153Y-96056847D01*
X160860292Y-96026554D01*
X160841820Y-95991995D01*
X160830445Y-95954499D01*
X160826000Y-95909362D01*
X160826000Y-95170638D01*
X160830445Y-95125501D01*
X160841820Y-95088005D01*
X160860292Y-95053446D01*
X160885153Y-95023153D01*
X160915446Y-94998292D01*
X160950005Y-94979820D01*
X160987501Y-94968445D01*
X161032638Y-94964000D01*
X161671362Y-94964000D01*
X161716499Y-94968445D01*
X161716499Y-94968445D01*
G37*
G36*
X164256499Y-94968445D02*
G01*
X164293995Y-94979820D01*
X164328554Y-94998292D01*
X164358847Y-95023153D01*
X164383708Y-95053446D01*
X164402180Y-95088005D01*
X164413555Y-95125501D01*
X164418000Y-95170638D01*
X164418000Y-95909362D01*
X164413555Y-95954499D01*
X164402180Y-95991995D01*
X164383708Y-96026554D01*
X164358847Y-96056847D01*
X164328554Y-96081708D01*
X164293995Y-96100180D01*
X164256499Y-96111555D01*
X164211362Y-96116000D01*
X163572638Y-96116000D01*
X163527501Y-96111555D01*
X163490005Y-96100180D01*
X163455446Y-96081708D01*
X163425153Y-96056847D01*
X163400292Y-96026554D01*
X163381820Y-95991995D01*
X163370445Y-95954499D01*
X163366000Y-95909362D01*
X163366000Y-95170638D01*
X163370445Y-95125501D01*
X163381820Y-95088005D01*
X163400292Y-95053446D01*
X163425153Y-95023153D01*
X163455446Y-94998292D01*
X163490005Y-94979820D01*
X163527501Y-94968445D01*
X163572638Y-94964000D01*
X164211362Y-94964000D01*
X164256499Y-94968445D01*
X164256499Y-94968445D01*
G37*
G36*
X166902334Y-94968445D02*
G01*
X166939830Y-94979820D01*
X166974389Y-94998292D01*
X167004682Y-95023153D01*
X167029543Y-95053446D01*
X167048015Y-95088005D01*
X167059390Y-95125501D01*
X167063835Y-95170638D01*
X167063835Y-95909362D01*
X167059390Y-95954499D01*
X167048015Y-95991995D01*
X167029543Y-96026554D01*
X167004682Y-96056847D01*
X166974389Y-96081708D01*
X166939830Y-96100180D01*
X166902334Y-96111555D01*
X166857197Y-96116000D01*
X166218473Y-96116000D01*
X166173336Y-96111555D01*
X166135840Y-96100180D01*
X166101281Y-96081708D01*
X166070988Y-96056847D01*
X166046127Y-96026554D01*
X166027655Y-95991995D01*
X166016280Y-95954499D01*
X166011835Y-95909362D01*
X166011835Y-95170638D01*
X166016280Y-95125501D01*
X166027655Y-95088005D01*
X166046127Y-95053446D01*
X166070988Y-95023153D01*
X166101281Y-94998292D01*
X166135840Y-94979820D01*
X166173336Y-94968445D01*
X166218473Y-94964000D01*
X166857197Y-94964000D01*
X166902334Y-94968445D01*
X166902334Y-94968445D01*
G37*
G36*
X114303442Y-94213518D02*
G01*
X114369627Y-94220037D01*
X114539466Y-94271557D01*
X114695991Y-94355222D01*
X114731729Y-94384552D01*
X114833186Y-94467814D01*
X114916448Y-94569271D01*
X114945778Y-94605009D01*
X115029443Y-94761534D01*
X115080963Y-94931373D01*
X115098359Y-95108000D01*
X115080963Y-95284627D01*
X115029443Y-95454466D01*
X114945778Y-95610991D01*
X114917047Y-95646000D01*
X114833186Y-95748186D01*
X114731729Y-95831448D01*
X114695991Y-95860778D01*
X114539466Y-95944443D01*
X114369627Y-95995963D01*
X114303443Y-96002481D01*
X114237260Y-96009000D01*
X114148740Y-96009000D01*
X114082557Y-96002481D01*
X114016373Y-95995963D01*
X113846534Y-95944443D01*
X113690009Y-95860778D01*
X113654271Y-95831448D01*
X113552814Y-95748186D01*
X113468953Y-95646000D01*
X113440222Y-95610991D01*
X113356557Y-95454466D01*
X113305037Y-95284627D01*
X113287641Y-95108000D01*
X113305037Y-94931373D01*
X113356557Y-94761534D01*
X113440222Y-94605009D01*
X113469552Y-94569271D01*
X113552814Y-94467814D01*
X113654271Y-94384552D01*
X113690009Y-94355222D01*
X113846534Y-94271557D01*
X114016373Y-94220037D01*
X114082558Y-94213518D01*
X114148740Y-94207000D01*
X114237260Y-94207000D01*
X114303442Y-94213518D01*
X114303442Y-94213518D01*
G37*
G36*
X126640499Y-94761445D02*
G01*
X126677995Y-94772820D01*
X126712554Y-94791292D01*
X126742847Y-94816153D01*
X126767708Y-94846446D01*
X126786180Y-94881005D01*
X126797555Y-94918501D01*
X126802000Y-94963638D01*
X126802000Y-95702362D01*
X126797555Y-95747499D01*
X126786180Y-95784995D01*
X126767708Y-95819554D01*
X126742847Y-95849847D01*
X126712554Y-95874708D01*
X126677995Y-95893180D01*
X126640499Y-95904555D01*
X126595362Y-95909000D01*
X125956638Y-95909000D01*
X125911501Y-95904555D01*
X125874005Y-95893180D01*
X125839446Y-95874708D01*
X125809153Y-95849847D01*
X125784292Y-95819554D01*
X125765820Y-95784995D01*
X125754445Y-95747499D01*
X125750000Y-95702362D01*
X125750000Y-94963638D01*
X125754445Y-94918501D01*
X125765820Y-94881005D01*
X125784292Y-94846446D01*
X125809153Y-94816153D01*
X125839446Y-94791292D01*
X125874005Y-94772820D01*
X125911501Y-94761445D01*
X125956638Y-94757000D01*
X126595362Y-94757000D01*
X126640499Y-94761445D01*
X126640499Y-94761445D01*
G37*
G36*
X131720499Y-94761445D02*
G01*
X131757995Y-94772820D01*
X131792554Y-94791292D01*
X131822847Y-94816153D01*
X131847708Y-94846446D01*
X131866180Y-94881005D01*
X131877555Y-94918501D01*
X131882000Y-94963638D01*
X131882000Y-95702362D01*
X131877555Y-95747499D01*
X131866180Y-95784995D01*
X131847708Y-95819554D01*
X131822847Y-95849847D01*
X131792554Y-95874708D01*
X131757995Y-95893180D01*
X131720499Y-95904555D01*
X131675362Y-95909000D01*
X131036638Y-95909000D01*
X130991501Y-95904555D01*
X130954005Y-95893180D01*
X130919446Y-95874708D01*
X130889153Y-95849847D01*
X130864292Y-95819554D01*
X130845820Y-95784995D01*
X130834445Y-95747499D01*
X130830000Y-95702362D01*
X130830000Y-94963638D01*
X130834445Y-94918501D01*
X130845820Y-94881005D01*
X130864292Y-94846446D01*
X130889153Y-94816153D01*
X130919446Y-94791292D01*
X130954005Y-94772820D01*
X130991501Y-94761445D01*
X131036638Y-94757000D01*
X131675362Y-94757000D01*
X131720499Y-94761445D01*
X131720499Y-94761445D01*
G37*
G36*
X134260499Y-94761445D02*
G01*
X134297995Y-94772820D01*
X134332554Y-94791292D01*
X134362847Y-94816153D01*
X134387708Y-94846446D01*
X134406180Y-94881005D01*
X134417555Y-94918501D01*
X134422000Y-94963638D01*
X134422000Y-95702362D01*
X134417555Y-95747499D01*
X134406180Y-95784995D01*
X134387708Y-95819554D01*
X134362847Y-95849847D01*
X134332554Y-95874708D01*
X134297995Y-95893180D01*
X134260499Y-95904555D01*
X134215362Y-95909000D01*
X133576638Y-95909000D01*
X133531501Y-95904555D01*
X133494005Y-95893180D01*
X133459446Y-95874708D01*
X133429153Y-95849847D01*
X133404292Y-95819554D01*
X133385820Y-95784995D01*
X133374445Y-95747499D01*
X133370000Y-95702362D01*
X133370000Y-94963638D01*
X133374445Y-94918501D01*
X133385820Y-94881005D01*
X133404292Y-94846446D01*
X133429153Y-94816153D01*
X133459446Y-94791292D01*
X133494005Y-94772820D01*
X133531501Y-94761445D01*
X133576638Y-94757000D01*
X134215362Y-94757000D01*
X134260499Y-94761445D01*
X134260499Y-94761445D01*
G37*
G36*
X129180499Y-94761445D02*
G01*
X129217995Y-94772820D01*
X129252554Y-94791292D01*
X129282847Y-94816153D01*
X129307708Y-94846446D01*
X129326180Y-94881005D01*
X129337555Y-94918501D01*
X129342000Y-94963638D01*
X129342000Y-95702362D01*
X129337555Y-95747499D01*
X129326180Y-95784995D01*
X129307708Y-95819554D01*
X129282847Y-95849847D01*
X129252554Y-95874708D01*
X129217995Y-95893180D01*
X129180499Y-95904555D01*
X129135362Y-95909000D01*
X128496638Y-95909000D01*
X128451501Y-95904555D01*
X128414005Y-95893180D01*
X128379446Y-95874708D01*
X128349153Y-95849847D01*
X128324292Y-95819554D01*
X128305820Y-95784995D01*
X128294445Y-95747499D01*
X128290000Y-95702362D01*
X128290000Y-94963638D01*
X128294445Y-94918501D01*
X128305820Y-94881005D01*
X128324292Y-94846446D01*
X128349153Y-94816153D01*
X128379446Y-94791292D01*
X128414005Y-94772820D01*
X128451501Y-94761445D01*
X128496638Y-94757000D01*
X129135362Y-94757000D01*
X129180499Y-94761445D01*
X129180499Y-94761445D01*
G37*
G36*
X159070666Y-93218445D02*
G01*
X159108162Y-93229820D01*
X159142721Y-93248292D01*
X159173014Y-93273153D01*
X159197875Y-93303446D01*
X159216347Y-93338005D01*
X159227722Y-93375501D01*
X159232167Y-93420638D01*
X159232167Y-94159362D01*
X159227722Y-94204499D01*
X159216347Y-94241995D01*
X159197875Y-94276554D01*
X159173014Y-94306847D01*
X159142721Y-94331708D01*
X159108162Y-94350180D01*
X159070666Y-94361555D01*
X159025529Y-94366000D01*
X158386805Y-94366000D01*
X158341668Y-94361555D01*
X158304172Y-94350180D01*
X158269613Y-94331708D01*
X158239320Y-94306847D01*
X158214459Y-94276554D01*
X158195987Y-94241995D01*
X158184612Y-94204499D01*
X158180167Y-94159362D01*
X158180167Y-93420638D01*
X158184612Y-93375501D01*
X158195987Y-93338005D01*
X158214459Y-93303446D01*
X158239320Y-93273153D01*
X158269613Y-93248292D01*
X158304172Y-93229820D01*
X158341668Y-93218445D01*
X158386805Y-93214000D01*
X159025529Y-93214000D01*
X159070666Y-93218445D01*
X159070666Y-93218445D01*
G37*
G36*
X161716499Y-93218445D02*
G01*
X161753995Y-93229820D01*
X161788554Y-93248292D01*
X161818847Y-93273153D01*
X161843708Y-93303446D01*
X161862180Y-93338005D01*
X161873555Y-93375501D01*
X161878000Y-93420638D01*
X161878000Y-94159362D01*
X161873555Y-94204499D01*
X161862180Y-94241995D01*
X161843708Y-94276554D01*
X161818847Y-94306847D01*
X161788554Y-94331708D01*
X161753995Y-94350180D01*
X161716499Y-94361555D01*
X161671362Y-94366000D01*
X161032638Y-94366000D01*
X160987501Y-94361555D01*
X160950005Y-94350180D01*
X160915446Y-94331708D01*
X160885153Y-94306847D01*
X160860292Y-94276554D01*
X160841820Y-94241995D01*
X160830445Y-94204499D01*
X160826000Y-94159362D01*
X160826000Y-93420638D01*
X160830445Y-93375501D01*
X160841820Y-93338005D01*
X160860292Y-93303446D01*
X160885153Y-93273153D01*
X160915446Y-93248292D01*
X160950005Y-93229820D01*
X160987501Y-93218445D01*
X161032638Y-93214000D01*
X161671362Y-93214000D01*
X161716499Y-93218445D01*
X161716499Y-93218445D01*
G37*
G36*
X156424833Y-93218445D02*
G01*
X156462329Y-93229820D01*
X156496888Y-93248292D01*
X156527181Y-93273153D01*
X156552042Y-93303446D01*
X156570514Y-93338005D01*
X156581889Y-93375501D01*
X156586334Y-93420638D01*
X156586334Y-94159362D01*
X156581889Y-94204499D01*
X156570514Y-94241995D01*
X156552042Y-94276554D01*
X156527181Y-94306847D01*
X156496888Y-94331708D01*
X156462329Y-94350180D01*
X156424833Y-94361555D01*
X156379696Y-94366000D01*
X155740972Y-94366000D01*
X155695835Y-94361555D01*
X155658339Y-94350180D01*
X155623780Y-94331708D01*
X155593487Y-94306847D01*
X155568626Y-94276554D01*
X155550154Y-94241995D01*
X155538779Y-94204499D01*
X155534334Y-94159362D01*
X155534334Y-93420638D01*
X155538779Y-93375501D01*
X155550154Y-93338005D01*
X155568626Y-93303446D01*
X155593487Y-93273153D01*
X155623780Y-93248292D01*
X155658339Y-93229820D01*
X155695835Y-93218445D01*
X155740972Y-93214000D01*
X156379696Y-93214000D01*
X156424833Y-93218445D01*
X156424833Y-93218445D01*
G37*
G36*
X166902334Y-93218445D02*
G01*
X166939830Y-93229820D01*
X166974389Y-93248292D01*
X167004682Y-93273153D01*
X167029543Y-93303446D01*
X167048015Y-93338005D01*
X167059390Y-93375501D01*
X167063835Y-93420638D01*
X167063835Y-94159362D01*
X167059390Y-94204499D01*
X167048015Y-94241995D01*
X167029543Y-94276554D01*
X167004682Y-94306847D01*
X166974389Y-94331708D01*
X166939830Y-94350180D01*
X166902334Y-94361555D01*
X166857197Y-94366000D01*
X166218473Y-94366000D01*
X166173336Y-94361555D01*
X166135840Y-94350180D01*
X166101281Y-94331708D01*
X166070988Y-94306847D01*
X166046127Y-94276554D01*
X166027655Y-94241995D01*
X166016280Y-94204499D01*
X166011835Y-94159362D01*
X166011835Y-93420638D01*
X166016280Y-93375501D01*
X166027655Y-93338005D01*
X166046127Y-93303446D01*
X166070988Y-93273153D01*
X166101281Y-93248292D01*
X166135840Y-93229820D01*
X166173336Y-93218445D01*
X166218473Y-93214000D01*
X166857197Y-93214000D01*
X166902334Y-93218445D01*
X166902334Y-93218445D01*
G37*
G36*
X164256499Y-93218445D02*
G01*
X164293995Y-93229820D01*
X164328554Y-93248292D01*
X164358847Y-93273153D01*
X164383708Y-93303446D01*
X164402180Y-93338005D01*
X164413555Y-93375501D01*
X164418000Y-93420638D01*
X164418000Y-94159362D01*
X164413555Y-94204499D01*
X164402180Y-94241995D01*
X164383708Y-94276554D01*
X164358847Y-94306847D01*
X164328554Y-94331708D01*
X164293995Y-94350180D01*
X164256499Y-94361555D01*
X164211362Y-94366000D01*
X163572638Y-94366000D01*
X163527501Y-94361555D01*
X163490005Y-94350180D01*
X163455446Y-94331708D01*
X163425153Y-94306847D01*
X163400292Y-94276554D01*
X163381820Y-94241995D01*
X163370445Y-94204499D01*
X163366000Y-94159362D01*
X163366000Y-93420638D01*
X163370445Y-93375501D01*
X163381820Y-93338005D01*
X163400292Y-93303446D01*
X163425153Y-93273153D01*
X163455446Y-93248292D01*
X163490005Y-93229820D01*
X163527501Y-93218445D01*
X163572638Y-93214000D01*
X164211362Y-93214000D01*
X164256499Y-93218445D01*
X164256499Y-93218445D01*
G37*
G36*
X153779000Y-93218445D02*
G01*
X153816496Y-93229820D01*
X153851055Y-93248292D01*
X153881348Y-93273153D01*
X153906209Y-93303446D01*
X153924681Y-93338005D01*
X153936056Y-93375501D01*
X153940501Y-93420638D01*
X153940501Y-94159362D01*
X153936056Y-94204499D01*
X153924681Y-94241995D01*
X153906209Y-94276554D01*
X153881348Y-94306847D01*
X153851055Y-94331708D01*
X153816496Y-94350180D01*
X153779000Y-94361555D01*
X153733863Y-94366000D01*
X153095139Y-94366000D01*
X153050002Y-94361555D01*
X153012506Y-94350180D01*
X152977947Y-94331708D01*
X152947654Y-94306847D01*
X152922793Y-94276554D01*
X152904321Y-94241995D01*
X152892946Y-94204499D01*
X152888501Y-94159362D01*
X152888501Y-93420638D01*
X152892946Y-93375501D01*
X152904321Y-93338005D01*
X152922793Y-93303446D01*
X152947654Y-93273153D01*
X152977947Y-93248292D01*
X153012506Y-93229820D01*
X153050002Y-93218445D01*
X153095139Y-93214000D01*
X153733863Y-93214000D01*
X153779000Y-93218445D01*
X153779000Y-93218445D01*
G37*
G36*
X140993991Y-93368685D02*
G01*
X141027969Y-93378993D01*
X141059290Y-93395734D01*
X141086739Y-93418261D01*
X141109266Y-93445710D01*
X141126007Y-93477031D01*
X141136315Y-93511009D01*
X141140400Y-93552490D01*
X141140400Y-94153710D01*
X141136315Y-94195191D01*
X141126007Y-94229169D01*
X141109266Y-94260490D01*
X141086739Y-94287939D01*
X141059290Y-94310466D01*
X141027969Y-94327207D01*
X140993991Y-94337515D01*
X140952510Y-94341600D01*
X140276290Y-94341600D01*
X140234809Y-94337515D01*
X140200831Y-94327207D01*
X140169510Y-94310466D01*
X140142061Y-94287939D01*
X140119534Y-94260490D01*
X140102793Y-94229169D01*
X140092485Y-94195191D01*
X140088400Y-94153710D01*
X140088400Y-93552490D01*
X140092485Y-93511009D01*
X140102793Y-93477031D01*
X140119534Y-93445710D01*
X140142061Y-93418261D01*
X140169510Y-93395734D01*
X140200831Y-93378993D01*
X140234809Y-93368685D01*
X140276290Y-93364600D01*
X140952510Y-93364600D01*
X140993991Y-93368685D01*
X140993991Y-93368685D01*
G37*
G36*
X129180499Y-93011445D02*
G01*
X129217995Y-93022820D01*
X129252554Y-93041292D01*
X129282847Y-93066153D01*
X129307708Y-93096446D01*
X129326180Y-93131005D01*
X129337555Y-93168501D01*
X129342000Y-93213638D01*
X129342000Y-93952362D01*
X129337555Y-93997499D01*
X129326180Y-94034995D01*
X129307708Y-94069554D01*
X129282847Y-94099847D01*
X129252554Y-94124708D01*
X129217995Y-94143180D01*
X129180499Y-94154555D01*
X129135362Y-94159000D01*
X128496638Y-94159000D01*
X128451501Y-94154555D01*
X128414005Y-94143180D01*
X128379446Y-94124708D01*
X128349153Y-94099847D01*
X128324292Y-94069554D01*
X128305820Y-94034995D01*
X128294445Y-93997499D01*
X128290000Y-93952362D01*
X128290000Y-93213638D01*
X128294445Y-93168501D01*
X128305820Y-93131005D01*
X128324292Y-93096446D01*
X128349153Y-93066153D01*
X128379446Y-93041292D01*
X128414005Y-93022820D01*
X128451501Y-93011445D01*
X128496638Y-93007000D01*
X129135362Y-93007000D01*
X129180499Y-93011445D01*
X129180499Y-93011445D01*
G37*
G36*
X131720499Y-93011445D02*
G01*
X131757995Y-93022820D01*
X131792554Y-93041292D01*
X131822847Y-93066153D01*
X131847708Y-93096446D01*
X131866180Y-93131005D01*
X131877555Y-93168501D01*
X131882000Y-93213638D01*
X131882000Y-93952362D01*
X131877555Y-93997499D01*
X131866180Y-94034995D01*
X131847708Y-94069554D01*
X131822847Y-94099847D01*
X131792554Y-94124708D01*
X131757995Y-94143180D01*
X131720499Y-94154555D01*
X131675362Y-94159000D01*
X131036638Y-94159000D01*
X130991501Y-94154555D01*
X130954005Y-94143180D01*
X130919446Y-94124708D01*
X130889153Y-94099847D01*
X130864292Y-94069554D01*
X130845820Y-94034995D01*
X130834445Y-93997499D01*
X130830000Y-93952362D01*
X130830000Y-93213638D01*
X130834445Y-93168501D01*
X130845820Y-93131005D01*
X130864292Y-93096446D01*
X130889153Y-93066153D01*
X130919446Y-93041292D01*
X130954005Y-93022820D01*
X130991501Y-93011445D01*
X131036638Y-93007000D01*
X131675362Y-93007000D01*
X131720499Y-93011445D01*
X131720499Y-93011445D01*
G37*
G36*
X134260499Y-93011445D02*
G01*
X134297995Y-93022820D01*
X134332554Y-93041292D01*
X134362847Y-93066153D01*
X134387708Y-93096446D01*
X134406180Y-93131005D01*
X134417555Y-93168501D01*
X134422000Y-93213638D01*
X134422000Y-93952362D01*
X134417555Y-93997499D01*
X134406180Y-94034995D01*
X134387708Y-94069554D01*
X134362847Y-94099847D01*
X134332554Y-94124708D01*
X134297995Y-94143180D01*
X134260499Y-94154555D01*
X134215362Y-94159000D01*
X133576638Y-94159000D01*
X133531501Y-94154555D01*
X133494005Y-94143180D01*
X133459446Y-94124708D01*
X133429153Y-94099847D01*
X133404292Y-94069554D01*
X133385820Y-94034995D01*
X133374445Y-93997499D01*
X133370000Y-93952362D01*
X133370000Y-93213638D01*
X133374445Y-93168501D01*
X133385820Y-93131005D01*
X133404292Y-93096446D01*
X133429153Y-93066153D01*
X133459446Y-93041292D01*
X133494005Y-93022820D01*
X133531501Y-93011445D01*
X133576638Y-93007000D01*
X134215362Y-93007000D01*
X134260499Y-93011445D01*
X134260499Y-93011445D01*
G37*
G36*
X126640499Y-93011445D02*
G01*
X126677995Y-93022820D01*
X126712554Y-93041292D01*
X126742847Y-93066153D01*
X126767708Y-93096446D01*
X126786180Y-93131005D01*
X126797555Y-93168501D01*
X126802000Y-93213638D01*
X126802000Y-93952362D01*
X126797555Y-93997499D01*
X126786180Y-94034995D01*
X126767708Y-94069554D01*
X126742847Y-94099847D01*
X126712554Y-94124708D01*
X126677995Y-94143180D01*
X126640499Y-94154555D01*
X126595362Y-94159000D01*
X125956638Y-94159000D01*
X125911501Y-94154555D01*
X125874005Y-94143180D01*
X125839446Y-94124708D01*
X125809153Y-94099847D01*
X125784292Y-94069554D01*
X125765820Y-94034995D01*
X125754445Y-93997499D01*
X125750000Y-93952362D01*
X125750000Y-93213638D01*
X125754445Y-93168501D01*
X125765820Y-93131005D01*
X125784292Y-93096446D01*
X125809153Y-93066153D01*
X125839446Y-93041292D01*
X125874005Y-93022820D01*
X125911501Y-93011445D01*
X125956638Y-93007000D01*
X126595362Y-93007000D01*
X126640499Y-93011445D01*
X126640499Y-93011445D01*
G37*
G36*
X114303443Y-91673519D02*
G01*
X114369627Y-91680037D01*
X114539466Y-91731557D01*
X114695991Y-91815222D01*
X114730156Y-91843261D01*
X114833186Y-91927814D01*
X114916448Y-92029271D01*
X114945778Y-92065009D01*
X115029443Y-92221534D01*
X115080963Y-92391373D01*
X115098359Y-92568000D01*
X115080963Y-92744627D01*
X115029443Y-92914466D01*
X114945778Y-93070991D01*
X114935076Y-93084031D01*
X114833186Y-93208186D01*
X114757864Y-93270000D01*
X114695991Y-93320778D01*
X114539466Y-93404443D01*
X114369627Y-93455963D01*
X114303442Y-93462482D01*
X114237260Y-93469000D01*
X114148740Y-93469000D01*
X114082558Y-93462482D01*
X114016373Y-93455963D01*
X113846534Y-93404443D01*
X113690009Y-93320778D01*
X113628136Y-93270000D01*
X113552814Y-93208186D01*
X113450924Y-93084031D01*
X113440222Y-93070991D01*
X113356557Y-92914466D01*
X113305037Y-92744627D01*
X113287641Y-92568000D01*
X113305037Y-92391373D01*
X113356557Y-92221534D01*
X113440222Y-92065009D01*
X113469552Y-92029271D01*
X113552814Y-91927814D01*
X113655844Y-91843261D01*
X113690009Y-91815222D01*
X113846534Y-91731557D01*
X114016373Y-91680037D01*
X114082557Y-91673519D01*
X114148740Y-91667000D01*
X114237260Y-91667000D01*
X114303443Y-91673519D01*
X114303443Y-91673519D01*
G37*
G36*
X140993991Y-91793685D02*
G01*
X141027969Y-91803993D01*
X141059290Y-91820734D01*
X141086739Y-91843261D01*
X141109266Y-91870710D01*
X141126007Y-91902031D01*
X141136315Y-91936009D01*
X141140400Y-91977490D01*
X141140400Y-92578710D01*
X141136315Y-92620191D01*
X141126007Y-92654169D01*
X141109266Y-92685490D01*
X141086739Y-92712939D01*
X141059290Y-92735466D01*
X141027969Y-92752207D01*
X140993991Y-92762515D01*
X140952510Y-92766600D01*
X140276290Y-92766600D01*
X140234809Y-92762515D01*
X140200831Y-92752207D01*
X140169510Y-92735466D01*
X140142061Y-92712939D01*
X140119534Y-92685490D01*
X140102793Y-92654169D01*
X140092485Y-92620191D01*
X140088400Y-92578710D01*
X140088400Y-91977490D01*
X140092485Y-91936009D01*
X140102793Y-91902031D01*
X140119534Y-91870710D01*
X140142061Y-91843261D01*
X140169510Y-91820734D01*
X140200831Y-91803993D01*
X140234809Y-91793685D01*
X140276290Y-91789600D01*
X140952510Y-91789600D01*
X140993991Y-91793685D01*
X140993991Y-91793685D01*
G37*
G36*
X187835132Y-90117810D02*
G01*
X187866423Y-90127302D01*
X187895263Y-90142717D01*
X187920539Y-90163461D01*
X187941283Y-90188737D01*
X187956698Y-90217577D01*
X187966190Y-90248868D01*
X187970000Y-90287551D01*
X187970000Y-92592449D01*
X187966190Y-92631132D01*
X187956698Y-92662423D01*
X187941283Y-92691263D01*
X187920539Y-92716539D01*
X187895263Y-92737283D01*
X187866423Y-92752698D01*
X187835132Y-92762190D01*
X187796449Y-92766000D01*
X185966551Y-92766000D01*
X185927868Y-92762190D01*
X185896577Y-92752698D01*
X185867737Y-92737283D01*
X185842461Y-92716539D01*
X185821717Y-92691263D01*
X185806302Y-92662423D01*
X185796810Y-92631132D01*
X185793000Y-92592449D01*
X185793000Y-90287551D01*
X185796810Y-90248868D01*
X185806302Y-90217577D01*
X185821717Y-90188737D01*
X185842461Y-90163461D01*
X185867737Y-90142717D01*
X185896577Y-90127302D01*
X185927868Y-90117810D01*
X185966551Y-90114000D01*
X187796449Y-90114000D01*
X187835132Y-90117810D01*
X187835132Y-90117810D01*
G37*
G36*
X181610132Y-90117810D02*
G01*
X181641423Y-90127302D01*
X181670263Y-90142717D01*
X181695539Y-90163461D01*
X181716283Y-90188737D01*
X181731698Y-90217577D01*
X181741190Y-90248868D01*
X181745000Y-90287551D01*
X181745000Y-92592449D01*
X181741190Y-92631132D01*
X181731698Y-92662423D01*
X181716283Y-92691263D01*
X181695539Y-92716539D01*
X181670263Y-92737283D01*
X181641423Y-92752698D01*
X181610132Y-92762190D01*
X181571449Y-92766000D01*
X179741551Y-92766000D01*
X179702868Y-92762190D01*
X179671577Y-92752698D01*
X179642737Y-92737283D01*
X179617461Y-92716539D01*
X179596717Y-92691263D01*
X179581302Y-92662423D01*
X179571810Y-92631132D01*
X179568000Y-92592449D01*
X179568000Y-90287551D01*
X179571810Y-90248868D01*
X179581302Y-90217577D01*
X179596717Y-90188737D01*
X179617461Y-90163461D01*
X179642737Y-90142717D01*
X179671577Y-90127302D01*
X179702868Y-90117810D01*
X179741551Y-90114000D01*
X181571449Y-90114000D01*
X181610132Y-90117810D01*
X181610132Y-90117810D01*
G37*
G36*
X114303442Y-89133518D02*
G01*
X114369627Y-89140037D01*
X114539466Y-89191557D01*
X114695991Y-89275222D01*
X114731729Y-89304552D01*
X114833186Y-89387814D01*
X114916448Y-89489271D01*
X114945778Y-89525009D01*
X115029443Y-89681534D01*
X115080963Y-89851373D01*
X115098359Y-90028000D01*
X115080963Y-90204627D01*
X115029443Y-90374466D01*
X114945778Y-90530991D01*
X114916448Y-90566729D01*
X114833186Y-90668186D01*
X114731729Y-90751448D01*
X114695991Y-90780778D01*
X114539466Y-90864443D01*
X114369627Y-90915963D01*
X114303442Y-90922482D01*
X114237260Y-90929000D01*
X114148740Y-90929000D01*
X114082558Y-90922482D01*
X114016373Y-90915963D01*
X113846534Y-90864443D01*
X113690009Y-90780778D01*
X113654271Y-90751448D01*
X113552814Y-90668186D01*
X113469552Y-90566729D01*
X113440222Y-90530991D01*
X113356557Y-90374466D01*
X113305037Y-90204627D01*
X113287641Y-90028000D01*
X113305037Y-89851373D01*
X113356557Y-89681534D01*
X113440222Y-89525009D01*
X113469552Y-89489271D01*
X113552814Y-89387814D01*
X113654271Y-89304552D01*
X113690009Y-89275222D01*
X113846534Y-89191557D01*
X114016373Y-89140037D01*
X114082558Y-89133518D01*
X114148740Y-89127000D01*
X114237260Y-89127000D01*
X114303442Y-89133518D01*
X114303442Y-89133518D01*
G37*
G36*
X169138823Y-88841313D02*
G01*
X169299242Y-88889976D01*
X169431906Y-88960886D01*
X169447078Y-88968996D01*
X169576659Y-89075341D01*
X169683004Y-89204922D01*
X169683005Y-89204924D01*
X169762024Y-89352758D01*
X169810687Y-89513177D01*
X169827117Y-89680000D01*
X169810687Y-89846823D01*
X169762024Y-90007242D01*
X169694746Y-90133110D01*
X169683004Y-90155078D01*
X169576659Y-90284659D01*
X169447078Y-90391004D01*
X169447076Y-90391005D01*
X169299242Y-90470024D01*
X169138823Y-90518687D01*
X169013804Y-90531000D01*
X168930196Y-90531000D01*
X168805177Y-90518687D01*
X168644758Y-90470024D01*
X168496924Y-90391005D01*
X168496922Y-90391004D01*
X168367341Y-90284659D01*
X168260996Y-90155078D01*
X168249254Y-90133110D01*
X168181976Y-90007242D01*
X168133313Y-89846823D01*
X168116883Y-89680000D01*
X168133313Y-89513177D01*
X168181976Y-89352758D01*
X168260995Y-89204924D01*
X168260996Y-89204922D01*
X168367341Y-89075341D01*
X168496922Y-88968996D01*
X168512094Y-88960886D01*
X168644758Y-88889976D01*
X168805177Y-88841313D01*
X168930196Y-88829000D01*
X169013804Y-88829000D01*
X169138823Y-88841313D01*
X169138823Y-88841313D01*
G37*
G36*
X151358823Y-88841313D02*
G01*
X151519242Y-88889976D01*
X151651906Y-88960886D01*
X151667078Y-88968996D01*
X151796659Y-89075341D01*
X151903004Y-89204922D01*
X151903005Y-89204924D01*
X151982024Y-89352758D01*
X152030687Y-89513177D01*
X152047117Y-89680000D01*
X152030687Y-89846823D01*
X151982024Y-90007242D01*
X151914746Y-90133110D01*
X151903004Y-90155078D01*
X151796659Y-90284659D01*
X151667078Y-90391004D01*
X151667076Y-90391005D01*
X151519242Y-90470024D01*
X151358823Y-90518687D01*
X151233804Y-90531000D01*
X151150196Y-90531000D01*
X151025177Y-90518687D01*
X150864758Y-90470024D01*
X150716924Y-90391005D01*
X150716922Y-90391004D01*
X150587341Y-90284659D01*
X150480996Y-90155078D01*
X150469254Y-90133110D01*
X150401976Y-90007242D01*
X150353313Y-89846823D01*
X150336883Y-89680000D01*
X150353313Y-89513177D01*
X150401976Y-89352758D01*
X150480995Y-89204924D01*
X150480996Y-89204922D01*
X150587341Y-89075341D01*
X150716922Y-88968996D01*
X150732094Y-88960886D01*
X150864758Y-88889976D01*
X151025177Y-88841313D01*
X151150196Y-88829000D01*
X151233804Y-88829000D01*
X151358823Y-88841313D01*
X151358823Y-88841313D01*
G37*
G36*
X153898823Y-88841313D02*
G01*
X154059242Y-88889976D01*
X154191906Y-88960886D01*
X154207078Y-88968996D01*
X154336659Y-89075341D01*
X154443004Y-89204922D01*
X154443005Y-89204924D01*
X154522024Y-89352758D01*
X154570687Y-89513177D01*
X154587117Y-89680000D01*
X154570687Y-89846823D01*
X154522024Y-90007242D01*
X154454746Y-90133110D01*
X154443004Y-90155078D01*
X154336659Y-90284659D01*
X154207078Y-90391004D01*
X154207076Y-90391005D01*
X154059242Y-90470024D01*
X153898823Y-90518687D01*
X153773804Y-90531000D01*
X153690196Y-90531000D01*
X153565177Y-90518687D01*
X153404758Y-90470024D01*
X153256924Y-90391005D01*
X153256922Y-90391004D01*
X153127341Y-90284659D01*
X153020996Y-90155078D01*
X153009254Y-90133110D01*
X152941976Y-90007242D01*
X152893313Y-89846823D01*
X152876883Y-89680000D01*
X152893313Y-89513177D01*
X152941976Y-89352758D01*
X153020995Y-89204924D01*
X153020996Y-89204922D01*
X153127341Y-89075341D01*
X153256922Y-88968996D01*
X153272094Y-88960886D01*
X153404758Y-88889976D01*
X153565177Y-88841313D01*
X153690196Y-88829000D01*
X153773804Y-88829000D01*
X153898823Y-88841313D01*
X153898823Y-88841313D01*
G37*
G36*
X156438823Y-88841313D02*
G01*
X156599242Y-88889976D01*
X156731906Y-88960886D01*
X156747078Y-88968996D01*
X156876659Y-89075341D01*
X156983004Y-89204922D01*
X156983005Y-89204924D01*
X157062024Y-89352758D01*
X157110687Y-89513177D01*
X157127117Y-89680000D01*
X157110687Y-89846823D01*
X157062024Y-90007242D01*
X156994746Y-90133110D01*
X156983004Y-90155078D01*
X156876659Y-90284659D01*
X156747078Y-90391004D01*
X156747076Y-90391005D01*
X156599242Y-90470024D01*
X156438823Y-90518687D01*
X156313804Y-90531000D01*
X156230196Y-90531000D01*
X156105177Y-90518687D01*
X155944758Y-90470024D01*
X155796924Y-90391005D01*
X155796922Y-90391004D01*
X155667341Y-90284659D01*
X155560996Y-90155078D01*
X155549254Y-90133110D01*
X155481976Y-90007242D01*
X155433313Y-89846823D01*
X155416883Y-89680000D01*
X155433313Y-89513177D01*
X155481976Y-89352758D01*
X155560995Y-89204924D01*
X155560996Y-89204922D01*
X155667341Y-89075341D01*
X155796922Y-88968996D01*
X155812094Y-88960886D01*
X155944758Y-88889976D01*
X156105177Y-88841313D01*
X156230196Y-88829000D01*
X156313804Y-88829000D01*
X156438823Y-88841313D01*
X156438823Y-88841313D01*
G37*
G36*
X158978823Y-88841313D02*
G01*
X159139242Y-88889976D01*
X159271906Y-88960886D01*
X159287078Y-88968996D01*
X159416659Y-89075341D01*
X159523004Y-89204922D01*
X159523005Y-89204924D01*
X159602024Y-89352758D01*
X159650687Y-89513177D01*
X159667117Y-89680000D01*
X159650687Y-89846823D01*
X159602024Y-90007242D01*
X159534746Y-90133110D01*
X159523004Y-90155078D01*
X159416659Y-90284659D01*
X159287078Y-90391004D01*
X159287076Y-90391005D01*
X159139242Y-90470024D01*
X158978823Y-90518687D01*
X158853804Y-90531000D01*
X158770196Y-90531000D01*
X158645177Y-90518687D01*
X158484758Y-90470024D01*
X158336924Y-90391005D01*
X158336922Y-90391004D01*
X158207341Y-90284659D01*
X158100996Y-90155078D01*
X158089254Y-90133110D01*
X158021976Y-90007242D01*
X157973313Y-89846823D01*
X157956883Y-89680000D01*
X157973313Y-89513177D01*
X158021976Y-89352758D01*
X158100995Y-89204924D01*
X158100996Y-89204922D01*
X158207341Y-89075341D01*
X158336922Y-88968996D01*
X158352094Y-88960886D01*
X158484758Y-88889976D01*
X158645177Y-88841313D01*
X158770196Y-88829000D01*
X158853804Y-88829000D01*
X158978823Y-88841313D01*
X158978823Y-88841313D01*
G37*
G36*
X161518823Y-88841313D02*
G01*
X161679242Y-88889976D01*
X161811906Y-88960886D01*
X161827078Y-88968996D01*
X161956659Y-89075341D01*
X162063004Y-89204922D01*
X162063005Y-89204924D01*
X162142024Y-89352758D01*
X162190687Y-89513177D01*
X162207117Y-89680000D01*
X162190687Y-89846823D01*
X162142024Y-90007242D01*
X162074746Y-90133110D01*
X162063004Y-90155078D01*
X161956659Y-90284659D01*
X161827078Y-90391004D01*
X161827076Y-90391005D01*
X161679242Y-90470024D01*
X161518823Y-90518687D01*
X161393804Y-90531000D01*
X161310196Y-90531000D01*
X161185177Y-90518687D01*
X161024758Y-90470024D01*
X160876924Y-90391005D01*
X160876922Y-90391004D01*
X160747341Y-90284659D01*
X160640996Y-90155078D01*
X160629254Y-90133110D01*
X160561976Y-90007242D01*
X160513313Y-89846823D01*
X160496883Y-89680000D01*
X160513313Y-89513177D01*
X160561976Y-89352758D01*
X160640995Y-89204924D01*
X160640996Y-89204922D01*
X160747341Y-89075341D01*
X160876922Y-88968996D01*
X160892094Y-88960886D01*
X161024758Y-88889976D01*
X161185177Y-88841313D01*
X161310196Y-88829000D01*
X161393804Y-88829000D01*
X161518823Y-88841313D01*
X161518823Y-88841313D01*
G37*
G36*
X164058823Y-88841313D02*
G01*
X164219242Y-88889976D01*
X164351906Y-88960886D01*
X164367078Y-88968996D01*
X164496659Y-89075341D01*
X164603004Y-89204922D01*
X164603005Y-89204924D01*
X164682024Y-89352758D01*
X164730687Y-89513177D01*
X164747117Y-89680000D01*
X164730687Y-89846823D01*
X164682024Y-90007242D01*
X164614746Y-90133110D01*
X164603004Y-90155078D01*
X164496659Y-90284659D01*
X164367078Y-90391004D01*
X164367076Y-90391005D01*
X164219242Y-90470024D01*
X164058823Y-90518687D01*
X163933804Y-90531000D01*
X163850196Y-90531000D01*
X163725177Y-90518687D01*
X163564758Y-90470024D01*
X163416924Y-90391005D01*
X163416922Y-90391004D01*
X163287341Y-90284659D01*
X163180996Y-90155078D01*
X163169254Y-90133110D01*
X163101976Y-90007242D01*
X163053313Y-89846823D01*
X163036883Y-89680000D01*
X163053313Y-89513177D01*
X163101976Y-89352758D01*
X163180995Y-89204924D01*
X163180996Y-89204922D01*
X163287341Y-89075341D01*
X163416922Y-88968996D01*
X163432094Y-88960886D01*
X163564758Y-88889976D01*
X163725177Y-88841313D01*
X163850196Y-88829000D01*
X163933804Y-88829000D01*
X164058823Y-88841313D01*
X164058823Y-88841313D01*
G37*
G36*
X166598823Y-88841313D02*
G01*
X166759242Y-88889976D01*
X166891906Y-88960886D01*
X166907078Y-88968996D01*
X167036659Y-89075341D01*
X167143004Y-89204922D01*
X167143005Y-89204924D01*
X167222024Y-89352758D01*
X167270687Y-89513177D01*
X167287117Y-89680000D01*
X167270687Y-89846823D01*
X167222024Y-90007242D01*
X167154746Y-90133110D01*
X167143004Y-90155078D01*
X167036659Y-90284659D01*
X166907078Y-90391004D01*
X166907076Y-90391005D01*
X166759242Y-90470024D01*
X166598823Y-90518687D01*
X166473804Y-90531000D01*
X166390196Y-90531000D01*
X166265177Y-90518687D01*
X166104758Y-90470024D01*
X165956924Y-90391005D01*
X165956922Y-90391004D01*
X165827341Y-90284659D01*
X165720996Y-90155078D01*
X165709254Y-90133110D01*
X165641976Y-90007242D01*
X165593313Y-89846823D01*
X165576883Y-89680000D01*
X165593313Y-89513177D01*
X165641976Y-89352758D01*
X165720995Y-89204924D01*
X165720996Y-89204922D01*
X165827341Y-89075341D01*
X165956922Y-88968996D01*
X165972094Y-88960886D01*
X166104758Y-88889976D01*
X166265177Y-88841313D01*
X166390196Y-88829000D01*
X166473804Y-88829000D01*
X166598823Y-88841313D01*
X166598823Y-88841313D01*
G37*
G36*
X172526591Y-89348085D02*
G01*
X172560569Y-89358393D01*
X172591890Y-89375134D01*
X172619339Y-89397661D01*
X172641866Y-89425110D01*
X172658607Y-89456431D01*
X172668915Y-89490409D01*
X172673000Y-89531890D01*
X172673000Y-90133110D01*
X172668915Y-90174591D01*
X172658607Y-90208569D01*
X172641866Y-90239890D01*
X172619339Y-90267339D01*
X172591890Y-90289866D01*
X172560569Y-90306607D01*
X172526591Y-90316915D01*
X172485110Y-90321000D01*
X171808890Y-90321000D01*
X171767409Y-90316915D01*
X171733431Y-90306607D01*
X171702110Y-90289866D01*
X171674661Y-90267339D01*
X171652134Y-90239890D01*
X171635393Y-90208569D01*
X171625085Y-90174591D01*
X171621000Y-90133110D01*
X171621000Y-89531890D01*
X171625085Y-89490409D01*
X171635393Y-89456431D01*
X171652134Y-89425110D01*
X171674661Y-89397661D01*
X171702110Y-89375134D01*
X171733431Y-89358393D01*
X171767409Y-89348085D01*
X171808890Y-89344000D01*
X172485110Y-89344000D01*
X172526591Y-89348085D01*
X172526591Y-89348085D01*
G37*
G36*
X145050642Y-88233281D02*
G01*
X145196414Y-88293662D01*
X145196416Y-88293663D01*
X145327608Y-88381322D01*
X145439178Y-88492892D01*
X145510471Y-88599591D01*
X145526838Y-88624086D01*
X145587219Y-88769858D01*
X145618000Y-88924607D01*
X145618000Y-89082393D01*
X145587219Y-89237142D01*
X145526838Y-89382914D01*
X145526837Y-89382916D01*
X145439178Y-89514108D01*
X145327608Y-89625678D01*
X145196416Y-89713337D01*
X145196415Y-89713338D01*
X145196414Y-89713338D01*
X145050642Y-89773719D01*
X144895893Y-89804500D01*
X144738107Y-89804500D01*
X144583358Y-89773719D01*
X144437586Y-89713338D01*
X144437585Y-89713338D01*
X144437584Y-89713337D01*
X144306392Y-89625678D01*
X144194822Y-89514108D01*
X144107163Y-89382916D01*
X144107162Y-89382914D01*
X144046781Y-89237142D01*
X144016000Y-89082393D01*
X144016000Y-88924607D01*
X144046781Y-88769858D01*
X144107162Y-88624086D01*
X144123529Y-88599591D01*
X144194822Y-88492892D01*
X144306392Y-88381322D01*
X144437584Y-88293663D01*
X144437586Y-88293662D01*
X144583358Y-88233281D01*
X144738107Y-88202500D01*
X144895893Y-88202500D01*
X145050642Y-88233281D01*
X145050642Y-88233281D01*
G37*
G36*
X172526591Y-87773085D02*
G01*
X172560569Y-87783393D01*
X172591890Y-87800134D01*
X172619339Y-87822661D01*
X172641866Y-87850110D01*
X172658607Y-87881431D01*
X172668915Y-87915409D01*
X172673000Y-87956890D01*
X172673000Y-88558110D01*
X172668915Y-88599591D01*
X172658607Y-88633569D01*
X172641866Y-88664890D01*
X172619339Y-88692339D01*
X172591890Y-88714866D01*
X172560569Y-88731607D01*
X172526591Y-88741915D01*
X172485110Y-88746000D01*
X171808890Y-88746000D01*
X171767409Y-88741915D01*
X171733431Y-88731607D01*
X171702110Y-88714866D01*
X171674661Y-88692339D01*
X171652134Y-88664890D01*
X171635393Y-88633569D01*
X171625085Y-88599591D01*
X171621000Y-88558110D01*
X171621000Y-87956890D01*
X171625085Y-87915409D01*
X171635393Y-87881431D01*
X171652134Y-87850110D01*
X171674661Y-87822661D01*
X171702110Y-87800134D01*
X171733431Y-87783393D01*
X171767409Y-87773085D01*
X171808890Y-87769000D01*
X172485110Y-87769000D01*
X172526591Y-87773085D01*
X172526591Y-87773085D01*
G37*
G36*
X131211591Y-86984085D02*
G01*
X131245569Y-86994393D01*
X131276890Y-87011134D01*
X131304339Y-87033661D01*
X131326866Y-87061110D01*
X131343607Y-87092431D01*
X131353915Y-87126409D01*
X131358000Y-87167890D01*
X131358000Y-87844110D01*
X131353915Y-87885591D01*
X131343607Y-87919569D01*
X131326866Y-87950890D01*
X131304339Y-87978339D01*
X131276890Y-88000866D01*
X131245569Y-88017607D01*
X131211591Y-88027915D01*
X131170110Y-88032000D01*
X130568890Y-88032000D01*
X130527409Y-88027915D01*
X130493431Y-88017607D01*
X130462110Y-88000866D01*
X130434661Y-87978339D01*
X130412134Y-87950890D01*
X130395393Y-87919569D01*
X130385085Y-87885591D01*
X130381000Y-87844110D01*
X130381000Y-87167890D01*
X130385085Y-87126409D01*
X130395393Y-87092431D01*
X130412134Y-87061110D01*
X130434661Y-87033661D01*
X130462110Y-87011134D01*
X130493431Y-86994393D01*
X130527409Y-86984085D01*
X130568890Y-86980000D01*
X131170110Y-86980000D01*
X131211591Y-86984085D01*
X131211591Y-86984085D01*
G37*
G36*
X132786591Y-86984085D02*
G01*
X132820569Y-86994393D01*
X132851890Y-87011134D01*
X132879339Y-87033661D01*
X132901866Y-87061110D01*
X132918607Y-87092431D01*
X132928915Y-87126409D01*
X132933000Y-87167890D01*
X132933000Y-87844110D01*
X132928915Y-87885591D01*
X132918607Y-87919569D01*
X132901866Y-87950890D01*
X132879339Y-87978339D01*
X132851890Y-88000866D01*
X132820569Y-88017607D01*
X132786591Y-88027915D01*
X132745110Y-88032000D01*
X132143890Y-88032000D01*
X132102409Y-88027915D01*
X132068431Y-88017607D01*
X132037110Y-88000866D01*
X132009661Y-87978339D01*
X131987134Y-87950890D01*
X131970393Y-87919569D01*
X131960085Y-87885591D01*
X131956000Y-87844110D01*
X131956000Y-87167890D01*
X131960085Y-87126409D01*
X131970393Y-87092431D01*
X131987134Y-87061110D01*
X132009661Y-87033661D01*
X132037110Y-87011134D01*
X132068431Y-86994393D01*
X132102409Y-86984085D01*
X132143890Y-86980000D01*
X132745110Y-86980000D01*
X132786591Y-86984085D01*
X132786591Y-86984085D01*
G37*
G36*
X189884000Y-87821000D02*
G01*
X183382000Y-87821000D01*
X183382000Y-81919000D01*
X189884000Y-81919000D01*
X189884000Y-87821000D01*
X189884000Y-87821000D01*
G37*
G36*
X181484000Y-87801000D02*
G01*
X179182000Y-87801000D01*
X179182000Y-86499000D01*
X181484000Y-86499000D01*
X181484000Y-87801000D01*
X181484000Y-87801000D01*
G37*
G36*
X115094000Y-86549000D02*
G01*
X113292000Y-86549000D01*
X113292000Y-84747000D01*
X115094000Y-84747000D01*
X115094000Y-86549000D01*
X115094000Y-86549000D01*
G37*
G36*
X135348000Y-85117000D02*
G01*
X126696000Y-85117000D01*
X126696000Y-83515000D01*
X135348000Y-83515000D01*
X135348000Y-85117000D01*
X135348000Y-85117000D01*
G37*
G36*
X145050642Y-83333281D02*
G01*
X145196414Y-83393662D01*
X145196416Y-83393663D01*
X145327608Y-83481322D01*
X145439178Y-83592892D01*
X145451271Y-83610991D01*
X145526838Y-83724086D01*
X145587219Y-83869858D01*
X145618000Y-84024607D01*
X145618000Y-84182393D01*
X145587219Y-84337142D01*
X145526838Y-84482914D01*
X145526837Y-84482916D01*
X145439178Y-84614108D01*
X145327608Y-84725678D01*
X145196416Y-84813337D01*
X145196415Y-84813338D01*
X145196414Y-84813338D01*
X145050642Y-84873719D01*
X144895893Y-84904500D01*
X144738107Y-84904500D01*
X144583358Y-84873719D01*
X144437586Y-84813338D01*
X144437585Y-84813338D01*
X144437584Y-84813337D01*
X144306392Y-84725678D01*
X144194822Y-84614108D01*
X144107163Y-84482916D01*
X144107162Y-84482914D01*
X144046781Y-84337142D01*
X144016000Y-84182393D01*
X144016000Y-84024607D01*
X144046781Y-83869858D01*
X144107162Y-83724086D01*
X144182729Y-83610991D01*
X144194822Y-83592892D01*
X144306392Y-83481322D01*
X144437584Y-83393663D01*
X144437586Y-83393662D01*
X144583358Y-83333281D01*
X144738107Y-83302500D01*
X144895893Y-83302500D01*
X145050642Y-83333281D01*
X145050642Y-83333281D01*
G37*
G36*
X114303442Y-82213518D02*
G01*
X114369627Y-82220037D01*
X114539466Y-82271557D01*
X114695991Y-82355222D01*
X114731729Y-82384552D01*
X114833186Y-82467814D01*
X114916448Y-82569271D01*
X114945778Y-82605009D01*
X115029443Y-82761534D01*
X115080963Y-82931373D01*
X115098359Y-83108000D01*
X115080963Y-83284627D01*
X115029443Y-83454466D01*
X114945778Y-83610991D01*
X114916448Y-83646729D01*
X114833186Y-83748186D01*
X114731729Y-83831448D01*
X114695991Y-83860778D01*
X114539466Y-83944443D01*
X114369627Y-83995963D01*
X114303443Y-84002481D01*
X114237260Y-84009000D01*
X114148740Y-84009000D01*
X114082557Y-84002481D01*
X114016373Y-83995963D01*
X113846534Y-83944443D01*
X113690009Y-83860778D01*
X113654271Y-83831448D01*
X113552814Y-83748186D01*
X113469552Y-83646729D01*
X113440222Y-83610991D01*
X113356557Y-83454466D01*
X113305037Y-83284627D01*
X113287641Y-83108000D01*
X113305037Y-82931373D01*
X113356557Y-82761534D01*
X113440222Y-82605009D01*
X113469552Y-82569271D01*
X113552814Y-82467814D01*
X113654271Y-82384552D01*
X113690009Y-82355222D01*
X113846534Y-82271557D01*
X114016373Y-82220037D01*
X114082558Y-82213518D01*
X114148740Y-82207000D01*
X114237260Y-82207000D01*
X114303442Y-82213518D01*
X114303442Y-82213518D01*
G37*
G36*
X140993991Y-82395885D02*
G01*
X141027969Y-82406193D01*
X141059290Y-82422934D01*
X141086739Y-82445461D01*
X141109266Y-82472910D01*
X141126007Y-82504231D01*
X141136315Y-82538209D01*
X141140400Y-82579690D01*
X141140400Y-83180910D01*
X141136315Y-83222391D01*
X141126007Y-83256369D01*
X141109266Y-83287690D01*
X141086739Y-83315139D01*
X141059290Y-83337666D01*
X141027969Y-83354407D01*
X140993991Y-83364715D01*
X140952510Y-83368800D01*
X140276290Y-83368800D01*
X140234809Y-83364715D01*
X140200831Y-83354407D01*
X140169510Y-83337666D01*
X140142061Y-83315139D01*
X140119534Y-83287690D01*
X140102793Y-83256369D01*
X140092485Y-83222391D01*
X140088400Y-83180910D01*
X140088400Y-82579690D01*
X140092485Y-82538209D01*
X140102793Y-82504231D01*
X140119534Y-82472910D01*
X140142061Y-82445461D01*
X140169510Y-82422934D01*
X140200831Y-82406193D01*
X140234809Y-82395885D01*
X140276290Y-82391800D01*
X140952510Y-82391800D01*
X140993991Y-82395885D01*
X140993991Y-82395885D01*
G37*
G36*
X181484000Y-83241000D02*
G01*
X179182000Y-83241000D01*
X179182000Y-81939000D01*
X181484000Y-81939000D01*
X181484000Y-83241000D01*
X181484000Y-83241000D01*
G37*
G36*
X126123000Y-82942000D02*
G01*
X124521000Y-82942000D01*
X124521000Y-74290000D01*
X126123000Y-74290000D01*
X126123000Y-82942000D01*
X126123000Y-82942000D01*
G37*
G36*
X137523000Y-82942000D02*
G01*
X135921000Y-82942000D01*
X135921000Y-74290000D01*
X137523000Y-74290000D01*
X137523000Y-82942000D01*
X137523000Y-82942000D01*
G37*
G36*
X169823000Y-82911000D02*
G01*
X168121000Y-82911000D01*
X168121000Y-81209000D01*
X169823000Y-81209000D01*
X169823000Y-82911000D01*
X169823000Y-82911000D01*
G37*
G36*
X161518823Y-81221313D02*
G01*
X161679242Y-81269976D01*
X161811906Y-81340886D01*
X161827078Y-81348996D01*
X161956659Y-81455341D01*
X162063004Y-81584922D01*
X162063005Y-81584924D01*
X162142024Y-81732758D01*
X162190687Y-81893177D01*
X162207117Y-82060000D01*
X162190687Y-82226823D01*
X162142024Y-82387242D01*
X162137404Y-82395885D01*
X162063004Y-82535078D01*
X161956659Y-82664659D01*
X161827078Y-82771004D01*
X161827076Y-82771005D01*
X161679242Y-82850024D01*
X161518823Y-82898687D01*
X161393804Y-82911000D01*
X161310196Y-82911000D01*
X161185177Y-82898687D01*
X161024758Y-82850024D01*
X160876924Y-82771005D01*
X160876922Y-82771004D01*
X160747341Y-82664659D01*
X160640996Y-82535078D01*
X160566596Y-82395885D01*
X160561976Y-82387242D01*
X160513313Y-82226823D01*
X160496883Y-82060000D01*
X160513313Y-81893177D01*
X160561976Y-81732758D01*
X160640995Y-81584924D01*
X160640996Y-81584922D01*
X160747341Y-81455341D01*
X160876922Y-81348996D01*
X160892094Y-81340886D01*
X161024758Y-81269976D01*
X161185177Y-81221313D01*
X161310196Y-81209000D01*
X161393804Y-81209000D01*
X161518823Y-81221313D01*
X161518823Y-81221313D01*
G37*
G36*
X153898823Y-81221313D02*
G01*
X154059242Y-81269976D01*
X154191906Y-81340886D01*
X154207078Y-81348996D01*
X154336659Y-81455341D01*
X154443004Y-81584922D01*
X154443005Y-81584924D01*
X154522024Y-81732758D01*
X154570687Y-81893177D01*
X154587117Y-82060000D01*
X154570687Y-82226823D01*
X154522024Y-82387242D01*
X154517404Y-82395885D01*
X154443004Y-82535078D01*
X154336659Y-82664659D01*
X154207078Y-82771004D01*
X154207076Y-82771005D01*
X154059242Y-82850024D01*
X153898823Y-82898687D01*
X153773804Y-82911000D01*
X153690196Y-82911000D01*
X153565177Y-82898687D01*
X153404758Y-82850024D01*
X153256924Y-82771005D01*
X153256922Y-82771004D01*
X153127341Y-82664659D01*
X153020996Y-82535078D01*
X152946596Y-82395885D01*
X152941976Y-82387242D01*
X152893313Y-82226823D01*
X152876883Y-82060000D01*
X152893313Y-81893177D01*
X152941976Y-81732758D01*
X153020995Y-81584924D01*
X153020996Y-81584922D01*
X153127341Y-81455341D01*
X153256922Y-81348996D01*
X153272094Y-81340886D01*
X153404758Y-81269976D01*
X153565177Y-81221313D01*
X153690196Y-81209000D01*
X153773804Y-81209000D01*
X153898823Y-81221313D01*
X153898823Y-81221313D01*
G37*
G36*
X164058823Y-81221313D02*
G01*
X164219242Y-81269976D01*
X164351906Y-81340886D01*
X164367078Y-81348996D01*
X164496659Y-81455341D01*
X164603004Y-81584922D01*
X164603005Y-81584924D01*
X164682024Y-81732758D01*
X164730687Y-81893177D01*
X164747117Y-82060000D01*
X164730687Y-82226823D01*
X164682024Y-82387242D01*
X164677404Y-82395885D01*
X164603004Y-82535078D01*
X164496659Y-82664659D01*
X164367078Y-82771004D01*
X164367076Y-82771005D01*
X164219242Y-82850024D01*
X164058823Y-82898687D01*
X163933804Y-82911000D01*
X163850196Y-82911000D01*
X163725177Y-82898687D01*
X163564758Y-82850024D01*
X163416924Y-82771005D01*
X163416922Y-82771004D01*
X163287341Y-82664659D01*
X163180996Y-82535078D01*
X163106596Y-82395885D01*
X163101976Y-82387242D01*
X163053313Y-82226823D01*
X163036883Y-82060000D01*
X163053313Y-81893177D01*
X163101976Y-81732758D01*
X163180995Y-81584924D01*
X163180996Y-81584922D01*
X163287341Y-81455341D01*
X163416922Y-81348996D01*
X163432094Y-81340886D01*
X163564758Y-81269976D01*
X163725177Y-81221313D01*
X163850196Y-81209000D01*
X163933804Y-81209000D01*
X164058823Y-81221313D01*
X164058823Y-81221313D01*
G37*
G36*
X151358823Y-81221313D02*
G01*
X151519242Y-81269976D01*
X151651906Y-81340886D01*
X151667078Y-81348996D01*
X151796659Y-81455341D01*
X151903004Y-81584922D01*
X151903005Y-81584924D01*
X151982024Y-81732758D01*
X152030687Y-81893177D01*
X152047117Y-82060000D01*
X152030687Y-82226823D01*
X151982024Y-82387242D01*
X151977404Y-82395885D01*
X151903004Y-82535078D01*
X151796659Y-82664659D01*
X151667078Y-82771004D01*
X151667076Y-82771005D01*
X151519242Y-82850024D01*
X151358823Y-82898687D01*
X151233804Y-82911000D01*
X151150196Y-82911000D01*
X151025177Y-82898687D01*
X150864758Y-82850024D01*
X150716924Y-82771005D01*
X150716922Y-82771004D01*
X150587341Y-82664659D01*
X150480996Y-82535078D01*
X150406596Y-82395885D01*
X150401976Y-82387242D01*
X150353313Y-82226823D01*
X150336883Y-82060000D01*
X150353313Y-81893177D01*
X150401976Y-81732758D01*
X150480995Y-81584924D01*
X150480996Y-81584922D01*
X150587341Y-81455341D01*
X150716922Y-81348996D01*
X150732094Y-81340886D01*
X150864758Y-81269976D01*
X151025177Y-81221313D01*
X151150196Y-81209000D01*
X151233804Y-81209000D01*
X151358823Y-81221313D01*
X151358823Y-81221313D01*
G37*
G36*
X166598823Y-81221313D02*
G01*
X166759242Y-81269976D01*
X166891906Y-81340886D01*
X166907078Y-81348996D01*
X167036659Y-81455341D01*
X167143004Y-81584922D01*
X167143005Y-81584924D01*
X167222024Y-81732758D01*
X167270687Y-81893177D01*
X167287117Y-82060000D01*
X167270687Y-82226823D01*
X167222024Y-82387242D01*
X167217404Y-82395885D01*
X167143004Y-82535078D01*
X167036659Y-82664659D01*
X166907078Y-82771004D01*
X166907076Y-82771005D01*
X166759242Y-82850024D01*
X166598823Y-82898687D01*
X166473804Y-82911000D01*
X166390196Y-82911000D01*
X166265177Y-82898687D01*
X166104758Y-82850024D01*
X165956924Y-82771005D01*
X165956922Y-82771004D01*
X165827341Y-82664659D01*
X165720996Y-82535078D01*
X165646596Y-82395885D01*
X165641976Y-82387242D01*
X165593313Y-82226823D01*
X165576883Y-82060000D01*
X165593313Y-81893177D01*
X165641976Y-81732758D01*
X165720995Y-81584924D01*
X165720996Y-81584922D01*
X165827341Y-81455341D01*
X165956922Y-81348996D01*
X165972094Y-81340886D01*
X166104758Y-81269976D01*
X166265177Y-81221313D01*
X166390196Y-81209000D01*
X166473804Y-81209000D01*
X166598823Y-81221313D01*
X166598823Y-81221313D01*
G37*
G36*
X156438823Y-81221313D02*
G01*
X156599242Y-81269976D01*
X156731906Y-81340886D01*
X156747078Y-81348996D01*
X156876659Y-81455341D01*
X156983004Y-81584922D01*
X156983005Y-81584924D01*
X157062024Y-81732758D01*
X157110687Y-81893177D01*
X157127117Y-82060000D01*
X157110687Y-82226823D01*
X157062024Y-82387242D01*
X157057404Y-82395885D01*
X156983004Y-82535078D01*
X156876659Y-82664659D01*
X156747078Y-82771004D01*
X156747076Y-82771005D01*
X156599242Y-82850024D01*
X156438823Y-82898687D01*
X156313804Y-82911000D01*
X156230196Y-82911000D01*
X156105177Y-82898687D01*
X155944758Y-82850024D01*
X155796924Y-82771005D01*
X155796922Y-82771004D01*
X155667341Y-82664659D01*
X155560996Y-82535078D01*
X155486596Y-82395885D01*
X155481976Y-82387242D01*
X155433313Y-82226823D01*
X155416883Y-82060000D01*
X155433313Y-81893177D01*
X155481976Y-81732758D01*
X155560995Y-81584924D01*
X155560996Y-81584922D01*
X155667341Y-81455341D01*
X155796922Y-81348996D01*
X155812094Y-81340886D01*
X155944758Y-81269976D01*
X156105177Y-81221313D01*
X156230196Y-81209000D01*
X156313804Y-81209000D01*
X156438823Y-81221313D01*
X156438823Y-81221313D01*
G37*
G36*
X158978823Y-81221313D02*
G01*
X159139242Y-81269976D01*
X159271906Y-81340886D01*
X159287078Y-81348996D01*
X159416659Y-81455341D01*
X159523004Y-81584922D01*
X159523005Y-81584924D01*
X159602024Y-81732758D01*
X159650687Y-81893177D01*
X159667117Y-82060000D01*
X159650687Y-82226823D01*
X159602024Y-82387242D01*
X159597404Y-82395885D01*
X159523004Y-82535078D01*
X159416659Y-82664659D01*
X159287078Y-82771004D01*
X159287076Y-82771005D01*
X159139242Y-82850024D01*
X158978823Y-82898687D01*
X158853804Y-82911000D01*
X158770196Y-82911000D01*
X158645177Y-82898687D01*
X158484758Y-82850024D01*
X158336924Y-82771005D01*
X158336922Y-82771004D01*
X158207341Y-82664659D01*
X158100996Y-82535078D01*
X158026596Y-82395885D01*
X158021976Y-82387242D01*
X157973313Y-82226823D01*
X157956883Y-82060000D01*
X157973313Y-81893177D01*
X158021976Y-81732758D01*
X158100995Y-81584924D01*
X158100996Y-81584922D01*
X158207341Y-81455341D01*
X158336922Y-81348996D01*
X158352094Y-81340886D01*
X158484758Y-81269976D01*
X158645177Y-81221313D01*
X158770196Y-81209000D01*
X158853804Y-81209000D01*
X158978823Y-81221313D01*
X158978823Y-81221313D01*
G37*
G36*
X140993991Y-80820885D02*
G01*
X141027969Y-80831193D01*
X141059290Y-80847934D01*
X141086739Y-80870461D01*
X141109266Y-80897910D01*
X141126007Y-80929231D01*
X141136315Y-80963209D01*
X141140400Y-81004690D01*
X141140400Y-81605910D01*
X141136315Y-81647391D01*
X141126007Y-81681369D01*
X141109266Y-81712690D01*
X141086739Y-81740139D01*
X141059290Y-81762666D01*
X141027969Y-81779407D01*
X140993991Y-81789715D01*
X140952510Y-81793800D01*
X140276290Y-81793800D01*
X140234809Y-81789715D01*
X140200831Y-81779407D01*
X140169510Y-81762666D01*
X140142061Y-81740139D01*
X140119534Y-81712690D01*
X140102793Y-81681369D01*
X140092485Y-81647391D01*
X140088400Y-81605910D01*
X140088400Y-81004690D01*
X140092485Y-80963209D01*
X140102793Y-80929231D01*
X140119534Y-80897910D01*
X140142061Y-80870461D01*
X140169510Y-80847934D01*
X140200831Y-80831193D01*
X140234809Y-80820885D01*
X140276290Y-80816800D01*
X140952510Y-80816800D01*
X140993991Y-80820885D01*
X140993991Y-80820885D01*
G37*
G36*
X114303442Y-79673518D02*
G01*
X114369627Y-79680037D01*
X114539466Y-79731557D01*
X114695991Y-79815222D01*
X114731729Y-79844552D01*
X114833186Y-79927814D01*
X114916448Y-80029271D01*
X114945778Y-80065009D01*
X115029443Y-80221534D01*
X115080963Y-80391373D01*
X115098359Y-80568000D01*
X115080963Y-80744627D01*
X115029443Y-80914466D01*
X114945778Y-81070991D01*
X114916448Y-81106729D01*
X114833186Y-81208186D01*
X114731729Y-81291448D01*
X114695991Y-81320778D01*
X114539466Y-81404443D01*
X114369627Y-81455963D01*
X114303442Y-81462482D01*
X114237260Y-81469000D01*
X114148740Y-81469000D01*
X114082558Y-81462482D01*
X114016373Y-81455963D01*
X113846534Y-81404443D01*
X113690009Y-81320778D01*
X113654271Y-81291448D01*
X113552814Y-81208186D01*
X113469552Y-81106729D01*
X113440222Y-81070991D01*
X113356557Y-80914466D01*
X113305037Y-80744627D01*
X113287641Y-80568000D01*
X113305037Y-80391373D01*
X113356557Y-80221534D01*
X113440222Y-80065009D01*
X113469552Y-80029271D01*
X113552814Y-79927814D01*
X113654271Y-79844552D01*
X113690009Y-79815222D01*
X113846534Y-79731557D01*
X114016373Y-79680037D01*
X114082558Y-79673518D01*
X114148740Y-79667000D01*
X114237260Y-79667000D01*
X114303442Y-79673518D01*
X114303442Y-79673518D01*
G37*
G36*
X174303443Y-78833519D02*
G01*
X174369627Y-78840037D01*
X174539466Y-78891557D01*
X174695991Y-78975222D01*
X174731729Y-79004552D01*
X174833186Y-79087814D01*
X174916448Y-79189271D01*
X174945778Y-79225009D01*
X175029443Y-79381534D01*
X175080963Y-79551373D01*
X175098359Y-79728000D01*
X175080963Y-79904627D01*
X175029443Y-80074466D01*
X174945778Y-80230991D01*
X174916448Y-80266729D01*
X174833186Y-80368186D01*
X174731729Y-80451448D01*
X174695991Y-80480778D01*
X174539466Y-80564443D01*
X174369627Y-80615963D01*
X174303442Y-80622482D01*
X174237260Y-80629000D01*
X174148740Y-80629000D01*
X174082558Y-80622482D01*
X174016373Y-80615963D01*
X173846534Y-80564443D01*
X173690009Y-80480778D01*
X173654271Y-80451448D01*
X173552814Y-80368186D01*
X173469552Y-80266729D01*
X173440222Y-80230991D01*
X173356557Y-80074466D01*
X173305037Y-79904627D01*
X173287641Y-79728000D01*
X173305037Y-79551373D01*
X173356557Y-79381534D01*
X173440222Y-79225009D01*
X173469552Y-79189271D01*
X173552814Y-79087814D01*
X173654271Y-79004552D01*
X173690009Y-78975222D01*
X173846534Y-78891557D01*
X174016373Y-78840037D01*
X174082557Y-78833519D01*
X174148740Y-78827000D01*
X174237260Y-78827000D01*
X174303443Y-78833519D01*
X174303443Y-78833519D01*
G37*
G36*
X114303443Y-77133519D02*
G01*
X114369627Y-77140037D01*
X114539466Y-77191557D01*
X114695991Y-77275222D01*
X114731729Y-77304552D01*
X114833186Y-77387814D01*
X114905463Y-77475885D01*
X114945778Y-77525009D01*
X115029443Y-77681534D01*
X115080963Y-77851373D01*
X115098359Y-78028000D01*
X115080963Y-78204627D01*
X115029443Y-78374466D01*
X114945778Y-78530991D01*
X114930788Y-78549256D01*
X114833186Y-78668186D01*
X114731729Y-78751448D01*
X114695991Y-78780778D01*
X114539466Y-78864443D01*
X114369627Y-78915963D01*
X114303443Y-78922481D01*
X114237260Y-78929000D01*
X114148740Y-78929000D01*
X114082557Y-78922481D01*
X114016373Y-78915963D01*
X113846534Y-78864443D01*
X113690009Y-78780778D01*
X113654271Y-78751448D01*
X113552814Y-78668186D01*
X113455212Y-78549256D01*
X113440222Y-78530991D01*
X113356557Y-78374466D01*
X113305037Y-78204627D01*
X113287641Y-78028000D01*
X113305037Y-77851373D01*
X113356557Y-77681534D01*
X113440222Y-77525009D01*
X113480537Y-77475885D01*
X113552814Y-77387814D01*
X113654271Y-77304552D01*
X113690009Y-77275222D01*
X113846534Y-77191557D01*
X114016373Y-77140037D01*
X114082557Y-77133519D01*
X114148740Y-77127000D01*
X114237260Y-77127000D01*
X114303443Y-77133519D01*
X114303443Y-77133519D01*
G37*
G36*
X181792811Y-77395771D02*
G01*
X181828603Y-77406629D01*
X181861595Y-77424263D01*
X181890508Y-77447992D01*
X181914237Y-77476905D01*
X181931871Y-77509897D01*
X181942729Y-77545689D01*
X181947000Y-77589055D01*
X181947000Y-78620945D01*
X181942729Y-78664311D01*
X181931871Y-78700103D01*
X181914237Y-78733095D01*
X181890508Y-78762008D01*
X181861595Y-78785737D01*
X181828603Y-78803371D01*
X181792811Y-78814229D01*
X181749445Y-78818500D01*
X179692555Y-78818500D01*
X179649189Y-78814229D01*
X179613397Y-78803371D01*
X179580405Y-78785737D01*
X179551492Y-78762008D01*
X179527763Y-78733095D01*
X179510129Y-78700103D01*
X179499271Y-78664311D01*
X179495000Y-78620945D01*
X179495000Y-77589055D01*
X179499271Y-77545689D01*
X179510129Y-77509897D01*
X179527763Y-77476905D01*
X179551492Y-77447992D01*
X179580405Y-77424263D01*
X179613397Y-77406629D01*
X179649189Y-77395771D01*
X179692555Y-77391500D01*
X181749445Y-77391500D01*
X181792811Y-77395771D01*
X181792811Y-77395771D01*
G37*
G36*
X189584000Y-78766000D02*
G01*
X188282000Y-78766000D01*
X188282000Y-77764000D01*
X189584000Y-77764000D01*
X189584000Y-78766000D01*
X189584000Y-78766000D01*
G37*
G36*
X184947499Y-77363445D02*
G01*
X184984995Y-77374820D01*
X185019554Y-77393292D01*
X185049847Y-77418153D01*
X185074708Y-77448446D01*
X185093180Y-77483005D01*
X185104555Y-77520501D01*
X185109000Y-77565638D01*
X185109000Y-78204362D01*
X185104555Y-78249499D01*
X185093180Y-78286995D01*
X185074708Y-78321554D01*
X185049847Y-78351847D01*
X185019554Y-78376708D01*
X184984995Y-78395180D01*
X184947499Y-78406555D01*
X184902362Y-78411000D01*
X184163638Y-78411000D01*
X184118501Y-78406555D01*
X184081005Y-78395180D01*
X184046446Y-78376708D01*
X184016153Y-78351847D01*
X183991292Y-78321554D01*
X183972820Y-78286995D01*
X183961445Y-78249499D01*
X183957000Y-78204362D01*
X183957000Y-77565638D01*
X183961445Y-77520501D01*
X183972820Y-77483005D01*
X183991292Y-77448446D01*
X184016153Y-77418153D01*
X184046446Y-77393292D01*
X184081005Y-77374820D01*
X184118501Y-77363445D01*
X184163638Y-77359000D01*
X184902362Y-77359000D01*
X184947499Y-77363445D01*
X184947499Y-77363445D01*
G37*
G36*
X186697499Y-77363445D02*
G01*
X186734995Y-77374820D01*
X186769554Y-77393292D01*
X186799847Y-77418153D01*
X186824708Y-77448446D01*
X186843180Y-77483005D01*
X186854555Y-77520501D01*
X186859000Y-77565638D01*
X186859000Y-78204362D01*
X186854555Y-78249499D01*
X186843180Y-78286995D01*
X186824708Y-78321554D01*
X186799847Y-78351847D01*
X186769554Y-78376708D01*
X186734995Y-78395180D01*
X186697499Y-78406555D01*
X186652362Y-78411000D01*
X185913638Y-78411000D01*
X185868501Y-78406555D01*
X185831005Y-78395180D01*
X185796446Y-78376708D01*
X185766153Y-78351847D01*
X185741292Y-78321554D01*
X185722820Y-78286995D01*
X185711445Y-78249499D01*
X185707000Y-78204362D01*
X185707000Y-77565638D01*
X185711445Y-77520501D01*
X185722820Y-77483005D01*
X185741292Y-77448446D01*
X185766153Y-77418153D01*
X185796446Y-77393292D01*
X185831005Y-77374820D01*
X185868501Y-77363445D01*
X185913638Y-77359000D01*
X186652362Y-77359000D01*
X186697499Y-77363445D01*
X186697499Y-77363445D01*
G37*
G36*
X174303443Y-76293519D02*
G01*
X174369627Y-76300037D01*
X174539466Y-76351557D01*
X174695991Y-76435222D01*
X174731729Y-76464552D01*
X174833186Y-76547814D01*
X174916448Y-76649271D01*
X174945778Y-76685009D01*
X175029443Y-76841534D01*
X175080963Y-77011373D01*
X175098359Y-77188000D01*
X175080963Y-77364627D01*
X175029443Y-77534466D01*
X174945778Y-77690991D01*
X174916448Y-77726729D01*
X174833186Y-77828186D01*
X174731729Y-77911448D01*
X174695991Y-77940778D01*
X174539466Y-78024443D01*
X174369627Y-78075963D01*
X174303443Y-78082481D01*
X174237260Y-78089000D01*
X174148740Y-78089000D01*
X174082557Y-78082481D01*
X174016373Y-78075963D01*
X173846534Y-78024443D01*
X173690009Y-77940778D01*
X173654271Y-77911448D01*
X173552814Y-77828186D01*
X173469552Y-77726729D01*
X173440222Y-77690991D01*
X173356557Y-77534466D01*
X173305037Y-77364627D01*
X173287641Y-77188000D01*
X173305037Y-77011373D01*
X173356557Y-76841534D01*
X173440222Y-76685009D01*
X173469552Y-76649271D01*
X173552814Y-76547814D01*
X173654271Y-76464552D01*
X173690009Y-76435222D01*
X173846534Y-76351557D01*
X174016373Y-76300037D01*
X174082557Y-76293519D01*
X174148740Y-76287000D01*
X174237260Y-76287000D01*
X174303443Y-76293519D01*
X174303443Y-76293519D01*
G37*
G36*
X114303442Y-74593518D02*
G01*
X114369627Y-74600037D01*
X114539466Y-74651557D01*
X114695991Y-74735222D01*
X114731729Y-74764552D01*
X114833186Y-74847814D01*
X114907780Y-74938709D01*
X114945778Y-74985009D01*
X115029443Y-75141534D01*
X115080963Y-75311373D01*
X115098359Y-75488000D01*
X115080963Y-75664627D01*
X115029443Y-75834466D01*
X114945778Y-75990991D01*
X114916448Y-76026729D01*
X114833186Y-76128186D01*
X114731729Y-76211448D01*
X114695991Y-76240778D01*
X114539466Y-76324443D01*
X114369627Y-76375963D01*
X114303443Y-76382481D01*
X114237260Y-76389000D01*
X114148740Y-76389000D01*
X114082557Y-76382481D01*
X114016373Y-76375963D01*
X113846534Y-76324443D01*
X113690009Y-76240778D01*
X113654271Y-76211448D01*
X113552814Y-76128186D01*
X113469552Y-76026729D01*
X113440222Y-75990991D01*
X113356557Y-75834466D01*
X113305037Y-75664627D01*
X113287641Y-75488000D01*
X113305037Y-75311373D01*
X113356557Y-75141534D01*
X113440222Y-74985009D01*
X113478220Y-74938709D01*
X113552814Y-74847814D01*
X113654271Y-74764552D01*
X113690009Y-74735222D01*
X113846534Y-74651557D01*
X114016373Y-74600037D01*
X114082558Y-74593518D01*
X114148740Y-74587000D01*
X114237260Y-74587000D01*
X114303442Y-74593518D01*
X114303442Y-74593518D01*
G37*
G36*
X186712618Y-74872965D02*
G01*
X186745433Y-74882919D01*
X186775665Y-74899079D01*
X186802170Y-74920830D01*
X186823921Y-74947335D01*
X186840081Y-74977567D01*
X186850035Y-75010382D01*
X186854000Y-75050640D01*
X186854000Y-75639360D01*
X186850035Y-75679618D01*
X186840081Y-75712433D01*
X186823921Y-75742665D01*
X186802170Y-75769170D01*
X186775665Y-75790921D01*
X186745433Y-75807081D01*
X186712618Y-75817035D01*
X186672360Y-75821000D01*
X185708640Y-75821000D01*
X185668382Y-75817035D01*
X185635567Y-75807081D01*
X185605335Y-75790921D01*
X185578830Y-75769170D01*
X185557079Y-75742665D01*
X185540919Y-75712433D01*
X185530965Y-75679618D01*
X185527000Y-75639360D01*
X185527000Y-75050640D01*
X185530965Y-75010382D01*
X185540919Y-74977567D01*
X185557079Y-74947335D01*
X185578830Y-74920830D01*
X185605335Y-74899079D01*
X185635567Y-74882919D01*
X185668382Y-74872965D01*
X185708640Y-74869000D01*
X186672360Y-74869000D01*
X186712618Y-74872965D01*
X186712618Y-74872965D01*
G37*
G36*
X185087618Y-74872965D02*
G01*
X185120433Y-74882919D01*
X185150665Y-74899079D01*
X185177170Y-74920830D01*
X185198921Y-74947335D01*
X185215081Y-74977567D01*
X185225035Y-75010382D01*
X185229000Y-75050640D01*
X185229000Y-75639360D01*
X185225035Y-75679618D01*
X185215081Y-75712433D01*
X185198921Y-75742665D01*
X185177170Y-75769170D01*
X185150665Y-75790921D01*
X185120433Y-75807081D01*
X185087618Y-75817035D01*
X185047360Y-75821000D01*
X184083640Y-75821000D01*
X184043382Y-75817035D01*
X184010567Y-75807081D01*
X183980335Y-75790921D01*
X183953830Y-75769170D01*
X183932079Y-75742665D01*
X183915919Y-75712433D01*
X183905965Y-75679618D01*
X183902000Y-75639360D01*
X183902000Y-75050640D01*
X183905965Y-75010382D01*
X183915919Y-74977567D01*
X183932079Y-74947335D01*
X183953830Y-74920830D01*
X183980335Y-74899079D01*
X184010567Y-74882919D01*
X184043382Y-74872965D01*
X184083640Y-74869000D01*
X185047360Y-74869000D01*
X185087618Y-74872965D01*
X185087618Y-74872965D01*
G37*
G36*
X181792811Y-74320771D02*
G01*
X181828603Y-74331629D01*
X181861595Y-74349263D01*
X181890508Y-74372992D01*
X181914237Y-74401905D01*
X181931871Y-74434897D01*
X181942729Y-74470689D01*
X181947000Y-74514055D01*
X181947000Y-75545945D01*
X181942729Y-75589311D01*
X181931871Y-75625103D01*
X181914237Y-75658095D01*
X181890508Y-75687008D01*
X181861595Y-75710737D01*
X181828603Y-75728371D01*
X181792811Y-75739229D01*
X181749445Y-75743500D01*
X179692555Y-75743500D01*
X179649189Y-75739229D01*
X179613397Y-75728371D01*
X179580405Y-75710737D01*
X179551492Y-75687008D01*
X179527763Y-75658095D01*
X179510129Y-75625103D01*
X179499271Y-75589311D01*
X179495000Y-75545945D01*
X179495000Y-74514055D01*
X179499271Y-74470689D01*
X179510129Y-74434897D01*
X179527763Y-74401905D01*
X179551492Y-74372992D01*
X179580405Y-74349263D01*
X179613397Y-74331629D01*
X179649189Y-74320771D01*
X179692555Y-74316500D01*
X181749445Y-74316500D01*
X181792811Y-74320771D01*
X181792811Y-74320771D01*
G37*
G36*
X175094000Y-75549000D02*
G01*
X173292000Y-75549000D01*
X173292000Y-73747000D01*
X175094000Y-73747000D01*
X175094000Y-75549000D01*
X175094000Y-75549000D01*
G37*
G36*
X189584000Y-75466000D02*
G01*
X188282000Y-75466000D01*
X188282000Y-74464000D01*
X189584000Y-74464000D01*
X189584000Y-75466000D01*
X189584000Y-75466000D01*
G37*
G36*
X114303443Y-72053519D02*
G01*
X114369627Y-72060037D01*
X114539466Y-72111557D01*
X114695991Y-72195222D01*
X114731729Y-72224552D01*
X114833186Y-72307814D01*
X114916448Y-72409271D01*
X114945778Y-72445009D01*
X115029443Y-72601534D01*
X115080963Y-72771373D01*
X115098359Y-72948000D01*
X115080963Y-73124627D01*
X115029443Y-73294466D01*
X114945778Y-73450991D01*
X114917614Y-73485309D01*
X114833186Y-73588186D01*
X114754602Y-73652677D01*
X114695991Y-73700778D01*
X114539466Y-73784443D01*
X114369627Y-73835963D01*
X114303442Y-73842482D01*
X114237260Y-73849000D01*
X114148740Y-73849000D01*
X114082558Y-73842482D01*
X114016373Y-73835963D01*
X113846534Y-73784443D01*
X113690009Y-73700778D01*
X113631398Y-73652677D01*
X113552814Y-73588186D01*
X113468386Y-73485309D01*
X113440222Y-73450991D01*
X113356557Y-73294466D01*
X113305037Y-73124627D01*
X113287641Y-72948000D01*
X113305037Y-72771373D01*
X113356557Y-72601534D01*
X113440222Y-72445009D01*
X113469552Y-72409271D01*
X113552814Y-72307814D01*
X113654271Y-72224552D01*
X113690009Y-72195222D01*
X113846534Y-72111557D01*
X114016373Y-72060037D01*
X114082557Y-72053519D01*
X114148740Y-72047000D01*
X114237260Y-72047000D01*
X114303443Y-72053519D01*
X114303443Y-72053519D01*
G37*
G36*
X135348000Y-73717000D02*
G01*
X126696000Y-73717000D01*
X126696000Y-72115000D01*
X135348000Y-72115000D01*
X135348000Y-73717000D01*
X135348000Y-73717000D01*
G37*
G36*
X143836499Y-72649445D02*
G01*
X143873995Y-72660820D01*
X143908554Y-72679292D01*
X143938847Y-72704153D01*
X143963708Y-72734446D01*
X143982180Y-72769005D01*
X143993555Y-72806501D01*
X143998000Y-72851638D01*
X143998000Y-73490362D01*
X143993555Y-73535499D01*
X143982180Y-73572995D01*
X143963708Y-73607554D01*
X143938847Y-73637847D01*
X143908554Y-73662708D01*
X143873995Y-73681180D01*
X143836499Y-73692555D01*
X143791362Y-73697000D01*
X143052638Y-73697000D01*
X143007501Y-73692555D01*
X142970005Y-73681180D01*
X142935446Y-73662708D01*
X142905153Y-73637847D01*
X142880292Y-73607554D01*
X142861820Y-73572995D01*
X142850445Y-73535499D01*
X142846000Y-73490362D01*
X142846000Y-72851638D01*
X142850445Y-72806501D01*
X142861820Y-72769005D01*
X142880292Y-72734446D01*
X142905153Y-72704153D01*
X142935446Y-72679292D01*
X142970005Y-72660820D01*
X143007501Y-72649445D01*
X143052638Y-72645000D01*
X143791362Y-72645000D01*
X143836499Y-72649445D01*
X143836499Y-72649445D01*
G37*
G36*
X142086499Y-72649445D02*
G01*
X142123995Y-72660820D01*
X142158554Y-72679292D01*
X142188847Y-72704153D01*
X142213708Y-72734446D01*
X142232180Y-72769005D01*
X142243555Y-72806501D01*
X142248000Y-72851638D01*
X142248000Y-73490362D01*
X142243555Y-73535499D01*
X142232180Y-73572995D01*
X142213708Y-73607554D01*
X142188847Y-73637847D01*
X142158554Y-73662708D01*
X142123995Y-73681180D01*
X142086499Y-73692555D01*
X142041362Y-73697000D01*
X141302638Y-73697000D01*
X141257501Y-73692555D01*
X141220005Y-73681180D01*
X141185446Y-73662708D01*
X141155153Y-73637847D01*
X141130292Y-73607554D01*
X141111820Y-73572995D01*
X141100445Y-73535499D01*
X141096000Y-73490362D01*
X141096000Y-72851638D01*
X141100445Y-72806501D01*
X141111820Y-72769005D01*
X141130292Y-72734446D01*
X141155153Y-72704153D01*
X141185446Y-72679292D01*
X141220005Y-72660820D01*
X141257501Y-72649445D01*
X141302638Y-72645000D01*
X142041362Y-72645000D01*
X142086499Y-72649445D01*
X142086499Y-72649445D01*
G37*
G36*
X109561289Y-70025619D02*
G01*
X109625688Y-70038429D01*
X109807677Y-70113811D01*
X109971462Y-70223249D01*
X110110750Y-70362537D01*
X110220188Y-70526322D01*
X110295570Y-70708311D01*
X110295570Y-70708312D01*
X110333999Y-70901507D01*
X110333999Y-71098493D01*
X110323366Y-71151947D01*
X110295570Y-71291689D01*
X110220188Y-71473678D01*
X110110750Y-71637463D01*
X109971462Y-71776751D01*
X109807677Y-71886189D01*
X109625688Y-71961571D01*
X109561289Y-71974381D01*
X109432492Y-72000000D01*
X109235506Y-72000000D01*
X109106709Y-71974381D01*
X109042310Y-71961571D01*
X108860321Y-71886189D01*
X108696536Y-71776751D01*
X108557248Y-71637463D01*
X108447810Y-71473678D01*
X108372428Y-71291689D01*
X108344632Y-71151947D01*
X108333999Y-71098493D01*
X108333999Y-70901507D01*
X108372428Y-70708312D01*
X108372428Y-70708311D01*
X108447810Y-70526322D01*
X108557248Y-70362537D01*
X108696536Y-70223249D01*
X108860321Y-70113811D01*
X109042310Y-70038429D01*
X109106709Y-70025619D01*
X109235506Y-70000000D01*
X109432492Y-70000000D01*
X109561289Y-70025619D01*
X109561289Y-70025619D01*
G37*
G36*
X189355690Y-69536019D02*
G01*
X189420089Y-69548829D01*
X189602078Y-69624211D01*
X189765863Y-69733649D01*
X189905151Y-69872937D01*
X190014589Y-70036722D01*
X190089971Y-70218711D01*
X190099477Y-70266501D01*
X190118580Y-70362537D01*
X190128400Y-70411909D01*
X190128400Y-70608891D01*
X190089971Y-70802089D01*
X190014589Y-70984078D01*
X189905151Y-71147863D01*
X189765863Y-71287151D01*
X189602078Y-71396589D01*
X189420089Y-71471971D01*
X189355690Y-71484781D01*
X189226893Y-71510400D01*
X189029907Y-71510400D01*
X188901110Y-71484781D01*
X188836711Y-71471971D01*
X188654722Y-71396589D01*
X188490937Y-71287151D01*
X188351649Y-71147863D01*
X188242211Y-70984078D01*
X188166829Y-70802089D01*
X188128400Y-70608891D01*
X188128400Y-70411909D01*
X188138221Y-70362537D01*
X188157323Y-70266501D01*
X188166829Y-70218711D01*
X188242211Y-70036722D01*
X188351649Y-69872937D01*
X188490937Y-69733649D01*
X188654722Y-69624211D01*
X188836711Y-69548829D01*
X188901110Y-69536019D01*
X189029907Y-69510400D01*
X189226893Y-69510400D01*
X189355690Y-69536019D01*
X189355690Y-69536019D01*
G37*
G36*
X142086499Y-70109445D02*
G01*
X142123995Y-70120820D01*
X142158554Y-70139292D01*
X142188847Y-70164153D01*
X142213708Y-70194446D01*
X142232180Y-70229005D01*
X142243555Y-70266501D01*
X142248000Y-70311638D01*
X142248000Y-70950362D01*
X142243555Y-70995499D01*
X142232180Y-71032995D01*
X142213708Y-71067554D01*
X142188847Y-71097847D01*
X142158554Y-71122708D01*
X142123995Y-71141180D01*
X142086499Y-71152555D01*
X142041362Y-71157000D01*
X141302638Y-71157000D01*
X141257501Y-71152555D01*
X141220005Y-71141180D01*
X141185446Y-71122708D01*
X141155153Y-71097847D01*
X141130292Y-71067554D01*
X141111820Y-71032995D01*
X141100445Y-70995499D01*
X141096000Y-70950362D01*
X141096000Y-70311638D01*
X141100445Y-70266501D01*
X141111820Y-70229005D01*
X141130292Y-70194446D01*
X141155153Y-70164153D01*
X141185446Y-70139292D01*
X141220005Y-70120820D01*
X141257501Y-70109445D01*
X141302638Y-70105000D01*
X142041362Y-70105000D01*
X142086499Y-70109445D01*
X142086499Y-70109445D01*
G37*
G36*
X143836499Y-70109445D02*
G01*
X143873995Y-70120820D01*
X143908554Y-70139292D01*
X143938847Y-70164153D01*
X143963708Y-70194446D01*
X143982180Y-70229005D01*
X143993555Y-70266501D01*
X143998000Y-70311638D01*
X143998000Y-70950362D01*
X143993555Y-70995499D01*
X143982180Y-71032995D01*
X143963708Y-71067554D01*
X143938847Y-71097847D01*
X143908554Y-71122708D01*
X143873995Y-71141180D01*
X143836499Y-71152555D01*
X143791362Y-71157000D01*
X143052638Y-71157000D01*
X143007501Y-71152555D01*
X142970005Y-71141180D01*
X142935446Y-71122708D01*
X142905153Y-71097847D01*
X142880292Y-71067554D01*
X142861820Y-71032995D01*
X142850445Y-70995499D01*
X142846000Y-70950362D01*
X142846000Y-70311638D01*
X142850445Y-70266501D01*
X142861820Y-70229005D01*
X142880292Y-70194446D01*
X142905153Y-70164153D01*
X142935446Y-70139292D01*
X142970005Y-70120820D01*
X143007501Y-70109445D01*
X143052638Y-70105000D01*
X143791362Y-70105000D01*
X143836499Y-70109445D01*
X143836499Y-70109445D01*
G37*
G36*
X181078200Y-68449000D02*
G01*
X177976200Y-68449000D01*
X177976200Y-65347000D01*
X181078200Y-65347000D01*
X181078200Y-68449000D01*
X181078200Y-68449000D01*
G37*
G36*
X174749785Y-65376802D02*
G01*
X174899610Y-65406604D01*
X175181874Y-65523521D01*
X175435905Y-65693259D01*
X175651941Y-65909295D01*
X175821679Y-66163326D01*
X175938596Y-66445590D01*
X175998200Y-66745240D01*
X175998200Y-67050760D01*
X175938596Y-67350410D01*
X175821679Y-67632674D01*
X175651941Y-67886705D01*
X175435905Y-68102741D01*
X175181874Y-68272479D01*
X174899610Y-68389396D01*
X174749785Y-68419198D01*
X174599961Y-68449000D01*
X174294439Y-68449000D01*
X174144615Y-68419198D01*
X173994790Y-68389396D01*
X173712526Y-68272479D01*
X173458495Y-68102741D01*
X173242459Y-67886705D01*
X173072721Y-67632674D01*
X172955804Y-67350410D01*
X172896200Y-67050760D01*
X172896200Y-66745240D01*
X172955804Y-66445590D01*
X173072721Y-66163326D01*
X173242459Y-65909295D01*
X173458495Y-65693259D01*
X173712526Y-65523521D01*
X173994790Y-65406604D01*
X174144615Y-65376802D01*
X174294439Y-65347000D01*
X174599961Y-65347000D01*
X174749785Y-65376802D01*
X174749785Y-65376802D01*
G37*
G36*
X111568256Y-64039298D02*
G01*
X111674579Y-64060447D01*
X111975042Y-64184903D01*
X112245451Y-64365585D01*
X112475415Y-64595549D01*
X112656097Y-64865958D01*
X112774162Y-65150991D01*
X112780553Y-65166422D01*
X112843812Y-65484443D01*
X112844000Y-65485391D01*
X112844000Y-65810609D01*
X112780553Y-66129579D01*
X112656097Y-66430042D01*
X112475415Y-66700451D01*
X112245451Y-66930415D01*
X111975042Y-67111097D01*
X111674579Y-67235553D01*
X111568256Y-67256702D01*
X111355611Y-67299000D01*
X111030389Y-67299000D01*
X110817744Y-67256702D01*
X110711421Y-67235553D01*
X110410958Y-67111097D01*
X110140549Y-66930415D01*
X109910585Y-66700451D01*
X109729903Y-66430042D01*
X109605447Y-66129579D01*
X109542000Y-65810609D01*
X109542000Y-65485391D01*
X109542189Y-65484443D01*
X109605447Y-65166422D01*
X109611839Y-65150991D01*
X109729903Y-64865958D01*
X109910585Y-64595549D01*
X110140549Y-64365585D01*
X110410958Y-64184903D01*
X110711421Y-64060447D01*
X110817744Y-64039298D01*
X111030389Y-63997000D01*
X111355611Y-63997000D01*
X111568256Y-64039298D01*
X111568256Y-64039298D01*
G37*
G36*
X187568256Y-64039298D02*
G01*
X187674579Y-64060447D01*
X187975042Y-64184903D01*
X188245451Y-64365585D01*
X188475415Y-64595549D01*
X188656097Y-64865958D01*
X188774162Y-65150991D01*
X188780553Y-65166422D01*
X188843812Y-65484443D01*
X188844000Y-65485391D01*
X188844000Y-65810609D01*
X188780553Y-66129579D01*
X188656097Y-66430042D01*
X188475415Y-66700451D01*
X188245451Y-66930415D01*
X187975042Y-67111097D01*
X187674579Y-67235553D01*
X187568256Y-67256702D01*
X187355611Y-67299000D01*
X187030389Y-67299000D01*
X186817744Y-67256702D01*
X186711421Y-67235553D01*
X186410958Y-67111097D01*
X186140549Y-66930415D01*
X185910585Y-66700451D01*
X185729903Y-66430042D01*
X185605447Y-66129579D01*
X185542000Y-65810609D01*
X185542000Y-65485391D01*
X185542189Y-65484443D01*
X185605447Y-65166422D01*
X185611839Y-65150991D01*
X185729903Y-64865958D01*
X185910585Y-64595549D01*
X186140549Y-64365585D01*
X186410958Y-64184903D01*
X186711421Y-64060447D01*
X186817744Y-64039298D01*
X187030389Y-63997000D01*
X187355611Y-63997000D01*
X187568256Y-64039298D01*
X187568256Y-64039298D01*
G37*
G36*
X122523442Y-63753518D02*
G01*
X122589627Y-63760037D01*
X122759466Y-63811557D01*
X122915991Y-63895222D01*
X122951729Y-63924552D01*
X123053186Y-64007814D01*
X123136448Y-64109271D01*
X123165778Y-64145009D01*
X123249443Y-64301534D01*
X123300963Y-64471373D01*
X123318359Y-64648000D01*
X123300963Y-64824627D01*
X123249443Y-64994466D01*
X123165778Y-65150991D01*
X123153114Y-65166422D01*
X123053186Y-65288186D01*
X122951729Y-65371448D01*
X122915991Y-65400778D01*
X122759466Y-65484443D01*
X122589627Y-65535963D01*
X122523443Y-65542481D01*
X122457260Y-65549000D01*
X122368740Y-65549000D01*
X122302557Y-65542481D01*
X122236373Y-65535963D01*
X122066534Y-65484443D01*
X121910009Y-65400778D01*
X121874271Y-65371448D01*
X121772814Y-65288186D01*
X121672886Y-65166422D01*
X121660222Y-65150991D01*
X121576557Y-64994466D01*
X121525037Y-64824627D01*
X121507641Y-64648000D01*
X121525037Y-64471373D01*
X121576557Y-64301534D01*
X121660222Y-64145009D01*
X121689552Y-64109271D01*
X121772814Y-64007814D01*
X121874271Y-63924552D01*
X121910009Y-63895222D01*
X122066534Y-63811557D01*
X122236373Y-63760037D01*
X122302558Y-63753518D01*
X122368740Y-63747000D01*
X122457260Y-63747000D01*
X122523442Y-63753518D01*
X122523442Y-63753518D01*
G37*
G36*
X119983442Y-63753518D02*
G01*
X120049627Y-63760037D01*
X120219466Y-63811557D01*
X120375991Y-63895222D01*
X120411729Y-63924552D01*
X120513186Y-64007814D01*
X120596448Y-64109271D01*
X120625778Y-64145009D01*
X120709443Y-64301534D01*
X120760963Y-64471373D01*
X120778359Y-64648000D01*
X120760963Y-64824627D01*
X120709443Y-64994466D01*
X120625778Y-65150991D01*
X120613114Y-65166422D01*
X120513186Y-65288186D01*
X120411729Y-65371448D01*
X120375991Y-65400778D01*
X120219466Y-65484443D01*
X120049627Y-65535963D01*
X119983443Y-65542481D01*
X119917260Y-65549000D01*
X119828740Y-65549000D01*
X119762557Y-65542481D01*
X119696373Y-65535963D01*
X119526534Y-65484443D01*
X119370009Y-65400778D01*
X119334271Y-65371448D01*
X119232814Y-65288186D01*
X119132886Y-65166422D01*
X119120222Y-65150991D01*
X119036557Y-64994466D01*
X118985037Y-64824627D01*
X118967641Y-64648000D01*
X118985037Y-64471373D01*
X119036557Y-64301534D01*
X119120222Y-64145009D01*
X119149552Y-64109271D01*
X119232814Y-64007814D01*
X119334271Y-63924552D01*
X119370009Y-63895222D01*
X119526534Y-63811557D01*
X119696373Y-63760037D01*
X119762558Y-63753518D01*
X119828740Y-63747000D01*
X119917260Y-63747000D01*
X119983442Y-63753518D01*
X119983442Y-63753518D01*
G37*
G36*
X127603442Y-63753518D02*
G01*
X127669627Y-63760037D01*
X127839466Y-63811557D01*
X127995991Y-63895222D01*
X128031729Y-63924552D01*
X128133186Y-64007814D01*
X128216448Y-64109271D01*
X128245778Y-64145009D01*
X128329443Y-64301534D01*
X128380963Y-64471373D01*
X128398359Y-64648000D01*
X128380963Y-64824627D01*
X128329443Y-64994466D01*
X128245778Y-65150991D01*
X128233114Y-65166422D01*
X128133186Y-65288186D01*
X128031729Y-65371448D01*
X127995991Y-65400778D01*
X127839466Y-65484443D01*
X127669627Y-65535963D01*
X127603443Y-65542481D01*
X127537260Y-65549000D01*
X127448740Y-65549000D01*
X127382557Y-65542481D01*
X127316373Y-65535963D01*
X127146534Y-65484443D01*
X126990009Y-65400778D01*
X126954271Y-65371448D01*
X126852814Y-65288186D01*
X126752886Y-65166422D01*
X126740222Y-65150991D01*
X126656557Y-64994466D01*
X126605037Y-64824627D01*
X126587641Y-64648000D01*
X126605037Y-64471373D01*
X126656557Y-64301534D01*
X126740222Y-64145009D01*
X126769552Y-64109271D01*
X126852814Y-64007814D01*
X126954271Y-63924552D01*
X126990009Y-63895222D01*
X127146534Y-63811557D01*
X127316373Y-63760037D01*
X127382558Y-63753518D01*
X127448740Y-63747000D01*
X127537260Y-63747000D01*
X127603442Y-63753518D01*
X127603442Y-63753518D01*
G37*
G36*
X130143442Y-63753518D02*
G01*
X130209627Y-63760037D01*
X130379466Y-63811557D01*
X130535991Y-63895222D01*
X130571729Y-63924552D01*
X130673186Y-64007814D01*
X130756448Y-64109271D01*
X130785778Y-64145009D01*
X130869443Y-64301534D01*
X130920963Y-64471373D01*
X130938359Y-64648000D01*
X130920963Y-64824627D01*
X130869443Y-64994466D01*
X130785778Y-65150991D01*
X130773114Y-65166422D01*
X130673186Y-65288186D01*
X130571729Y-65371448D01*
X130535991Y-65400778D01*
X130379466Y-65484443D01*
X130209627Y-65535963D01*
X130143443Y-65542481D01*
X130077260Y-65549000D01*
X129988740Y-65549000D01*
X129922557Y-65542481D01*
X129856373Y-65535963D01*
X129686534Y-65484443D01*
X129530009Y-65400778D01*
X129494271Y-65371448D01*
X129392814Y-65288186D01*
X129292886Y-65166422D01*
X129280222Y-65150991D01*
X129196557Y-64994466D01*
X129145037Y-64824627D01*
X129127641Y-64648000D01*
X129145037Y-64471373D01*
X129196557Y-64301534D01*
X129280222Y-64145009D01*
X129309552Y-64109271D01*
X129392814Y-64007814D01*
X129494271Y-63924552D01*
X129530009Y-63895222D01*
X129686534Y-63811557D01*
X129856373Y-63760037D01*
X129922558Y-63753518D01*
X129988740Y-63747000D01*
X130077260Y-63747000D01*
X130143442Y-63753518D01*
X130143442Y-63753518D01*
G37*
G36*
X132683442Y-63753518D02*
G01*
X132749627Y-63760037D01*
X132919466Y-63811557D01*
X133075991Y-63895222D01*
X133111729Y-63924552D01*
X133213186Y-64007814D01*
X133296448Y-64109271D01*
X133325778Y-64145009D01*
X133409443Y-64301534D01*
X133460963Y-64471373D01*
X133478359Y-64648000D01*
X133460963Y-64824627D01*
X133409443Y-64994466D01*
X133325778Y-65150991D01*
X133313114Y-65166422D01*
X133213186Y-65288186D01*
X133111729Y-65371448D01*
X133075991Y-65400778D01*
X132919466Y-65484443D01*
X132749627Y-65535963D01*
X132683443Y-65542481D01*
X132617260Y-65549000D01*
X132528740Y-65549000D01*
X132462557Y-65542481D01*
X132396373Y-65535963D01*
X132226534Y-65484443D01*
X132070009Y-65400778D01*
X132034271Y-65371448D01*
X131932814Y-65288186D01*
X131832886Y-65166422D01*
X131820222Y-65150991D01*
X131736557Y-64994466D01*
X131685037Y-64824627D01*
X131667641Y-64648000D01*
X131685037Y-64471373D01*
X131736557Y-64301534D01*
X131820222Y-64145009D01*
X131849552Y-64109271D01*
X131932814Y-64007814D01*
X132034271Y-63924552D01*
X132070009Y-63895222D01*
X132226534Y-63811557D01*
X132396373Y-63760037D01*
X132462558Y-63753518D01*
X132528740Y-63747000D01*
X132617260Y-63747000D01*
X132683442Y-63753518D01*
X132683442Y-63753518D01*
G37*
G36*
X135223442Y-63753518D02*
G01*
X135289627Y-63760037D01*
X135459466Y-63811557D01*
X135615991Y-63895222D01*
X135651729Y-63924552D01*
X135753186Y-64007814D01*
X135836448Y-64109271D01*
X135865778Y-64145009D01*
X135949443Y-64301534D01*
X136000963Y-64471373D01*
X136018359Y-64648000D01*
X136000963Y-64824627D01*
X135949443Y-64994466D01*
X135865778Y-65150991D01*
X135853114Y-65166422D01*
X135753186Y-65288186D01*
X135651729Y-65371448D01*
X135615991Y-65400778D01*
X135459466Y-65484443D01*
X135289627Y-65535963D01*
X135223443Y-65542481D01*
X135157260Y-65549000D01*
X135068740Y-65549000D01*
X135002557Y-65542481D01*
X134936373Y-65535963D01*
X134766534Y-65484443D01*
X134610009Y-65400778D01*
X134574271Y-65371448D01*
X134472814Y-65288186D01*
X134372886Y-65166422D01*
X134360222Y-65150991D01*
X134276557Y-64994466D01*
X134225037Y-64824627D01*
X134207641Y-64648000D01*
X134225037Y-64471373D01*
X134276557Y-64301534D01*
X134360222Y-64145009D01*
X134389552Y-64109271D01*
X134472814Y-64007814D01*
X134574271Y-63924552D01*
X134610009Y-63895222D01*
X134766534Y-63811557D01*
X134936373Y-63760037D01*
X135002558Y-63753518D01*
X135068740Y-63747000D01*
X135157260Y-63747000D01*
X135223442Y-63753518D01*
X135223442Y-63753518D01*
G37*
G36*
X137763442Y-63753518D02*
G01*
X137829627Y-63760037D01*
X137999466Y-63811557D01*
X138155991Y-63895222D01*
X138191729Y-63924552D01*
X138293186Y-64007814D01*
X138376448Y-64109271D01*
X138405778Y-64145009D01*
X138489443Y-64301534D01*
X138540963Y-64471373D01*
X138558359Y-64648000D01*
X138540963Y-64824627D01*
X138489443Y-64994466D01*
X138405778Y-65150991D01*
X138393114Y-65166422D01*
X138293186Y-65288186D01*
X138191729Y-65371448D01*
X138155991Y-65400778D01*
X137999466Y-65484443D01*
X137829627Y-65535963D01*
X137763443Y-65542481D01*
X137697260Y-65549000D01*
X137608740Y-65549000D01*
X137542557Y-65542481D01*
X137476373Y-65535963D01*
X137306534Y-65484443D01*
X137150009Y-65400778D01*
X137114271Y-65371448D01*
X137012814Y-65288186D01*
X136912886Y-65166422D01*
X136900222Y-65150991D01*
X136816557Y-64994466D01*
X136765037Y-64824627D01*
X136747641Y-64648000D01*
X136765037Y-64471373D01*
X136816557Y-64301534D01*
X136900222Y-64145009D01*
X136929552Y-64109271D01*
X137012814Y-64007814D01*
X137114271Y-63924552D01*
X137150009Y-63895222D01*
X137306534Y-63811557D01*
X137476373Y-63760037D01*
X137542558Y-63753518D01*
X137608740Y-63747000D01*
X137697260Y-63747000D01*
X137763442Y-63753518D01*
X137763442Y-63753518D01*
G37*
G36*
X125063442Y-63753518D02*
G01*
X125129627Y-63760037D01*
X125299466Y-63811557D01*
X125455991Y-63895222D01*
X125491729Y-63924552D01*
X125593186Y-64007814D01*
X125676448Y-64109271D01*
X125705778Y-64145009D01*
X125789443Y-64301534D01*
X125840963Y-64471373D01*
X125858359Y-64648000D01*
X125840963Y-64824627D01*
X125789443Y-64994466D01*
X125705778Y-65150991D01*
X125693114Y-65166422D01*
X125593186Y-65288186D01*
X125491729Y-65371448D01*
X125455991Y-65400778D01*
X125299466Y-65484443D01*
X125129627Y-65535963D01*
X125063443Y-65542481D01*
X124997260Y-65549000D01*
X124908740Y-65549000D01*
X124842557Y-65542481D01*
X124776373Y-65535963D01*
X124606534Y-65484443D01*
X124450009Y-65400778D01*
X124414271Y-65371448D01*
X124312814Y-65288186D01*
X124212886Y-65166422D01*
X124200222Y-65150991D01*
X124116557Y-64994466D01*
X124065037Y-64824627D01*
X124047641Y-64648000D01*
X124065037Y-64471373D01*
X124116557Y-64301534D01*
X124200222Y-64145009D01*
X124229552Y-64109271D01*
X124312814Y-64007814D01*
X124414271Y-63924552D01*
X124450009Y-63895222D01*
X124606534Y-63811557D01*
X124776373Y-63760037D01*
X124842558Y-63753518D01*
X124908740Y-63747000D01*
X124997260Y-63747000D01*
X125063442Y-63753518D01*
X125063442Y-63753518D01*
G37*
G36*
X168310942Y-63753518D02*
G01*
X168377127Y-63760037D01*
X168546966Y-63811557D01*
X168703491Y-63895222D01*
X168739229Y-63924552D01*
X168840686Y-64007814D01*
X168923948Y-64109271D01*
X168953278Y-64145009D01*
X169036943Y-64301534D01*
X169088463Y-64471373D01*
X169105859Y-64648000D01*
X169088463Y-64824627D01*
X169036943Y-64994466D01*
X168953278Y-65150991D01*
X168940614Y-65166422D01*
X168840686Y-65288186D01*
X168739229Y-65371448D01*
X168703491Y-65400778D01*
X168546966Y-65484443D01*
X168377127Y-65535963D01*
X168310943Y-65542481D01*
X168244760Y-65549000D01*
X168156240Y-65549000D01*
X168090057Y-65542481D01*
X168023873Y-65535963D01*
X167854034Y-65484443D01*
X167697509Y-65400778D01*
X167661771Y-65371448D01*
X167560314Y-65288186D01*
X167460386Y-65166422D01*
X167447722Y-65150991D01*
X167364057Y-64994466D01*
X167312537Y-64824627D01*
X167295141Y-64648000D01*
X167312537Y-64471373D01*
X167364057Y-64301534D01*
X167447722Y-64145009D01*
X167477052Y-64109271D01*
X167560314Y-64007814D01*
X167661771Y-63924552D01*
X167697509Y-63895222D01*
X167854034Y-63811557D01*
X168023873Y-63760037D01*
X168090058Y-63753518D01*
X168156240Y-63747000D01*
X168244760Y-63747000D01*
X168310942Y-63753518D01*
X168310942Y-63753518D01*
G37*
G36*
X166561500Y-65549000D02*
G01*
X164759500Y-65549000D01*
X164759500Y-63747000D01*
X166561500Y-63747000D01*
X166561500Y-65549000D01*
X166561500Y-65549000D01*
G37*
G36*
X158939000Y-65549000D02*
G01*
X157137000Y-65549000D01*
X157137000Y-63747000D01*
X158939000Y-63747000D01*
X158939000Y-65549000D01*
X158939000Y-65549000D01*
G37*
G36*
X160688442Y-63753518D02*
G01*
X160754627Y-63760037D01*
X160924466Y-63811557D01*
X161080991Y-63895222D01*
X161116729Y-63924552D01*
X161218186Y-64007814D01*
X161301448Y-64109271D01*
X161330778Y-64145009D01*
X161414443Y-64301534D01*
X161465963Y-64471373D01*
X161483359Y-64648000D01*
X161465963Y-64824627D01*
X161414443Y-64994466D01*
X161330778Y-65150991D01*
X161318114Y-65166422D01*
X161218186Y-65288186D01*
X161116729Y-65371448D01*
X161080991Y-65400778D01*
X160924466Y-65484443D01*
X160754627Y-65535963D01*
X160688443Y-65542481D01*
X160622260Y-65549000D01*
X160533740Y-65549000D01*
X160467557Y-65542481D01*
X160401373Y-65535963D01*
X160231534Y-65484443D01*
X160075009Y-65400778D01*
X160039271Y-65371448D01*
X159937814Y-65288186D01*
X159837886Y-65166422D01*
X159825222Y-65150991D01*
X159741557Y-64994466D01*
X159690037Y-64824627D01*
X159672641Y-64648000D01*
X159690037Y-64471373D01*
X159741557Y-64301534D01*
X159825222Y-64145009D01*
X159854552Y-64109271D01*
X159937814Y-64007814D01*
X160039271Y-63924552D01*
X160075009Y-63895222D01*
X160231534Y-63811557D01*
X160401373Y-63760037D01*
X160467558Y-63753518D01*
X160533740Y-63747000D01*
X160622260Y-63747000D01*
X160688442Y-63753518D01*
X160688442Y-63753518D01*
G37*
G36*
X146216500Y-65549000D02*
G01*
X144414500Y-65549000D01*
X144414500Y-63747000D01*
X146216500Y-63747000D01*
X146216500Y-65549000D01*
X146216500Y-65549000D01*
G37*
G36*
X147965942Y-63753518D02*
G01*
X148032127Y-63760037D01*
X148201966Y-63811557D01*
X148358491Y-63895222D01*
X148394229Y-63924552D01*
X148495686Y-64007814D01*
X148578948Y-64109271D01*
X148608278Y-64145009D01*
X148691943Y-64301534D01*
X148743463Y-64471373D01*
X148760859Y-64648000D01*
X148743463Y-64824627D01*
X148691943Y-64994466D01*
X148608278Y-65150991D01*
X148595614Y-65166422D01*
X148495686Y-65288186D01*
X148394229Y-65371448D01*
X148358491Y-65400778D01*
X148201966Y-65484443D01*
X148032127Y-65535963D01*
X147965943Y-65542481D01*
X147899760Y-65549000D01*
X147811240Y-65549000D01*
X147745057Y-65542481D01*
X147678873Y-65535963D01*
X147509034Y-65484443D01*
X147352509Y-65400778D01*
X147316771Y-65371448D01*
X147215314Y-65288186D01*
X147115386Y-65166422D01*
X147102722Y-65150991D01*
X147019057Y-64994466D01*
X146967537Y-64824627D01*
X146950141Y-64648000D01*
X146967537Y-64471373D01*
X147019057Y-64301534D01*
X147102722Y-64145009D01*
X147132052Y-64109271D01*
X147215314Y-64007814D01*
X147316771Y-63924552D01*
X147352509Y-63895222D01*
X147509034Y-63811557D01*
X147678873Y-63760037D01*
X147745058Y-63753518D01*
X147811240Y-63747000D01*
X147899760Y-63747000D01*
X147965942Y-63753518D01*
X147965942Y-63753518D01*
G37*
G36*
X150505942Y-63753518D02*
G01*
X150572127Y-63760037D01*
X150741966Y-63811557D01*
X150898491Y-63895222D01*
X150934229Y-63924552D01*
X151035686Y-64007814D01*
X151118948Y-64109271D01*
X151148278Y-64145009D01*
X151231943Y-64301534D01*
X151283463Y-64471373D01*
X151300859Y-64648000D01*
X151283463Y-64824627D01*
X151231943Y-64994466D01*
X151148278Y-65150991D01*
X151135614Y-65166422D01*
X151035686Y-65288186D01*
X150934229Y-65371448D01*
X150898491Y-65400778D01*
X150741966Y-65484443D01*
X150572127Y-65535963D01*
X150505943Y-65542481D01*
X150439760Y-65549000D01*
X150351240Y-65549000D01*
X150285057Y-65542481D01*
X150218873Y-65535963D01*
X150049034Y-65484443D01*
X149892509Y-65400778D01*
X149856771Y-65371448D01*
X149755314Y-65288186D01*
X149655386Y-65166422D01*
X149642722Y-65150991D01*
X149559057Y-64994466D01*
X149507537Y-64824627D01*
X149490141Y-64648000D01*
X149507537Y-64471373D01*
X149559057Y-64301534D01*
X149642722Y-64145009D01*
X149672052Y-64109271D01*
X149755314Y-64007814D01*
X149856771Y-63924552D01*
X149892509Y-63895222D01*
X150049034Y-63811557D01*
X150218873Y-63760037D01*
X150285058Y-63753518D01*
X150351240Y-63747000D01*
X150439760Y-63747000D01*
X150505942Y-63753518D01*
X150505942Y-63753518D01*
G37*
G36*
X153045942Y-63753518D02*
G01*
X153112127Y-63760037D01*
X153281966Y-63811557D01*
X153438491Y-63895222D01*
X153474229Y-63924552D01*
X153575686Y-64007814D01*
X153658948Y-64109271D01*
X153688278Y-64145009D01*
X153771943Y-64301534D01*
X153823463Y-64471373D01*
X153840859Y-64648000D01*
X153823463Y-64824627D01*
X153771943Y-64994466D01*
X153688278Y-65150991D01*
X153675614Y-65166422D01*
X153575686Y-65288186D01*
X153474229Y-65371448D01*
X153438491Y-65400778D01*
X153281966Y-65484443D01*
X153112127Y-65535963D01*
X153045943Y-65542481D01*
X152979760Y-65549000D01*
X152891240Y-65549000D01*
X152825057Y-65542481D01*
X152758873Y-65535963D01*
X152589034Y-65484443D01*
X152432509Y-65400778D01*
X152396771Y-65371448D01*
X152295314Y-65288186D01*
X152195386Y-65166422D01*
X152182722Y-65150991D01*
X152099057Y-64994466D01*
X152047537Y-64824627D01*
X152030141Y-64648000D01*
X152047537Y-64471373D01*
X152099057Y-64301534D01*
X152182722Y-64145009D01*
X152212052Y-64109271D01*
X152295314Y-64007814D01*
X152396771Y-63924552D01*
X152432509Y-63895222D01*
X152589034Y-63811557D01*
X152758873Y-63760037D01*
X152825058Y-63753518D01*
X152891240Y-63747000D01*
X152979760Y-63747000D01*
X153045942Y-63753518D01*
X153045942Y-63753518D01*
G37*
G36*
X141094000Y-65549000D02*
G01*
X139292000Y-65549000D01*
X139292000Y-63747000D01*
X141094000Y-63747000D01*
X141094000Y-65549000D01*
X141094000Y-65549000D01*
G37*
G36*
X117443442Y-63753518D02*
G01*
X117509627Y-63760037D01*
X117679466Y-63811557D01*
X117835991Y-63895222D01*
X117871729Y-63924552D01*
X117973186Y-64007814D01*
X118056448Y-64109271D01*
X118085778Y-64145009D01*
X118169443Y-64301534D01*
X118220963Y-64471373D01*
X118238359Y-64648000D01*
X118220963Y-64824627D01*
X118169443Y-64994466D01*
X118085778Y-65150991D01*
X118073114Y-65166422D01*
X117973186Y-65288186D01*
X117871729Y-65371448D01*
X117835991Y-65400778D01*
X117679466Y-65484443D01*
X117509627Y-65535963D01*
X117443443Y-65542481D01*
X117377260Y-65549000D01*
X117288740Y-65549000D01*
X117222557Y-65542481D01*
X117156373Y-65535963D01*
X116986534Y-65484443D01*
X116830009Y-65400778D01*
X116794271Y-65371448D01*
X116692814Y-65288186D01*
X116592886Y-65166422D01*
X116580222Y-65150991D01*
X116496557Y-64994466D01*
X116445037Y-64824627D01*
X116427641Y-64648000D01*
X116445037Y-64471373D01*
X116496557Y-64301534D01*
X116580222Y-64145009D01*
X116609552Y-64109271D01*
X116692814Y-64007814D01*
X116794271Y-63924552D01*
X116830009Y-63895222D01*
X116986534Y-63811557D01*
X117156373Y-63760037D01*
X117222558Y-63753518D01*
X117288740Y-63747000D01*
X117377260Y-63747000D01*
X117443442Y-63753518D01*
X117443442Y-63753518D01*
G37*
M02*
