G04 #@! TF.GenerationSoftware,KiCad,Pcbnew,(5.1.2)-1*
G04 #@! TF.CreationDate,2019-06-29T15:08:14-05:00*
G04 #@! TF.ProjectId,TPDSI_1,54504453-495f-4312-9e6b-696361645f70,1.3*
G04 #@! TF.SameCoordinates,Original*
G04 #@! TF.FileFunction,Drawing*
%FSLAX46Y46*%
G04 Gerber Fmt 4.6, Leading zero omitted, Abs format (unit mm)*
G04 Created by KiCad (PCBNEW (5.1.2)-1) date 2019-06-29 15:08:14*
%MOMM*%
%LPD*%
G04 APERTURE LIST*
%ADD10C,0.150000*%
G04 APERTURE END LIST*
D10*
X145547619Y-59080952D02*
X145452380Y-59033333D01*
X145404761Y-58985714D01*
X145357142Y-58890476D01*
X145357142Y-58842857D01*
X145404761Y-58747619D01*
X145452380Y-58700000D01*
X145547619Y-58652380D01*
X145738095Y-58652380D01*
X145833333Y-58700000D01*
X145880952Y-58747619D01*
X145928571Y-58842857D01*
X145928571Y-58890476D01*
X145880952Y-58985714D01*
X145833333Y-59033333D01*
X145738095Y-59080952D01*
X145547619Y-59080952D01*
X145452380Y-59128571D01*
X145404761Y-59176190D01*
X145357142Y-59271428D01*
X145357142Y-59461904D01*
X145404761Y-59557142D01*
X145452380Y-59604761D01*
X145547619Y-59652380D01*
X145738095Y-59652380D01*
X145833333Y-59604761D01*
X145880952Y-59557142D01*
X145928571Y-59461904D01*
X145928571Y-59271428D01*
X145880952Y-59176190D01*
X145833333Y-59128571D01*
X145738095Y-59080952D01*
X146833333Y-58652380D02*
X146357142Y-58652380D01*
X146309523Y-59128571D01*
X146357142Y-59080952D01*
X146452380Y-59033333D01*
X146690476Y-59033333D01*
X146785714Y-59080952D01*
X146833333Y-59128571D01*
X146880952Y-59223809D01*
X146880952Y-59461904D01*
X146833333Y-59557142D01*
X146785714Y-59604761D01*
X146690476Y-59652380D01*
X146452380Y-59652380D01*
X146357142Y-59604761D01*
X146309523Y-59557142D01*
X147309523Y-59557142D02*
X147357142Y-59604761D01*
X147309523Y-59652380D01*
X147261904Y-59604761D01*
X147309523Y-59557142D01*
X147309523Y-59652380D01*
X147976190Y-58652380D02*
X148071428Y-58652380D01*
X148166666Y-58700000D01*
X148214285Y-58747619D01*
X148261904Y-58842857D01*
X148309523Y-59033333D01*
X148309523Y-59271428D01*
X148261904Y-59461904D01*
X148214285Y-59557142D01*
X148166666Y-59604761D01*
X148071428Y-59652380D01*
X147976190Y-59652380D01*
X147880952Y-59604761D01*
X147833333Y-59557142D01*
X147785714Y-59461904D01*
X147738095Y-59271428D01*
X147738095Y-59033333D01*
X147785714Y-58842857D01*
X147833333Y-58747619D01*
X147880952Y-58700000D01*
X147976190Y-58652380D01*
X148928571Y-58652380D02*
X149023809Y-58652380D01*
X149119047Y-58700000D01*
X149166666Y-58747619D01*
X149214285Y-58842857D01*
X149261904Y-59033333D01*
X149261904Y-59271428D01*
X149214285Y-59461904D01*
X149166666Y-59557142D01*
X149119047Y-59604761D01*
X149023809Y-59652380D01*
X148928571Y-59652380D01*
X148833333Y-59604761D01*
X148785714Y-59557142D01*
X148738095Y-59461904D01*
X148690476Y-59271428D01*
X148690476Y-59033333D01*
X148738095Y-58842857D01*
X148785714Y-58747619D01*
X148833333Y-58700000D01*
X148928571Y-58652380D01*
X149880952Y-58652380D02*
X149976190Y-58652380D01*
X150071428Y-58700000D01*
X150119047Y-58747619D01*
X150166666Y-58842857D01*
X150214285Y-59033333D01*
X150214285Y-59271428D01*
X150166666Y-59461904D01*
X150119047Y-59557142D01*
X150071428Y-59604761D01*
X149976190Y-59652380D01*
X149880952Y-59652380D01*
X149785714Y-59604761D01*
X149738095Y-59557142D01*
X149690476Y-59461904D01*
X149642857Y-59271428D01*
X149642857Y-59033333D01*
X149690476Y-58842857D01*
X149738095Y-58747619D01*
X149785714Y-58700000D01*
X149880952Y-58652380D01*
X151404761Y-59652380D02*
X151404761Y-58985714D01*
X151404761Y-59080952D02*
X151452380Y-59033333D01*
X151547619Y-58985714D01*
X151690476Y-58985714D01*
X151785714Y-59033333D01*
X151833333Y-59128571D01*
X151833333Y-59652380D01*
X151833333Y-59128571D02*
X151880952Y-59033333D01*
X151976190Y-58985714D01*
X152119047Y-58985714D01*
X152214285Y-59033333D01*
X152261904Y-59128571D01*
X152261904Y-59652380D01*
X152738095Y-59652380D02*
X152738095Y-58985714D01*
X152738095Y-59080952D02*
X152785714Y-59033333D01*
X152880952Y-58985714D01*
X153023809Y-58985714D01*
X153119047Y-59033333D01*
X153166666Y-59128571D01*
X153166666Y-59652380D01*
X153166666Y-59128571D02*
X153214285Y-59033333D01*
X153309523Y-58985714D01*
X153452380Y-58985714D01*
X153547619Y-59033333D01*
X153595238Y-59128571D01*
X153595238Y-59652380D01*
X107000000Y-60500000D02*
X192000000Y-60500000D01*
X107000000Y-61500000D02*
X107000000Y-59913579D01*
X192000000Y-61500000D02*
X192000000Y-59913579D01*
X192000000Y-60500000D02*
X190873496Y-61086421D01*
X192000000Y-60500000D02*
X190873496Y-59913579D01*
X107000000Y-60500000D02*
X108126504Y-61086421D01*
X107000000Y-60500000D02*
X108126504Y-59913579D01*
X194847619Y-89083333D02*
X194847619Y-88892857D01*
X194800000Y-88797619D01*
X194752380Y-88750000D01*
X194609523Y-88654761D01*
X194419047Y-88607142D01*
X194038095Y-88607142D01*
X193942857Y-88654761D01*
X193895238Y-88702380D01*
X193847619Y-88797619D01*
X193847619Y-88988095D01*
X193895238Y-89083333D01*
X193942857Y-89130952D01*
X194038095Y-89178571D01*
X194276190Y-89178571D01*
X194371428Y-89130952D01*
X194419047Y-89083333D01*
X194466666Y-88988095D01*
X194466666Y-88797619D01*
X194419047Y-88702380D01*
X194371428Y-88654761D01*
X194276190Y-88607142D01*
X194752380Y-89559523D02*
X194800000Y-89607142D01*
X194847619Y-89702380D01*
X194847619Y-89940476D01*
X194800000Y-90035714D01*
X194752380Y-90083333D01*
X194657142Y-90130952D01*
X194561904Y-90130952D01*
X194419047Y-90083333D01*
X193847619Y-89511904D01*
X193847619Y-90130952D01*
X193942857Y-90559523D02*
X193895238Y-90607142D01*
X193847619Y-90559523D01*
X193895238Y-90511904D01*
X193942857Y-90559523D01*
X193847619Y-90559523D01*
X194847619Y-91511904D02*
X194847619Y-91035714D01*
X194371428Y-90988095D01*
X194419047Y-91035714D01*
X194466666Y-91130952D01*
X194466666Y-91369047D01*
X194419047Y-91464285D01*
X194371428Y-91511904D01*
X194276190Y-91559523D01*
X194038095Y-91559523D01*
X193942857Y-91511904D01*
X193895238Y-91464285D01*
X193847619Y-91369047D01*
X193847619Y-91130952D01*
X193895238Y-91035714D01*
X193942857Y-90988095D01*
X194847619Y-92178571D02*
X194847619Y-92273809D01*
X194800000Y-92369047D01*
X194752380Y-92416666D01*
X194657142Y-92464285D01*
X194466666Y-92511904D01*
X194228571Y-92511904D01*
X194038095Y-92464285D01*
X193942857Y-92416666D01*
X193895238Y-92369047D01*
X193847619Y-92273809D01*
X193847619Y-92178571D01*
X193895238Y-92083333D01*
X193942857Y-92035714D01*
X194038095Y-91988095D01*
X194228571Y-91940476D01*
X194466666Y-91940476D01*
X194657142Y-91988095D01*
X194752380Y-92035714D01*
X194800000Y-92083333D01*
X194847619Y-92178571D01*
X194847619Y-93130952D02*
X194847619Y-93226190D01*
X194800000Y-93321428D01*
X194752380Y-93369047D01*
X194657142Y-93416666D01*
X194466666Y-93464285D01*
X194228571Y-93464285D01*
X194038095Y-93416666D01*
X193942857Y-93369047D01*
X193895238Y-93321428D01*
X193847619Y-93226190D01*
X193847619Y-93130952D01*
X193895238Y-93035714D01*
X193942857Y-92988095D01*
X194038095Y-92940476D01*
X194228571Y-92892857D01*
X194466666Y-92892857D01*
X194657142Y-92940476D01*
X194752380Y-92988095D01*
X194800000Y-93035714D01*
X194847619Y-93130952D01*
X193847619Y-94654761D02*
X194514285Y-94654761D01*
X194419047Y-94654761D02*
X194466666Y-94702380D01*
X194514285Y-94797619D01*
X194514285Y-94940476D01*
X194466666Y-95035714D01*
X194371428Y-95083333D01*
X193847619Y-95083333D01*
X194371428Y-95083333D02*
X194466666Y-95130952D01*
X194514285Y-95226190D01*
X194514285Y-95369047D01*
X194466666Y-95464285D01*
X194371428Y-95511904D01*
X193847619Y-95511904D01*
X193847619Y-95988095D02*
X194514285Y-95988095D01*
X194419047Y-95988095D02*
X194466666Y-96035714D01*
X194514285Y-96130952D01*
X194514285Y-96273809D01*
X194466666Y-96369047D01*
X194371428Y-96416666D01*
X193847619Y-96416666D01*
X194371428Y-96416666D02*
X194466666Y-96464285D01*
X194514285Y-96559523D01*
X194514285Y-96702380D01*
X194466666Y-96797619D01*
X194371428Y-96845238D01*
X193847619Y-96845238D01*
X193000000Y-61500000D02*
X193000000Y-124000000D01*
X192000000Y-61500000D02*
X193586421Y-61500000D01*
X192000000Y-124000000D02*
X193586421Y-124000000D01*
X193000000Y-124000000D02*
X192413579Y-122873496D01*
X193000000Y-124000000D02*
X193586421Y-122873496D01*
X193000000Y-61500000D02*
X192413579Y-62626504D01*
X193000000Y-61500000D02*
X193586421Y-62626504D01*
M02*
